<svg width="1280" height="370" viewBox="0 0 1280 370" fill="none" xmlns="http://www.w3.org/2000/svg">
<g clip-path="url(#clip0)">
<path d="M1280 0H0V370H1280V0Z" fill="white"/>
<path d="M1280 0H0V370H1280V0Z" fill="url(#paint0_linear)"/>
<g opacity="0.8">
<mask id="mask0" mask-type="alpha" maskUnits="userSpaceOnUse" x="0" y="0" width="215" height="333">
<g opacity="0.8">
<path opacity="0.8" d="M214.728 0H0V332.829H214.728V0Z" fill="url(#paint1_linear)"/>
</g>
</mask>
<g mask="url(#mask0)">
<g opacity="0.8">
<path opacity="0.8" d="M-68.2942 -48.9398C-70.666 -53.0479 -75.9191 -54.4555 -80.0272 -52.0836C-84.1353 -49.7118 -85.5428 -44.4588 -83.171 -40.3507L117.65 307.482C120.022 311.59 125.275 312.997 129.383 310.625C133.491 308.254 134.899 303.001 132.527 298.892L-68.2942 -48.9398Z" fill="#E91555"/>
<path opacity="0.8" d="M-59.4796 -93.7965C-61.8514 -97.9046 -67.1045 -99.3121 -71.2126 -96.9403C-75.3207 -94.5685 -76.7283 -89.3155 -74.3564 -85.2073L126.465 262.625C128.836 266.733 134.089 268.141 138.198 265.769C142.306 263.397 143.713 258.144 141.341 254.036L-59.4796 -93.7965Z" fill="#FF6B00"/>
<path opacity="0.8" d="M-50.7562 -138.812C-53.1281 -142.92 -58.3811 -144.327 -62.4892 -141.955C-66.5973 -139.584 -68.0049 -134.331 -65.633 -130.222L135.188 217.61C137.56 221.718 142.813 223.125 146.921 220.754C151.029 218.382 152.437 213.129 150.065 209.021L-50.7562 -138.812Z" fill="#FFD600"/>
<path opacity="0.8" d="M-42.0331 -183.826C-44.4049 -187.934 -49.6579 -189.342 -53.7661 -186.97C-57.8742 -184.598 -59.2817 -179.345 -56.9099 -175.237L143.911 172.595C146.283 176.703 151.536 178.111 155.644 175.739C159.752 173.367 161.16 168.114 158.788 164.006L-42.0331 -183.826Z" fill="#10DF6F"/>
<path opacity="0.8" d="M-33.3098 -228.841C-35.6816 -232.949 -40.9347 -234.357 -45.0428 -231.985C-49.1509 -229.613 -50.5585 -224.36 -48.1866 -220.252L152.634 127.58C155.006 131.688 160.259 133.096 164.367 130.724C168.475 128.352 169.883 123.099 167.511 118.991L-33.3098 -228.841Z" fill="#1080FB"/>
<path opacity="0.8" d="M-24.5864 -273.856C-26.9583 -277.964 -32.2113 -279.371 -36.3194 -276.999C-40.4275 -274.628 -41.8351 -269.375 -39.4632 -265.266L161.358 82.5657C163.73 86.6739 168.983 88.0814 173.091 85.7096C177.199 83.3378 178.606 78.0847 176.235 73.9766L-24.5864 -273.856Z" fill="#A015EE"/>
</g>
</g>
</g>
<g opacity="0.8">
<mask id="mask1" mask-type="alpha" maskUnits="userSpaceOnUse" x="1065" y="19" width="215" height="333">
<g opacity="0.8">
<path opacity="0.8" d="M1065.17 351.829H1279.9V19.0001H1065.17V351.829Z" fill="url(#paint2_linear)"/>
</g>
</mask>
<g mask="url(#mask1)">
<g opacity="0.8">
<path opacity="0.8" d="M1348.2 400.769C1350.57 404.877 1355.82 406.284 1359.93 403.913C1364.04 401.541 1365.45 396.288 1363.07 392.18L1162.25 44.3475C1159.88 40.2394 1154.63 38.8318 1150.52 41.2036C1146.41 43.5755 1145 48.8285 1147.38 52.9366L1348.2 400.769Z" fill="#E91555"/>
<path opacity="0.8" d="M1339.38 445.626C1341.75 449.734 1347 451.142 1351.11 448.77C1355.22 446.398 1356.63 441.145 1354.26 437.037L1153.44 89.2045C1151.06 85.0963 1145.81 83.6888 1141.7 86.0607C1137.59 88.4325 1136.19 93.6855 1138.56 97.7936L1339.38 445.626Z" fill="#FF6B00"/>
<path opacity="0.8" d="M1330.66 490.641C1333.03 494.749 1338.28 496.157 1342.39 493.785C1346.5 491.413 1347.91 486.16 1345.53 482.052L1144.71 134.22C1142.34 130.112 1137.09 128.704 1132.98 131.076C1128.87 133.448 1127.46 138.701 1129.84 142.809L1330.66 490.641Z" fill="#FFD600"/>
<path opacity="0.8" d="M1321.93 535.656C1324.31 539.764 1329.56 541.171 1333.67 538.799C1337.77 536.428 1339.18 531.175 1336.81 527.066L1135.99 179.234C1133.62 175.126 1128.36 173.719 1124.26 176.09C1120.15 178.462 1118.74 183.715 1121.11 187.823L1321.93 535.656Z" fill="#10DF6F"/>
<path opacity="0.8" d="M1313.21 580.671C1315.58 584.779 1320.83 586.186 1324.94 583.815C1329.05 581.443 1330.46 576.19 1328.09 572.082L1127.27 224.249C1124.89 220.141 1119.64 218.734 1115.53 221.106C1111.42 223.477 1110.02 228.73 1112.39 232.839L1313.21 580.671Z" fill="#1080FB"/>
<path opacity="0.8" d="M1304.49 625.685C1306.86 629.793 1312.11 631.201 1316.22 628.829C1320.33 626.457 1321.74 621.204 1319.36 617.096L1118.54 269.264C1116.17 265.155 1110.92 263.748 1106.81 266.12C1102.7 268.492 1101.29 273.745 1103.67 277.853L1304.49 625.685Z" fill="#A015EE"/>
</g>
</g>
</g>
<path d="M234.969 174H245.058V160.078H249.962C258.867 160.078 266.532 155.682 266.532 145.706C266.532 135.335 258.923 132.009 249.736 132.009H234.969V174ZM245.058 152.131V140.013H249.172C254.02 140.013 256.725 141.478 256.725 145.706C256.725 149.82 254.358 152.131 249.454 152.131H245.058ZM273.664 174H283.753V159.233H288.6L296.322 174H307.594L298.238 157.373C302.578 155.344 305.453 151.398 305.453 145.255C305.453 135.109 298.013 132.009 289.051 132.009H273.664V174ZM283.753 151.286V140.013H288.262C293.053 140.013 295.645 141.309 295.645 145.255C295.645 149.2 293.053 151.286 288.262 151.286H283.753ZM330.873 174.789C342.315 174.789 350.093 166.56 350.093 152.807C350.093 139.111 342.315 131.277 330.873 131.277C319.431 131.277 311.653 139.055 311.653 152.807C311.653 166.56 319.431 174.789 330.873 174.789ZM330.873 166.109C325.349 166.109 321.968 160.924 321.968 152.807C321.968 144.691 325.349 139.9 330.873 139.9C336.397 139.9 339.835 144.691 339.835 152.807C339.835 160.924 336.397 166.109 330.873 166.109ZM364.433 174H376.551L389.12 132.009H378.862L374.127 151.173C372.943 155.682 372.098 159.966 370.858 164.587H370.576C369.393 159.966 368.547 155.682 367.307 151.173L362.516 132.009H351.863L364.433 174ZM393.436 174H403.525V132.009H393.436V174ZM413.141 174H425.767C437.997 174 446.452 167.405 446.452 152.807C446.452 138.209 437.997 132.009 425.203 132.009H413.141V174ZM423.23 165.884V140.069H424.583C431.346 140.069 436.137 142.831 436.137 152.807C436.137 162.784 431.346 165.884 424.583 165.884H423.23ZM454.203 174H481.426V165.545H464.292V156.64H478.326V148.186H464.292V140.407H480.806V132.009H454.203V174ZM515.605 174.789C525.75 174.789 531.612 168.645 531.612 161.656C531.612 155.738 528.512 152.244 523.327 150.158L518.085 148.073C514.365 146.607 511.772 145.706 511.772 143.338C511.772 141.14 513.632 139.9 516.732 139.9C520.001 139.9 522.594 141.027 525.356 143.113L530.372 136.8C526.709 133.137 521.579 131.277 516.732 131.277C507.827 131.277 501.514 136.913 501.514 143.958C501.514 150.046 505.629 153.709 510.025 155.456L515.38 157.711C518.987 159.233 521.298 160.022 521.298 162.445C521.298 164.7 519.55 166.109 515.83 166.109C512.505 166.109 508.616 164.362 505.685 161.826L499.936 168.758C504.276 172.76 510.138 174.789 515.605 174.789ZM545.378 174H555.467V140.407H566.853V132.009H534.049V140.407H545.378V174ZM580.929 153.033C582 148.862 583.127 143.958 584.142 139.562H584.367C585.495 143.846 586.566 148.862 587.693 153.033L588.595 156.584H580.027L580.929 153.033ZM565.429 174H575.687L578.111 164.362H590.511L592.935 174H603.531L590.511 132.009H578.449L565.429 174ZM607.936 174H618.025V163.009L622.591 156.809L632.511 174H643.502L628.452 148.862L641.134 132.009H630.087L618.194 148.636H618.025V132.009H607.936V174ZM647.842 174H657.931V132.009H647.842V174ZM667.547 174H677.129V160.078C677.129 155.006 676.283 149.256 675.833 144.578H676.114L680.229 153.766L690.6 174H700.858V132.009H691.276V145.931C691.276 150.947 692.122 156.978 692.629 161.431H692.347L688.232 152.131L677.805 132.009H667.547V174ZM729.472 174.789C735.334 174.789 740.519 172.478 743.45 169.66V150.046H727.838V158.275H734.488V165.038C733.587 165.715 732.008 166.109 730.543 166.109C722.708 166.109 718.988 161.262 718.988 152.92C718.988 144.747 723.441 139.9 729.641 139.9C733.136 139.9 735.334 141.309 737.419 143.169L742.717 136.744C739.843 133.869 735.447 131.277 729.303 131.277C718.087 131.277 708.674 139.28 708.674 153.258C708.674 167.462 717.861 174.789 729.472 174.789ZM764.807 174H791.241V165.545H774.896V132.009H764.807V174ZM798.493 174H808.582V132.009H798.493V174ZM835.502 166.56C829.978 166.56 826.596 161.544 826.596 152.807C826.596 144.691 829.978 139.9 835.502 139.9C841.025 139.9 844.464 144.691 844.464 152.807C844.464 161.544 841.025 166.56 835.502 166.56ZM849.48 185.836C852.805 185.836 855.511 185.273 857.145 184.427L855.342 177.1C854.045 177.551 852.411 177.889 850.607 177.889C847.225 177.889 843.449 176.818 841.533 173.944C849.593 171.464 854.722 163.967 854.722 152.807C854.722 139.111 846.943 131.277 835.502 131.277C824.06 131.277 816.282 139.055 816.282 152.807C816.282 164.644 822.031 172.365 830.936 174.338C833.98 181.045 840.349 185.836 849.48 185.836ZM879.304 174.789C890.464 174.789 896.1 168.42 896.1 154.273V132.009H886.405V155.344C886.405 163.291 883.869 166.109 879.304 166.109C874.682 166.109 872.315 163.291 872.315 155.344V132.009H862.282V154.273C862.282 168.42 868.087 174.789 879.304 174.789ZM905.495 174H915.584V132.009H905.495V174ZM925.201 174H937.826C950.057 174 958.511 167.405 958.511 152.807C958.511 138.209 950.057 132.009 937.262 132.009H925.201V174ZM935.29 165.884V140.069H936.642C943.406 140.069 948.197 142.831 948.197 152.807C948.197 162.784 943.406 165.884 936.642 165.884H935.29ZM966.262 174H976.351V132.009H966.262V174ZM994.084 174H1004.17V140.407H1015.56V132.009H982.755V140.407H994.084V174ZM1028.03 174H1038.06V159.176L1050.74 132.009H1040.2L1036.71 141.366C1035.52 144.522 1034.39 147.453 1033.21 150.722H1032.99C1031.8 147.453 1030.73 144.522 1029.6 141.366L1026.11 132.009H1015.4L1028.03 159.176V174Z" fill="white"/>
<path d="M377.36 236.103C378.436 233.047 379.339 230.478 380.277 227.318H380.416C381.353 230.478 382.221 233.047 383.298 236.103L385.034 241.138H375.589L377.36 236.103ZM370.762 251.208H372.047L375.207 242.249H385.416L388.541 251.208H389.93L380.902 225.998H379.756L370.762 251.208ZM401.595 259.646H402.845V249.368C404.79 250.826 406.7 251.659 408.436 251.659C412.811 251.659 416.561 248.013 416.561 241.798C416.561 236.138 414.165 232.457 409.2 232.457C406.908 232.457 404.721 233.846 402.915 235.27H402.845L402.637 232.908H401.595V259.646ZM408.54 250.514C407.082 250.514 404.998 249.854 402.845 248.048V236.763C405.172 234.749 407.221 233.603 409.096 233.603C413.575 233.603 415.242 237.145 415.242 241.798C415.242 246.902 412.429 250.514 408.54 250.514ZM425.56 251.659C427.991 251.659 430.283 250.305 432.158 248.777H432.262L432.435 251.208H433.477V239.367C433.477 235.652 432.158 232.457 427.852 232.457C424.866 232.457 422.331 233.985 421.185 234.818L421.81 235.825C422.991 234.888 425.178 233.603 427.782 233.603C431.567 233.603 432.331 236.832 432.227 239.784C423.998 240.721 420.282 242.631 420.282 246.694C420.282 250.166 422.713 251.659 425.56 251.659ZM425.664 250.514C423.442 250.514 421.567 249.472 421.567 246.659C421.567 243.569 424.275 241.728 432.227 240.86V247.423C429.831 249.472 427.852 250.514 425.664 250.514ZM440.253 251.208H441.503V238.568C442.927 234.957 444.941 233.672 446.573 233.672C447.302 233.672 447.614 233.742 448.205 233.985L448.517 232.839C447.892 232.526 447.371 232.457 446.746 232.457C444.559 232.457 442.788 234.124 441.572 236.346H441.503L441.295 232.908H440.253V251.208ZM455.164 251.659C457.594 251.659 459.886 250.305 461.761 248.777H461.865L462.039 251.208H463.081V239.367C463.081 235.652 461.761 232.457 457.455 232.457C454.469 232.457 451.934 233.985 450.788 234.818L451.413 235.825C452.594 234.888 454.782 233.603 457.386 233.603C461.171 233.603 461.935 236.832 461.831 239.784C453.601 240.721 449.886 242.631 449.886 246.694C449.886 250.166 452.316 251.659 455.164 251.659ZM455.268 250.514C453.045 250.514 451.17 249.472 451.17 246.659C451.17 243.569 453.879 241.728 461.831 240.86V247.423C459.435 249.472 457.455 250.514 455.268 250.514ZM476.454 251.659C478.815 251.659 480.76 250.583 482.288 249.229L481.558 248.326C480.274 249.541 478.503 250.514 476.489 250.514C472.322 250.514 469.579 247.111 469.579 242.11C469.579 237.075 472.634 233.603 476.489 233.603C478.364 233.603 479.822 234.506 481.038 235.652L481.836 234.749C480.621 233.603 478.989 232.457 476.489 232.457C472.079 232.457 468.259 235.964 468.259 242.11C468.259 248.152 471.801 251.659 476.454 251.659ZM486.947 251.208H488.197V237.214C490.524 234.818 492.191 233.603 494.448 233.603C497.573 233.603 498.858 235.582 498.858 239.61V251.208H500.108V239.437C500.108 234.714 498.337 232.457 494.586 232.457C492.052 232.457 490.142 233.915 488.197 235.895V223.637H486.947V251.208ZM510.844 251.659C513.275 251.659 515.567 250.305 517.442 248.777H517.546L517.719 251.208H518.761V239.367C518.761 235.652 517.442 232.457 513.136 232.457C510.15 232.457 507.615 233.985 506.469 234.818L507.094 235.825C508.275 234.888 510.462 233.603 513.066 233.603C516.851 233.603 517.615 236.832 517.511 239.784C509.282 240.721 505.566 242.631 505.566 246.694C505.566 250.166 507.997 251.659 510.844 251.659ZM510.948 250.514C508.726 250.514 506.851 249.472 506.851 246.659C506.851 243.569 509.559 241.728 517.511 240.86V247.423C515.115 249.472 513.136 250.514 510.948 250.514ZM525.537 251.208H526.787V232.908H525.537V251.208ZM526.197 228.29C526.891 228.29 527.447 227.769 527.447 226.866C527.447 226.103 526.891 225.547 526.197 225.547C525.468 225.547 524.947 226.103 524.947 226.866C524.947 227.769 525.468 228.29 526.197 228.29ZM534.048 251.208H535.298V237.214C537.625 234.818 539.292 233.603 541.549 233.603C544.674 233.603 545.959 235.582 545.959 239.61V251.208H547.209V239.437C547.209 234.714 545.438 232.457 541.688 232.457C539.153 232.457 537.243 233.915 535.368 235.825H535.298L535.09 232.908H534.048V251.208ZM568.661 251.659C573.037 251.659 576.787 248.013 576.787 241.798C576.787 236.138 574.391 232.457 569.425 232.457C567.134 232.457 564.877 233.846 562.967 235.443L563.071 231.763V223.637H561.821V251.208H562.863L563.036 249.368H563.14C564.842 250.757 566.925 251.659 568.661 251.659ZM568.766 250.514C567.307 250.514 565.154 249.854 563.071 248.048V236.763C565.328 234.749 567.446 233.603 569.321 233.603C573.801 233.603 575.467 237.145 575.467 241.798C575.467 246.902 572.655 250.514 568.766 250.514ZM585.718 251.659C588.148 251.659 590.44 250.305 592.315 248.777H592.419L592.593 251.208H593.635V239.367C593.635 235.652 592.315 232.457 588.009 232.457C585.023 232.457 582.488 233.985 581.342 234.818L581.968 235.825C583.148 234.888 585.336 233.603 587.94 233.603C591.725 233.603 592.489 236.832 592.385 239.784C584.155 240.721 580.44 242.631 580.44 246.694C580.44 250.166 582.87 251.659 585.718 251.659ZM585.822 250.514C583.6 250.514 581.724 249.472 581.724 246.659C581.724 243.569 584.433 241.728 592.385 240.86V247.423C589.989 249.472 588.009 250.514 585.822 250.514ZM604.716 251.659C608.571 251.659 610.689 249.298 610.689 246.59C610.689 243.013 607.529 242.11 604.612 240.999C602.425 240.166 600.341 239.332 600.341 237.145C600.341 235.339 601.73 233.603 604.751 233.603C606.661 233.603 607.946 234.367 609.161 235.27L609.89 234.332C608.605 233.221 606.661 232.457 604.821 232.457C601.036 232.457 599.056 234.679 599.056 237.214C599.056 240.374 602.043 241.416 604.821 242.423C606.973 243.187 609.404 244.263 609.404 246.659C609.404 248.743 607.841 250.514 604.786 250.514C602.077 250.514 600.376 249.472 598.848 248.152L598.049 249.159C599.681 250.514 601.973 251.659 604.716 251.659ZM622.509 251.659C625.218 251.659 626.78 250.757 628.169 249.923L627.614 248.847C626.225 249.854 624.662 250.514 622.579 250.514C618.273 250.514 615.46 246.972 615.46 242.145H628.864C628.933 241.659 628.933 241.277 628.933 240.895C628.933 235.478 626.259 232.457 622.023 232.457C617.96 232.457 614.141 236.138 614.141 242.11C614.141 248.083 617.891 251.659 622.509 251.659ZM615.46 240.999C615.842 236.381 618.759 233.603 622.023 233.603C625.461 233.603 627.718 236.034 627.718 240.999H615.46ZM640.022 251.659C642.557 251.659 644.606 250.305 646.133 248.777H646.203L646.376 251.208H647.418V223.637H646.168V231.311L646.272 234.749C644.397 233.29 642.869 232.457 640.647 232.457C636.202 232.457 632.452 236.207 632.452 242.11C632.452 248.291 635.438 251.659 640.022 251.659ZM640.126 250.514C636.063 250.514 633.772 247.111 633.772 242.11C633.772 237.388 636.723 233.603 640.578 233.603C642.487 233.603 644.154 234.297 646.168 236.103V247.354C644.154 249.368 642.244 250.514 640.126 250.514ZM668.859 251.659C673.234 251.659 676.984 248.152 676.984 242.11C676.984 235.964 673.234 232.457 668.859 232.457C664.483 232.457 660.733 235.964 660.733 242.11C660.733 248.152 664.483 251.659 668.859 251.659ZM668.859 250.514C664.97 250.514 662.053 247.111 662.053 242.11C662.053 237.075 664.97 233.603 668.859 233.603C672.748 233.603 675.699 237.075 675.699 242.11C675.699 247.111 672.748 250.514 668.859 250.514ZM682.677 251.208H683.927V237.214C686.253 234.818 687.92 233.603 690.177 233.603C693.302 233.603 694.587 235.582 694.587 239.61V251.208H695.837V239.437C695.837 234.714 694.066 232.457 690.316 232.457C687.781 232.457 685.871 233.915 683.996 235.825H683.927L683.718 232.908H682.677V251.208ZM715.171 251.659C715.796 251.659 716.942 251.347 718.019 250.965L717.602 249.923C716.942 250.236 715.97 250.514 715.276 250.514C712.602 250.514 712.081 248.882 712.081 246.52V234.054H717.498V232.908H712.081V227.561H711.005L710.866 232.908L707.949 233.082V234.054H710.866V246.347C710.866 249.541 711.769 251.659 715.171 251.659ZM722.046 251.208H723.296V237.214C725.623 234.818 727.29 233.603 729.547 233.603C732.672 233.603 733.957 235.582 733.957 239.61V251.208H735.207V239.437C735.207 234.714 733.436 232.457 729.686 232.457C727.151 232.457 725.241 233.915 723.296 235.895V223.637H722.046V251.208ZM748.791 251.659C751.499 251.659 753.062 250.757 754.451 249.923L753.895 248.847C752.506 249.854 750.943 250.514 748.86 250.514C744.554 250.514 741.742 246.972 741.742 242.145H755.145C755.214 241.659 755.214 241.277 755.214 240.895C755.214 235.478 752.541 232.457 748.304 232.457C744.242 232.457 740.422 236.138 740.422 242.11C740.422 248.083 744.172 251.659 748.791 251.659ZM741.742 240.999C742.124 236.381 745.04 233.603 748.304 233.603C751.742 233.603 753.999 236.034 753.999 240.999H741.742ZM774.558 251.659C779.315 251.659 782.44 248.847 782.44 244.992C782.44 241.103 779.94 239.61 777.093 238.325L773.239 236.589C771.468 235.791 768.829 234.645 768.829 231.485C768.829 228.637 771.155 226.762 774.662 226.762C777.232 226.762 779.281 227.839 780.739 229.401L781.538 228.533C780.079 226.936 777.718 225.547 774.662 225.547C770.565 225.547 767.509 227.978 767.509 231.624C767.509 235.339 770.461 236.832 772.648 237.805L776.503 239.541C779.038 240.687 781.156 241.728 781.156 245.097C781.156 248.256 778.586 250.444 774.558 250.444C771.537 250.444 768.863 249.09 767.023 246.937L766.155 247.84C768.065 250.062 770.843 251.659 774.558 251.659ZM792.939 251.659C795.474 251.659 797.383 250.201 799.224 248.083H799.293L799.432 251.208H800.509V232.908H799.259V246.59C797.002 249.298 795.3 250.514 793.043 250.514C789.953 250.514 788.668 248.569 788.668 244.541V232.908H787.418V244.68C787.418 249.437 789.189 251.659 792.939 251.659ZM814.612 251.659C818.987 251.659 822.737 248.013 822.737 241.798C822.737 236.138 820.341 232.457 815.376 232.457C813.084 232.457 810.827 233.846 808.917 235.443L809.021 231.763V223.637H807.771V251.208H808.813L808.986 249.368H809.091C810.792 250.757 812.876 251.659 814.612 251.659ZM814.716 250.514C813.258 250.514 811.105 249.854 809.021 248.048V236.763C811.278 234.749 813.396 233.603 815.271 233.603C819.751 233.603 821.418 237.145 821.418 241.798C821.418 246.902 818.605 250.514 814.716 250.514ZM832.66 251.659C836.515 251.659 838.633 249.298 838.633 246.59C838.633 243.013 835.473 242.11 832.556 240.999C830.369 240.166 828.285 239.332 828.285 237.145C828.285 235.339 829.674 233.603 832.695 233.603C834.605 233.603 835.89 234.367 837.105 235.27L837.834 234.332C836.549 233.221 834.605 232.457 832.765 232.457C828.98 232.457 827 234.679 827 237.214C827 240.374 829.987 241.416 832.765 242.423C834.917 243.187 837.348 244.263 837.348 246.659C837.348 248.743 835.786 250.514 832.73 250.514C830.021 250.514 828.32 249.472 826.792 248.152L825.993 249.159C827.625 250.514 829.917 251.659 832.66 251.659ZM847.624 251.659C848.25 251.659 849.395 251.347 850.472 250.965L850.055 249.923C849.395 250.236 848.423 250.514 847.729 250.514C845.055 250.514 844.534 248.882 844.534 246.52V234.054H849.951V232.908H844.534V227.561H843.458L843.319 232.908L840.402 233.082V234.054H843.319V246.347C843.319 249.541 844.222 251.659 847.624 251.659ZM854.499 251.208H855.749V238.568C857.173 234.957 859.187 233.672 860.819 233.672C861.548 233.672 861.861 233.742 862.451 233.985L862.764 232.839C862.139 232.526 861.618 232.457 860.993 232.457C858.805 232.457 857.034 234.124 855.819 236.346H855.749L855.541 232.908H854.499V251.208ZM869.41 251.659C871.841 251.659 874.133 250.305 876.008 248.777H876.112L876.285 251.208H877.327V239.367C877.327 235.652 876.008 232.457 871.702 232.457C868.716 232.457 866.181 233.985 865.035 234.818L865.66 235.825C866.84 234.888 869.028 233.603 871.632 233.603C875.417 233.603 876.181 236.832 876.077 239.784C867.847 240.721 864.132 242.631 864.132 246.694C864.132 250.166 866.563 251.659 869.41 251.659ZM869.514 250.514C867.292 250.514 865.417 249.472 865.417 246.659C865.417 243.569 868.125 241.728 876.077 240.86V247.423C873.681 249.472 871.702 250.514 869.514 250.514ZM888.452 251.659C889.077 251.659 890.223 251.347 891.3 250.965L890.883 249.923C890.223 250.236 889.251 250.514 888.557 250.514C885.883 250.514 885.362 248.882 885.362 246.52V234.054H890.779V232.908H885.362V227.561H884.285L884.147 232.908L881.23 233.082V234.054H884.147V246.347C884.147 249.541 885.049 251.659 888.452 251.659ZM901.725 251.659C904.434 251.659 905.996 250.757 907.385 249.923L906.83 248.847C905.441 249.854 903.878 250.514 901.795 250.514C897.489 250.514 894.676 246.972 894.676 242.145H908.08C908.149 241.659 908.149 241.277 908.149 240.895C908.149 235.478 905.475 232.457 901.239 232.457C897.176 232.457 893.357 236.138 893.357 242.11C893.357 248.083 897.107 251.659 901.725 251.659ZM894.676 240.999C895.058 236.381 897.975 233.603 901.239 233.603C904.677 233.603 906.934 236.034 906.934 240.999H894.676Z" fill="white"/>
</g>
<defs>
<linearGradient id="paint0_linear" x1="9.96421e-06" y1="18.5" x2="1239.14" y2="494.805" gradientUnits="userSpaceOnUse">
<stop stop-color="#131313"/>
<stop offset="1"/>
</linearGradient>
<linearGradient id="paint1_linear" x1="191.108" y1="209.36" x2="32.2093" y2="-61.1976" gradientUnits="userSpaceOnUse">
<stop stop-color="#C4C4C4"/>
<stop offset="1" stop-color="#C4C4C4" stop-opacity="0"/>
</linearGradient>
<linearGradient id="paint2_linear" x1="1088.79" y1="142.469" x2="1247.69" y2="413.027" gradientUnits="userSpaceOnUse">
<stop stop-color="#C4C4C4"/>
<stop offset="1" stop-color="#C4C4C4" stop-opacity="0"/>
</linearGradient>
<clipPath id="clip0">
<rect width="1280" height="370" rx="8" fill="white"/>
</clipPath>
</defs>
</svg>
