<svg width="300" height="300" viewBox="0 0 300 300" fill="none" xmlns="http://www.w3.org/2000/svg">
<rect width="300" height="300" rx="50" fill="black"/>
<path d="M89.1765 172.603V129.958H103.792C108.615 129.958 112.286 130.925 114.805 132.858C117.323 134.791 118.583 137.671 118.583 141.498C118.583 143.451 118.056 145.208 117.001 146.77C115.947 148.332 114.404 149.543 112.374 150.402C114.678 151.027 116.455 152.208 117.704 153.946C118.973 155.664 119.608 157.734 119.608 160.155C119.608 164.158 118.319 167.234 115.742 169.381C113.184 171.529 109.513 172.603 104.729 172.603H89.1765ZM96.5867 153.36V166.687H104.817C107.141 166.687 108.957 166.111 110.265 164.959C111.573 163.807 112.227 162.206 112.227 160.155C112.227 155.723 109.962 153.458 105.432 153.36H96.5867ZM96.5867 147.913H103.85C106.155 147.913 107.951 147.395 109.24 146.36C110.548 145.306 111.202 143.822 111.202 141.908C111.202 139.799 110.597 138.276 109.386 137.339C108.195 136.402 106.33 135.933 103.792 135.933H96.5867V147.913Z" fill="white"/>
<path d="M133.186 172.603H126.069V140.912H133.186V172.603Z" fill="white"/>
<path d="M181.242 156.465C181.242 153.36 181.857 150.568 183.087 148.088C184.317 145.589 186.045 143.675 188.271 142.348C190.497 141 193.055 140.327 195.945 140.327C200.221 140.327 203.687 141.703 206.343 144.456C209.018 147.21 210.463 150.861 210.678 155.411L210.707 157.08C210.707 160.204 210.102 162.996 208.891 165.457C207.7 167.917 205.982 169.821 203.736 171.168C201.51 172.515 198.933 173.189 196.004 173.189C191.532 173.189 187.949 171.705 185.255 168.737C182.579 165.75 181.242 161.776 181.242 156.816V156.465ZM188.359 157.08C188.359 160.341 189.033 162.899 190.38 164.754C191.727 166.589 193.602 167.507 196.004 167.507C198.405 167.507 200.27 166.57 201.598 164.695C202.945 162.821 203.619 160.077 203.619 156.465C203.619 153.263 202.926 150.724 201.539 148.85C200.173 146.975 198.308 146.038 195.945 146.038C193.621 146.038 191.776 146.965 190.409 148.82C189.043 150.656 188.359 153.409 188.359 157.08Z" fill="white"/>
<path d="M234.49 163.992C234.49 162.723 233.963 161.757 232.908 161.093C231.873 160.429 230.145 159.843 227.724 159.335C225.303 158.828 223.282 158.183 221.661 157.402C218.107 155.684 216.33 153.194 216.33 149.933C216.33 147.2 217.482 144.915 219.787 143.08C222.091 141.244 225.02 140.327 228.573 140.327C232.361 140.327 235.417 141.264 237.741 143.138C240.084 145.013 241.256 147.444 241.256 150.431H234.138C234.138 149.065 233.631 147.932 232.615 147.034C231.6 146.116 230.253 145.657 228.573 145.657C227.011 145.657 225.732 146.018 224.736 146.741C223.76 147.463 223.272 148.43 223.272 149.641C223.272 150.734 223.731 151.583 224.649 152.189C225.566 152.794 227.421 153.409 230.213 154.034C233.006 154.639 235.193 155.371 236.774 156.231C238.375 157.07 239.557 158.086 240.318 159.277C241.099 160.468 241.49 161.913 241.49 163.612C241.49 166.462 240.309 168.776 237.946 170.553C235.583 172.31 232.488 173.189 228.661 173.189C226.064 173.189 223.75 172.72 221.72 171.783C219.689 170.846 218.107 169.557 216.975 167.917C215.842 166.277 215.276 164.51 215.276 162.616H222.188C222.286 164.295 222.92 165.593 224.092 166.511C225.264 167.409 226.816 167.858 228.749 167.858C230.624 167.858 232.049 167.507 233.025 166.804C234.002 166.082 234.49 165.144 234.49 163.992Z" fill="white"/>
<path d="M254.23 133.209V140.912H260V146.184H254.23V163.875C254.23 165.086 254.464 165.964 254.933 166.511C255.421 167.038 256.28 167.302 257.51 167.302C258.331 167.302 259.16 167.204 260 167.009V172.515C258.379 172.965 256.817 173.189 255.314 173.189C249.846 173.189 247.113 170.172 247.113 164.139V133.209H254.23Z" fill="white"/>
<path d="M141.247 138.013C141.247 134.498 142.223 131.784 144.175 129.87C146.128 127.957 148.862 127 152.376 127C153.626 127 156.186 127.619 157.393 128.052L156.184 133.092C155.403 132.936 154.495 132.858 153.46 132.858C150.063 132.858 148.364 134.605 148.364 138.101V140.912H157.267L155.808 146.36L148.364 146.184V172.603H141.247V138.013Z" fill="white"/>
<path d="M126.068 130.883H133.186V136.221H126.068V130.883Z" fill="white"/>
<path d="M180.345 140.912L179.014 146.184H169.547V172.603H162.43V140.912H180.345Z" fill="white"/>
<g clip-path="url(#clip0)">
<path d="M81.2539 140.912H70.6904L39 172.603H60.127L81.2539 140.912Z" fill="url(#paint0_linear)"/>
</g>
<defs>
<linearGradient id="paint0_linear" x1="60.127" y1="140.912" x2="60.127" y2="172.603" gradientUnits="userSpaceOnUse">
<stop stop-color="#7AEDCF"/>
<stop offset="0.201333" stop-color="#68CEFA"/>
<stop offset="0.403244" stop-color="#689CF8"/>
<stop offset="0.602076" stop-color="#AC57C0"/>
<stop offset="0.801867" stop-color="#E65659"/>
<stop offset="1" stop-color="#F2C241"/>
</linearGradient>
<clipPath id="clip0">
<rect width="42.2539" height="42.2539" fill="white" transform="translate(39 130.349)"/>
</clipPath>
</defs>
</svg>
