<svg width="1280" height="370" viewBox="0 0 1280 370" fill="none" xmlns="http://www.w3.org/2000/svg">
<path d="M1280 0H0V370H1280V0Z" fill="white"/>
<path d="M1280 0H0V370H1280V0Z" fill="url(#paint0_linear)"/>
<g opacity="0.8">
<mask id="mask0" mask-type="alpha" maskUnits="userSpaceOnUse" x="0" y="0" width="215" height="333">
<g opacity="0.8">
<path opacity="0.8" d="M214.728 0H0V332.829H214.728V0Z" fill="url(#paint1_linear)"/>
</g>
</mask>
<g mask="url(#mask0)">
<g opacity="0.8">
<path opacity="0.8" d="M-68.2942 -48.9398C-70.666 -53.0479 -75.9191 -54.4555 -80.0272 -52.0836C-84.1353 -49.7118 -85.5428 -44.4588 -83.171 -40.3507L117.65 307.482C120.022 311.59 125.275 312.997 129.383 310.625C133.491 308.254 134.899 303.001 132.527 298.892L-68.2942 -48.9398Z" fill="#E91555"/>
<path opacity="0.8" d="M-59.4796 -93.7965C-61.8514 -97.9046 -67.1045 -99.3121 -71.2126 -96.9403C-75.3207 -94.5685 -76.7283 -89.3155 -74.3564 -85.2073L126.465 262.625C128.836 266.733 134.089 268.141 138.198 265.769C142.306 263.397 143.713 258.144 141.341 254.036L-59.4796 -93.7965Z" fill="#FF6B00"/>
<path opacity="0.8" d="M-50.7562 -138.812C-53.1281 -142.92 -58.3811 -144.327 -62.4892 -141.955C-66.5973 -139.584 -68.0049 -134.331 -65.633 -130.222L135.188 217.61C137.56 221.718 142.813 223.125 146.921 220.754C151.029 218.382 152.437 213.129 150.065 209.021L-50.7562 -138.812Z" fill="#FFD600"/>
<path opacity="0.8" d="M-42.0331 -183.826C-44.4049 -187.934 -49.6579 -189.342 -53.7661 -186.97C-57.8742 -184.598 -59.2817 -179.345 -56.9099 -175.237L143.911 172.595C146.283 176.703 151.536 178.111 155.644 175.739C159.752 173.367 161.16 168.114 158.788 164.006L-42.0331 -183.826Z" fill="#10DF6F"/>
<path opacity="0.8" d="M-33.3098 -228.841C-35.6816 -232.949 -40.9347 -234.357 -45.0428 -231.985C-49.1509 -229.613 -50.5585 -224.36 -48.1866 -220.252L152.634 127.58C155.006 131.688 160.259 133.096 164.367 130.724C168.475 128.352 169.883 123.099 167.511 118.991L-33.3098 -228.841Z" fill="#1080FB"/>
<path opacity="0.8" d="M-24.5864 -273.856C-26.9583 -277.964 -32.2113 -279.371 -36.3194 -276.999C-40.4275 -274.628 -41.8351 -269.375 -39.4632 -265.266L161.358 82.5657C163.73 86.6739 168.983 88.0814 173.091 85.7096C177.199 83.3378 178.606 78.0847 176.235 73.9766L-24.5864 -273.856Z" fill="#A015EE"/>
</g>
</g>
</g>
<g opacity="0.8">
<mask id="mask1" mask-type="alpha" maskUnits="userSpaceOnUse" x="1065" y="19" width="215" height="333">
<g opacity="0.8">
<path opacity="0.8" d="M1065.17 351.829H1279.9V19.0001H1065.17V351.829Z" fill="url(#paint2_linear)"/>
</g>
</mask>
<g mask="url(#mask1)">
<g opacity="0.8">
<path opacity="0.8" d="M1348.2 400.769C1350.57 404.877 1355.82 406.284 1359.93 403.913C1364.04 401.541 1365.45 396.288 1363.07 392.18L1162.25 44.3475C1159.88 40.2394 1154.63 38.8318 1150.52 41.2036C1146.41 43.5755 1145 48.8285 1147.38 52.9366L1348.2 400.769Z" fill="#E91555"/>
<path opacity="0.8" d="M1339.38 445.626C1341.75 449.734 1347 451.142 1351.11 448.77C1355.22 446.398 1356.63 441.145 1354.26 437.037L1153.44 89.2045C1151.06 85.0963 1145.81 83.6888 1141.7 86.0607C1137.59 88.4325 1136.19 93.6855 1138.56 97.7936L1339.38 445.626Z" fill="#FF6B00"/>
<path opacity="0.8" d="M1330.66 490.641C1333.03 494.749 1338.28 496.157 1342.39 493.785C1346.5 491.413 1347.91 486.16 1345.53 482.052L1144.71 134.22C1142.34 130.112 1137.09 128.704 1132.98 131.076C1128.87 133.448 1127.46 138.701 1129.84 142.809L1330.66 490.641Z" fill="#FFD600"/>
<path opacity="0.8" d="M1321.93 535.656C1324.31 539.764 1329.56 541.171 1333.67 538.799C1337.77 536.428 1339.18 531.175 1336.81 527.066L1135.99 179.234C1133.62 175.126 1128.36 173.719 1124.26 176.09C1120.15 178.462 1118.74 183.715 1121.11 187.823L1321.93 535.656Z" fill="#10DF6F"/>
<path opacity="0.8" d="M1313.21 580.671C1315.58 584.779 1320.83 586.186 1324.94 583.815C1329.05 581.443 1330.46 576.19 1328.09 572.082L1127.27 224.249C1124.89 220.141 1119.64 218.734 1115.53 221.106C1111.42 223.477 1110.02 228.73 1112.39 232.839L1313.21 580.671Z" fill="#1080FB"/>
<path opacity="0.8" d="M1304.49 625.685C1306.86 629.793 1312.11 631.201 1316.22 628.829C1320.33 626.457 1321.74 621.204 1319.36 617.096L1118.54 269.264C1116.17 265.155 1110.92 263.748 1106.81 266.12C1102.7 268.492 1101.29 273.745 1103.67 277.853L1304.49 625.685Z" fill="#A015EE"/>
</g>
</g>
</g>
<path opacity="0.2" d="M254.86 176.874H201.178C191.691 176.874 184 184.565 184 194.052V243.439C184 252.927 191.691 260.618 201.178 260.618H254.86C264.348 260.618 272.039 252.927 272.039 243.439V194.052C272.039 184.565 264.348 176.874 254.86 176.874Z" fill="url(#paint3_linear)"/>
<path opacity="0.1" d="M467.307 104H364.238C354.75 104 347.059 111.691 347.059 121.178V166.271C347.059 175.759 354.75 183.449 364.238 183.449H467.307C476.795 183.449 484.485 175.759 484.485 166.271V121.178C484.485 111.691 476.795 104 467.307 104Z" fill="url(#paint4_linear)"/>
<path opacity="0.1" d="M792.889 186.939H740.012C730.525 186.939 722.834 194.63 722.834 204.117V248.942C722.834 258.429 730.525 266.12 740.012 266.12H792.889C802.376 266.12 810.067 258.429 810.067 248.942V204.117C810.067 194.63 802.376 186.939 792.889 186.939Z" fill="url(#paint5_linear)"/>
<path opacity="0.15" d="M1079.42 177.007H1006.41C996.922 177.007 989.231 184.698 989.231 194.186V219.953C989.231 229.44 996.922 237.131 1006.41 237.131H1079.42C1088.9 237.131 1096.6 229.44 1096.6 219.953V194.186C1096.6 184.698 1088.9 177.007 1079.42 177.007Z" fill="url(#paint6_linear)"/>
<path d="M589.367 128.505V92.4978H601.707C605.78 92.4978 608.879 93.3139 611.006 94.9461C613.133 96.5783 614.196 99.0102 614.196 102.242C614.196 103.89 613.751 105.374 612.861 106.693C611.971 108.012 610.668 109.034 608.953 109.76C610.899 110.287 612.399 111.285 613.454 112.752C614.526 114.203 615.062 115.951 615.062 117.995C615.062 121.375 613.974 123.971 611.797 125.785C609.638 127.599 606.538 128.505 602.499 128.505H589.367ZM595.624 112.257V123.51H602.573C604.535 123.51 606.068 123.023 607.173 122.051C608.277 121.078 608.83 119.726 608.83 117.995C608.83 114.252 606.917 112.34 603.092 112.257H595.624ZM595.624 107.658H601.757C603.702 107.658 605.219 107.221 606.307 106.347C607.412 105.457 607.964 104.204 607.964 102.588C607.964 100.807 607.453 99.5213 606.431 98.7299C605.425 97.9385 603.851 97.5428 601.707 97.5428H595.624V107.658Z" fill="white"/>
<path d="M626.526 128.505H620.517V101.747H626.526V128.505Z" fill="white"/>
<path d="M667.103 114.879C667.103 112.257 667.622 109.9 668.661 107.806C669.699 105.696 671.159 104.08 673.038 102.959C674.918 101.821 677.077 101.252 679.517 101.252C683.128 101.252 686.055 102.415 688.297 104.739C690.556 107.064 691.776 110.147 691.957 113.989L691.982 115.398C691.982 118.036 691.471 120.394 690.448 122.471C689.443 124.549 687.992 126.156 686.096 127.294C684.216 128.431 682.04 129 679.567 129C675.791 129 672.766 127.747 670.491 125.241C668.232 122.718 667.103 119.363 667.103 115.176V114.879ZM673.112 115.398C673.112 118.152 673.681 120.311 674.819 121.878C675.956 123.427 677.539 124.202 679.567 124.202C681.595 124.202 683.169 123.411 684.29 121.828C685.428 120.245 685.997 117.929 685.997 114.879C685.997 112.175 685.412 110.032 684.241 108.449C683.087 106.866 681.512 106.075 679.517 106.075C677.556 106.075 675.997 106.858 674.843 108.424C673.689 109.974 673.112 112.299 673.112 115.398Z" fill="white"/>
<path d="M712.063 121.235C712.063 120.163 711.618 119.347 710.727 118.786C709.854 118.226 708.394 117.731 706.35 117.302C704.306 116.874 702.599 116.33 701.231 115.67C698.23 114.219 696.73 112.117 696.73 109.364C696.73 107.056 697.703 105.127 699.648 103.577C701.594 102.027 704.067 101.252 707.067 101.252C710.266 101.252 712.846 102.044 714.808 103.627C716.786 105.209 717.776 107.262 717.776 109.784H711.766C711.766 108.63 711.337 107.674 710.48 106.916C709.623 106.141 708.485 105.753 707.067 105.753C705.748 105.753 704.668 106.058 703.828 106.668C703.003 107.278 702.591 108.094 702.591 109.117C702.591 110.04 702.978 110.757 703.753 111.268C704.528 111.779 706.095 112.299 708.452 112.826C710.81 113.337 712.656 113.956 713.992 114.681C715.344 115.39 716.341 116.247 716.984 117.253C717.644 118.259 717.973 119.479 717.973 120.913C717.973 123.32 716.976 125.274 714.981 126.774C712.986 128.258 710.373 129 707.141 129C704.949 129 702.995 128.604 701.28 127.813C699.566 127.022 698.23 125.933 697.274 124.549C696.318 123.164 695.84 121.672 695.84 120.072H701.676C701.758 121.49 702.294 122.587 703.283 123.361C704.273 124.12 705.583 124.499 707.216 124.499C708.798 124.499 710.002 124.202 710.826 123.609C711.651 122.999 712.063 122.207 712.063 121.235Z" fill="white"/>
<path d="M728.731 95.2429V101.747H733.603V106.198H728.731V121.136C728.731 122.158 728.928 122.9 729.324 123.361C729.736 123.807 730.462 124.029 731.5 124.029C732.193 124.029 732.894 123.947 733.603 123.782V128.431C732.234 128.81 730.915 129 729.646 129C725.029 129 722.721 126.453 722.721 121.358V95.2429H728.731Z" fill="white"/>
<path d="M633.332 99.2987C633.332 96.331 634.157 94.0393 635.806 92.4236C637.454 90.8079 639.762 90 642.73 90C643.785 90 645.947 90.5227 646.966 90.8884L645.945 95.1439C645.286 95.0121 644.519 94.9461 643.645 94.9461C640.776 94.9461 639.342 96.4217 639.342 99.3729V101.747H646.859L645.627 106.347L639.342 106.198V128.505H633.332V99.2987Z" fill="white"/>
<path d="M620.516 93.2785H626.526V97.7861H620.516V93.2785Z" fill="white"/>
<path d="M666.345 101.747L665.221 106.198H657.228V128.505H651.219V101.747H666.345Z" fill="white"/>
<g clip-path="url(#clip0)">
<path d="M582.677 101.747H573.758L547 128.505H564.839L582.677 101.747Z" fill="url(#paint7_linear)"/>
</g>
<path d="M313.779 221H321.895V209.802H325.839C333.002 209.802 339.168 206.266 339.168 198.241C339.168 189.9 333.047 187.225 325.657 187.225H313.779V221ZM321.895 203.41V193.662H325.204C329.103 193.662 331.279 194.841 331.279 198.241C331.279 201.551 329.375 203.41 325.431 203.41H321.895ZM344.904 221H353.019V209.122H356.918L363.129 221H372.196L364.67 207.626C368.161 205.994 370.473 202.82 370.473 197.879C370.473 189.718 364.489 187.225 357.28 187.225H344.904V221ZM353.019 202.73V193.662H356.646C360.499 193.662 362.585 194.705 362.585 197.879C362.585 201.052 360.499 202.73 356.646 202.73H353.019ZM390.92 221.635C400.123 221.635 406.379 215.016 406.379 203.954C406.379 192.937 400.123 186.635 390.92 186.635C381.717 186.635 375.46 192.892 375.46 203.954C375.46 215.016 381.717 221.635 390.92 221.635ZM390.92 214.653C386.477 214.653 383.757 210.482 383.757 203.954C383.757 197.425 386.477 193.572 390.92 193.572C395.363 193.572 398.128 197.425 398.128 203.954C398.128 210.482 395.363 214.653 390.92 214.653ZM417.914 221H427.661L437.771 187.225H429.52L425.711 202.639C424.759 206.266 424.079 209.711 423.082 213.429H422.855C421.903 209.711 421.223 206.266 420.226 202.639L416.372 187.225H407.804L417.914 221ZM441.242 221H449.358V187.225H441.242V221ZM457.092 221H467.248C477.085 221 483.886 215.696 483.886 203.954C483.886 192.212 477.085 187.225 466.794 187.225H457.092V221ZM465.207 214.472V193.708H466.296C471.736 193.708 475.589 195.929 475.589 203.954C475.589 211.978 471.736 214.472 466.296 214.472H465.207ZM490.12 221H512.017V214.2H498.235V207.037H509.524V200.236H498.235V193.98H511.519V187.225H490.12V221ZM539.509 221.635C547.67 221.635 552.385 216.693 552.385 211.071C552.385 206.311 549.891 203.5 545.72 201.823L541.504 200.145C538.512 198.967 536.426 198.241 536.426 196.337C536.426 194.569 537.922 193.572 540.416 193.572C543.045 193.572 545.131 194.478 547.352 196.156L551.387 191.078C548.44 188.131 544.315 186.635 540.416 186.635C533.253 186.635 528.175 191.169 528.175 196.836C528.175 201.732 531.485 204.679 535.021 206.084L539.328 207.898C542.229 209.122 544.088 209.757 544.088 211.706C544.088 213.52 542.683 214.653 539.69 214.653C537.016 214.653 533.887 213.248 531.53 211.207L526.906 216.784C530.397 220.003 535.112 221.635 539.509 221.635ZM563.457 221H571.572V193.98H580.73V187.225H554.345V193.98H563.457V221ZM592.053 204.135C592.914 200.78 593.821 196.836 594.637 193.3H594.818C595.725 196.745 596.586 200.78 597.493 204.135L598.218 206.991H591.327L592.053 204.135ZM579.585 221H587.837L589.786 213.248H599.76L601.709 221H610.232L599.76 187.225H590.058L579.585 221ZM613.776 221H621.891V212.159L625.563 207.173L633.542 221H642.383L630.278 200.78L640.479 187.225H631.593L622.027 200.599H621.891V187.225H613.776V221ZM645.874 221H653.989V187.225H645.874V221ZM661.724 221H669.431V209.802C669.431 205.722 668.751 201.098 668.388 197.335H668.615L671.924 204.724L680.266 221H688.517V187.225H680.81V198.423C680.81 202.458 681.49 207.309 681.898 210.89H681.672L678.362 203.41L669.975 187.225H661.724V221ZM711.533 221.635C716.248 221.635 720.419 219.776 722.776 217.509V201.732H710.218V208.351H715.568V213.792C714.843 214.336 713.573 214.653 712.394 214.653C706.093 214.653 703.101 210.754 703.101 204.044C703.101 197.471 706.682 193.572 711.669 193.572C714.48 193.572 716.248 194.705 717.925 196.201L722.187 191.033C719.875 188.721 716.339 186.635 711.397 186.635C702.375 186.635 694.804 193.073 694.804 204.316C694.804 215.741 702.194 221.635 711.533 221.635ZM739.955 221H761.217V214.2H748.07V187.225H739.955V221ZM767.05 221H775.165V187.225H767.05V221ZM796.818 215.016C792.375 215.016 789.655 210.981 789.655 203.954C789.655 197.425 792.375 193.572 796.818 193.572C801.261 193.572 804.026 197.425 804.026 203.954C804.026 210.981 801.261 215.016 796.818 215.016ZM808.061 230.521C810.736 230.521 812.912 230.067 814.227 229.387L812.776 223.493C811.734 223.856 810.419 224.128 808.968 224.128C806.248 224.128 803.21 223.267 801.669 220.955C808.152 218.96 812.278 212.93 812.278 203.954C812.278 192.937 806.021 186.635 796.818 186.635C787.615 186.635 781.359 192.892 781.359 203.954C781.359 213.474 785.983 219.685 793.146 221.272C795.594 226.667 800.717 230.521 808.061 230.521ZM832.05 221.635C841.027 221.635 845.56 216.512 845.56 205.132V187.225H837.762V205.994C837.762 212.386 835.722 214.653 832.05 214.653C828.333 214.653 826.428 212.386 826.428 205.994V187.225H818.359V205.132C818.359 216.512 823.028 221.635 832.05 221.635ZM853.118 221H861.233V187.225H853.118V221ZM868.967 221H879.123C888.961 221 895.761 215.696 895.761 203.954C895.761 192.212 888.961 187.225 878.669 187.225H868.967V221ZM877.082 214.472V193.708H878.171C883.611 193.708 887.464 195.929 887.464 203.954C887.464 211.978 883.611 214.472 878.171 214.472H877.082ZM901.995 221H910.11V187.225H901.995V221ZM924.374 221H932.489V193.98H941.647V187.225H915.261V193.98H924.374V221ZM951.674 221H959.744V209.077L969.945 187.225H961.467L958.656 194.751C957.704 197.289 956.797 199.647 955.845 202.276H955.664C954.712 199.647 953.85 197.289 952.944 194.751L950.133 187.225H941.519L951.674 209.077V221Z" fill="white"/>
<path d="M428.312 259.85C429.178 257.392 429.904 255.326 430.658 252.784H430.77C431.524 255.326 432.222 257.392 433.088 259.85L434.484 263.9H426.887L428.312 259.85ZM423.005 272H424.038L426.58 264.794H434.792L437.305 272H438.423L431.161 251.723H430.239L423.005 272ZM447.806 278.787H448.811V270.52C450.375 271.693 451.911 272.363 453.308 272.363C456.827 272.363 459.843 269.43 459.843 264.431C459.843 259.878 457.916 256.918 453.922 256.918C452.079 256.918 450.319 258.035 448.867 259.18H448.811L448.643 257.281H447.806V278.787ZM453.392 271.441C452.219 271.441 450.543 270.911 448.811 269.458V260.381C450.682 258.761 452.33 257.839 453.838 257.839C457.441 257.839 458.782 260.688 458.782 264.431C458.782 268.537 456.52 271.441 453.392 271.441ZM467.082 272.363C469.037 272.363 470.88 271.274 472.388 270.045H472.472L472.612 272H473.45V262.476C473.45 259.487 472.388 256.918 468.925 256.918C466.523 256.918 464.484 258.147 463.562 258.817L464.065 259.627C465.015 258.873 466.774 257.839 468.869 257.839C471.913 257.839 472.528 260.437 472.444 262.811C465.825 263.565 462.836 265.101 462.836 268.369C462.836 271.162 464.791 272.363 467.082 272.363ZM467.165 271.441C465.378 271.441 463.87 270.603 463.87 268.341C463.87 265.855 466.048 264.375 472.444 263.677V268.956C470.517 270.603 468.925 271.441 467.165 271.441ZM478.9 272H479.905V261.833C481.05 258.929 482.67 257.895 483.983 257.895C484.57 257.895 484.821 257.951 485.296 258.147L485.547 257.225C485.044 256.974 484.625 256.918 484.123 256.918C482.363 256.918 480.939 258.258 479.961 260.046H479.905L479.738 257.281H478.9V272ZM490.893 272.363C492.848 272.363 494.692 271.274 496.2 270.045H496.284L496.423 272H497.261V262.476C497.261 259.487 496.2 256.918 492.737 256.918C490.335 256.918 488.296 258.147 487.374 258.817L487.877 259.627C488.826 258.873 490.586 257.839 492.681 257.839C495.725 257.839 496.34 260.437 496.256 262.811C489.636 263.565 486.648 265.101 486.648 268.369C486.648 271.162 488.603 272.363 490.893 272.363ZM490.977 271.441C489.189 271.441 487.681 270.603 487.681 268.341C487.681 265.855 489.86 264.375 496.256 263.677V268.956C494.329 270.603 492.737 271.441 490.977 271.441ZM508.018 272.363C509.917 272.363 511.481 271.497 512.71 270.408L512.124 269.682C511.09 270.659 509.666 271.441 508.046 271.441C504.694 271.441 502.488 268.704 502.488 264.682C502.488 260.632 504.946 257.839 508.046 257.839C509.554 257.839 510.727 258.566 511.705 259.487L512.347 258.761C511.37 257.839 510.057 256.918 508.046 256.918C504.499 256.918 501.427 259.739 501.427 264.682C501.427 269.542 504.275 272.363 508.018 272.363ZM516.458 272H517.464V260.744C519.335 258.817 520.676 257.839 522.491 257.839C525.005 257.839 526.038 259.431 526.038 262.671V272H527.044V262.532C527.044 258.733 525.619 256.918 522.603 256.918C520.564 256.918 519.028 258.091 517.464 259.683V249.823H516.458V272ZM535.68 272.363C537.635 272.363 539.478 271.274 540.987 270.045H541.07L541.21 272H542.048V262.476C542.048 259.487 540.987 256.918 537.523 256.918C535.121 256.918 533.082 258.147 532.161 258.817L532.663 259.627C533.613 258.873 535.373 257.839 537.467 257.839C540.512 257.839 541.126 260.437 541.042 262.811C534.423 263.565 531.434 265.101 531.434 268.369C531.434 271.162 533.389 272.363 535.68 272.363ZM535.764 271.441C533.976 271.441 532.468 270.603 532.468 268.341C532.468 265.855 534.646 264.375 541.042 263.677V268.956C539.115 270.603 537.523 271.441 535.764 271.441ZM547.498 272H548.503V257.281H547.498V272ZM548.029 253.566C548.587 253.566 549.034 253.147 549.034 252.421C549.034 251.806 548.587 251.36 548.029 251.36C547.442 251.36 547.023 251.806 547.023 252.421C547.023 253.147 547.442 253.566 548.029 253.566ZM554.344 272H555.35V260.744C557.221 258.817 558.562 257.839 560.377 257.839C562.891 257.839 563.924 259.431 563.924 262.671V272H564.93V262.532C564.93 258.733 563.505 256.918 560.489 256.918C558.45 256.918 556.914 258.091 555.405 259.627H555.35L555.182 257.281H554.344V272ZM582.185 272.363C585.704 272.363 588.721 269.43 588.721 264.431C588.721 259.878 586.794 256.918 582.8 256.918C580.956 256.918 579.141 258.035 577.605 259.32L577.688 256.359V249.823H576.683V272H577.521L577.66 270.52H577.744C579.113 271.637 580.789 272.363 582.185 272.363ZM582.269 271.441C581.096 271.441 579.364 270.911 577.688 269.458V260.381C579.504 258.761 581.208 257.839 582.716 257.839C586.319 257.839 587.659 260.688 587.659 264.431C587.659 268.537 585.397 271.441 582.269 271.441ZM595.904 272.363C597.859 272.363 599.703 271.274 601.211 270.045H601.295L601.435 272H602.272V262.476C602.272 259.487 601.211 256.918 597.748 256.918C595.346 256.918 593.307 258.147 592.385 258.817L592.888 259.627C593.837 258.873 595.597 257.839 597.692 257.839C600.736 257.839 601.351 260.437 601.267 262.811C594.647 263.565 591.659 265.101 591.659 268.369C591.659 271.162 593.614 272.363 595.904 272.363ZM595.988 271.441C594.201 271.441 592.692 270.603 592.692 268.341C592.692 265.855 594.871 264.375 601.267 263.677V268.956C599.34 270.603 597.748 271.441 595.988 271.441ZM611.186 272.363C614.286 272.363 615.99 270.464 615.99 268.285C615.99 265.408 613.448 264.682 611.102 263.789C609.342 263.118 607.667 262.448 607.667 260.688C607.667 259.236 608.784 257.839 611.214 257.839C612.75 257.839 613.783 258.454 614.761 259.18L615.347 258.426C614.314 257.532 612.75 256.918 611.27 256.918C608.225 256.918 606.633 258.705 606.633 260.744C606.633 263.286 609.035 264.124 611.27 264.934C613.001 265.548 614.956 266.414 614.956 268.341C614.956 270.017 613.7 271.441 611.242 271.441C609.063 271.441 607.695 270.603 606.466 269.542L605.823 270.352C607.136 271.441 608.979 272.363 611.186 272.363ZM625.498 272.363C627.676 272.363 628.933 271.637 630.05 270.967L629.603 270.101C628.486 270.911 627.229 271.441 625.553 271.441C622.09 271.441 619.828 268.593 619.828 264.71H630.609C630.665 264.319 630.665 264.012 630.665 263.705C630.665 259.348 628.514 256.918 625.106 256.918C621.839 256.918 618.766 259.878 618.766 264.682C618.766 269.486 621.783 272.363 625.498 272.363ZM619.828 263.789C620.135 260.074 622.481 257.839 625.106 257.839C627.872 257.839 629.687 259.794 629.687 263.789H619.828ZM639.584 272.363C641.623 272.363 643.271 271.274 644.5 270.045H644.556L644.695 272H645.533V249.823H644.528V255.996L644.611 258.761C643.103 257.588 641.874 256.918 640.087 256.918C636.512 256.918 633.495 259.934 633.495 264.682C633.495 269.654 635.897 272.363 639.584 272.363ZM639.668 271.441C636.4 271.441 634.557 268.704 634.557 264.682C634.557 260.884 636.931 257.839 640.031 257.839C641.567 257.839 642.908 258.398 644.528 259.85V268.9C642.908 270.52 641.372 271.441 639.668 271.441ZM662.779 272.363C666.298 272.363 669.314 269.542 669.314 264.682C669.314 259.739 666.298 256.918 662.779 256.918C659.26 256.918 656.243 259.739 656.243 264.682C656.243 269.542 659.26 272.363 662.779 272.363ZM662.779 271.441C659.651 271.441 657.304 268.704 657.304 264.682C657.304 260.632 659.651 257.839 662.779 257.839C665.907 257.839 668.281 260.632 668.281 264.682C668.281 268.704 665.907 271.441 662.779 271.441ZM673.893 272H674.899V260.744C676.77 258.817 678.111 257.839 679.926 257.839C682.44 257.839 683.473 259.431 683.473 262.671V272H684.479V262.532C684.479 258.733 683.054 256.918 680.038 256.918C677.999 256.918 676.463 258.091 674.955 259.627H674.899L674.731 257.281H673.893V272ZM700.03 272.363C700.533 272.363 701.455 272.112 702.321 271.804L701.986 270.967C701.455 271.218 700.673 271.441 700.114 271.441C697.964 271.441 697.545 270.129 697.545 268.229V258.202H701.902V257.281H697.545V252.98H696.679L696.567 257.281L694.221 257.42V258.202H696.567V268.09C696.567 270.659 697.293 272.363 700.03 272.363ZM705.56 272H706.566V260.744C708.437 258.817 709.778 257.839 711.593 257.839C714.107 257.839 715.14 259.431 715.14 262.671V272H716.146V262.532C716.146 258.733 714.721 256.918 711.705 256.918C709.666 256.918 708.13 258.091 706.566 259.683V249.823H705.56V272ZM727.072 272.363C729.251 272.363 730.507 271.637 731.625 270.967L731.178 270.101C730.06 270.911 728.804 271.441 727.128 271.441C723.664 271.441 721.402 268.593 721.402 264.71H732.183C732.239 264.319 732.239 264.012 732.239 263.705C732.239 259.348 730.088 256.918 726.681 256.918C723.413 256.918 720.341 259.878 720.341 264.682C720.341 269.486 723.357 272.363 727.072 272.363ZM721.402 263.789C721.709 260.074 724.055 257.839 726.681 257.839C729.446 257.839 731.261 259.794 731.261 263.789H721.402ZM747.798 272.363C751.625 272.363 754.138 270.101 754.138 267C754.138 263.872 752.127 262.671 749.837 261.638L746.737 260.241C745.312 259.599 743.19 258.677 743.19 256.136C743.19 253.845 745.061 252.337 747.882 252.337C749.949 252.337 751.597 253.203 752.77 254.46L753.412 253.762C752.239 252.477 750.34 251.36 747.882 251.36C744.586 251.36 742.128 253.315 742.128 256.247C742.128 259.236 744.502 260.437 746.262 261.219L749.362 262.615C751.401 263.537 753.105 264.375 753.105 267.084C753.105 269.626 751.038 271.386 747.798 271.386C745.368 271.386 743.218 270.296 741.737 268.565L741.039 269.291C742.575 271.078 744.81 272.363 747.798 272.363ZM762.583 272.363C764.622 272.363 766.158 271.19 767.638 269.486H767.694L767.806 272H768.671V257.281H767.666V268.285C765.85 270.464 764.482 271.441 762.666 271.441C760.181 271.441 759.147 269.877 759.147 266.637V257.281H758.142V266.749C758.142 270.576 759.566 272.363 762.583 272.363ZM780.015 272.363C783.534 272.363 786.551 269.43 786.551 264.431C786.551 259.878 784.624 256.918 780.63 256.918C778.786 256.918 776.971 258.035 775.435 259.32L775.518 256.359V249.823H774.513V272H775.351L775.491 270.52H775.574C776.943 271.637 778.619 272.363 780.015 272.363ZM780.099 271.441C778.926 271.441 777.194 270.911 775.518 269.458V260.381C777.334 258.761 779.038 257.839 780.546 257.839C784.149 257.839 785.49 260.688 785.49 264.431C785.49 268.537 783.227 271.441 780.099 271.441ZM794.533 272.363C797.633 272.363 799.337 270.464 799.337 268.285C799.337 265.408 796.795 264.682 794.449 263.789C792.689 263.118 791.013 262.448 791.013 260.688C791.013 259.236 792.131 257.839 794.561 257.839C796.097 257.839 797.13 258.454 798.108 259.18L798.694 258.426C797.661 257.532 796.097 256.918 794.616 256.918C791.572 256.918 789.98 258.705 789.98 260.744C789.98 263.286 792.382 264.124 794.616 264.934C796.348 265.548 798.303 266.414 798.303 268.341C798.303 270.017 797.046 271.441 794.589 271.441C792.41 271.441 791.041 270.603 789.812 269.542L789.17 270.352C790.483 271.441 792.326 272.363 794.533 272.363ZM806.569 272.363C807.072 272.363 807.993 272.112 808.859 271.804L808.524 270.967C807.993 271.218 807.211 271.441 806.653 271.441C804.502 271.441 804.083 270.129 804.083 268.229V258.202H808.44V257.281H804.083V252.98H803.217L803.106 257.281L800.76 257.42V258.202H803.106V268.09C803.106 270.659 803.832 272.363 806.569 272.363ZM812.099 272H813.104V261.833C814.249 258.929 815.869 257.895 817.182 257.895C817.769 257.895 818.02 257.951 818.495 258.147L818.746 257.225C818.243 256.974 817.825 256.918 817.322 256.918C815.562 256.918 814.138 258.258 813.16 260.046H813.104L812.937 257.281H812.099V272ZM824.092 272.363C826.047 272.363 827.891 271.274 829.399 270.045H829.483L829.622 272H830.46V262.476C830.46 259.487 829.399 256.918 825.936 256.918C823.534 256.918 821.495 258.147 820.573 258.817L821.076 259.627C822.025 258.873 823.785 257.839 825.88 257.839C828.924 257.839 829.539 260.437 829.455 262.811C822.835 263.565 819.847 265.101 819.847 268.369C819.847 271.162 821.802 272.363 824.092 272.363ZM824.176 271.441C822.388 271.441 820.88 270.603 820.88 268.341C820.88 265.855 823.059 264.375 829.455 263.677V268.956C827.528 270.603 825.936 271.441 824.176 271.441ZM839.409 272.363C839.912 272.363 840.833 272.112 841.699 271.804L841.364 270.967C840.833 271.218 840.051 271.441 839.493 271.441C837.342 271.441 836.923 270.129 836.923 268.229V258.202H841.28V257.281H836.923V252.98H836.057L835.946 257.281L833.599 257.42V258.202H835.946V268.09C835.946 270.659 836.672 272.363 839.409 272.363ZM850.085 272.363C852.264 272.363 853.52 271.637 854.638 270.967L854.191 270.101C853.074 270.911 851.817 271.441 850.141 271.441C846.678 271.441 844.415 268.593 844.415 264.71H855.196C855.252 264.319 855.252 264.012 855.252 263.705C855.252 259.348 853.101 256.918 849.694 256.918C846.426 256.918 843.354 259.878 843.354 264.682C843.354 269.486 846.37 272.363 850.085 272.363ZM844.415 263.789C844.722 260.074 847.069 257.839 849.694 257.839C852.459 257.839 854.275 259.794 854.275 263.789H844.415Z" fill="white"/>
<defs>
<linearGradient id="paint0_linear" x1="9.96421e-06" y1="18.5" x2="1239.14" y2="494.805" gradientUnits="userSpaceOnUse">
<stop stop-color="#131313"/>
<stop offset="1"/>
</linearGradient>
<linearGradient id="paint1_linear" x1="191.108" y1="209.36" x2="32.2093" y2="-61.1976" gradientUnits="userSpaceOnUse">
<stop stop-color="#C4C4C4"/>
<stop offset="1" stop-color="#C4C4C4" stop-opacity="0"/>
</linearGradient>
<linearGradient id="paint2_linear" x1="1088.79" y1="142.469" x2="1247.69" y2="413.027" gradientUnits="userSpaceOnUse">
<stop stop-color="#C4C4C4"/>
<stop offset="1" stop-color="#C4C4C4" stop-opacity="0"/>
</linearGradient>
<linearGradient id="paint3_linear" x1="188.095" y1="184.389" x2="325.462" y2="279.096" gradientUnits="userSpaceOnUse">
<stop stop-color="white"/>
<stop offset="1" stop-color="white" stop-opacity="0"/>
</linearGradient>
<linearGradient id="paint4_linear" x1="415.772" y1="104" x2="415.772" y2="229.616" gradientUnits="userSpaceOnUse">
<stop stop-color="white"/>
<stop offset="1" stop-color="white" stop-opacity="0"/>
</linearGradient>
<linearGradient id="paint5_linear" x1="796.647" y1="275.85" x2="728.538" y2="204.386" gradientUnits="userSpaceOnUse">
<stop stop-color="white"/>
<stop offset="1" stop-color="white" stop-opacity="0"/>
</linearGradient>
<linearGradient id="paint6_linear" x1="1049.36" y1="207.069" x2="945.212" y2="155.534" gradientUnits="userSpaceOnUse">
<stop stop-color="white"/>
<stop offset="1" stop-color="white" stop-opacity="0"/>
</linearGradient>
<linearGradient id="paint7_linear" x1="564.839" y1="101.747" x2="564.839" y2="128.505" gradientUnits="userSpaceOnUse">
<stop stop-color="#7AEDCF"/>
<stop offset="0.201333" stop-color="#68CEFA"/>
<stop offset="0.403244" stop-color="#689CF8"/>
<stop offset="0.602076" stop-color="#AC57C0"/>
<stop offset="0.801867" stop-color="#E65659"/>
<stop offset="1" stop-color="#F2C241"/>
</linearGradient>
<clipPath id="clip0">
<rect width="35.6773" height="35.6773" fill="white" transform="translate(547 92.8274)"/>
</clipPath>
</defs>
</svg>
