<svg width="1280" height="370" viewBox="0 0 1280 370" fill="none" xmlns="http://www.w3.org/2000/svg">
<g clip-path="url(#clip0)">
<path d="M1280 0H0V370H1280V0Z" fill="white"/>
<path d="M1280 0H0V370H1280V0Z" fill="url(#paint0_linear)"/>
<g opacity="0.8">
<mask id="mask0" mask-type="alpha" maskUnits="userSpaceOnUse" x="0" y="0" width="215" height="333">
<g opacity="0.8">
<path opacity="0.8" d="M214.728 0H0V332.829H214.728V0Z" fill="url(#paint1_linear)"/>
</g>
</mask>
<g mask="url(#mask0)">
<g opacity="0.8">
<path opacity="0.8" d="M-68.2942 -48.9398C-70.666 -53.0479 -75.9191 -54.4555 -80.0272 -52.0836C-84.1353 -49.7118 -85.5428 -44.4588 -83.171 -40.3507L117.65 307.482C120.022 311.59 125.275 312.997 129.383 310.625C133.491 308.254 134.899 303.001 132.527 298.892L-68.2942 -48.9398Z" fill="#E91555"/>
<path opacity="0.8" d="M-59.4796 -93.7965C-61.8514 -97.9046 -67.1045 -99.3121 -71.2126 -96.9403C-75.3207 -94.5685 -76.7283 -89.3155 -74.3564 -85.2073L126.465 262.625C128.836 266.733 134.089 268.141 138.198 265.769C142.306 263.397 143.713 258.144 141.341 254.036L-59.4796 -93.7965Z" fill="#FF6B00"/>
<path opacity="0.8" d="M-50.7562 -138.812C-53.1281 -142.92 -58.3811 -144.327 -62.4892 -141.955C-66.5973 -139.584 -68.0049 -134.331 -65.633 -130.222L135.188 217.61C137.56 221.718 142.813 223.125 146.921 220.754C151.029 218.382 152.437 213.129 150.065 209.021L-50.7562 -138.812Z" fill="#FFD600"/>
<path opacity="0.8" d="M-42.0331 -183.826C-44.4049 -187.934 -49.6579 -189.342 -53.7661 -186.97C-57.8742 -184.598 -59.2817 -179.345 -56.9099 -175.237L143.911 172.595C146.283 176.703 151.536 178.111 155.644 175.739C159.752 173.367 161.16 168.114 158.788 164.006L-42.0331 -183.826Z" fill="#10DF6F"/>
<path opacity="0.8" d="M-33.3098 -228.841C-35.6816 -232.949 -40.9347 -234.357 -45.0428 -231.985C-49.1509 -229.613 -50.5585 -224.36 -48.1866 -220.252L152.634 127.58C155.006 131.688 160.259 133.096 164.367 130.724C168.475 128.352 169.883 123.099 167.511 118.991L-33.3098 -228.841Z" fill="#1080FB"/>
<path opacity="0.8" d="M-24.5864 -273.856C-26.9583 -277.964 -32.2113 -279.371 -36.3194 -276.999C-40.4275 -274.628 -41.8351 -269.375 -39.4632 -265.266L161.358 82.5657C163.73 86.6739 168.983 88.0814 173.091 85.7096C177.199 83.3378 178.606 78.0847 176.235 73.9766L-24.5864 -273.856Z" fill="#A015EE"/>
</g>
</g>
</g>
<g opacity="0.8">
<mask id="mask1" mask-type="alpha" maskUnits="userSpaceOnUse" x="1065" y="19" width="215" height="333">
<g opacity="0.8">
<path opacity="0.8" d="M1065.17 351.829H1279.9V19.0001H1065.17V351.829Z" fill="url(#paint2_linear)"/>
</g>
</mask>
<g mask="url(#mask1)">
<g opacity="0.8">
<path opacity="0.8" d="M1348.2 400.769C1350.57 404.877 1355.82 406.284 1359.93 403.913C1364.04 401.541 1365.45 396.288 1363.07 392.18L1162.25 44.3475C1159.88 40.2394 1154.63 38.8318 1150.52 41.2036C1146.41 43.5755 1145 48.8285 1147.38 52.9366L1348.2 400.769Z" fill="#E91555"/>
<path opacity="0.8" d="M1339.38 445.626C1341.75 449.734 1347 451.142 1351.11 448.77C1355.22 446.398 1356.63 441.145 1354.26 437.037L1153.44 89.2045C1151.06 85.0963 1145.81 83.6888 1141.7 86.0607C1137.59 88.4325 1136.19 93.6855 1138.56 97.7936L1339.38 445.626Z" fill="#FF6B00"/>
<path opacity="0.8" d="M1330.66 490.641C1333.03 494.749 1338.28 496.157 1342.39 493.785C1346.5 491.413 1347.91 486.16 1345.53 482.052L1144.71 134.22C1142.34 130.112 1137.09 128.704 1132.98 131.076C1128.87 133.448 1127.46 138.701 1129.84 142.809L1330.66 490.641Z" fill="#FFD600"/>
<path opacity="0.8" d="M1321.93 535.656C1324.31 539.764 1329.56 541.171 1333.67 538.799C1337.77 536.428 1339.18 531.175 1336.81 527.066L1135.99 179.234C1133.62 175.126 1128.36 173.719 1124.26 176.09C1120.15 178.462 1118.74 183.715 1121.11 187.823L1321.93 535.656Z" fill="#10DF6F"/>
<path opacity="0.8" d="M1313.21 580.671C1315.58 584.779 1320.83 586.186 1324.94 583.815C1329.05 581.443 1330.46 576.19 1328.09 572.082L1127.27 224.249C1124.89 220.141 1119.64 218.734 1115.53 221.106C1111.42 223.477 1110.02 228.73 1112.39 232.839L1313.21 580.671Z" fill="#1080FB"/>
<path opacity="0.8" d="M1304.49 625.685C1306.86 629.793 1312.11 631.201 1316.22 628.829C1320.33 626.457 1321.74 621.204 1319.36 617.096L1118.54 269.264C1116.17 265.155 1110.92 263.748 1106.81 266.12C1102.7 268.492 1101.29 273.745 1103.67 277.853L1304.49 625.685Z" fill="#A015EE"/>
</g>
</g>
</g>
<path d="M234.969 174H245.058V160.078H249.962C258.867 160.078 266.532 155.682 266.532 145.706C266.532 135.335 258.923 132.009 249.736 132.009H234.969V174ZM245.058 152.131V140.013H249.172C254.02 140.013 256.725 141.478 256.725 145.706C256.725 149.82 254.358 152.131 249.454 152.131H245.058ZM273.664 174H283.753V159.233H288.6L296.322 174H307.594L298.238 157.373C302.578 155.344 305.453 151.398 305.453 145.255C305.453 135.109 298.013 132.009 289.051 132.009H273.664V174ZM283.753 151.286V140.013H288.262C293.053 140.013 295.645 141.309 295.645 145.255C295.645 149.2 293.053 151.286 288.262 151.286H283.753ZM330.873 174.789C342.315 174.789 350.093 166.56 350.093 152.807C350.093 139.111 342.315 131.277 330.873 131.277C319.431 131.277 311.653 139.055 311.653 152.807C311.653 166.56 319.431 174.789 330.873 174.789ZM330.873 166.109C325.349 166.109 321.968 160.924 321.968 152.807C321.968 144.691 325.349 139.9 330.873 139.9C336.397 139.9 339.835 144.691 339.835 152.807C339.835 160.924 336.397 166.109 330.873 166.109ZM364.433 174H376.551L389.12 132.009H378.862L374.127 151.173C372.943 155.682 372.098 159.966 370.858 164.587H370.576C369.393 159.966 368.547 155.682 367.307 151.173L362.516 132.009H351.863L364.433 174ZM393.436 174H403.525V132.009H393.436V174ZM413.141 174H425.767C437.997 174 446.452 167.405 446.452 152.807C446.452 138.209 437.997 132.009 425.203 132.009H413.141V174ZM423.23 165.884V140.069H424.583C431.346 140.069 436.137 142.831 436.137 152.807C436.137 162.784 431.346 165.884 424.583 165.884H423.23ZM454.203 174H481.426V165.545H464.292V156.64H478.326V148.186H464.292V140.407H480.806V132.009H454.203V174ZM515.605 174.789C525.75 174.789 531.612 168.645 531.612 161.656C531.612 155.738 528.512 152.244 523.327 150.158L518.085 148.073C514.365 146.607 511.772 145.706 511.772 143.338C511.772 141.14 513.632 139.9 516.732 139.9C520.001 139.9 522.594 141.027 525.356 143.113L530.372 136.8C526.709 133.137 521.579 131.277 516.732 131.277C507.827 131.277 501.514 136.913 501.514 143.958C501.514 150.046 505.629 153.709 510.025 155.456L515.38 157.711C518.987 159.233 521.298 160.022 521.298 162.445C521.298 164.7 519.55 166.109 515.83 166.109C512.505 166.109 508.616 164.362 505.685 161.826L499.936 168.758C504.276 172.76 510.138 174.789 515.605 174.789ZM545.378 174H555.467V140.407H566.853V132.009H534.049V140.407H545.378V174ZM580.929 153.033C582 148.862 583.127 143.958 584.142 139.562H584.367C585.495 143.846 586.566 148.862 587.693 153.033L588.595 156.584H580.027L580.929 153.033ZM565.429 174H575.687L578.111 164.362H590.511L592.935 174H603.531L590.511 132.009H578.449L565.429 174ZM607.936 174H618.025V163.009L622.591 156.809L632.511 174H643.502L628.452 148.862L641.134 132.009H630.087L618.194 148.636H618.025V132.009H607.936V174ZM647.842 174H657.931V132.009H647.842V174ZM667.547 174H677.129V160.078C677.129 155.006 676.283 149.256 675.833 144.578H676.114L680.229 153.766L690.6 174H700.858V132.009H691.276V145.931C691.276 150.947 692.122 156.978 692.629 161.431H692.347L688.232 152.131L677.805 132.009H667.547V174ZM729.472 174.789C735.334 174.789 740.519 172.478 743.45 169.66V150.046H727.838V158.275H734.488V165.038C733.587 165.715 732.008 166.109 730.543 166.109C722.708 166.109 718.988 161.262 718.988 152.92C718.988 144.747 723.441 139.9 729.641 139.9C733.136 139.9 735.334 141.309 737.419 143.169L742.717 136.744C739.843 133.869 735.447 131.277 729.303 131.277C718.087 131.277 708.674 139.28 708.674 153.258C708.674 167.462 717.861 174.789 729.472 174.789ZM764.807 174H791.241V165.545H774.896V132.009H764.807V174ZM798.493 174H808.582V132.009H798.493V174ZM835.502 166.56C829.978 166.56 826.596 161.544 826.596 152.807C826.596 144.691 829.978 139.9 835.502 139.9C841.025 139.9 844.464 144.691 844.464 152.807C844.464 161.544 841.025 166.56 835.502 166.56ZM849.48 185.836C852.805 185.836 855.511 185.273 857.145 184.427L855.342 177.1C854.045 177.551 852.411 177.889 850.607 177.889C847.225 177.889 843.449 176.818 841.533 173.944C849.593 171.464 854.722 163.967 854.722 152.807C854.722 139.111 846.943 131.277 835.502 131.277C824.06 131.277 816.282 139.055 816.282 152.807C816.282 164.644 822.031 172.365 830.936 174.338C833.98 181.045 840.349 185.836 849.48 185.836ZM879.304 174.789C890.464 174.789 896.1 168.42 896.1 154.273V132.009H886.405V155.344C886.405 163.291 883.869 166.109 879.304 166.109C874.682 166.109 872.315 163.291 872.315 155.344V132.009H862.282V154.273C862.282 168.42 868.087 174.789 879.304 174.789ZM905.495 174H915.584V132.009H905.495V174ZM925.201 174H937.826C950.057 174 958.511 167.405 958.511 152.807C958.511 138.209 950.057 132.009 937.262 132.009H925.201V174ZM935.29 165.884V140.069H936.642C943.406 140.069 948.197 142.831 948.197 152.807C948.197 162.784 943.406 165.884 936.642 165.884H935.29ZM966.262 174H976.351V132.009H966.262V174ZM994.084 174H1004.17V140.407H1015.56V132.009H982.755V140.407H994.084V174ZM1028.03 174H1038.06V159.176L1050.74 132.009H1040.2L1036.71 141.366C1035.52 144.522 1034.39 147.453 1033.21 150.722H1032.99C1031.8 147.453 1030.73 144.522 1029.6 141.366L1026.11 132.009H1015.4L1028.03 159.176V174Z" fill="white"/>
<path d="M380.833 251.659C383.263 251.659 385.555 250.305 387.43 248.777H387.534L387.708 251.208H388.75V239.367C388.75 235.652 387.43 232.457 383.124 232.457C380.138 232.457 377.603 233.985 376.457 234.818L377.082 235.825C378.263 234.888 380.451 233.603 383.055 233.603C386.84 233.603 387.604 236.832 387.5 239.784C379.27 240.721 375.555 242.631 375.555 246.694C375.555 250.166 377.985 251.659 380.833 251.659ZM380.937 250.514C378.714 250.514 376.839 249.472 376.839 246.659C376.839 243.569 379.548 241.728 387.5 240.86V247.423C385.104 249.472 383.124 250.514 380.937 250.514ZM403.155 259.646H404.405V249.368C406.35 250.826 408.26 251.659 409.996 251.659C414.371 251.659 418.121 248.013 418.121 241.798C418.121 236.138 415.725 232.457 410.76 232.457C408.468 232.457 406.28 233.846 404.475 235.27H404.405L404.197 232.908H403.155V259.646ZM410.1 250.514C408.642 250.514 406.558 249.854 404.405 248.048V236.763C406.732 234.749 408.781 233.603 410.656 233.603C415.135 233.603 416.802 237.145 416.802 241.798C416.802 246.902 413.989 250.514 410.1 250.514ZM427.12 251.659C429.551 251.659 431.842 250.305 433.718 248.777H433.822L433.995 251.208H435.037V239.367C435.037 235.652 433.718 232.457 429.412 232.457C426.425 232.457 423.891 233.985 422.745 234.818L423.37 235.825C424.55 234.888 426.738 233.603 429.342 233.603C433.127 233.603 433.891 236.832 433.787 239.784C425.557 240.721 421.842 242.631 421.842 246.694C421.842 250.166 424.273 251.659 427.12 251.659ZM427.224 250.514C425.002 250.514 423.127 249.472 423.127 246.659C423.127 243.569 425.835 241.728 433.787 240.86V247.423C431.391 249.472 429.412 250.514 427.224 250.514ZM441.813 251.208H443.063V238.568C444.487 234.957 446.501 233.672 448.133 233.672C448.862 233.672 449.174 233.742 449.765 233.985L450.077 232.839C449.452 232.526 448.931 232.457 448.306 232.457C446.119 232.457 444.348 234.124 443.132 236.346H443.063L442.855 232.908H441.813V251.208ZM456.724 251.659C459.154 251.659 461.446 250.305 463.321 248.777H463.425L463.599 251.208H464.641V239.367C464.641 235.652 463.321 232.457 459.015 232.457C456.029 232.457 453.494 233.985 452.348 234.818L452.973 235.825C454.154 234.888 456.342 233.603 458.946 233.603C462.731 233.603 463.495 236.832 463.391 239.784C455.161 240.721 451.445 242.631 451.445 246.694C451.445 250.166 453.876 251.659 456.724 251.659ZM456.828 250.514C454.605 250.514 452.73 249.472 452.73 246.659C452.73 243.569 455.439 241.728 463.391 240.86V247.423C460.995 249.472 459.015 250.514 456.828 250.514ZM478.014 251.659C480.375 251.659 482.32 250.583 483.848 249.229L483.118 248.326C481.834 249.541 480.063 250.514 478.049 250.514C473.882 250.514 471.139 247.111 471.139 242.11C471.139 237.075 474.194 233.603 478.049 233.603C479.924 233.603 481.382 234.506 482.598 235.652L483.396 234.749C482.181 233.603 480.549 232.457 478.049 232.457C473.639 232.457 469.819 235.964 469.819 242.11C469.819 248.152 473.361 251.659 478.014 251.659ZM488.507 251.208H489.757V237.214C492.084 234.818 493.75 233.603 496.007 233.603C499.133 233.603 500.417 235.582 500.417 239.61V251.208H501.667V239.437C501.667 234.714 499.897 232.457 496.146 232.457C493.612 232.457 491.702 233.915 489.757 235.895V223.637H488.507V251.208ZM512.404 251.659C514.835 251.659 517.126 250.305 519.002 248.777H519.106L519.279 251.208H520.321V239.367C520.321 235.652 519.002 232.457 514.696 232.457C511.71 232.457 509.175 233.985 508.029 234.818L508.654 235.825C509.834 234.888 512.022 233.603 514.626 233.603C518.411 233.603 519.175 236.832 519.071 239.784C510.841 240.721 507.126 242.631 507.126 246.694C507.126 250.166 509.557 251.659 512.404 251.659ZM512.508 250.514C510.286 250.514 508.411 249.472 508.411 246.659C508.411 243.569 511.119 241.728 519.071 240.86V247.423C516.675 249.472 514.696 250.514 512.508 250.514ZM527.097 251.208H528.347V232.908H527.097V251.208ZM527.757 228.29C528.451 228.29 529.007 227.769 529.007 226.866C529.007 226.103 528.451 225.547 527.757 225.547C527.027 225.547 526.507 226.103 526.507 226.866C526.507 227.769 527.027 228.29 527.757 228.29ZM535.608 251.208H536.858V237.214C539.185 234.818 540.852 233.603 543.109 233.603C546.234 233.603 547.519 235.582 547.519 239.61V251.208H548.769V239.437C548.769 234.714 546.998 232.457 543.248 232.457C540.713 232.457 538.803 233.915 536.928 235.825H536.858L536.65 232.908H535.608V251.208ZM570.221 251.659C574.597 251.659 578.347 248.013 578.347 241.798C578.347 236.138 575.951 232.457 570.985 232.457C568.693 232.457 566.436 233.846 564.527 235.443L564.631 231.763V223.637H563.381V251.208H564.422L564.596 249.368H564.7C566.402 250.757 568.485 251.659 570.221 251.659ZM570.326 250.514C568.867 250.514 566.714 249.854 564.631 248.048V236.763C566.888 234.749 569.006 233.603 570.881 233.603C575.36 233.603 577.027 237.145 577.027 241.798C577.027 246.902 574.215 250.514 570.326 250.514ZM587.278 251.659C589.708 251.659 592 250.305 593.875 248.777H593.979L594.153 251.208H595.195V239.367C595.195 235.652 593.875 232.457 589.569 232.457C586.583 232.457 584.048 233.985 582.902 234.818L583.527 235.825C584.708 234.888 586.896 233.603 589.5 233.603C593.285 233.603 594.049 236.832 593.945 239.784C585.715 240.721 582 242.631 582 246.694C582 250.166 584.43 251.659 587.278 251.659ZM587.382 250.514C585.159 250.514 583.284 249.472 583.284 246.659C583.284 243.569 585.993 241.728 593.945 240.86V247.423C591.549 249.472 589.569 250.514 587.382 250.514ZM606.276 251.659C610.131 251.659 612.249 249.298 612.249 246.59C612.249 243.013 609.089 242.11 606.172 240.999C603.984 240.166 601.901 239.332 601.901 237.145C601.901 235.339 603.29 233.603 606.311 233.603C608.221 233.603 609.506 234.367 610.721 235.27L611.45 234.332C610.165 233.221 608.221 232.457 606.38 232.457C602.595 232.457 600.616 234.679 600.616 237.214C600.616 240.374 603.602 241.416 606.38 242.423C608.533 243.187 610.964 244.263 610.964 246.659C610.964 248.743 609.401 250.514 606.346 250.514C603.637 250.514 601.936 249.472 600.408 248.152L599.609 249.159C601.241 250.514 603.533 251.659 606.276 251.659ZM624.069 251.659C626.777 251.659 628.34 250.757 629.729 249.923L629.173 248.847C627.784 249.854 626.222 250.514 624.138 250.514C619.833 250.514 617.02 246.972 617.02 242.145H630.424C630.493 241.659 630.493 241.277 630.493 240.895C630.493 235.478 627.819 232.457 623.583 232.457C619.52 232.457 615.701 236.138 615.701 242.11C615.701 248.083 619.451 251.659 624.069 251.659ZM617.02 240.999C617.402 236.381 620.319 233.603 623.583 233.603C627.021 233.603 629.278 236.034 629.278 240.999H617.02ZM641.582 251.659C644.117 251.659 646.165 250.305 647.693 248.777H647.763L647.936 251.208H648.978V223.637H647.728V231.311L647.832 234.749C645.957 233.29 644.429 232.457 642.207 232.457C637.762 232.457 634.012 236.207 634.012 242.11C634.012 248.291 636.998 251.659 641.582 251.659ZM641.686 250.514C637.623 250.514 635.332 247.111 635.332 242.11C635.332 237.388 638.283 233.603 642.137 233.603C644.047 233.603 645.714 234.297 647.728 236.103V247.354C645.714 249.368 643.804 250.514 641.686 250.514ZM670.418 251.659C674.794 251.659 678.544 248.152 678.544 242.11C678.544 235.964 674.794 232.457 670.418 232.457C666.043 232.457 662.293 235.964 662.293 242.11C662.293 248.152 666.043 251.659 670.418 251.659ZM670.418 250.514C666.529 250.514 663.613 247.111 663.613 242.11C663.613 237.075 666.529 233.603 670.418 233.603C674.308 233.603 677.259 237.075 677.259 242.11C677.259 247.111 674.308 250.514 670.418 250.514ZM684.236 251.208H685.487V237.214C687.813 234.818 689.48 233.603 691.737 233.603C694.862 233.603 696.147 235.582 696.147 239.61V251.208H697.397V239.437C697.397 234.714 695.626 232.457 691.876 232.457C689.341 232.457 687.431 233.915 685.556 235.825H685.487L685.278 232.908H684.236V251.208ZM716.731 251.659C717.356 251.659 718.502 251.347 719.579 250.965L719.162 249.923C718.502 250.236 717.53 250.514 716.836 250.514C714.162 250.514 713.641 248.882 713.641 246.52V234.054H719.058V232.908H713.641V227.561H712.564L712.426 232.908L709.509 233.082V234.054H712.426V246.347C712.426 249.541 713.328 251.659 716.731 251.659ZM723.606 251.208H724.856V237.214C727.183 234.818 728.849 233.603 731.107 233.603C734.232 233.603 735.516 235.582 735.516 239.61V251.208H736.767V239.437C736.767 234.714 734.996 232.457 731.245 232.457C728.711 232.457 726.801 233.915 724.856 235.895V223.637H723.606V251.208ZM750.35 251.659C753.059 251.659 754.621 250.757 756.01 249.923L755.455 248.847C754.066 249.854 752.503 250.514 750.42 250.514C746.114 250.514 743.301 246.972 743.301 242.145H756.705C756.774 241.659 756.774 241.277 756.774 240.895C756.774 235.478 754.101 232.457 749.864 232.457C745.802 232.457 741.982 236.138 741.982 242.11C741.982 248.083 745.732 251.659 750.35 251.659ZM743.301 240.999C743.683 236.381 746.6 233.603 749.864 233.603C753.302 233.603 755.559 236.034 755.559 240.999H743.301ZM773.826 251.659C777.681 251.659 779.799 249.298 779.799 246.59C779.799 243.013 776.639 242.11 773.722 240.999C771.534 240.166 769.451 239.332 769.451 237.145C769.451 235.339 770.84 233.603 773.861 233.603C775.771 233.603 777.056 234.367 778.271 235.27L779 234.332C777.715 233.221 775.771 232.457 773.93 232.457C770.146 232.457 768.166 234.679 768.166 237.214C768.166 240.374 771.153 241.416 773.93 242.423C776.083 243.187 778.514 244.263 778.514 246.659C778.514 248.743 776.951 250.514 773.896 250.514C771.187 250.514 769.486 249.472 767.958 248.152L767.159 249.159C768.791 250.514 771.083 251.659 773.826 251.659ZM790.056 251.659C792.591 251.659 794.501 250.201 796.342 248.083H796.411L796.55 251.208H797.626V232.908H796.376V246.59C794.119 249.298 792.418 250.514 790.161 250.514C787.07 250.514 785.785 248.569 785.785 244.541V232.908H784.535V244.68C784.535 249.437 786.306 251.659 790.056 251.659ZM811.729 251.659C816.105 251.659 819.855 248.013 819.855 241.798C819.855 236.138 817.459 232.457 812.493 232.457C810.202 232.457 807.944 233.846 806.035 235.443L806.139 231.763V223.637H804.889V251.208H805.931L806.104 249.368H806.208C807.91 250.757 809.993 251.659 811.729 251.659ZM811.834 250.514C810.375 250.514 808.222 249.854 806.139 248.048V236.763C808.396 234.749 810.514 233.603 812.389 233.603C816.869 233.603 818.535 237.145 818.535 241.798C818.535 246.902 815.723 250.514 811.834 250.514ZM829.778 251.659C833.632 251.659 835.751 249.298 835.751 246.59C835.751 243.013 832.591 242.11 829.674 240.999C827.486 240.166 825.403 239.332 825.403 237.145C825.403 235.339 826.792 233.603 829.813 233.603C831.723 233.603 833.007 234.367 834.223 235.27L834.952 234.332C833.667 233.221 831.723 232.457 829.882 232.457C826.097 232.457 824.118 234.679 824.118 237.214C824.118 240.374 827.104 241.416 829.882 242.423C832.035 243.187 834.466 244.263 834.466 246.659C834.466 248.743 832.903 250.514 829.847 250.514C827.139 250.514 825.438 249.472 823.91 248.152L823.111 249.159C824.743 250.514 827.035 251.659 829.778 251.659ZM844.742 251.659C845.367 251.659 846.513 251.347 847.59 250.965L847.173 249.923C846.513 250.236 845.541 250.514 844.846 250.514C842.173 250.514 841.652 248.882 841.652 246.52V234.054H847.069V232.908H841.652V227.561H840.575L840.436 232.908L837.52 233.082V234.054H840.436V246.347C840.436 249.541 841.339 251.659 844.742 251.659ZM851.617 251.208H852.867V238.568C854.291 234.957 856.305 233.672 857.937 233.672C858.666 233.672 858.978 233.742 859.569 233.985L859.881 232.839C859.256 232.526 858.735 232.457 858.11 232.457C855.923 232.457 854.152 234.124 852.936 236.346H852.867L852.659 232.908H851.617V251.208ZM866.528 251.659C868.958 251.659 871.25 250.305 873.125 248.777H873.229L873.403 251.208H874.445V239.367C874.445 235.652 873.125 232.457 868.819 232.457C865.833 232.457 863.298 233.985 862.152 234.818L862.777 235.825C863.958 234.888 866.146 233.603 868.75 233.603C872.535 233.603 873.299 236.832 873.195 239.784C864.965 240.721 861.25 242.631 861.25 246.694C861.25 250.166 863.68 251.659 866.528 251.659ZM866.632 250.514C864.409 250.514 862.534 249.472 862.534 246.659C862.534 243.569 865.243 241.728 873.195 240.86V247.423C870.799 249.472 868.819 250.514 866.632 250.514ZM885.57 251.659C886.195 251.659 887.341 251.347 888.417 250.965L888.001 249.923C887.341 250.236 886.369 250.514 885.674 250.514C883 250.514 882.48 248.882 882.48 246.52V234.054H887.897V232.908H882.48V227.561H881.403L881.264 232.908L878.347 233.082V234.054H881.264V246.347C881.264 249.541 882.167 251.659 885.57 251.659ZM898.843 251.659C901.551 251.659 903.114 250.757 904.503 249.923L903.947 248.847C902.558 249.854 900.996 250.514 898.912 250.514C894.607 250.514 891.794 246.972 891.794 242.145H905.197C905.267 241.659 905.267 241.277 905.267 240.895C905.267 235.478 902.593 232.457 898.357 232.457C894.294 232.457 890.474 236.138 890.474 242.11C890.474 248.083 894.225 251.659 898.843 251.659ZM891.794 240.999C892.176 236.381 895.093 233.603 898.357 233.603C901.795 233.603 904.052 236.034 904.052 240.999H891.794Z" fill="white"/>
</g>
<defs>
<linearGradient id="paint0_linear" x1="9.96421e-06" y1="18.5" x2="1239.14" y2="494.805" gradientUnits="userSpaceOnUse">
<stop stop-color="#131313"/>
<stop offset="1"/>
</linearGradient>
<linearGradient id="paint1_linear" x1="191.108" y1="209.36" x2="32.2093" y2="-61.1976" gradientUnits="userSpaceOnUse">
<stop stop-color="#C4C4C4"/>
<stop offset="1" stop-color="#C4C4C4" stop-opacity="0"/>
</linearGradient>
<linearGradient id="paint2_linear" x1="1088.79" y1="142.469" x2="1247.69" y2="413.027" gradientUnits="userSpaceOnUse">
<stop stop-color="#C4C4C4"/>
<stop offset="1" stop-color="#C4C4C4" stop-opacity="0"/>
</linearGradient>
<clipPath id="clip0">
<rect width="1280" height="370" fill="white"/>
</clipPath>
</defs>
</svg>
