<svg width="1280" height="370" viewBox="0 0 1280 370" fill="none" xmlns="http://www.w3.org/2000/svg">
<path d="M1280 0H0V370H1280V0Z" fill="white"/>
<path d="M1280 0H0V370H1280V0Z" fill="url(#paint0_linear)"/>
<g opacity="0.8">
<mask id="mask0" mask-type="alpha" maskUnits="userSpaceOnUse" x="0" y="0" width="215" height="333">
<g opacity="0.8">
<path opacity="0.8" d="M214.728 0H0V332.829H214.728V0Z" fill="url(#paint1_linear)"/>
</g>
</mask>
<g mask="url(#mask0)">
<g opacity="0.8">
<path opacity="0.8" d="M-68.2942 -48.9398C-70.666 -53.0479 -75.9191 -54.4555 -80.0272 -52.0836C-84.1353 -49.7118 -85.5428 -44.4588 -83.171 -40.3507L117.65 307.482C120.022 311.59 125.275 312.997 129.383 310.625C133.491 308.254 134.899 303.001 132.527 298.892L-68.2942 -48.9398Z" fill="#E91555"/>
<path opacity="0.8" d="M-59.4796 -93.7965C-61.8514 -97.9046 -67.1045 -99.3121 -71.2126 -96.9403C-75.3207 -94.5685 -76.7283 -89.3155 -74.3564 -85.2073L126.465 262.625C128.836 266.733 134.089 268.141 138.198 265.769C142.306 263.397 143.713 258.144 141.341 254.036L-59.4796 -93.7965Z" fill="#FF6B00"/>
<path opacity="0.8" d="M-50.7562 -138.812C-53.1281 -142.92 -58.3811 -144.327 -62.4892 -141.955C-66.5973 -139.584 -68.0049 -134.331 -65.633 -130.222L135.188 217.61C137.56 221.718 142.813 223.125 146.921 220.754C151.029 218.382 152.437 213.129 150.065 209.021L-50.7562 -138.812Z" fill="#FFD600"/>
<path opacity="0.8" d="M-42.0331 -183.826C-44.4049 -187.934 -49.6579 -189.342 -53.7661 -186.97C-57.8742 -184.598 -59.2817 -179.345 -56.9099 -175.237L143.911 172.595C146.283 176.703 151.536 178.111 155.644 175.739C159.752 173.367 161.16 168.114 158.788 164.006L-42.0331 -183.826Z" fill="#10DF6F"/>
<path opacity="0.8" d="M-33.3098 -228.841C-35.6816 -232.949 -40.9347 -234.357 -45.0428 -231.985C-49.1509 -229.613 -50.5585 -224.36 -48.1866 -220.252L152.634 127.58C155.006 131.688 160.259 133.096 164.367 130.724C168.475 128.352 169.883 123.099 167.511 118.991L-33.3098 -228.841Z" fill="#1080FB"/>
<path opacity="0.8" d="M-24.5864 -273.856C-26.9583 -277.964 -32.2113 -279.371 -36.3194 -276.999C-40.4275 -274.628 -41.8351 -269.375 -39.4632 -265.266L161.358 82.5657C163.73 86.6739 168.983 88.0814 173.091 85.7096C177.199 83.3378 178.606 78.0847 176.235 73.9766L-24.5864 -273.856Z" fill="#A015EE"/>
</g>
</g>
</g>
<g opacity="0.8">
<mask id="mask1" mask-type="alpha" maskUnits="userSpaceOnUse" x="1065" y="19" width="215" height="333">
<g opacity="0.8">
<path opacity="0.8" d="M1065.17 351.829H1279.9V19.0001H1065.17V351.829Z" fill="url(#paint2_linear)"/>
</g>
</mask>
<g mask="url(#mask1)">
<g opacity="0.8">
<path opacity="0.8" d="M1348.2 400.769C1350.57 404.877 1355.82 406.284 1359.93 403.913C1364.04 401.541 1365.45 396.288 1363.07 392.18L1162.25 44.3475C1159.88 40.2394 1154.63 38.8318 1150.52 41.2036C1146.41 43.5755 1145 48.8285 1147.38 52.9366L1348.2 400.769Z" fill="#E91555"/>
<path opacity="0.8" d="M1339.38 445.626C1341.75 449.734 1347 451.142 1351.11 448.77C1355.22 446.398 1356.63 441.145 1354.26 437.037L1153.44 89.2045C1151.06 85.0963 1145.81 83.6888 1141.7 86.0607C1137.59 88.4325 1136.19 93.6855 1138.56 97.7936L1339.38 445.626Z" fill="#FF6B00"/>
<path opacity="0.8" d="M1330.66 490.641C1333.03 494.749 1338.28 496.157 1342.39 493.785C1346.5 491.413 1347.91 486.16 1345.53 482.052L1144.71 134.22C1142.34 130.112 1137.09 128.704 1132.98 131.076C1128.87 133.448 1127.46 138.701 1129.84 142.809L1330.66 490.641Z" fill="#FFD600"/>
<path opacity="0.8" d="M1321.93 535.656C1324.31 539.764 1329.56 541.171 1333.67 538.799C1337.77 536.428 1339.18 531.175 1336.81 527.066L1135.99 179.234C1133.62 175.126 1128.36 173.719 1124.26 176.09C1120.15 178.462 1118.74 183.715 1121.11 187.823L1321.93 535.656Z" fill="#10DF6F"/>
<path opacity="0.8" d="M1313.21 580.671C1315.58 584.779 1320.83 586.186 1324.94 583.815C1329.05 581.443 1330.46 576.19 1328.09 572.082L1127.27 224.249C1124.89 220.141 1119.64 218.734 1115.53 221.106C1111.42 223.477 1110.02 228.73 1112.39 232.839L1313.21 580.671Z" fill="#1080FB"/>
<path opacity="0.8" d="M1304.49 625.685C1306.86 629.793 1312.11 631.201 1316.22 628.829C1320.33 626.457 1321.74 621.204 1319.36 617.096L1118.54 269.264C1116.17 265.155 1110.92 263.748 1106.81 266.12C1102.7 268.492 1101.29 273.745 1103.67 277.853L1304.49 625.685Z" fill="#A015EE"/>
</g>
</g>
</g>
<path opacity="0.2" d="M254.86 176.874H201.178C191.691 176.874 184 184.565 184 194.052V243.439C184 252.927 191.691 260.618 201.178 260.618H254.86C264.348 260.618 272.039 252.927 272.039 243.439V194.052C272.039 184.565 264.348 176.874 254.86 176.874Z" fill="url(#paint3_linear)"/>
<path opacity="0.1" d="M467.307 104H364.238C354.75 104 347.059 111.691 347.059 121.178V166.271C347.059 175.759 354.75 183.449 364.238 183.449H467.307C476.795 183.449 484.485 175.759 484.485 166.271V121.178C484.485 111.691 476.795 104 467.307 104Z" fill="url(#paint4_linear)"/>
<path opacity="0.1" d="M792.889 186.939H740.012C730.525 186.939 722.834 194.63 722.834 204.117V248.942C722.834 258.429 730.525 266.12 740.012 266.12H792.889C802.376 266.12 810.067 258.429 810.067 248.942V204.117C810.067 194.63 802.376 186.939 792.889 186.939Z" fill="url(#paint5_linear)"/>
<path opacity="0.15" d="M1079.42 177.007H1006.41C996.922 177.007 989.231 184.698 989.231 194.186V219.953C989.231 229.44 996.922 237.131 1006.41 237.131H1079.42C1088.9 237.131 1096.6 229.44 1096.6 219.953V194.186C1096.6 184.698 1088.9 177.007 1079.42 177.007Z" fill="url(#paint6_linear)"/>
<path d="M322.034 226H329.96V215.063H333.812C340.808 215.063 346.83 211.61 346.83 203.773C346.83 195.625 340.852 193.013 333.635 193.013H322.034V226ZM329.96 208.82V199.3H333.192C337 199.3 339.125 200.452 339.125 203.773C339.125 207.005 337.266 208.82 333.414 208.82H329.96ZM352.432 226H360.358V214.399H364.166L370.232 226H379.087L371.737 212.938C375.146 211.344 377.405 208.245 377.405 203.418C377.405 195.448 371.56 193.013 364.52 193.013H352.432V226ZM360.358 208.156V199.3H363.9C367.664 199.3 369.7 200.319 369.7 203.418C369.7 206.518 367.664 208.156 363.9 208.156H360.358ZM397.374 226.62C406.363 226.62 412.473 220.155 412.473 209.352C412.473 198.592 406.363 192.437 397.374 192.437C388.386 192.437 382.276 198.548 382.276 209.352C382.276 220.155 388.386 226.62 397.374 226.62ZM397.374 219.801C393.035 219.801 390.378 215.728 390.378 209.352C390.378 202.976 393.035 199.212 397.374 199.212C401.714 199.212 404.414 202.976 404.414 209.352C404.414 215.728 401.714 219.801 397.374 219.801ZM423.738 226H433.258L443.132 193.013H435.073L431.354 208.067C430.424 211.61 429.76 214.975 428.786 218.606H428.564C427.634 214.975 426.97 211.61 425.996 208.067L422.232 193.013H413.864L423.738 226ZM446.522 226H454.448V193.013H446.522V226ZM462.002 226H471.921C481.529 226 488.17 220.819 488.17 209.352C488.17 197.884 481.529 193.013 471.478 193.013H462.002V226ZM469.928 219.624V199.345H470.991C476.304 199.345 480.068 201.514 480.068 209.352C480.068 217.189 476.304 219.624 470.991 219.624H469.928ZM494.259 226H515.646V219.358H502.185V212.362H513.21V205.721H502.185V199.61H515.159V193.013H494.259V226ZM542.496 226.62C550.466 226.62 555.07 221.794 555.07 216.303C555.07 211.654 552.635 208.909 548.562 207.27L544.444 205.632C541.521 204.481 539.485 203.773 539.485 201.913C539.485 200.186 540.946 199.212 543.381 199.212C545.949 199.212 547.986 200.097 550.156 201.736L554.096 196.777C551.218 193.899 547.189 192.437 543.381 192.437C536.385 192.437 531.426 196.865 531.426 202.4C531.426 207.182 534.658 210.06 538.112 211.433L542.318 213.204C545.152 214.399 546.968 215.019 546.968 216.923C546.968 218.694 545.595 219.801 542.673 219.801C540.06 219.801 537.005 218.428 534.703 216.436L530.186 221.882C533.596 225.026 538.201 226.62 542.496 226.62ZM565.885 226H573.81V199.61H582.754V193.013H556.985V199.61H565.885V226ZM593.813 209.529C594.654 206.252 595.54 202.4 596.337 198.946H596.514C597.399 202.311 598.241 206.252 599.126 209.529L599.835 212.318H593.104L593.813 209.529ZM581.636 226H589.695L591.599 218.428H601.34L603.244 226H611.568L601.34 193.013H591.865L581.636 226ZM615.029 226H622.955V217.366L626.541 212.495L634.334 226H642.968L631.146 206.252L641.109 193.013H632.43L623.087 206.075H622.955V193.013H615.029V226ZM646.378 226H654.304V193.013H646.378V226ZM661.858 226H669.385V215.063C669.385 211.078 668.721 206.562 668.367 202.887H668.588L671.82 210.104L679.967 226H688.026V193.013H680.499V203.95C680.499 207.89 681.163 212.628 681.561 216.126H681.34L678.108 208.82L669.916 193.013H661.858V226ZM710.505 226.62C715.11 226.62 719.183 224.804 721.486 222.591V207.182H709.221V213.646H714.445V218.96C713.737 219.491 712.497 219.801 711.346 219.801C705.191 219.801 702.269 215.993 702.269 209.44C702.269 203.02 705.767 199.212 710.638 199.212C713.383 199.212 715.11 200.319 716.748 201.78L720.91 196.732C718.652 194.474 715.198 192.437 710.372 192.437C701.561 192.437 694.166 198.725 694.166 209.706C694.166 220.864 701.383 226.62 710.505 226.62ZM738.263 226H759.029V219.358H746.189V193.013H738.263V226ZM764.726 226H772.652V193.013H764.726V226ZM793.799 220.155C789.46 220.155 786.803 216.215 786.803 209.352C786.803 202.976 789.46 199.212 793.799 199.212C798.138 199.212 800.839 202.976 800.839 209.352C800.839 216.215 798.138 220.155 793.799 220.155ZM804.78 235.298C807.393 235.298 809.518 234.856 810.802 234.191L809.385 228.435C808.367 228.79 807.083 229.055 805.666 229.055C803.009 229.055 800.042 228.214 798.537 225.956C804.869 224.007 808.898 218.119 808.898 209.352C808.898 198.592 802.788 192.437 793.799 192.437C784.811 192.437 778.701 198.548 778.701 209.352C778.701 218.65 783.217 224.716 790.213 226.266C792.604 231.535 797.607 235.298 804.78 235.298ZM828.209 226.62C836.976 226.62 841.404 221.616 841.404 210.503V193.013H833.788V211.344C833.788 217.587 831.795 219.801 828.209 219.801C824.578 219.801 822.719 217.587 822.719 211.344V193.013H814.837V210.503C814.837 221.616 819.398 226.62 828.209 226.62ZM848.785 226H856.71V193.013H848.785V226ZM864.265 226H874.183C883.791 226 890.433 220.819 890.433 209.352C890.433 197.884 883.791 193.013 873.74 193.013H864.265V226ZM872.19 219.624V199.345H873.253C878.566 199.345 882.33 201.514 882.33 209.352C882.33 217.189 878.566 219.624 873.253 219.624H872.19ZM896.522 226H904.447V193.013H896.522V226ZM918.378 226H926.303V199.61H935.247V193.013H909.478V199.61H918.378V226ZM945.041 226H952.923V214.355L962.885 193.013H954.605L951.86 200.363C950.93 202.843 950.045 205.145 949.115 207.713H948.938C948.008 205.145 947.167 202.843 946.281 200.363L943.536 193.013H935.123L945.041 214.355V226Z" fill="white"/>
<path d="M433.893 263.134C434.739 260.733 435.448 258.715 436.185 256.232H436.294C437.03 258.715 437.712 260.733 438.558 263.134L439.922 267.089H432.502L433.893 263.134ZM428.711 275H429.72L432.202 267.962H440.222L442.677 275H443.768L436.676 255.196H435.776L428.711 275ZM452.932 281.629H453.914V273.554C455.442 274.7 456.942 275.355 458.306 275.355C461.743 275.355 464.689 272.49 464.689 267.608C464.689 263.161 462.807 260.27 458.906 260.27C457.106 260.27 455.387 261.361 453.969 262.479H453.914L453.751 260.624H452.932V281.629ZM458.388 274.454C457.242 274.454 455.606 273.936 453.914 272.518V263.652C455.742 262.07 457.351 261.17 458.824 261.17C462.343 261.17 463.653 263.952 463.653 267.608C463.653 271.617 461.443 274.454 458.388 274.454ZM471.758 275.355C473.668 275.355 475.468 274.291 476.941 273.091H477.023L477.16 275H477.978V265.698C477.978 262.779 476.941 260.27 473.559 260.27C471.213 260.27 469.222 261.47 468.321 262.125L468.812 262.916C469.74 262.179 471.458 261.17 473.504 261.17C476.478 261.17 477.078 263.707 476.996 266.025C470.531 266.762 467.612 268.262 467.612 271.454C467.612 274.182 469.522 275.355 471.758 275.355ZM471.84 274.454C470.094 274.454 468.621 273.636 468.621 271.427C468.621 268.999 470.749 267.553 476.996 266.871V272.027C475.114 273.636 473.559 274.454 471.84 274.454ZM483.301 275H484.283V265.071C485.401 262.234 486.983 261.224 488.265 261.224C488.838 261.224 489.084 261.279 489.548 261.47L489.793 260.57C489.302 260.324 488.893 260.27 488.402 260.27C486.683 260.27 485.292 261.579 484.337 263.325H484.283L484.119 260.624H483.301V275ZM495.014 275.355C496.924 275.355 498.724 274.291 500.197 273.091H500.279L500.415 275H501.234V265.698C501.234 262.779 500.197 260.27 496.815 260.27C494.469 260.27 492.477 261.47 491.577 262.125L492.068 262.916C492.996 262.179 494.714 261.17 496.76 261.17C499.733 261.17 500.334 263.707 500.252 266.025C493.787 266.762 490.868 268.262 490.868 271.454C490.868 274.182 492.777 275.355 495.014 275.355ZM495.096 274.454C493.35 274.454 491.877 273.636 491.877 271.427C491.877 268.999 494.005 267.553 500.252 266.871V272.027C498.37 273.636 496.815 274.454 495.096 274.454ZM511.74 275.355C513.594 275.355 515.122 274.509 516.322 273.445L515.749 272.736C514.74 273.691 513.349 274.454 511.767 274.454C508.493 274.454 506.338 271.781 506.338 267.853C506.338 263.898 508.739 261.17 511.767 261.17C513.24 261.17 514.386 261.879 515.34 262.779L515.968 262.07C515.013 261.17 513.731 260.27 511.767 260.27C508.302 260.27 505.302 263.025 505.302 267.853C505.302 272.6 508.084 275.355 511.74 275.355ZM519.983 275H520.965V264.007C522.792 262.125 524.102 261.17 525.875 261.17C528.33 261.17 529.339 262.725 529.339 265.889V275H530.321V265.753C530.321 262.043 528.93 260.27 525.984 260.27C523.993 260.27 522.492 261.415 520.965 262.97V253.341H519.983V275ZM538.756 275.355C540.665 275.355 542.465 274.291 543.938 273.091H544.02L544.157 275H544.975V265.698C544.975 262.779 543.938 260.27 540.556 260.27C538.21 260.27 536.219 261.47 535.319 262.125L535.81 262.916C536.737 262.179 538.456 261.17 540.501 261.17C543.475 261.17 544.075 263.707 543.993 266.025C537.528 266.762 534.609 268.262 534.609 271.454C534.609 274.182 536.519 275.355 538.756 275.355ZM538.837 274.454C537.092 274.454 535.619 273.636 535.619 271.427C535.619 268.999 537.746 267.553 543.993 266.871V272.027C542.111 273.636 540.556 274.454 538.837 274.454ZM550.298 275H551.28V260.624H550.298V275ZM550.816 256.996C551.362 256.996 551.798 256.587 551.798 255.878C551.798 255.278 551.362 254.841 550.816 254.841C550.243 254.841 549.834 255.278 549.834 255.878C549.834 256.587 550.243 256.996 550.816 256.996ZM556.984 275H557.966V264.007C559.794 262.125 561.103 261.17 562.877 261.17C565.332 261.17 566.341 262.725 566.341 265.889V275H567.323V265.753C567.323 262.043 565.932 260.27 562.986 260.27C560.994 260.27 559.494 261.415 558.021 262.916H557.966L557.803 260.624H556.984V275ZM584.176 275.355C587.613 275.355 590.559 272.49 590.559 267.608C590.559 263.161 588.677 260.27 584.776 260.27C582.975 260.27 581.202 261.361 579.702 262.616L579.784 259.724V253.341H578.802V275H579.62L579.757 273.554H579.838C581.175 274.645 582.812 275.355 584.176 275.355ZM584.257 274.454C583.112 274.454 581.42 273.936 579.784 272.518V263.652C581.557 262.07 583.221 261.17 584.694 261.17C588.213 261.17 589.522 263.952 589.522 267.608C589.522 271.617 587.313 274.454 584.257 274.454ZM597.575 275.355C599.484 275.355 601.284 274.291 602.757 273.091H602.839L602.976 275H603.794V265.698C603.794 262.779 602.757 260.27 599.375 260.27C597.029 260.27 595.038 261.47 594.138 262.125L594.629 262.916C595.556 262.179 597.275 261.17 599.32 261.17C602.294 261.17 602.894 263.707 602.812 266.025C596.347 266.762 593.428 268.262 593.428 271.454C593.428 274.182 595.338 275.355 597.575 275.355ZM597.656 274.454C595.911 274.454 594.438 273.636 594.438 271.427C594.438 268.999 596.565 267.553 602.812 266.871V272.027C600.93 273.636 599.375 274.454 597.656 274.454ZM612.5 275.355C615.527 275.355 617.191 273.5 617.191 271.372C617.191 268.562 614.709 267.853 612.418 266.98C610.699 266.325 609.062 265.671 609.062 263.952C609.062 262.534 610.154 261.17 612.527 261.17C614.027 261.17 615.036 261.77 615.991 262.479L616.564 261.743C615.555 260.87 614.027 260.27 612.581 260.27C609.608 260.27 608.053 262.015 608.053 264.007C608.053 266.489 610.399 267.307 612.581 268.099C614.273 268.699 616.182 269.544 616.182 271.427C616.182 273.063 614.955 274.454 612.554 274.454C610.426 274.454 609.09 273.636 607.889 272.6L607.262 273.391C608.544 274.454 610.345 275.355 612.5 275.355ZM626.477 275.355C628.605 275.355 629.832 274.645 630.923 273.991L630.487 273.145C629.396 273.936 628.168 274.454 626.532 274.454C623.149 274.454 620.94 271.672 620.94 267.88H631.469C631.524 267.498 631.524 267.198 631.524 266.898C631.524 262.643 629.423 260.27 626.095 260.27C622.904 260.27 619.903 263.161 619.903 267.853C619.903 272.545 622.849 275.355 626.477 275.355ZM620.94 266.98C621.24 263.352 623.531 261.17 626.095 261.17C628.796 261.17 630.569 263.079 630.569 266.98H620.94ZM640.235 275.355C642.226 275.355 643.836 274.291 645.036 273.091H645.09L645.227 275H646.045V253.341H645.063V259.369L645.145 262.07C643.672 260.924 642.472 260.27 640.726 260.27C637.234 260.27 634.288 263.216 634.288 267.853C634.288 272.709 636.634 275.355 640.235 275.355ZM640.317 274.454C637.125 274.454 635.325 271.781 635.325 267.853C635.325 264.143 637.643 261.17 640.671 261.17C642.172 261.17 643.481 261.715 645.063 263.134V271.972C643.481 273.554 641.981 274.454 640.317 274.454ZM662.888 275.355C666.325 275.355 669.271 272.6 669.271 267.853C669.271 263.025 666.325 260.27 662.888 260.27C659.451 260.27 656.505 263.025 656.505 267.853C656.505 272.6 659.451 275.355 662.888 275.355ZM662.888 274.454C659.833 274.454 657.542 271.781 657.542 267.853C657.542 263.898 659.833 261.17 662.888 261.17C665.943 261.17 668.262 263.898 668.262 267.853C668.262 271.781 665.943 274.454 662.888 274.454ZM673.743 275H674.725V264.007C676.553 262.125 677.862 261.17 679.635 261.17C682.091 261.17 683.1 262.725 683.1 265.889V275H684.082V265.753C684.082 262.043 682.691 260.27 679.745 260.27C677.753 260.27 676.253 261.415 674.78 262.916H674.725L674.562 260.624H673.743V275ZM699.271 275.355C699.762 275.355 700.662 275.109 701.507 274.809L701.18 273.991C700.662 274.236 699.898 274.454 699.352 274.454C697.252 274.454 696.843 273.172 696.843 271.317V261.524H701.098V260.624H696.843V256.423H695.997L695.888 260.624L693.597 260.761V261.524H695.888V271.181C695.888 273.691 696.597 275.355 699.271 275.355ZM704.671 275H705.653V264.007C707.481 262.125 708.79 261.17 710.563 261.17C713.018 261.17 714.028 262.725 714.028 265.889V275H715.01V265.753C715.01 262.043 713.619 260.27 710.672 260.27C708.681 260.27 707.181 261.415 705.653 262.97V253.341H704.671V275ZM725.681 275.355C727.809 275.355 729.036 274.645 730.127 273.991L729.691 273.145C728.6 273.936 727.372 274.454 725.735 274.454C722.353 274.454 720.143 271.672 720.143 267.88H730.673C730.727 267.498 730.727 267.198 730.727 266.898C730.727 262.643 728.627 260.27 725.299 260.27C722.107 260.27 719.107 263.161 719.107 267.853C719.107 272.545 722.053 275.355 725.681 275.355ZM720.143 266.98C720.443 263.352 722.735 261.17 725.299 261.17C728 261.17 729.773 263.079 729.773 266.98H720.143ZM745.923 275.355C749.661 275.355 752.116 273.145 752.116 270.117C752.116 267.062 750.152 265.889 747.915 264.88L744.887 263.516C743.496 262.888 741.422 261.988 741.422 259.506C741.422 257.269 743.25 255.796 746.005 255.796C748.024 255.796 749.633 256.642 750.779 257.869L751.406 257.187C750.261 255.932 748.406 254.841 746.005 254.841C742.786 254.841 740.386 256.751 740.386 259.615C740.386 262.534 742.705 263.707 744.423 264.471L747.451 265.834C749.442 266.735 751.106 267.553 751.106 270.199C751.106 272.681 749.088 274.4 745.923 274.4C743.55 274.4 741.45 273.336 740.004 271.645L739.322 272.354C740.822 274.1 743.005 275.355 745.923 275.355ZM760.363 275.355C762.354 275.355 763.854 274.209 765.3 272.545H765.355L765.464 275H766.309V260.624H765.327V271.372C763.554 273.5 762.218 274.454 760.445 274.454C758.017 274.454 757.008 272.927 757.008 269.763V260.624H756.026V269.872C756.026 273.609 757.417 275.355 760.363 275.355ZM777.389 275.355C780.826 275.355 783.772 272.49 783.772 267.608C783.772 263.161 781.89 260.27 777.989 260.27C776.188 260.27 774.415 261.361 772.915 262.616L772.997 259.724V253.341H772.015V275H772.833L772.969 273.554H773.051C774.388 274.645 776.025 275.355 777.389 275.355ZM777.47 274.454C776.325 274.454 774.633 273.936 772.997 272.518V263.652C774.77 262.07 776.434 261.17 777.907 261.17C781.426 261.17 782.735 263.952 782.735 267.608C782.735 271.617 780.526 274.454 777.47 274.454ZM791.567 275.355C794.595 275.355 796.259 273.5 796.259 271.372C796.259 268.562 793.777 267.853 791.485 266.98C789.767 266.325 788.13 265.671 788.13 263.952C788.13 262.534 789.221 261.17 791.594 261.17C793.095 261.17 794.104 261.77 795.059 262.479L795.632 261.743C794.622 260.87 793.095 260.27 791.649 260.27C788.676 260.27 787.121 262.015 787.121 264.007C787.121 266.489 789.467 267.307 791.649 268.099C793.34 268.699 795.25 269.544 795.25 271.427C795.25 273.063 794.022 274.454 791.622 274.454C789.494 274.454 788.157 273.636 786.957 272.6L786.33 273.391C787.612 274.454 789.412 275.355 791.567 275.355ZM803.323 275.355C803.814 275.355 804.714 275.109 805.559 274.809L805.232 273.991C804.714 274.236 803.95 274.454 803.404 274.454C801.304 274.454 800.895 273.172 800.895 271.317V261.524H805.15V260.624H800.895V256.423H800.049L799.94 260.624L797.649 260.761V261.524H799.94V271.181C799.94 273.691 800.649 275.355 803.323 275.355ZM808.723 275H809.705V265.071C810.824 262.234 812.406 261.224 813.688 261.224C814.261 261.224 814.506 261.279 814.97 261.47L815.216 260.57C814.725 260.324 814.315 260.27 813.824 260.27C812.106 260.27 810.715 261.579 809.76 263.325H809.705L809.542 260.624H808.723V275ZM820.437 275.355C822.346 275.355 824.147 274.291 825.62 273.091H825.702L825.838 275H826.656V265.698C826.656 262.779 825.62 260.27 822.237 260.27C819.891 260.27 817.9 261.47 817 262.125L817.491 262.916C818.418 262.179 820.137 261.17 822.183 261.17C825.156 261.17 825.756 263.707 825.674 266.025C819.209 266.762 816.291 268.262 816.291 271.454C816.291 274.182 818.2 275.355 820.437 275.355ZM820.519 274.454C818.773 274.454 817.3 273.636 817.3 271.427C817.3 268.999 819.428 267.553 825.674 266.871V272.027C823.792 273.636 822.237 274.454 820.519 274.454ZM835.396 275.355C835.887 275.355 836.787 275.109 837.633 274.809L837.306 273.991C836.787 274.236 836.023 274.454 835.478 274.454C833.377 274.454 832.968 273.172 832.968 271.317V261.524H837.224V260.624H832.968V256.423H832.123L832.014 260.624L829.722 260.761V261.524H832.014V271.181C832.014 273.691 832.723 275.355 835.396 275.355ZM845.823 275.355C847.951 275.355 849.178 274.645 850.269 273.991L849.833 273.145C848.742 273.936 847.514 274.454 845.878 274.454C842.495 274.454 840.285 271.672 840.285 267.88H850.815C850.869 267.498 850.869 267.198 850.869 266.898C850.869 262.643 848.769 260.27 845.441 260.27C842.25 260.27 839.249 263.161 839.249 267.853C839.249 272.545 842.195 275.355 845.823 275.355ZM840.285 266.98C840.586 263.352 842.877 261.17 845.441 261.17C848.142 261.17 849.915 263.079 849.915 266.98H840.285Z" fill="white"/>
<path d="M586.722 128.646V90.6366H599.749C604.047 90.6366 607.319 91.4981 609.564 93.2211C611.809 94.944 612.932 97.511 612.932 100.922C612.932 102.662 612.462 104.229 611.522 105.621C610.582 107.013 609.207 108.092 607.397 108.858C609.451 109.415 611.035 110.468 612.149 112.017C613.28 113.548 613.845 115.393 613.845 117.551C613.845 121.119 612.697 123.86 610.399 125.774C608.12 127.689 604.848 128.646 600.584 128.646H586.722ZM593.327 111.495V123.373H600.662C602.733 123.373 604.352 122.859 605.518 121.832C606.684 120.806 607.267 119.379 607.267 117.551C607.267 113.601 605.248 111.582 601.21 111.495H593.327ZM593.327 106.639H599.801C601.854 106.639 603.455 106.178 604.604 105.256C605.77 104.316 606.353 102.993 606.353 101.288C606.353 99.408 605.814 98.0505 604.735 97.2152C603.673 96.3798 602.011 95.9621 599.749 95.9621H593.327V106.639Z" fill="white"/>
<path d="M625.947 128.646H619.604V100.4H625.947V128.646Z" fill="white"/>
<path d="M668.779 114.262C668.779 111.495 669.327 109.006 670.424 106.796C671.52 104.568 673.06 102.863 675.044 101.679C677.028 100.478 679.308 99.8779 681.884 99.8779C685.695 99.8779 688.785 101.105 691.151 103.559C693.536 106.013 694.824 109.267 695.015 113.322L695.041 114.81C695.041 117.595 694.502 120.083 693.423 122.276C692.361 124.469 690.829 126.166 688.828 127.367C686.844 128.568 684.547 129.168 681.936 129.168C677.951 129.168 674.757 127.845 672.356 125.2C669.971 122.537 668.779 118.996 668.779 114.575V114.262ZM675.123 114.81C675.123 117.717 675.723 119.996 676.924 121.65C678.125 123.286 679.796 124.104 681.936 124.104C684.077 124.104 685.739 123.268 686.922 121.597C688.123 119.927 688.724 117.482 688.724 114.262C688.724 111.408 688.106 109.145 686.87 107.475C685.652 105.804 683.99 104.968 681.884 104.968C679.813 104.968 678.168 105.795 676.95 107.448C675.732 109.084 675.123 111.538 675.123 114.81Z" fill="white"/>
<path d="M716.239 120.971C716.239 119.84 715.769 118.978 714.829 118.387C713.907 117.795 712.366 117.273 710.208 116.82C708.05 116.368 706.249 115.793 704.804 115.097C701.637 113.566 700.053 111.347 700.053 108.44C700.053 106.004 701.08 103.968 703.134 102.332C705.187 100.696 707.798 99.8779 710.965 99.8779C714.342 99.8779 717.065 100.713 719.136 102.384C721.225 104.055 722.269 106.221 722.269 108.884H715.925C715.925 107.666 715.473 106.657 714.568 105.856C713.663 105.038 712.462 104.629 710.965 104.629C709.573 104.629 708.433 104.951 707.546 105.595C706.675 106.239 706.24 107.1 706.24 108.179C706.24 109.154 706.649 109.911 707.467 110.451C708.285 110.99 709.939 111.538 712.427 112.095C714.916 112.635 716.865 113.287 718.275 114.053C719.702 114.801 720.755 115.706 721.434 116.768C722.13 117.83 722.478 119.117 722.478 120.632C722.478 123.172 721.425 125.235 719.319 126.819C717.213 128.385 714.455 129.168 711.044 129.168C708.729 129.168 706.667 128.75 704.857 127.915C703.047 127.08 701.637 125.931 700.628 124.469C699.618 123.007 699.114 121.432 699.114 119.744H705.274C705.361 121.241 705.927 122.398 706.971 123.216C708.015 124.017 709.399 124.417 711.122 124.417C712.793 124.417 714.063 124.104 714.933 123.477C715.804 122.833 716.239 121.998 716.239 120.971Z" fill="white"/>
<path d="M733.833 93.5343V100.4H738.976V105.099H733.833V120.867C733.833 121.946 734.042 122.729 734.46 123.216C734.895 123.686 735.66 123.921 736.757 123.921C737.488 123.921 738.227 123.834 738.976 123.66V128.568C737.531 128.968 736.139 129.168 734.799 129.168C729.926 129.168 727.489 126.479 727.489 121.101V93.5343H733.833Z" fill="white"/>
<path d="M633.132 97.8156C633.132 94.683 634.002 92.2639 635.742 90.5583C637.483 88.8528 639.919 88 643.052 88C644.165 88 646.447 88.5518 647.523 88.9377L646.445 93.4299C645.749 93.2907 644.94 93.2211 644.018 93.2211C640.989 93.2211 639.475 94.7787 639.475 97.8939V100.4H647.411L646.11 105.256L639.475 105.099V128.646H633.132V97.8156Z" fill="white"/>
<path d="M619.603 91.4608H625.947V96.2189H619.603V91.4608Z" fill="white"/>
<path d="M667.98 100.4L666.793 105.099H658.356V128.646H652.012V100.4H667.98Z" fill="white"/>
<g clip-path="url(#clip0)">
<path d="M579.661 100.4H570.245L542 128.645H560.83L579.661 100.4Z" fill="url(#paint7_linear)"/>
</g>
<defs>
<linearGradient id="paint0_linear" x1="9.96421e-06" y1="18.5" x2="1239.14" y2="494.805" gradientUnits="userSpaceOnUse">
<stop stop-color="#131313"/>
<stop offset="1"/>
</linearGradient>
<linearGradient id="paint1_linear" x1="191.108" y1="209.36" x2="32.2093" y2="-61.1976" gradientUnits="userSpaceOnUse">
<stop stop-color="#C4C4C4"/>
<stop offset="1" stop-color="#C4C4C4" stop-opacity="0"/>
</linearGradient>
<linearGradient id="paint2_linear" x1="1088.79" y1="142.469" x2="1247.69" y2="413.027" gradientUnits="userSpaceOnUse">
<stop stop-color="#C4C4C4"/>
<stop offset="1" stop-color="#C4C4C4" stop-opacity="0"/>
</linearGradient>
<linearGradient id="paint3_linear" x1="188.095" y1="184.389" x2="325.462" y2="279.096" gradientUnits="userSpaceOnUse">
<stop stop-color="white"/>
<stop offset="1" stop-color="white" stop-opacity="0"/>
</linearGradient>
<linearGradient id="paint4_linear" x1="415.772" y1="104" x2="415.772" y2="229.616" gradientUnits="userSpaceOnUse">
<stop stop-color="white"/>
<stop offset="1" stop-color="white" stop-opacity="0"/>
</linearGradient>
<linearGradient id="paint5_linear" x1="796.647" y1="275.85" x2="728.538" y2="204.386" gradientUnits="userSpaceOnUse">
<stop stop-color="white"/>
<stop offset="1" stop-color="white" stop-opacity="0"/>
</linearGradient>
<linearGradient id="paint6_linear" x1="1049.36" y1="207.069" x2="945.212" y2="155.534" gradientUnits="userSpaceOnUse">
<stop stop-color="white"/>
<stop offset="1" stop-color="white" stop-opacity="0"/>
</linearGradient>
<linearGradient id="paint7_linear" x1="560.83" y1="100.4" x2="560.83" y2="128.645" gradientUnits="userSpaceOnUse">
<stop stop-color="#7AEDCF"/>
<stop offset="0.201333" stop-color="#68CEFA"/>
<stop offset="0.403244" stop-color="#689CF8"/>
<stop offset="0.602076" stop-color="#AC57C0"/>
<stop offset="0.801867" stop-color="#E65659"/>
<stop offset="1" stop-color="#F2C241"/>
</linearGradient>
<clipPath id="clip0">
<rect width="37.6606" height="37.6606" fill="white" transform="translate(542 90.9846)"/>
</clipPath>
</defs>
</svg>
