<svg width="1280" height="370" viewBox="0 0 1280 370" fill="none" xmlns="http://www.w3.org/2000/svg">
<g clip-path="url(#clip0)">
<path d="M1280 0H0V370H1280V0Z" fill="white"/>
<path d="M1280 0H0V370H1280V0Z" fill="url(#paint0_linear)"/>
<g opacity="0.8">
<mask id="mask0" mask-type="alpha" maskUnits="userSpaceOnUse" x="0" y="0" width="215" height="333">
<g opacity="0.8">
<path opacity="0.8" d="M214.728 0H0V332.829H214.728V0Z" fill="url(#paint1_linear)"/>
</g>
</mask>
<g mask="url(#mask0)">
<g opacity="0.8">
<path opacity="0.8" d="M-68.2942 -48.9398C-70.666 -53.0479 -75.9191 -54.4555 -80.0272 -52.0836C-84.1353 -49.7118 -85.5428 -44.4588 -83.171 -40.3507L117.65 307.482C120.022 311.59 125.275 312.997 129.383 310.625C133.491 308.254 134.899 303.001 132.527 298.892L-68.2942 -48.9398Z" fill="#E91555"/>
<path opacity="0.8" d="M-59.4796 -93.7965C-61.8514 -97.9046 -67.1045 -99.3121 -71.2126 -96.9403C-75.3207 -94.5685 -76.7283 -89.3155 -74.3564 -85.2073L126.465 262.625C128.836 266.733 134.089 268.141 138.198 265.769C142.306 263.397 143.713 258.144 141.341 254.036L-59.4796 -93.7965Z" fill="#FF6B00"/>
<path opacity="0.8" d="M-50.7562 -138.812C-53.1281 -142.92 -58.3811 -144.327 -62.4892 -141.955C-66.5973 -139.584 -68.0049 -134.331 -65.633 -130.222L135.188 217.61C137.56 221.718 142.813 223.125 146.921 220.754C151.029 218.382 152.437 213.129 150.065 209.021L-50.7562 -138.812Z" fill="#FFD600"/>
<path opacity="0.8" d="M-42.0331 -183.826C-44.4049 -187.934 -49.6579 -189.342 -53.7661 -186.97C-57.8742 -184.598 -59.2817 -179.345 -56.9099 -175.237L143.911 172.595C146.283 176.703 151.536 178.111 155.644 175.739C159.752 173.367 161.16 168.114 158.788 164.006L-42.0331 -183.826Z" fill="#10DF6F"/>
<path opacity="0.8" d="M-33.3098 -228.841C-35.6816 -232.949 -40.9347 -234.357 -45.0428 -231.985C-49.1509 -229.613 -50.5585 -224.36 -48.1866 -220.252L152.634 127.58C155.006 131.688 160.259 133.096 164.367 130.724C168.475 128.352 169.883 123.099 167.511 118.991L-33.3098 -228.841Z" fill="#1080FB"/>
<path opacity="0.8" d="M-24.5864 -273.856C-26.9583 -277.964 -32.2113 -279.371 -36.3194 -276.999C-40.4275 -274.628 -41.8351 -269.375 -39.4632 -265.266L161.358 82.5657C163.73 86.6739 168.983 88.0814 173.091 85.7096C177.199 83.3378 178.606 78.0847 176.235 73.9766L-24.5864 -273.856Z" fill="#A015EE"/>
</g>
</g>
</g>
<g opacity="0.8">
<mask id="mask1" mask-type="alpha" maskUnits="userSpaceOnUse" x="1065" y="19" width="215" height="333">
<g opacity="0.8">
<path opacity="0.8" d="M1065.17 351.829H1279.9V19.0001H1065.17V351.829Z" fill="url(#paint2_linear)"/>
</g>
</mask>
<g mask="url(#mask1)">
<g opacity="0.8">
<path opacity="0.8" d="M1348.2 400.769C1350.57 404.877 1355.82 406.284 1359.93 403.913C1364.04 401.541 1365.45 396.288 1363.07 392.18L1162.25 44.3475C1159.88 40.2394 1154.63 38.8318 1150.52 41.2036C1146.41 43.5755 1145 48.8285 1147.38 52.9366L1348.2 400.769Z" fill="#E91555"/>
<path opacity="0.8" d="M1339.38 445.626C1341.75 449.734 1347 451.142 1351.11 448.77C1355.22 446.398 1356.63 441.145 1354.26 437.037L1153.44 89.2045C1151.06 85.0963 1145.81 83.6888 1141.7 86.0607C1137.59 88.4325 1136.19 93.6855 1138.56 97.7936L1339.38 445.626Z" fill="#FF6B00"/>
<path opacity="0.8" d="M1330.66 490.641C1333.03 494.749 1338.28 496.157 1342.39 493.785C1346.5 491.413 1347.91 486.16 1345.53 482.052L1144.71 134.22C1142.34 130.112 1137.09 128.704 1132.98 131.076C1128.87 133.448 1127.46 138.701 1129.84 142.809L1330.66 490.641Z" fill="#FFD600"/>
<path opacity="0.8" d="M1321.93 535.656C1324.31 539.764 1329.56 541.171 1333.67 538.799C1337.77 536.428 1339.18 531.175 1336.81 527.066L1135.99 179.234C1133.62 175.126 1128.36 173.719 1124.26 176.09C1120.15 178.462 1118.74 183.715 1121.11 187.823L1321.93 535.656Z" fill="#10DF6F"/>
<path opacity="0.8" d="M1313.21 580.671C1315.58 584.779 1320.83 586.186 1324.94 583.815C1329.05 581.443 1330.46 576.19 1328.09 572.082L1127.27 224.249C1124.89 220.141 1119.64 218.734 1115.53 221.106C1111.42 223.477 1110.02 228.73 1112.39 232.839L1313.21 580.671Z" fill="#1080FB"/>
<path opacity="0.8" d="M1304.49 625.685C1306.86 629.793 1312.11 631.201 1316.22 628.829C1320.33 626.457 1321.74 621.204 1319.36 617.096L1118.54 269.264C1116.17 265.155 1110.92 263.748 1106.81 266.12C1102.7 268.492 1101.29 273.745 1103.67 277.853L1304.49 625.685Z" fill="#A015EE"/>
</g>
</g>
</g>
<path d="M234.969 174H245.058V160.078H249.962C258.867 160.078 266.532 155.682 266.532 145.706C266.532 135.335 258.923 132.009 249.736 132.009H234.969V174ZM245.058 152.131V140.013H249.172C254.02 140.013 256.725 141.478 256.725 145.706C256.725 149.82 254.358 152.131 249.454 152.131H245.058ZM273.664 174H283.753V159.233H288.6L296.322 174H307.594L298.238 157.373C302.578 155.344 305.453 151.398 305.453 145.255C305.453 135.109 298.013 132.009 289.051 132.009H273.664V174ZM283.753 151.286V140.013H288.262C293.053 140.013 295.645 141.309 295.645 145.255C295.645 149.2 293.053 151.286 288.262 151.286H283.753ZM330.873 174.789C342.315 174.789 350.093 166.56 350.093 152.807C350.093 139.111 342.315 131.277 330.873 131.277C319.431 131.277 311.653 139.055 311.653 152.807C311.653 166.56 319.431 174.789 330.873 174.789ZM330.873 166.109C325.349 166.109 321.968 160.924 321.968 152.807C321.968 144.691 325.349 139.9 330.873 139.9C336.397 139.9 339.835 144.691 339.835 152.807C339.835 160.924 336.397 166.109 330.873 166.109ZM364.433 174H376.551L389.12 132.009H378.862L374.127 151.173C372.943 155.682 372.098 159.966 370.858 164.587H370.576C369.393 159.966 368.547 155.682 367.307 151.173L362.516 132.009H351.863L364.433 174ZM393.436 174H403.525V132.009H393.436V174ZM413.141 174H425.767C437.997 174 446.452 167.405 446.452 152.807C446.452 138.209 437.997 132.009 425.203 132.009H413.141V174ZM423.23 165.884V140.069H424.583C431.346 140.069 436.137 142.831 436.137 152.807C436.137 162.784 431.346 165.884 424.583 165.884H423.23ZM454.203 174H481.426V165.545H464.292V156.64H478.326V148.186H464.292V140.407H480.806V132.009H454.203V174ZM515.605 174.789C525.75 174.789 531.612 168.645 531.612 161.656C531.612 155.738 528.512 152.244 523.327 150.158L518.085 148.073C514.365 146.607 511.772 145.706 511.772 143.338C511.772 141.14 513.632 139.9 516.732 139.9C520.001 139.9 522.594 141.027 525.356 143.113L530.372 136.8C526.709 133.137 521.579 131.277 516.732 131.277C507.827 131.277 501.514 136.913 501.514 143.958C501.514 150.046 505.629 153.709 510.025 155.456L515.38 157.711C518.987 159.233 521.298 160.022 521.298 162.445C521.298 164.7 519.55 166.109 515.83 166.109C512.505 166.109 508.616 164.362 505.685 161.826L499.936 168.758C504.276 172.76 510.138 174.789 515.605 174.789ZM545.378 174H555.467V140.407H566.853V132.009H534.049V140.407H545.378V174ZM580.929 153.033C582 148.862 583.127 143.958 584.142 139.562H584.367C585.495 143.846 586.566 148.862 587.693 153.033L588.595 156.584H580.027L580.929 153.033ZM565.429 174H575.687L578.111 164.362H590.511L592.935 174H603.531L590.511 132.009H578.449L565.429 174ZM607.936 174H618.025V163.009L622.591 156.809L632.511 174H643.502L628.452 148.862L641.134 132.009H630.087L618.194 148.636H618.025V132.009H607.936V174ZM647.842 174H657.931V132.009H647.842V174ZM667.547 174H677.129V160.078C677.129 155.006 676.283 149.256 675.833 144.578H676.114L680.229 153.766L690.6 174H700.858V132.009H691.276V145.931C691.276 150.947 692.122 156.978 692.629 161.431H692.347L688.232 152.131L677.805 132.009H667.547V174ZM729.472 174.789C735.334 174.789 740.519 172.478 743.45 169.66V150.046H727.838V158.275H734.488V165.038C733.587 165.715 732.008 166.109 730.543 166.109C722.708 166.109 718.988 161.262 718.988 152.92C718.988 144.747 723.441 139.9 729.641 139.9C733.136 139.9 735.334 141.309 737.419 143.169L742.717 136.744C739.843 133.869 735.447 131.277 729.303 131.277C718.087 131.277 708.674 139.28 708.674 153.258C708.674 167.462 717.861 174.789 729.472 174.789ZM764.807 174H791.241V165.545H774.896V132.009H764.807V174ZM798.493 174H808.582V132.009H798.493V174ZM835.502 166.56C829.978 166.56 826.596 161.544 826.596 152.807C826.596 144.691 829.978 139.9 835.502 139.9C841.025 139.9 844.464 144.691 844.464 152.807C844.464 161.544 841.025 166.56 835.502 166.56ZM849.48 185.836C852.805 185.836 855.511 185.273 857.145 184.427L855.342 177.1C854.045 177.551 852.411 177.889 850.607 177.889C847.225 177.889 843.449 176.818 841.533 173.944C849.593 171.464 854.722 163.967 854.722 152.807C854.722 139.111 846.943 131.277 835.502 131.277C824.06 131.277 816.282 139.055 816.282 152.807C816.282 164.644 822.031 172.365 830.936 174.338C833.98 181.045 840.349 185.836 849.48 185.836ZM879.304 174.789C890.464 174.789 896.1 168.42 896.1 154.273V132.009H886.405V155.344C886.405 163.291 883.869 166.109 879.304 166.109C874.682 166.109 872.315 163.291 872.315 155.344V132.009H862.282V154.273C862.282 168.42 868.087 174.789 879.304 174.789ZM905.495 174H915.584V132.009H905.495V174ZM925.201 174H937.826C950.057 174 958.511 167.405 958.511 152.807C958.511 138.209 950.057 132.009 937.262 132.009H925.201V174ZM935.29 165.884V140.069H936.642C943.406 140.069 948.197 142.831 948.197 152.807C948.197 162.784 943.406 165.884 936.642 165.884H935.29ZM966.262 174H976.351V132.009H966.262V174ZM994.084 174H1004.17V140.407H1015.56V132.009H982.755V140.407H994.084V174ZM1028.03 174H1038.06V159.176L1050.74 132.009H1040.2L1036.71 141.366C1035.52 144.522 1034.39 147.453 1033.21 150.722H1032.99C1031.8 147.453 1030.73 144.522 1029.6 141.366L1026.11 132.009H1015.4L1028.03 159.176V174Z" fill="white"/>
<path d="M379.581 236.103C380.657 233.047 381.56 230.478 382.498 227.318H382.637C383.574 230.478 384.442 233.047 385.519 236.103L387.255 241.138H377.81L379.581 236.103ZM372.983 251.208H374.268L377.428 242.249H387.637L390.762 251.208H392.151L383.123 225.998H381.977L372.983 251.208ZM403.817 259.646H405.067V249.368C407.011 250.826 408.921 251.659 410.657 251.659C415.032 251.659 418.783 248.013 418.783 241.798C418.783 236.138 416.387 232.457 411.421 232.457C409.129 232.457 406.942 233.846 405.136 235.27H405.067L404.858 232.908H403.817V259.646ZM410.761 250.514C409.303 250.514 407.219 249.854 405.067 248.048V236.763C407.393 234.749 409.442 233.603 411.317 233.603C415.796 233.603 417.463 237.145 417.463 241.798C417.463 246.902 414.65 250.514 410.761 250.514ZM427.781 251.659C430.212 251.659 432.504 250.305 434.379 248.777H434.483L434.657 251.208H435.698V239.367C435.698 235.652 434.379 232.457 430.073 232.457C427.087 232.457 424.552 233.985 423.406 234.818L424.031 235.825C425.212 234.888 427.399 233.603 430.004 233.603C433.788 233.603 434.552 236.832 434.448 239.784C426.219 240.721 422.503 242.631 422.503 246.694C422.503 250.166 424.934 251.659 427.781 251.659ZM427.885 250.514C425.663 250.514 423.788 249.472 423.788 246.659C423.788 243.569 426.496 241.728 434.448 240.86V247.423C432.052 249.472 430.073 250.514 427.885 250.514ZM442.474 251.208H443.724V238.568C445.148 234.957 447.162 233.672 448.794 233.672C449.523 233.672 449.836 233.742 450.426 233.985L450.738 232.839C450.113 232.526 449.592 232.457 448.967 232.457C446.78 232.457 445.009 234.124 443.794 236.346H443.724L443.516 232.908H442.474V251.208ZM457.385 251.659C459.815 251.659 462.107 250.305 463.982 248.777H464.087L464.26 251.208H465.302V239.367C465.302 235.652 463.982 232.457 459.677 232.457C456.69 232.457 454.155 233.985 453.01 234.818L453.635 235.825C454.815 234.888 457.003 233.603 459.607 233.603C463.392 233.603 464.156 236.832 464.052 239.784C455.822 240.721 452.107 242.631 452.107 246.694C452.107 250.166 454.537 251.659 457.385 251.659ZM457.489 250.514C455.267 250.514 453.392 249.472 453.392 246.659C453.392 243.569 456.1 241.728 464.052 240.86V247.423C461.656 249.472 459.677 250.514 457.489 250.514ZM478.675 251.659C481.036 251.659 482.981 250.583 484.509 249.229L483.78 248.326C482.495 249.541 480.724 250.514 478.71 250.514C474.543 250.514 471.8 247.111 471.8 242.11C471.8 237.075 474.856 233.603 478.71 233.603C480.585 233.603 482.043 234.506 483.259 235.652L484.057 234.749C482.842 233.603 481.21 232.457 478.71 232.457C474.3 232.457 470.48 235.964 470.48 242.11C470.48 248.152 474.022 251.659 478.675 251.659ZM489.168 251.208H490.418V237.214C492.745 234.818 494.412 233.603 496.669 233.603C499.794 233.603 501.079 235.582 501.079 239.61V251.208H502.329V239.437C502.329 234.714 500.558 232.457 496.808 232.457C494.273 232.457 492.363 233.915 490.418 235.895V223.637H489.168V251.208ZM513.065 251.659C515.496 251.659 517.788 250.305 519.663 248.777H519.767L519.941 251.208H520.982V239.367C520.982 235.652 519.663 232.457 515.357 232.457C512.371 232.457 509.836 233.985 508.69 234.818L509.315 235.825C510.496 234.888 512.683 233.603 515.288 233.603C519.072 233.603 519.836 236.832 519.732 239.784C511.503 240.721 507.787 242.631 507.787 246.694C507.787 250.166 510.218 251.659 513.065 251.659ZM513.169 250.514C510.947 250.514 509.072 249.472 509.072 246.659C509.072 243.569 511.78 241.728 519.732 240.86V247.423C517.336 249.472 515.357 250.514 513.169 250.514ZM527.758 251.208H529.008V232.908H527.758V251.208ZM528.418 228.29C529.112 228.29 529.668 227.769 529.668 226.866C529.668 226.103 529.112 225.547 528.418 225.547C527.689 225.547 527.168 226.103 527.168 226.866C527.168 227.769 527.689 228.29 528.418 228.29ZM536.27 251.208H537.52V237.214C539.846 234.818 541.513 233.603 543.77 233.603C546.895 233.603 548.18 235.582 548.18 239.61V251.208H549.43V239.437C549.43 234.714 547.659 232.457 543.909 232.457C541.374 232.457 539.464 233.915 537.589 235.825H537.52L537.311 232.908H536.27V251.208ZM570.883 251.659C575.258 251.659 579.008 248.013 579.008 241.798C579.008 236.138 576.612 232.457 571.647 232.457C569.355 232.457 567.098 233.846 565.188 235.443L565.292 231.763V223.637H564.042V251.208H565.084L565.257 249.368H565.361C567.063 250.757 569.146 251.659 570.883 251.659ZM570.987 250.514C569.528 250.514 567.375 249.854 565.292 248.048V236.763C567.549 234.749 569.667 233.603 571.542 233.603C576.022 233.603 577.688 237.145 577.688 241.798C577.688 246.902 574.876 250.514 570.987 250.514ZM587.939 251.659C590.37 251.659 592.661 250.305 594.536 248.777H594.641L594.814 251.208H595.856V239.367C595.856 235.652 594.536 232.457 590.231 232.457C587.244 232.457 584.71 233.985 583.564 234.818L584.189 235.825C585.369 234.888 587.557 233.603 590.161 233.603C593.946 233.603 594.71 236.832 594.606 239.784C586.376 240.721 582.661 242.631 582.661 246.694C582.661 250.166 585.091 251.659 587.939 251.659ZM588.043 250.514C585.821 250.514 583.946 249.472 583.946 246.659C583.946 243.569 586.654 241.728 594.606 240.86V247.423C592.21 249.472 590.231 250.514 588.043 250.514ZM606.937 251.659C610.792 251.659 612.91 249.298 612.91 246.59C612.91 243.013 609.75 242.11 606.833 240.999C604.646 240.166 602.562 239.332 602.562 237.145C602.562 235.339 603.951 233.603 606.972 233.603C608.882 233.603 610.167 234.367 611.382 235.27L612.111 234.332C610.827 233.221 608.882 232.457 607.042 232.457C603.257 232.457 601.277 234.679 601.277 237.214C601.277 240.374 604.264 241.416 607.042 242.423C609.195 243.187 611.625 244.263 611.625 246.659C611.625 248.743 610.063 250.514 607.007 250.514C604.298 250.514 602.597 249.472 601.069 248.152L600.27 249.159C601.902 250.514 604.194 251.659 606.937 251.659ZM624.73 251.659C627.439 251.659 629.001 250.757 630.39 249.923L629.835 248.847C628.446 249.854 626.883 250.514 624.8 250.514C620.494 250.514 617.681 246.972 617.681 242.145H631.085C631.154 241.659 631.154 241.277 631.154 240.895C631.154 235.478 628.48 232.457 624.244 232.457C620.181 232.457 616.362 236.138 616.362 242.11C616.362 248.083 620.112 251.659 624.73 251.659ZM617.681 240.999C618.063 236.381 620.98 233.603 624.244 233.603C627.682 233.603 629.939 236.034 629.939 240.999H617.681ZM642.243 251.659C644.778 251.659 646.827 250.305 648.355 248.777H648.424L648.598 251.208H649.639V223.637H648.389V231.311L648.493 234.749C646.618 233.29 645.09 232.457 642.868 232.457C638.423 232.457 634.673 236.207 634.673 242.11C634.673 248.291 637.66 251.659 642.243 251.659ZM642.347 250.514C638.285 250.514 635.993 247.111 635.993 242.11C635.993 237.388 638.944 233.603 642.799 233.603C644.708 233.603 646.375 234.297 648.389 236.103V247.354C646.375 249.368 644.465 250.514 642.347 250.514ZM671.08 251.659C675.455 251.659 679.205 248.152 679.205 242.11C679.205 235.964 675.455 232.457 671.08 232.457C666.705 232.457 662.954 235.964 662.954 242.11C662.954 248.152 666.705 251.659 671.08 251.659ZM671.08 250.514C667.191 250.514 664.274 247.111 664.274 242.11C664.274 237.075 667.191 233.603 671.08 233.603C674.969 233.603 677.92 237.075 677.92 242.11C677.92 247.111 674.969 250.514 671.08 250.514ZM684.898 251.208H686.148V237.214C688.474 234.818 690.141 233.603 692.398 233.603C695.523 233.603 696.808 235.582 696.808 239.61V251.208H698.058V239.437C698.058 234.714 696.287 232.457 692.537 232.457C690.002 232.457 688.092 233.915 686.217 235.825H686.148L685.939 232.908H684.898V251.208ZM717.393 251.659C718.018 251.659 719.164 251.347 720.24 250.965L719.823 249.923C719.164 250.236 718.191 250.514 717.497 250.514C714.823 250.514 714.302 248.882 714.302 246.52V234.054H719.719V232.908H714.302V227.561H713.226L713.087 232.908L710.17 233.082V234.054H713.087V246.347C713.087 249.541 713.99 251.659 717.393 251.659ZM724.267 251.208H725.517V237.214C727.844 234.818 729.511 233.603 731.768 233.603C734.893 233.603 736.178 235.582 736.178 239.61V251.208H737.428V239.437C737.428 234.714 735.657 232.457 731.907 232.457C729.372 232.457 727.462 233.915 725.517 235.895V223.637H724.267V251.208ZM751.012 251.659C753.72 251.659 755.283 250.757 756.672 249.923L756.116 248.847C754.727 249.854 753.165 250.514 751.081 250.514C746.775 250.514 743.963 246.972 743.963 242.145H757.366C757.436 241.659 757.436 241.277 757.436 240.895C757.436 235.478 754.762 232.457 750.526 232.457C746.463 232.457 742.643 236.138 742.643 242.11C742.643 248.083 746.393 251.659 751.012 251.659ZM743.963 240.999C744.345 236.381 747.261 233.603 750.526 233.603C753.963 233.603 756.22 236.034 756.22 240.999H743.963ZM774.488 251.659C778.342 251.659 780.46 249.298 780.46 246.59C780.46 243.013 777.3 242.11 774.383 240.999C772.196 240.166 770.112 239.332 770.112 237.145C770.112 235.339 771.501 233.603 774.522 233.603C776.432 233.603 777.717 234.367 778.932 235.27L779.661 234.332C778.377 233.221 776.432 232.457 774.592 232.457C770.807 232.457 768.827 234.679 768.827 237.214C768.827 240.374 771.814 241.416 774.592 242.423C776.745 243.187 779.175 244.263 779.175 246.659C779.175 248.743 777.613 250.514 774.557 250.514C771.848 250.514 770.147 249.472 768.619 248.152L767.82 249.159C769.453 250.514 771.744 251.659 774.488 251.659ZM790.718 251.659C793.253 251.659 795.162 250.201 797.003 248.083H797.072L797.211 251.208H798.288V232.908H797.037V246.59C794.78 249.298 793.079 250.514 790.822 250.514C787.731 250.514 786.447 248.569 786.447 244.541V232.908H785.197V244.68C785.197 249.437 786.968 251.659 790.718 251.659ZM812.391 251.659C816.766 251.659 820.516 248.013 820.516 241.798C820.516 236.138 818.12 232.457 813.155 232.457C810.863 232.457 808.606 233.846 806.696 235.443L806.8 231.763V223.637H805.55V251.208H806.592L806.765 249.368H806.87C808.571 250.757 810.654 251.659 812.391 251.659ZM812.495 250.514C811.036 250.514 808.884 249.854 806.8 248.048V236.763C809.057 234.749 811.175 233.603 813.05 233.603C817.53 233.603 819.197 237.145 819.197 241.798C819.197 246.902 816.384 250.514 812.495 250.514ZM830.439 251.659C834.294 251.659 836.412 249.298 836.412 246.59C836.412 243.013 833.252 242.11 830.335 240.999C828.147 240.166 826.064 239.332 826.064 237.145C826.064 235.339 827.453 233.603 830.474 233.603C832.384 233.603 833.669 234.367 834.884 235.27L835.613 234.332C834.328 233.221 832.384 232.457 830.543 232.457C826.759 232.457 824.779 234.679 824.779 237.214C824.779 240.374 827.766 241.416 830.543 242.423C832.696 243.187 835.127 244.263 835.127 246.659C835.127 248.743 833.564 250.514 830.509 250.514C827.8 250.514 826.099 249.472 824.571 248.152L823.772 249.159C825.404 250.514 827.696 251.659 830.439 251.659ZM845.403 251.659C846.028 251.659 847.174 251.347 848.251 250.965L847.834 249.923C847.174 250.236 846.202 250.514 845.508 250.514C842.834 250.514 842.313 248.882 842.313 246.52V234.054H847.73V232.908H842.313V227.561H841.237L841.098 232.908L838.181 233.082V234.054H841.098V246.347C841.098 249.541 842 251.659 845.403 251.659ZM852.278 251.208H853.528V238.568C854.952 234.957 856.966 233.672 858.598 233.672C859.327 233.672 859.64 233.742 860.23 233.985L860.543 232.839C859.917 232.526 859.397 232.457 858.772 232.457C856.584 232.457 854.813 234.124 853.598 236.346H853.528L853.32 232.908H852.278V251.208ZM867.189 251.659C869.62 251.659 871.911 250.305 873.786 248.777H873.891L874.064 251.208H875.106V239.367C875.106 235.652 873.786 232.457 869.481 232.457C866.494 232.457 863.96 233.985 862.814 234.818L863.439 235.825C864.619 234.888 866.807 233.603 869.411 233.603C873.196 233.603 873.96 236.832 873.856 239.784C865.626 240.721 861.911 242.631 861.911 246.694C861.911 250.166 864.342 251.659 867.189 251.659ZM867.293 250.514C865.071 250.514 863.196 249.472 863.196 246.659C863.196 243.569 865.904 241.728 873.856 240.86V247.423C871.46 249.472 869.481 250.514 867.293 250.514ZM886.231 251.659C886.856 251.659 888.002 251.347 889.079 250.965L888.662 249.923C888.002 250.236 887.03 250.514 886.335 250.514C883.662 250.514 883.141 248.882 883.141 246.52V234.054H888.558V232.908H883.141V227.561H882.064L881.925 232.908L879.009 233.082V234.054H881.925V246.347C881.925 249.541 882.828 251.659 886.231 251.659ZM899.504 251.659C902.213 251.659 903.775 250.757 905.164 249.923L904.609 248.847C903.22 249.854 901.657 250.514 899.574 250.514C895.268 250.514 892.455 246.972 892.455 242.145H905.859C905.928 241.659 905.928 241.277 905.928 240.895C905.928 235.478 903.254 232.457 899.018 232.457C894.955 232.457 891.136 236.138 891.136 242.11C891.136 248.083 894.886 251.659 899.504 251.659ZM892.455 240.999C892.837 236.381 895.754 233.603 899.018 233.603C902.456 233.603 904.713 236.034 904.713 240.999H892.455Z" fill="white"/>
</g>
<defs>
<linearGradient id="paint0_linear" x1="9.96421e-06" y1="18.5" x2="1239.14" y2="494.805" gradientUnits="userSpaceOnUse">
<stop stop-color="#131313"/>
<stop offset="1"/>
</linearGradient>
<linearGradient id="paint1_linear" x1="191.108" y1="209.36" x2="32.2093" y2="-61.1976" gradientUnits="userSpaceOnUse">
<stop stop-color="#C4C4C4"/>
<stop offset="1" stop-color="#C4C4C4" stop-opacity="0"/>
</linearGradient>
<linearGradient id="paint2_linear" x1="1088.79" y1="142.469" x2="1247.69" y2="413.027" gradientUnits="userSpaceOnUse">
<stop stop-color="#C4C4C4"/>
<stop offset="1" stop-color="#C4C4C4" stop-opacity="0"/>
</linearGradient>
<clipPath id="clip0">
<rect width="1280" height="370" rx="8" fill="white"/>
</clipPath>
</defs>
</svg>
