<svg width="236" height="80" viewBox="0 0 236 80" fill="none" xmlns="http://www.w3.org/2000/svg">
<path fill-rule="evenodd" clip-rule="evenodd" d="M95.6727 31.7541H100.461V35.5823C100.474 35.5769 100.488 35.5716 100.501 35.5663C101.005 35.3678 101.525 35.2658 102.056 35.2658C102.732 35.2658 103.367 35.4017 103.95 35.6852C104.525 35.965 105.015 36.3624 105.414 36.8696C105.813 37.3756 106.107 37.9733 106.308 38.6474C106.51 39.3254 106.606 40.0607 106.606 40.8472C106.606 41.7428 106.483 42.5679 106.22 43.3116L106.218 43.3161C105.963 44.025 105.615 44.6484 105.166 45.1727C104.73 45.6834 104.212 46.0815 103.615 46.3577C103.034 46.6321 102.423 46.7721 101.788 46.7721C101.233 46.7721 100.695 46.6406 100.181 46.3913L100.173 46.3873L100.165 46.3832C99.999 46.2976 99.8382 46.2002 99.6825 46.0916L99.5655 46.5431H95.6727V31.7541ZM99.2502 44.7597H99.3265C99.3341 44.7683 99.3416 44.7768 99.3492 44.7854C99.5228 44.9804 99.7021 45.1531 99.8869 45.3033C100.088 45.4667 100.296 45.6036 100.51 45.7139C100.93 45.9175 101.356 46.0193 101.788 46.0193C102.31 46.0193 102.813 45.9048 103.296 45.6758C103.792 45.4467 104.225 45.1159 104.594 44.6833C104.976 44.238 105.281 43.6973 105.51 43.0611C105.739 42.4122 105.854 41.6742 105.854 40.8472C105.854 40.1219 105.765 39.4603 105.586 38.8623C105.408 38.2643 105.154 37.7554 104.823 37.3355C104.492 36.9156 104.091 36.5912 103.621 36.3621C103.15 36.1331 102.628 36.0186 102.056 36.0186C101.623 36.0186 101.197 36.1013 100.777 36.2667C100.653 36.3154 100.533 36.3702 100.416 36.4311C100.136 36.5768 99.8742 36.7574 99.6319 36.9729L99.7082 35.5987V32.5069H96.4255V45.7903H98.983L99.2502 44.7597ZM101.42 42.3814L101.43 42.3678C101.496 42.277 101.571 42.1263 101.631 41.8861L101.633 41.8758L101.636 41.8657C101.701 41.6336 101.742 41.3182 101.742 40.9044C101.742 40.1541 101.619 39.7856 101.516 39.6391L101.511 39.6313L101.506 39.6234C101.438 39.5214 101.343 39.4434 101.082 39.4434C100.931 39.4434 100.806 39.4728 100.697 39.5244C100.637 39.5525 100.558 39.603 100.461 39.6882V42.4959C100.491 42.5097 100.519 42.5203 100.546 42.5283C100.713 42.5743 100.866 42.5945 101.006 42.5945C101.103 42.5945 101.185 42.5786 101.259 42.5503C101.301 42.5259 101.353 42.4818 101.41 42.3954L101.42 42.3814ZM101.579 43.2328C101.4 43.3092 101.21 43.3474 101.006 43.3474C100.79 43.3474 100.567 43.3155 100.338 43.2519C100.122 43.1883 99.9118 43.0674 99.7082 42.8893V39.3776C99.9372 39.1231 100.16 38.945 100.376 38.8432C100.592 38.7414 100.828 38.6905 101.082 38.6905C101.553 38.6905 101.903 38.8623 102.132 39.2058C102.374 39.5494 102.495 40.1156 102.495 40.9044C102.495 41.3625 102.45 41.7506 102.361 42.0686C102.285 42.374 102.177 42.6221 102.037 42.813C101.909 43.0038 101.757 43.1438 101.579 43.2328ZM117.554 46.5431H113.501L113.39 45.9308C113.21 46.0587 113.023 46.175 112.829 46.2794C112.213 46.619 111.504 46.7721 110.732 46.7721C109.488 46.7721 108.446 46.3531 107.798 45.3898L107.795 45.3846C107.217 44.51 106.964 43.4018 106.964 42.1259V35.4948H111.752V41.706C111.752 42.1288 111.803 42.3522 111.841 42.4503C111.876 42.4624 111.951 42.48 112.087 42.48C112.27 42.48 112.389 42.4482 112.467 42.411C112.522 42.3802 112.622 42.3008 112.766 42.1322V35.4948H117.554V46.5431ZM113.518 42.3931C113.264 42.7366 113.029 42.9656 112.812 43.0802C112.609 43.182 112.367 43.2328 112.087 43.2328C111.654 43.2328 111.362 43.112 111.209 42.8702C111.069 42.6285 110.999 42.2404 110.999 41.706V36.2476H107.717V42.1259C107.717 43.3092 107.952 44.2571 108.423 44.9696C108.893 45.6694 109.663 46.0193 110.732 46.0193C111.406 46.0193 111.985 45.8857 112.469 45.6185C112.738 45.4733 112.995 45.2999 113.238 45.0984C113.437 44.9335 113.628 44.7498 113.809 44.5472C113.814 44.5417 113.819 44.5362 113.824 44.5306H113.9L114.129 45.7903H116.801V36.2476H113.518V42.3931ZM118.751 35.4948H123.215C123.016 35.394 122.829 35.2684 122.655 35.1167L122.65 35.1122L122.645 35.1077C122.079 34.5968 121.805 33.9228 121.805 33.1558C121.805 32.391 122.077 31.7188 122.64 31.2084C123.191 30.6947 123.884 30.4563 124.657 30.4563C125.429 30.4563 126.123 30.6947 126.674 31.2084C127.236 31.7188 127.509 32.391 127.509 33.1558C127.509 33.9228 127.235 34.5968 126.669 35.1077L126.664 35.1122L126.659 35.1167C126.485 35.2684 126.297 35.394 126.099 35.4948H127.166V46.5431H122.377V39.5579H118.751V35.4948ZM123.13 38.8051V45.7903H126.413V36.2476H119.504V38.8051H123.13ZM126.165 31.7626C125.77 31.3936 125.268 31.2091 124.657 31.2091C124.046 31.2091 123.544 31.3936 123.149 31.7626C122.755 32.1188 122.557 32.5832 122.557 33.1558C122.557 33.7284 122.755 34.1928 123.149 34.549C123.544 34.8926 124.046 35.0643 124.657 35.0643C125.268 35.0643 125.77 34.8926 126.165 34.549C126.559 34.1928 126.756 33.7284 126.756 33.1558C126.756 32.5832 126.559 32.1188 126.165 31.7626ZM129.813 31.7541H137.197V41.9732C137.197 42.1807 137.231 42.2836 137.251 42.3236C137.295 42.4117 137.339 42.4723 137.38 42.5144C137.434 42.5499 137.491 42.578 137.553 42.5993C137.671 42.6225 137.778 42.6327 137.876 42.6327C138.162 42.6327 138.534 42.5671 139.006 42.4059L139.75 42.1518L140.889 46.0291L140.172 46.2441C139.915 46.3212 139.67 46.3921 139.437 46.4568C139.193 46.5285 138.942 46.5856 138.686 46.6283C138.44 46.6694 138.181 46.7033 137.912 46.7302C137.629 46.7586 137.323 46.7721 136.998 46.7721C136.282 46.7721 135.619 46.6576 135.026 46.4077L135.019 46.4049C134.458 46.1623 133.97 45.8233 133.564 45.3864L133.555 45.3762L133.546 45.3657C133.156 44.9138 132.868 44.3846 132.675 43.79L132.672 43.7818L132.669 43.7736C132.492 43.1836 132.409 42.5431 132.409 41.8587V35.8171H129.813V31.7541ZM133.161 35.0643V41.8587C133.161 42.4822 133.238 43.0484 133.39 43.5573C133.556 44.0662 133.798 44.5052 134.116 44.8742C134.447 45.2304 134.847 45.5104 135.318 45.7139C135.802 45.9175 136.361 46.0193 136.998 46.0193C137.303 46.0193 137.583 46.0066 137.837 45.9811C138.092 45.9557 138.334 45.9239 138.563 45.8857C138.792 45.8475 139.014 45.7966 139.231 45.733C139.231 45.7328 139.232 45.7326 139.233 45.7324C139.32 45.7081 139.409 45.6829 139.5 45.6568C139.647 45.6146 139.799 45.5701 139.956 45.5231L139.25 43.1183C139.065 43.1815 138.888 43.2334 138.719 43.2742C138.411 43.3484 138.13 43.3855 137.876 43.3855C137.71 43.3855 137.538 43.3664 137.36 43.3283C137.195 43.2774 137.042 43.201 136.902 43.0992C136.775 42.9847 136.667 42.8384 136.578 42.6603C136.489 42.4822 136.444 42.2531 136.444 41.9732V32.5069H130.566V35.0643H133.161ZM148.308 44.9124H148.231C148.222 44.9214 148.213 44.9304 148.204 44.9394C148.035 45.1049 147.852 45.2541 147.654 45.3871C147.471 45.5099 147.275 45.6189 147.067 45.7139C146.635 45.9175 146.202 46.0193 145.769 46.0193C145.159 46.0193 144.605 45.9048 144.109 45.6758C143.625 45.4467 143.212 45.1159 142.868 44.6833C142.525 44.2507 142.258 43.7291 142.067 43.1183C141.876 42.4949 141.781 41.7951 141.781 41.019C141.781 40.2428 141.895 39.543 142.124 38.9196C142.353 38.2961 142.652 37.7745 143.021 37.3546C143.39 36.922 143.816 36.5912 144.3 36.3621C144.783 36.1331 145.273 36.0186 145.769 36.0186C146.304 36.0186 146.743 36.1077 147.086 36.2858C147.136 36.3098 147.185 36.3351 147.234 36.3618C147.522 36.519 147.79 36.7227 148.041 36.9729L147.926 35.5987V32.5069H151.209V45.7903H148.537L148.308 44.9124ZM147.853 46.1513C147.703 46.2407 147.546 46.3225 147.384 46.3968C146.863 46.6415 146.323 46.7721 145.769 46.7721C145.063 46.7721 144.4 46.6391 143.793 46.3593L143.787 46.3561C143.196 46.0761 142.692 45.6713 142.279 45.1515C141.869 44.6358 141.562 44.0283 141.348 43.3429L141.347 43.3387C141.131 42.6318 141.028 41.856 141.028 41.019C141.028 40.1689 141.153 39.3793 141.417 38.66C141.672 37.9673 142.013 37.3623 142.452 36.8617C142.885 36.3554 143.394 35.9584 143.978 35.6818C144.554 35.4089 145.153 35.2658 145.769 35.2658C146.275 35.2658 146.75 35.3347 147.173 35.5001V31.7541H151.961V46.5431H147.955L147.853 46.1513ZM147.091 39.5045C146.965 39.4652 146.825 39.4434 146.666 39.4434C146.503 39.4434 146.343 39.5001 146.16 39.706C146.045 39.8359 145.892 40.1894 145.892 40.9808C145.892 41.8059 146.021 42.2107 146.129 42.369C146.244 42.5183 146.383 42.5945 146.628 42.5945C146.805 42.5945 146.931 42.5663 147.022 42.5287C147.058 42.5102 147.11 42.4745 147.173 42.406V39.534C147.149 39.5232 147.125 39.5148 147.103 39.5082L147.091 39.5045ZM147.926 39.1486V42.6603C147.748 42.9275 147.551 43.112 147.334 43.2138C147.131 43.3028 146.895 43.3474 146.628 43.3474C146.157 43.3474 145.788 43.1692 145.521 42.813C145.267 42.4567 145.14 41.846 145.14 40.9808C145.14 40.141 145.292 39.5494 145.598 39.2058C145.903 38.8623 146.259 38.6905 146.666 38.6905C146.895 38.6905 147.112 38.7224 147.315 38.786C147.532 38.8496 147.735 38.9705 147.926 39.1486ZM156.238 35.6591L156.243 35.6572C156.936 35.3974 157.649 35.2658 158.377 35.2658C159.206 35.2658 159.966 35.399 160.639 35.6888C161.301 35.9689 161.87 36.3598 162.332 36.8673C162.785 37.3666 163.123 37.9472 163.346 38.6003C163.565 39.2441 163.672 39.9247 163.672 40.6372C163.672 40.9555 163.652 41.2604 163.61 41.5509C163.584 41.8012 163.556 42.0171 163.521 42.1747L163.39 42.7642H162.217L163.535 45.1651L162.946 45.5451C162.306 45.9571 161.607 46.2673 160.85 46.4774L160.837 46.4809C160.1 46.6722 159.393 46.7721 158.721 46.7721C157.897 46.7721 157.111 46.6532 156.368 46.4104L156.36 46.4077L156.352 46.4047C155.62 46.1466 154.97 45.7763 154.41 45.2899L154.402 45.283L154.394 45.2758C153.843 44.7694 153.41 44.1559 153.091 43.4458L153.086 43.434C152.772 42.7028 152.624 41.8933 152.624 41.019C152.624 40.1509 152.781 39.344 153.11 38.6112C153.428 37.904 153.854 37.2959 154.394 36.8003C154.935 36.3033 155.551 35.9221 156.238 35.6591ZM154.904 37.3546C154.446 37.7745 154.077 38.2961 153.797 38.9196C153.517 39.543 153.377 40.2428 153.377 41.019C153.377 41.8078 153.511 42.514 153.778 43.1374C154.058 43.7609 154.433 44.2889 154.904 44.7215C155.387 45.1414 155.953 45.4658 156.602 45.6948C157.264 45.9111 157.97 46.0193 158.721 46.0193C159.319 46.0193 159.961 45.9302 160.648 45.7521C161.336 45.5613 161.965 45.2813 162.538 44.9124L161.469 42.9656C161.049 43.1565 160.655 43.3028 160.286 43.4046C159.93 43.4937 159.561 43.5382 159.179 43.5382C158.886 43.5382 158.606 43.5128 158.339 43.4619C158.072 43.411 157.824 43.3283 157.595 43.2138C157.382 43.1009 157.199 42.9511 157.048 42.7642C157.046 42.7614 157.044 42.7585 157.041 42.7557C156.889 42.5521 156.787 42.304 156.736 42.0114H162.786C162.811 41.8969 162.837 41.7124 162.862 41.4579C162.901 41.2034 162.92 40.9299 162.92 40.6372C162.92 40.0011 162.824 39.4031 162.633 38.8432C162.442 38.2834 162.156 37.7935 161.774 37.3737C161.393 36.9538 160.916 36.623 160.343 36.3812C159.783 36.1395 159.128 36.0186 158.377 36.0186C157.741 36.0186 157.118 36.1331 156.507 36.3621C155.909 36.5912 155.375 36.922 154.904 37.3546ZM159.592 42.7642H158.765C158.897 42.7782 159.035 42.7854 159.179 42.7854C159.319 42.7854 159.457 42.7783 159.592 42.7642ZM156.698 39.8738C156.769 39.5669 156.878 39.316 157.027 39.121C157.119 39.0008 157.225 38.9018 157.347 38.8241C157.677 38.6078 158.046 38.4997 158.454 38.4997C159.013 38.4997 159.402 38.6333 159.618 38.9005C159.674 38.9701 159.723 39.0436 159.765 39.121C159.883 39.3407 159.942 39.5916 159.942 39.8738H156.698ZM165.098 35.4948H169.208L169.33 36.4886C169.588 36.2568 169.866 36.0573 170.165 35.8931C170.922 35.4772 171.734 35.2658 172.588 35.2658C173.051 35.2658 173.476 35.3029 173.822 35.408C174.113 35.4819 174.405 35.5827 174.698 35.7084L175.28 35.9576L174.301 40.1024L173.533 39.8688C173.266 39.7875 173.034 39.7329 172.834 39.7013L172.811 39.6977L172.788 39.6926C172.631 39.6577 172.404 39.6342 172.092 39.6342C171.705 39.6342 171.3 39.7494 170.866 40.0177L170.855 40.0246C170.523 40.2221 170.188 40.5926 169.887 41.2222V46.5431H165.098V35.4948ZM169.134 41.0571C169.49 40.2555 169.936 39.6957 170.47 39.3776C171.004 39.0468 171.545 38.8814 172.092 38.8814C172.436 38.8814 172.722 38.9068 172.951 38.9577C172.974 38.9614 172.998 38.9653 173.021 38.9694C173.244 39.0084 173.488 39.0681 173.753 39.1486L174.401 36.4003C174.134 36.2858 173.873 36.1967 173.619 36.1331C173.377 36.0568 173.034 36.0186 172.588 36.0186C171.863 36.0186 171.176 36.1967 170.527 36.553C170.132 36.77 169.772 37.0673 169.448 37.4448C169.242 37.6844 169.05 37.9563 168.873 38.2606C168.871 38.2639 168.869 38.2673 168.867 38.2707H168.79L168.542 36.2476H165.851V45.7903H169.134V41.0571ZM177.425 41.5516C177.046 41.2781 176.723 40.9584 176.467 40.59L176.463 40.5839L176.459 40.5777C176.166 40.1393 176.027 39.6418 176.027 39.1104C176.027 38.5194 176.164 37.9637 176.449 37.4606C176.727 36.9696 177.116 36.5616 177.598 36.2351L177.607 36.2289C178.095 35.909 178.656 35.676 179.28 35.5192C179.914 35.3472 180.61 35.2658 181.36 35.2658C182.342 35.2658 183.244 35.4246 184.05 35.7608C184.779 36.0527 185.423 36.3702 185.977 36.7162L186.67 37.1492L184.541 40.0065C184.718 40.1014 184.888 40.2064 185.05 40.3219C185.457 40.5909 185.796 40.9281 186.056 41.3328C186.353 41.7812 186.483 42.2996 186.483 42.8511C186.483 43.4229 186.344 43.9657 186.068 44.4688C185.799 44.9715 185.4 45.3925 184.902 45.7399L184.898 45.7426C184.404 46.082 183.812 46.3352 183.141 46.5169L183.13 46.5198C182.457 46.6918 181.692 46.7721 180.845 46.7721C179.931 46.7721 179.018 46.6173 178.107 46.3136L178.103 46.3125C177.225 46.0154 176.445 45.6449 175.77 45.1952L175.122 44.7631L177.425 41.5516ZM185.406 44.1108C185.623 43.7163 185.731 43.2965 185.731 42.8511C185.731 42.4185 185.629 42.0496 185.425 41.7442C185.222 41.4261 184.955 41.1589 184.624 40.9426C184.306 40.7136 183.943 40.5291 183.536 40.3891C183.129 40.2365 182.722 40.1029 182.314 39.9883C182.009 39.912 181.716 39.8357 181.437 39.7593C181.169 39.683 180.928 39.6066 180.711 39.5303C180.508 39.454 180.342 39.3713 180.215 39.2822C180.101 39.1931 180.043 39.085 180.043 38.9577C180.043 38.7669 180.151 38.6333 180.368 38.5569C180.584 38.4679 180.94 38.4234 181.437 38.4234C181.895 38.4234 182.346 38.5061 182.792 38.6715C183.237 38.8369 183.682 39.0468 184.128 39.3013L185.578 37.3546C185.373 37.2267 185.153 37.102 184.918 36.9803C184.568 36.7992 184.183 36.625 183.765 36.4576C183.065 36.1649 182.264 36.0186 181.36 36.0186C180.66 36.0186 180.031 36.0949 179.471 36.2476C178.911 36.3876 178.427 36.5912 178.02 36.8584C177.626 37.1255 177.32 37.45 177.104 37.8317C176.888 38.2134 176.78 38.6396 176.78 39.1104C176.78 39.5049 176.881 39.8547 177.085 40.1601C177.289 40.4528 177.549 40.7136 177.868 40.9426C178.186 41.1716 178.542 41.3688 178.936 41.5343C179.331 41.6869 179.725 41.8205 180.12 41.935C180.425 42.0241 180.718 42.1132 180.998 42.2022C181.29 42.2786 181.545 42.3613 181.761 42.4503C181.977 42.5267 182.149 42.6158 182.276 42.7175C182.403 42.8066 182.467 42.9148 182.467 43.042C182.467 43.2328 182.353 43.3792 182.124 43.481C181.895 43.57 181.494 43.6146 180.921 43.6146C180.361 43.6146 179.814 43.5191 179.28 43.3283C178.745 43.1374 178.198 42.8766 177.639 42.5458L176.188 44.5688C176.392 44.7049 176.608 44.8339 176.837 44.9558C177.292 45.1986 177.794 45.4131 178.345 45.5994C179.184 45.8793 180.018 46.0193 180.845 46.0193C181.646 46.0193 182.346 45.943 182.944 45.7903C183.555 45.6249 184.064 45.4022 184.471 45.1223C184.891 44.8296 185.203 44.4925 185.406 44.1108ZM180.524 42.8425C180.189 42.81 179.859 42.7358 179.533 42.6193C179.206 42.5025 178.869 42.3551 178.523 42.176C178.564 42.1938 178.604 42.2113 178.645 42.2285L178.655 42.2325L178.665 42.2363C179.078 42.3965 179.493 42.537 179.909 42.6577M179.909 42.6577C180.12 42.7194 180.326 42.7811 180.524 42.8425ZM99.7082 70.0408V72.6745H96.4255V59.7729H99.0975L99.3265 60.6508H99.4028C99.4134 60.6414 99.4239 60.632 99.4346 60.6226C99.6091 60.4689 99.7936 60.3292 99.9878 60.2035C100.195 60.0694 100.414 59.9513 100.643 59.8492C101.114 59.6456 101.591 59.5439 102.075 59.5439C102.647 59.5439 103.169 59.6584 103.64 59.8874C104.111 60.1164 104.505 60.4409 104.823 60.8607C105.154 61.2806 105.408 61.7896 105.586 62.3876C105.765 62.9856 105.854 63.6536 105.854 64.3915C105.854 65.2186 105.739 65.9502 105.51 66.5863C105.281 67.2225 104.976 67.7633 104.594 68.2086C104.225 68.6412 103.792 68.972 103.296 69.201C102.813 69.43 102.31 69.5446 101.788 69.5446C101.381 69.5446 100.993 69.4619 100.624 69.2964C100.547 69.2618 100.471 69.224 100.396 69.1832C100.112 69.0293 99.8451 68.8317 99.5937 68.5903L99.7082 70.0408ZM103.615 69.8831C103.034 70.1574 102.423 70.2974 101.788 70.2974C101.329 70.2974 100.884 70.213 100.461 70.0446V73.4274H95.6727V59.0201H99.6791L99.7892 59.4421C99.9656 59.339 100.149 59.2454 100.338 59.1613L100.345 59.1582C100.904 58.9164 101.482 58.7911 102.075 58.7911C102.751 58.7911 103.386 58.927 103.969 59.2104C104.545 59.4905 105.03 59.8895 105.419 60.4004C105.815 60.9052 106.108 61.501 106.308 62.1727C106.51 62.8518 106.606 63.5937 106.606 64.3915C106.606 65.2867 106.483 66.1074 106.218 66.8413C105.963 67.5503 105.615 68.1737 105.166 68.698C104.73 69.2087 104.212 69.6068 103.615 69.8831ZM101.42 65.9066L101.43 65.893C101.496 65.8022 101.571 65.6515 101.631 65.4113L101.633 65.4011L101.636 65.3909C101.701 65.1589 101.742 64.8435 101.742 64.4297C101.742 63.6793 101.619 63.3109 101.516 63.1643L101.511 63.1566L101.506 63.1487C101.438 63.0467 101.343 62.9686 101.082 62.9686C100.931 62.9686 100.806 62.998 100.697 63.0496C100.637 63.0777 100.558 63.1283 100.461 63.2135V66.0212C100.491 66.035 100.519 66.0455 100.546 66.0536C100.713 66.0995 100.866 66.1198 101.006 66.1198C101.103 66.1198 101.185 66.1039 101.259 66.0756C101.301 66.0511 101.353 66.0071 101.41 65.9206L101.42 65.9066ZM101.579 66.7581C101.4 66.8344 101.21 66.8726 101.006 66.8726C100.79 66.8726 100.567 66.8408 100.338 66.7772C100.122 66.7136 99.9118 66.5927 99.7082 66.4146V62.9029C99.9372 62.6484 100.16 62.4703 100.376 62.3685C100.592 62.2667 100.828 62.2158 101.082 62.2158C101.553 62.2158 101.903 62.3876 102.132 62.7311C102.374 63.0746 102.495 63.6408 102.495 64.4297C102.495 64.8877 102.45 65.2758 102.361 65.5939C102.285 65.8993 102.177 66.1474 102.037 66.3382C101.909 66.5291 101.757 66.669 101.579 66.7581ZM107.88 59.0201H111.99L112.112 60.0139C112.369 59.782 112.647 59.5826 112.946 59.4184C113.704 59.0025 114.515 58.7911 115.37 58.7911C115.833 58.7911 116.257 58.8282 116.604 58.9333C116.894 59.0072 117.186 59.108 117.479 59.2336L118.061 59.4828L117.082 63.6276L116.315 63.394C116.048 63.3127 115.815 63.2582 115.615 63.2266L115.592 63.2229L115.569 63.2179C115.412 63.183 115.185 63.1595 114.874 63.1595C114.486 63.1595 114.081 63.2746 113.648 63.543L113.636 63.5499C113.305 63.7474 112.97 64.1179 112.668 64.7475V70.0683H107.88V59.0201ZM111.915 64.5824C112.272 63.7808 112.717 63.221 113.251 62.9029C113.786 62.5721 114.326 62.4067 114.874 62.4067C115.217 62.4067 115.503 62.4321 115.732 62.483C115.756 62.4867 115.779 62.4906 115.803 62.4947C116.026 62.5336 116.269 62.5933 116.534 62.6738C116.534 62.6738 116.534 62.6738 116.534 62.6738L117.183 59.9256C116.916 59.8111 116.655 59.722 116.4 59.6584C116.159 59.582 115.815 59.5439 115.37 59.5439C114.645 59.5439 113.957 59.722 113.309 60.0782C112.913 60.2953 112.553 60.5925 112.229 60.9701C112.023 61.2097 111.831 61.4816 111.654 61.7858C111.652 61.7892 111.65 61.7926 111.648 61.7959H111.572L111.324 59.7729H108.633V69.3155H111.915V64.5824ZM118.607 62.1174C118.924 61.4117 119.349 60.8047 119.888 60.3096C120.417 59.8111 121.023 59.4341 121.7 59.1829C122.383 58.9222 123.09 58.7911 123.817 58.7911C124.532 58.7911 125.226 58.9222 125.895 59.1828C126.584 59.4332 127.197 59.8096 127.727 60.3096C128.266 60.8047 128.691 61.4117 129.008 62.1174C129.338 62.8517 129.494 63.6654 129.494 64.5442C129.494 65.423 129.338 66.2367 129.008 66.971C128.691 67.6768 128.267 68.2882 127.731 68.7941L127.723 68.8018C127.193 69.2876 126.583 69.6613 125.899 69.9231L125.891 69.9263C125.222 70.1734 124.53 70.2974 123.817 70.2974C123.094 70.2974 122.39 70.174 121.71 69.928L121.701 69.9247L121.692 69.9212C121.021 69.6587 120.419 69.285 119.892 68.8017L119.884 68.7941C119.348 68.2882 118.924 67.6768 118.607 66.971L118.602 66.9593C118.288 66.2281 118.14 65.4186 118.14 64.5442C118.14 63.6698 118.289 62.8604 118.602 62.1292L118.607 62.1174ZM127.214 60.8607C126.756 60.4281 126.228 60.1037 125.63 59.8874C125.045 59.6584 124.441 59.5439 123.817 59.5439C123.181 59.5439 122.564 59.6584 121.966 59.8874C121.381 60.1037 120.859 60.4281 120.401 60.8607C119.943 61.2806 119.574 61.8023 119.294 62.4257C119.027 63.0492 118.893 63.7554 118.893 64.5442C118.893 65.3331 119.027 66.0392 119.294 66.6627C119.574 67.2861 119.943 67.8142 120.401 68.2468C120.859 68.6666 121.381 68.9911 121.966 69.2201C122.564 69.4364 123.181 69.5446 123.817 69.5446C124.441 69.5446 125.045 69.4364 125.63 69.2201C126.228 68.9911 126.756 68.6666 127.214 68.2468C127.672 67.8142 128.041 67.2861 128.321 66.6627C128.601 66.0392 128.741 65.3331 128.741 64.5442C128.741 63.7554 128.601 63.0492 128.321 62.4257C128.041 61.8023 127.672 61.2806 127.214 60.8607ZM124.362 63.1938C124.273 63.0344 124.147 62.9304 123.817 62.9304C123.487 62.9304 123.361 63.0344 123.272 63.1938L123.267 63.2022C123.116 63.4647 123.005 63.8901 123.005 64.5442C123.005 65.1929 123.114 65.6289 123.269 65.9093C123.354 66.0534 123.48 66.158 123.817 66.158C124.155 66.158 124.281 66.0534 124.365 65.9092C124.52 65.6289 124.629 65.1929 124.629 64.5442C124.629 63.8901 124.518 63.4647 124.367 63.2022L124.362 63.1938ZM122.615 66.281C122.373 65.8484 122.252 65.2695 122.252 64.5442C122.252 63.819 122.373 63.2464 122.615 62.8265C122.856 62.3939 123.257 62.1776 123.817 62.1776C124.377 62.1776 124.778 62.3939 125.019 62.8265C125.261 63.2464 125.382 63.819 125.382 64.5442C125.382 65.2695 125.261 65.8484 125.019 66.281C124.778 66.7008 124.377 66.9108 123.817 66.9108C123.257 66.9108 122.856 66.7008 122.615 66.281ZM133.505 69.6591C133.67 69.6972 133.861 69.7227 134.078 69.7354C134.294 69.7609 134.586 69.7736 134.955 69.7736H135.91C136.393 69.7736 136.762 69.8054 137.017 69.869C137.271 69.9326 137.398 70.0917 137.398 70.3461C137.398 70.6133 137.188 70.8233 136.769 70.976C136.361 71.1414 135.833 71.2241 135.184 71.2241C134.536 71.2241 134.014 71.1541 133.619 71.0141C133.225 70.8742 133.028 70.6515 133.028 70.3461C133.028 70.2062 133.066 70.0853 133.142 69.9835C133.219 69.8817 133.34 69.7736 133.505 69.6591ZM131.081 64.487C131.198 64.6795 131.327 64.8519 131.467 65.0043C131.606 65.1549 131.757 65.286 131.92 65.3974C131.952 65.4191 131.984 65.4401 132.016 65.4603V65.5366C131.987 65.5566 131.959 65.5769 131.931 65.5975C131.764 65.7212 131.612 65.8571 131.475 66.0051C131.373 66.1157 131.28 66.2331 131.196 66.3573C130.979 66.6754 130.871 66.9999 130.871 67.3307C130.871 67.7378 130.96 68.0686 131.138 68.3231C131.18 68.3791 131.224 68.4333 131.27 68.4856C131.418 68.6549 131.585 68.8049 131.772 68.9355C131.79 68.9478 131.807 68.96 131.825 68.972V69.0483C131.8 69.0604 131.775 69.0725 131.75 69.0847C131.534 69.192 131.342 69.3074 131.177 69.4309C130.642 69.8297 130.375 70.3129 130.375 70.8805C130.375 71.3131 130.483 71.6757 130.699 71.9684C130.928 72.2738 131.24 72.5219 131.635 72.7127C132.029 72.9036 132.481 73.0372 132.99 73.1135C133.511 73.2026 134.071 73.2471 134.669 73.2471C135.56 73.2471 136.361 73.1644 137.074 72.999C137.799 72.8336 138.416 72.5982 138.925 72.2928C139.434 71.9875 139.822 71.6185 140.089 71.1859C140.369 70.766 140.509 70.2952 140.509 69.7736C140.509 68.8957 140.166 68.2658 139.479 67.8841C138.792 67.4897 137.812 67.2925 136.54 67.2925H134.917C134.383 67.2925 134.001 67.2543 133.772 67.178C133.543 67.0889 133.429 66.9362 133.429 66.7199C133.429 66.58 133.448 66.4782 133.486 66.4146C133.537 66.3382 133.619 66.2555 133.734 66.1665C134.167 66.2555 134.567 66.3001 134.936 66.3001C135.509 66.3001 136.037 66.2428 136.52 66.1283C137.017 66.0011 137.443 65.8102 137.799 65.5557C138.168 65.3013 138.454 64.9768 138.658 64.5824C138.862 64.1752 138.963 63.6917 138.963 63.1319C138.963 63.0509 138.958 62.971 138.946 62.8923C138.931 62.7855 138.905 62.6809 138.868 62.5784C138.817 62.4003 138.76 62.254 138.696 62.1395H140.414V59.7729H136.559C136.075 59.6202 135.534 59.5439 134.936 59.5439C134.377 59.5439 133.842 59.6138 133.333 59.7538C132.837 59.8938 132.392 60.1101 131.997 60.4027C131.603 60.6826 131.291 61.0452 131.062 61.4906C130.833 61.9232 130.719 62.4321 130.719 63.0174C130.719 63.5772 130.839 64.0671 131.081 64.487ZM130.395 61.1424C130.675 60.5978 131.063 60.1443 131.555 59.7935C132.025 59.446 132.552 59.1921 133.129 59.0293L133.134 59.0279C133.711 58.869 134.313 58.7911 134.936 58.7911C135.553 58.7911 136.133 58.8645 136.67 59.0201H141.167V62.8923H139.704C139.712 62.9716 139.716 63.0515 139.716 63.1319C139.716 63.7822 139.598 64.3861 139.331 64.919L139.327 64.9277C139.067 65.4313 138.699 65.8484 138.232 66.1719C138.009 66.3304 137.769 66.466 137.512 66.5802C138.425 66.6609 139.215 66.8658 139.849 67.2287C140.804 67.7614 141.262 68.663 141.262 69.7736C141.262 70.4341 141.083 71.0474 140.723 71.5925C140.383 72.1383 139.903 72.5839 139.313 72.9384C138.721 73.2932 138.027 73.5537 137.243 73.7325C137.243 73.7326 137.242 73.7328 137.241 73.733L137.074 72.999L137.243 73.7325C137.243 73.7325 137.244 73.7324 137.243 73.7325C136.465 73.9132 135.605 73.9999 134.669 73.9999C134.037 73.9999 133.437 73.9531 132.87 73.8568C132.302 73.7709 131.778 73.6184 131.307 73.3904C130.82 73.155 130.408 72.8349 130.097 72.4201L130.094 72.4159C129.765 71.9706 129.622 71.4429 129.622 70.8805C129.622 70.0506 130.012 69.3971 130.635 68.9001C130.601 68.8592 130.568 68.8174 130.536 68.7748L130.529 68.7649L130.522 68.7548C130.231 68.3397 130.118 67.8447 130.118 67.3307C130.118 66.8255 130.286 66.3561 130.573 65.934C130.675 65.7839 130.787 65.6422 130.909 65.509C130.734 65.3189 130.577 65.1075 130.437 64.8771L130.433 64.8699L130.429 64.8626C130.112 64.3117 129.966 63.6883 129.966 63.0174C129.966 62.3349 130.099 61.7019 130.395 61.1424ZM135.248 62.5991L135.24 62.5913C135.152 62.5084 135.064 62.4724 134.936 62.4724C134.808 62.4724 134.72 62.5084 134.633 62.5913L134.632 62.5922C134.628 62.5955 134.544 62.6762 134.544 63.0174C134.544 63.349 134.618 63.4625 134.643 63.4914C134.728 63.5674 134.814 63.6005 134.936 63.6005C135.064 63.6005 135.152 63.5645 135.24 63.4816C135.261 63.4617 135.348 63.3632 135.348 63.0174C135.348 62.6877 135.263 62.6125 135.257 62.6067L135.248 62.5991ZM134.116 64.0289C133.899 63.8126 133.791 63.4754 133.791 63.0174C133.791 62.5721 133.899 62.2476 134.116 62.044C134.345 61.8277 134.618 61.7196 134.936 61.7196C135.254 61.7196 135.528 61.8277 135.757 62.044C135.986 62.2476 136.101 62.5721 136.101 63.0174C136.101 63.4754 135.986 63.8126 135.757 64.0289C135.528 64.2452 135.254 64.3534 134.936 64.3534C134.618 64.3534 134.345 64.2452 134.116 64.0289ZM142.211 59.0201H146.321L146.443 60.0139C146.7 59.782 146.978 59.5826 147.277 59.4184C148.035 59.0025 148.846 58.7911 149.701 58.7911C150.164 58.7911 150.589 58.8282 150.935 58.9333C151.225 59.0072 151.517 59.108 151.811 59.2336L152.392 59.4828L151.413 63.6276L150.646 63.394C150.379 63.3127 150.146 63.2582 149.946 63.2266L149.923 63.2229L149.9 63.2179C149.743 63.183 149.516 63.1595 149.205 63.1595C148.817 63.1595 148.412 63.2746 147.979 63.543L147.968 63.5499C147.636 63.7474 147.301 64.1179 146.999 64.7475V70.0683H142.211V59.0201ZM146.247 64.5824C146.603 63.7808 147.048 63.221 147.582 62.9029C148.117 62.5721 148.658 62.4067 149.205 62.4067C149.548 62.4067 149.835 62.4321 150.064 62.483C150.087 62.4867 150.11 62.4906 150.134 62.4947C150.357 62.5336 150.601 62.5933 150.865 62.6739L151.514 59.9256C151.247 59.8111 150.986 59.722 150.732 59.6584C150.49 59.582 150.146 59.5439 149.701 59.5439C148.976 59.5439 148.289 59.722 147.64 60.0782C147.244 60.2953 146.885 60.5925 146.56 60.9701C146.354 61.2097 146.163 61.4816 145.985 61.7858C145.983 61.7892 145.981 61.7926 145.979 61.7959H145.903L145.655 59.7729H142.964V69.3155H146.247V64.5824ZM153.117 64.8319L153.122 64.824C153.414 64.3043 153.844 63.8843 154.378 63.5544L152.747 60.5084L153.39 60.1471C154.163 59.7133 154.954 59.3783 155.764 59.1449C156.584 58.9086 157.431 58.7911 158.301 58.7911C159.037 58.7911 159.725 58.8878 160.357 59.0921C161.012 59.2874 161.586 59.6081 162.059 60.0625C162.552 60.5103 162.911 61.0795 163.148 61.7443C163.404 62.4096 163.52 63.1709 163.52 64.0098V70.0683H159.496L159.363 69.4911C159.106 69.6359 158.841 69.7687 158.567 69.8896L158.56 69.8926L158.553 69.8954C157.914 70.1633 157.242 70.2974 156.545 70.2974C155.972 70.2974 155.436 70.2093 154.949 70.0145L154.939 70.0105L154.929 70.0063C154.469 69.807 154.063 69.5396 153.723 69.1989C153.381 68.8576 153.121 68.458 152.943 68.0067L152.939 67.9957L152.935 67.9846C152.778 67.5437 152.7 67.0824 152.7 66.6054C152.7 65.9676 152.83 65.372 153.113 64.8399L153.117 64.8319ZM159.186 68.7233C159.381 68.6062 159.57 68.4814 159.754 68.3489C159.766 68.3404 159.778 68.3317 159.79 68.3231H159.866L160.095 69.3155H162.767V64.0098C162.767 63.2337 162.659 62.5657 162.442 62.0059C162.239 61.4333 161.94 60.9689 161.545 60.6126C161.164 60.2437 160.693 59.9765 160.133 59.8111C159.586 59.6329 158.975 59.5439 158.301 59.5439C157.499 59.5439 156.723 59.652 155.973 59.8683C155.451 60.0185 154.936 60.2147 154.427 60.457C154.337 60.5 154.246 60.5445 154.156 60.5904C154.023 60.6583 153.891 60.7293 153.759 60.8035L154.904 62.941C155.476 62.6739 155.973 62.4766 156.392 62.3494C156.825 62.2094 157.245 62.1395 157.652 62.1395C158.186 62.1395 158.606 62.2222 158.912 62.3876C158.928 62.3955 158.944 62.4037 158.96 62.4122C159.249 62.5664 159.424 62.8063 159.484 63.1319C159.22 63.1473 158.965 63.1656 158.72 63.1869C157.951 63.2538 157.277 63.35 156.698 63.4754C155.934 63.6408 155.311 63.8699 154.827 64.1625C154.357 64.4424 154.007 64.786 153.778 65.1931C153.561 65.6003 153.453 66.071 153.453 66.6054C153.453 66.9999 153.517 67.3752 153.644 67.7315C153.784 68.0877 153.988 68.3994 154.255 68.6666C154.522 68.9338 154.847 69.1501 155.228 69.3155C155.61 69.4682 156.049 69.5446 156.545 69.5446C157.143 69.5446 157.716 69.43 158.263 69.201C158.584 69.0593 158.891 68.9001 159.186 68.7233ZM158.172 65.9714L158.162 65.9731C157.834 66.0296 157.627 66.1007 157.508 66.1638C157.439 66.2003 157.393 66.2317 157.365 66.255C157.425 66.2651 157.507 66.2725 157.614 66.2725C157.897 66.2725 158.128 66.222 158.32 66.1359C158.465 66.0629 158.602 65.9857 158.731 65.9045V65.8877C158.522 65.9105 158.339 65.938 158.181 65.9695L158.172 65.9714ZM158.731 65.1308C158.47 65.1571 158.237 65.1906 158.034 65.2313C157.665 65.2949 157.372 65.384 157.156 65.4985C156.94 65.613 156.787 65.7402 156.698 65.8802C156.621 66.0201 156.583 66.1728 156.583 66.3382C156.583 66.7963 156.927 67.0253 157.614 67.0253C157.996 67.0253 158.339 66.9553 158.644 66.8154C158.95 66.6627 159.23 66.4909 159.484 66.3001V65.0787C159.211 65.0906 158.96 65.1079 158.731 65.1308ZM163.61 59.0201H167.444L167.493 59.2717C167.959 58.9251 168.54 58.7911 169.153 58.7911C169.731 58.7911 170.251 58.9924 170.672 59.3882C170.735 59.4436 170.793 59.5019 170.849 59.563C170.892 59.5209 170.936 59.4796 170.981 59.4392C171.485 58.9918 172.111 58.7911 172.798 58.7911C173.728 58.7911 174.485 59.2071 174.991 59.9869C175.482 60.712 175.689 61.6318 175.689 62.6739V70.0683H163.61V59.0201ZM167.454 63.0556C167.62 62.5721 167.811 62.3303 168.027 62.3303C168.281 62.3303 168.409 62.5212 168.409 62.9029V69.3155H170.89V63.0556C171.055 62.5721 171.265 62.3303 171.52 62.3303C171.736 62.3303 171.844 62.5212 171.844 62.9029V69.3155H174.936V62.6739C174.936 61.7196 174.745 60.9625 174.363 60.4027C173.994 59.8301 173.473 59.5439 172.798 59.5439C172.264 59.5439 171.825 59.6965 171.481 60.0019C171.406 60.0693 171.335 60.1391 171.269 60.2115C171.036 60.467 170.865 60.7534 170.756 61.0707C170.68 60.6982 170.55 60.3938 170.366 60.1575C170.305 60.0791 170.238 60.0081 170.165 59.9446C169.885 59.6775 169.547 59.5439 169.153 59.5439C168.58 59.5439 168.142 59.6838 167.836 59.9637C167.776 60.0191 167.718 60.0762 167.663 60.1351C167.445 60.3693 167.269 60.6312 167.137 60.9206C167.135 60.9261 167.132 60.9316 167.13 60.9371H167.054L166.825 59.7729H164.363V69.3155H167.454V63.0556Z" fill="black"/>
<path d="M97.5325 16.0389C98.0924 16.3697 98.6395 16.6305 99.1739 16.8214C99.7082 17.0122 100.255 17.1076 100.815 17.1076C101.388 17.1076 101.789 17.0631 102.018 16.974C102.247 16.8723 102.361 16.7259 102.361 16.5351C102.361 16.4078 102.297 16.2997 102.17 16.2106C102.043 16.1088 101.871 16.0198 101.655 15.9434C101.439 15.8544 101.184 15.7717 100.892 15.6953C100.612 15.6063 100.319 15.5172 100.014 15.4281C99.6192 15.3136 99.2247 15.18 98.8303 15.0273C98.4359 14.8619 98.0796 14.6647 97.7615 14.4357C97.4435 14.2067 97.1826 13.9458 96.979 13.6532C96.7755 13.3478 96.6737 12.9979 96.6737 12.6035C96.6737 12.1327 96.7818 11.7065 96.9981 11.3248C97.2144 10.9431 97.5198 10.6186 97.9142 10.3514C98.3214 10.0843 98.8049 9.88068 99.3647 9.74072C99.9245 9.58804 100.554 9.5117 101.254 9.5117C102.158 9.5117 102.959 9.65802 103.659 9.95066C104.359 10.2306 104.963 10.5296 105.472 10.8477L104.022 12.7944C103.576 12.5399 103.131 12.33 102.686 12.1646C102.24 11.9991 101.789 11.9164 101.33 11.9164C100.834 11.9164 100.478 11.961 100.262 12.05C100.045 12.1264 99.9373 12.26 99.9373 12.4508C99.9373 12.5781 99.9945 12.6862 100.109 12.7753C100.236 12.8643 100.402 12.947 100.605 13.0234C100.822 13.0997 101.063 13.1761 101.33 13.2524C101.61 13.3288 101.903 13.4051 102.208 13.4814C102.616 13.5959 103.023 13.7295 103.43 13.8822C103.837 14.0222 104.2 14.2067 104.518 14.4357C104.849 14.652 105.116 14.9192 105.319 15.2373C105.523 15.5426 105.625 15.9116 105.625 16.3442C105.625 16.7896 105.517 17.2094 105.3 17.6039C105.097 17.9856 104.785 18.3227 104.365 18.6154C103.958 18.8953 103.449 19.118 102.838 19.2834C102.24 19.436 101.54 19.5124 100.739 19.5124C99.9118 19.5124 99.0784 19.3724 98.2387 19.0925C97.4116 18.8126 96.6928 18.4691 96.082 18.0619L97.5325 16.0389Z" fill="black"/>
<path d="M116.801 19.2834H114.129L113.9 18.0237H113.824C113.417 18.4818 112.965 18.8444 112.469 19.1116C111.985 19.3788 111.406 19.5124 110.732 19.5124C109.663 19.5124 108.894 19.1625 108.423 18.4627C107.952 17.7502 107.717 16.8023 107.717 15.619V9.74072H110.999V15.1991C110.999 15.7335 111.069 16.1216 111.209 16.3633C111.362 16.6051 111.655 16.7259 112.087 16.7259C112.367 16.7259 112.609 16.675 112.812 16.5733C113.029 16.4587 113.264 16.2297 113.519 15.8862V9.74072H116.801V19.2834Z" fill="black"/>
<path d="M119.313 6H122.596V9.09182L122.519 10.466C122.863 10.1606 123.245 9.92521 123.664 9.7598C124.084 9.5944 124.511 9.5117 124.943 9.5117C125.516 9.5117 126.037 9.62621 126.508 9.85523C126.979 10.0843 127.38 10.4087 127.711 10.8286C128.041 11.2485 128.296 11.7574 128.474 12.3554C128.652 12.9534 128.741 13.615 128.741 14.3403C128.741 15.1673 128.627 15.9053 128.398 16.5542C128.169 17.1903 127.863 17.7311 127.482 18.1764C127.113 18.609 126.68 18.9398 126.184 19.1689C125.7 19.3979 125.198 19.5124 124.676 19.5124C124.243 19.5124 123.817 19.4106 123.397 19.207C122.977 18.9907 122.583 18.6726 122.214 18.2528H122.138L121.87 19.2834H119.313V6ZM122.596 16.3824C122.799 16.5605 123.009 16.6814 123.226 16.745C123.455 16.8086 123.677 16.8404 123.893 16.8404C124.097 16.8404 124.288 16.8023 124.466 16.7259C124.644 16.6369 124.797 16.4969 124.924 16.3061C125.064 16.1152 125.172 15.8671 125.249 15.5617C125.338 15.2436 125.382 14.8556 125.382 14.3975C125.382 13.6087 125.261 13.0425 125.02 12.6989C124.79 12.3554 124.441 12.1836 123.97 12.1836C123.715 12.1836 123.48 12.2345 123.264 12.3363C123.047 12.4381 122.825 12.6162 122.596 12.8707V16.3824Z" fill="black"/>
<path d="M131.864 16.0389C132.424 16.3697 132.971 16.6305 133.505 16.8214C134.039 17.0122 134.587 17.1076 135.146 17.1076C135.719 17.1076 136.12 17.0631 136.349 16.974C136.578 16.8723 136.692 16.7259 136.692 16.5351C136.692 16.4078 136.629 16.2997 136.501 16.2106C136.374 16.1088 136.202 16.0198 135.986 15.9434C135.77 15.8544 135.515 15.7717 135.223 15.6953C134.943 15.6063 134.65 15.5172 134.345 15.4281C133.95 15.3136 133.556 15.18 133.161 15.0273C132.767 14.8619 132.411 14.6647 132.093 14.4357C131.775 14.2067 131.514 13.9458 131.31 13.6532C131.107 13.3478 131.005 12.9979 131.005 12.6035C131.005 12.1327 131.113 11.7065 131.329 11.3248C131.546 10.9431 131.851 10.6186 132.245 10.3514C132.653 10.0843 133.136 9.88068 133.696 9.74072C134.256 9.58804 134.886 9.5117 135.585 9.5117C136.489 9.5117 137.29 9.65802 137.99 9.95066C138.69 10.2306 139.294 10.5296 139.803 10.8477L138.353 12.7944C137.907 12.5399 137.462 12.33 137.017 12.1646C136.571 11.9991 136.12 11.9164 135.662 11.9164C135.165 11.9164 134.809 11.961 134.593 12.05C134.377 12.1264 134.268 12.26 134.268 12.4508C134.268 12.5781 134.326 12.6862 134.44 12.7753C134.567 12.8643 134.733 12.947 134.936 13.0234C135.153 13.0997 135.394 13.1761 135.662 13.2524C135.942 13.3288 136.234 13.4051 136.54 13.4814C136.947 13.5959 137.354 13.7295 137.761 13.8822C138.168 14.0222 138.531 14.2067 138.849 14.4357C139.18 14.652 139.447 14.9192 139.65 15.2373C139.854 15.5426 139.956 15.9116 139.956 16.3442C139.956 16.7896 139.848 17.2094 139.631 17.6039C139.428 17.9856 139.116 18.3227 138.696 18.6154C138.289 18.8953 137.78 19.118 137.169 19.2834C136.571 19.436 135.872 19.5124 135.07 19.5124C134.243 19.5124 133.41 19.3724 132.57 19.0925C131.743 18.8126 131.024 18.4691 130.413 18.0619L131.864 16.0389Z" fill="black"/>
<path d="M144.071 12.2981H141.781V9.85523L144.224 9.74072L144.643 7.25963H147.353V9.74072H151.132V12.2981H147.353V15.18C147.353 15.8671 147.506 16.3379 147.812 16.5923C148.13 16.8341 148.594 16.955 149.205 16.955C149.536 16.955 149.841 16.9295 150.121 16.8786C150.414 16.815 150.687 16.7387 150.942 16.6496L151.514 19.0162C151.094 19.1307 150.623 19.2388 150.102 19.3406C149.58 19.4551 148.995 19.5124 148.346 19.5124C147.557 19.5124 146.889 19.4106 146.342 19.207C145.808 19.0034 145.369 18.7172 145.025 18.3482C144.694 17.9665 144.453 17.5148 144.3 16.9931C144.147 16.4587 144.071 15.8735 144.071 15.2373V12.2981Z" fill="black"/>
<path d="M154.408 9.74072H157.099L157.347 11.7638H157.423C157.881 10.9749 158.435 10.4023 159.083 10.0461C159.732 9.68982 160.419 9.5117 161.145 9.5117C161.59 9.5117 161.934 9.54987 162.175 9.62621C162.43 9.68982 162.691 9.77889 162.958 9.8934L162.309 12.6417C162.016 12.5526 161.749 12.489 161.507 12.4508C161.278 12.3999 160.992 12.3745 160.648 12.3745C160.101 12.3745 159.561 12.5399 159.026 12.8707C158.492 13.1888 158.047 13.7486 157.69 14.5502V19.2834H154.408V9.74072Z" fill="black"/>
<path d="M164.897 16.5733C164.897 16.0389 165.005 15.5681 165.222 15.1609C165.451 14.7538 165.8 14.4103 166.271 14.1303C166.755 13.8377 167.378 13.6087 168.142 13.4433C168.905 13.2779 169.834 13.1633 170.928 13.0997C170.864 12.7562 170.674 12.5081 170.355 12.3554C170.05 12.19 169.63 12.1073 169.096 12.1073C168.689 12.1073 168.269 12.1773 167.836 12.3172C167.416 12.4445 166.92 12.6417 166.348 12.9089L165.202 10.7713C165.928 10.3642 166.666 10.0524 167.416 9.83614C168.167 9.61984 168.943 9.5117 169.745 9.5117C170.419 9.5117 171.03 9.60076 171.577 9.77889C172.137 9.94429 172.608 10.2115 172.989 10.5805C173.384 10.9367 173.683 11.4011 173.886 11.9737C174.103 12.5335 174.211 13.2015 174.211 13.9777V19.2834H171.539L171.31 18.2909H171.233C170.763 18.6345 170.254 18.9271 169.707 19.1689C169.159 19.3979 168.587 19.5124 167.989 19.5124C167.493 19.5124 167.054 19.436 166.672 19.2834C166.29 19.118 165.966 18.9017 165.699 18.6345C165.431 18.3673 165.228 18.0555 165.088 17.6993C164.961 17.343 164.897 16.9677 164.897 16.5733ZM168.027 16.3061C168.027 16.7641 168.371 16.9931 169.058 16.9931C169.439 16.9931 169.783 16.9232 170.088 16.7832C170.394 16.6305 170.674 16.4587 170.928 16.2679V15.0464C170.343 15.0719 169.859 15.1228 169.478 15.1991C169.109 15.2627 168.816 15.3518 168.6 15.4663C168.383 15.5808 168.231 15.7081 168.142 15.848C168.065 15.988 168.027 16.1407 168.027 16.3061Z" fill="black"/>
<path d="M178.402 12.2981H176.112V9.85523L178.555 9.74072L178.975 7.25963H181.685V9.74072H185.464V12.2981H181.685V15.18C181.685 15.8671 181.837 16.3379 182.143 16.5923C182.461 16.8341 182.925 16.955 183.536 16.955C183.867 16.955 184.172 16.9295 184.452 16.8786C184.745 16.815 185.018 16.7387 185.273 16.6496L185.845 19.0162C185.425 19.1307 184.955 19.2388 184.433 19.3406C183.911 19.4551 183.326 19.5124 182.677 19.5124C181.888 19.5124 181.22 19.4106 180.673 19.207C180.139 19.0034 179.7 18.7172 179.356 18.3482C179.025 17.9665 178.784 17.5148 178.631 16.9931C178.478 16.4587 178.402 15.8735 178.402 15.2373V12.2981Z" fill="black"/>
<path d="M187.708 14.512C187.708 13.7359 187.848 13.0361 188.128 12.4127C188.408 11.7892 188.777 11.2675 189.235 10.8477C189.706 10.4151 190.24 10.0843 190.838 9.85523C191.449 9.62621 192.072 9.5117 192.709 9.5117C193.459 9.5117 194.114 9.63257 194.674 9.87432C195.247 10.1161 195.724 10.4469 196.106 10.8668C196.487 11.2866 196.774 11.7765 196.965 12.3363C197.155 12.8962 197.251 13.4942 197.251 14.1303C197.251 14.423 197.232 14.6965 197.194 14.951C197.168 15.2055 197.143 15.39 197.117 15.5045H191.067C191.118 15.7971 191.22 16.0452 191.373 16.2488C191.525 16.4397 191.71 16.5923 191.926 16.7069C192.155 16.8214 192.403 16.9041 192.67 16.955C192.938 17.0059 193.217 17.0313 193.51 17.0313C193.892 17.0313 194.261 16.9868 194.617 16.8977C194.986 16.7959 195.38 16.6496 195.8 16.4587L196.869 18.4054C196.297 18.7744 195.667 19.0543 194.98 19.2452C194.293 19.4233 193.65 19.5124 193.052 19.5124C192.301 19.5124 191.595 19.4042 190.934 19.1879C190.285 18.9589 189.718 18.6345 189.235 18.2146C188.764 17.782 188.389 17.254 188.109 16.6305C187.842 16.0071 187.708 15.3009 187.708 14.512ZM194.273 13.3669C194.273 12.9852 194.165 12.6608 193.949 12.3936C193.733 12.1264 193.345 11.9928 192.785 11.9928C192.378 11.9928 192.009 12.1009 191.678 12.3172C191.36 12.5208 191.144 12.8707 191.029 13.3669H194.273Z" fill="black"/>
<path fill-rule="evenodd" clip-rule="evenodd" d="M51.7103 11.7732C52.3349 12.8341 52.2557 14.2587 51.6352 15.717L51.5327 15.9578L47.9862 18.011L47.904 18.0369C47.129 18.2817 46.8128 18.8201 46.8085 19.3586C46.804 19.9221 47.1466 20.6441 48.0428 21.1537L57.9038 26.3034L73.0584 17.8593L73.1644 17.8342C74.4922 17.5197 75.7193 17.8891 76.4241 18.9049C77.1002 19.8793 77.1542 21.2487 76.6469 22.6756L76.5511 22.9449L65.9047 29.1939C65.604 29.4925 65.5254 29.8429 65.5702 30.2195C65.6149 30.5947 65.7836 30.9602 65.9591 31.2065L76.5334 37.4132L76.6338 37.6587C76.9365 38.3986 77.1455 39.5231 77.1829 40.6993C77.2205 41.8798 77.0888 43.2077 76.6361 44.3394L76.537 44.5872L65.8073 50.9433L65.7823 50.9558C65.6877 51.0031 65.5064 51.2278 65.5716 51.86C65.5994 52.1302 65.6698 52.3956 65.7559 52.6029C65.8247 52.7686 65.8798 52.8413 65.8929 52.8602L76.3483 59.0539L76.3859 59.0828C76.646 59.2829 76.7898 59.5659 76.8746 59.7837C76.9662 60.0188 77.0292 60.2848 77.0739 60.5527C77.1636 61.0908 77.1944 61.7328 77.1832 62.3663C77.172 63.0032 77.1177 63.6592 77.0268 64.2317C76.9405 64.7752 76.8073 65.3378 76.5935 65.7227L76.4922 65.905L67.878 71.1204L67.8049 71.1468C66.0968 71.7646 64.5683 71.0466 63.8088 69.8558C63.0546 68.6733 63.049 66.9949 64.324 65.7948L64.3789 65.7432L68.3311 63.244L68.3487 63.2341C68.4122 63.1984 68.5708 63.0111 68.5474 62.5255C68.5266 62.0932 68.37 61.769 68.2614 61.6473L57.9045 55.5422L42.4275 64.1467L42.3172 64.1715C40.8875 64.4932 39.5922 63.9757 38.8391 62.9938C38.0863 62.0123 37.9232 60.6287 38.604 59.3386L38.7093 59.1391L49.5001 52.8828C50.0789 52.1934 49.975 51.2819 49.5384 50.8898L38.7787 44.1936L38.699 44.0994C38.5274 43.8966 38.421 43.6505 38.3499 43.4358C38.2752 43.2102 38.2199 42.958 38.1787 42.6986C38.0963 42.1793 38.0612 41.5704 38.065 40.9615C38.0687 40.3504 38.1117 39.7186 38.1929 39.1499C38.2721 38.5958 38.3951 38.046 38.5837 37.6311L38.6882 37.4011L49.4537 31.2166C49.7976 30.6928 49.9003 30.3516 49.9003 30.0988C49.9003 29.8618 49.8093 29.5763 49.4764 29.1584L38.9837 22.5726C38.8399 22.5198 38.7259 22.4372 38.6444 22.3592C38.517 22.2374 38.4354 22.0982 38.383 21.9912C38.2775 21.7756 38.2087 21.518 38.1601 21.2742C38.0602 20.7728 38.0084 20.1301 38.0009 19.4896C37.9935 18.8465 38.0303 18.1667 38.1228 17.588C38.1689 17.2996 38.232 17.0163 38.3192 16.7671C38.3993 16.5383 38.5307 16.2455 38.7658 16.0285L38.8273 15.9718L48.2009 10.4407L48.3563 10.4191C49.7942 10.2184 51.0551 10.6605 51.7103 11.7732ZM48.7219 11.956C49.6362 11.8659 50.1281 12.18 50.3575 12.5697C50.6117 13.0013 50.6975 13.7737 50.2857 14.8658L47.3447 16.5685C46.0098 17.0252 45.2485 18.1175 45.2388 19.3461C45.229 20.5738 45.9655 21.7843 47.282 22.5269L47.2931 22.5331L57.928 28.0869L73.6264 19.3399C74.4028 19.1849 74.882 19.4361 75.1344 19.7998C75.403 20.187 75.5475 20.8909 75.2536 21.8862L64.9654 27.9249L64.9063 27.9782C64.1109 28.694 63.9164 29.6068 64.0114 30.4051C64.1027 31.172 64.459 31.8661 64.8283 32.3094L64.916 32.4145L75.2668 38.49C75.4403 39.0255 75.5849 39.838 75.6139 40.7493C75.6444 41.7071 75.5445 42.6959 75.2676 43.5146L65.0523 49.566C64.0344 50.0953 63.9336 51.2793 64.01 52.021C64.0534 52.4411 64.1609 52.8553 64.3061 53.205C64.4368 53.5196 64.6501 53.9103 64.9812 54.1421L65.0056 54.1592L75.3953 60.3139C75.4001 60.3245 75.4057 60.3376 75.4118 60.3535C75.4504 60.4524 75.4909 60.6037 75.5255 60.8108C75.5941 61.2229 75.6238 61.7623 75.6136 62.3386C75.6035 62.9115 75.5545 63.4939 75.4765 63.9854C75.4179 64.3539 75.3498 64.6254 75.2899 64.7978L67.2025 69.6943C66.2664 70.002 65.5164 69.6139 65.1323 69.0117C64.7438 68.4025 64.7392 67.6021 65.3503 66.9862L69.1383 64.5909C69.9688 64.1101 70.1486 63.1401 70.1154 62.4499C70.0813 61.743 69.8122 60.8917 69.236 60.4115L69.1871 60.3707L57.9273 53.7334L41.8693 62.661C41.0706 62.8052 40.4408 62.5028 40.0847 62.0385C39.7443 61.5947 39.6137 60.9508 39.9021 60.2621L50.4949 54.1205L50.5735 54.037C51.7246 52.814 51.8388 50.7349 50.4969 49.6446L50.4586 49.6135L39.8701 43.0238C39.8614 43.0026 39.8512 42.9758 39.8401 42.9423C39.8003 42.8221 39.7618 42.6584 39.7291 42.4525C39.6639 42.0413 39.6313 41.5221 39.6347 40.9711C39.6381 40.4221 39.677 39.8618 39.7469 39.3719C39.7988 39.0092 39.8638 38.7132 39.932 38.497L50.5457 32.3997L50.6463 32.2551C51.1361 31.551 51.4701 30.8487 51.4701 30.0988C51.4701 29.3278 51.119 28.6695 50.6023 28.056L50.5232 27.9621L39.7577 21.2049C39.7406 21.1494 39.7204 21.0715 39.6997 20.9676C39.6252 20.5937 39.5774 20.055 39.5706 19.4713C39.5639 18.8903 39.5982 18.3033 39.6729 17.8358C39.7105 17.6011 39.7551 17.4165 39.8008 17.2859C39.8139 17.2486 39.8253 17.2205 39.8345 17.2002L48.7219 11.956ZM57.9276 32.2102L68.6239 38.5685L68.6756 38.6129C69.4289 39.2598 70.0973 39.9863 70.115 40.92C70.1325 41.8413 69.5083 42.6397 68.7115 43.4148L68.6367 43.4877L57.3962 49.7324L46.5488 43.4742L46.4695 43.3898C45.731 42.6043 45.1744 41.8142 45.19 40.9213C45.2057 40.0156 45.8033 39.2943 46.504 38.6363L46.574 38.5706L57.9276 32.2102ZM47.5105 39.8453C46.8869 40.4439 46.7629 40.7526 46.7595 40.9485C46.7559 41.1563 46.8813 41.5185 47.5359 42.2314L57.4108 47.9285L67.69 42.2178C68.4251 41.4881 68.549 41.1313 68.5455 40.9498C68.5423 40.7786 68.418 40.4703 67.7034 39.8476L57.9043 34.0226L47.5105 39.8453Z" fill="black"/>
</svg>
