<svg width="176" height="80" viewBox="0 0 176 80" fill="none" xmlns="http://www.w3.org/2000/svg">
<path fill-rule="evenodd" clip-rule="evenodd" d="M63.454 33.2527H68.5424V37.3209C68.5566 37.3151 68.5708 37.3095 68.585 37.3039C69.1205 37.0929 69.6727 36.9845 70.2371 36.9845C70.9553 36.9845 71.6309 37.129 72.2502 37.4302C72.8613 37.7275 73.3817 38.1499 73.8063 38.6889C74.2299 39.2265 74.5425 39.8617 74.7559 40.5781C74.9705 41.2986 75.0731 42.08 75.0731 42.9158C75.0731 43.8676 74.9414 44.7443 74.6625 45.5347L74.6608 45.5395C74.3896 46.2928 74.0199 46.9553 73.5424 47.5125C73.0794 48.0551 72.529 48.4782 71.8942 48.7718C71.2772 49.0634 70.6277 49.2121 69.9531 49.2121C69.3632 49.2121 68.7915 49.0723 68.2452 48.8075L68.2365 48.8033L68.2279 48.7988C68.0515 48.7079 67.8806 48.6044 67.7152 48.4889L67.5908 48.9688H63.454V33.2527ZM67.2557 47.0735H67.3368C67.3448 47.0827 67.3529 47.0918 67.3609 47.1008C67.5454 47.3081 67.7359 47.4916 67.9323 47.6513C68.1459 47.8249 68.3666 47.9703 68.5943 48.0876C69.0405 48.304 69.4934 48.4121 69.9531 48.4121C70.5075 48.4121 71.0416 48.2905 71.5554 48.0471C72.0827 47.8037 72.5424 47.4521 72.9345 46.9924C73.3402 46.5192 73.6647 45.9445 73.9081 45.2685C74.1514 44.5789 74.2731 43.7947 74.2731 42.9158C74.2731 42.1451 74.1785 41.442 73.9892 40.8065C73.7999 40.171 73.5295 39.6302 73.1779 39.184C72.8264 38.7378 72.4005 38.393 71.9002 38.1496C71.3999 37.9062 70.8455 37.7845 70.2371 37.7845C69.7774 37.7845 69.3244 37.8724 68.8782 38.0482C68.7468 38.1 68.6189 38.1582 68.4945 38.2228C68.1966 38.3778 67.9189 38.5697 67.6613 38.7986L67.7424 37.3383V34.0527H64.254V48.1688H66.9717L67.2557 47.0735ZM69.5611 44.5462L69.5717 44.5317C69.6425 44.4352 69.7217 44.2751 69.7855 44.0198L69.7882 44.0089L69.7912 43.9981C69.8603 43.7515 69.9036 43.4164 69.9036 42.9766C69.9036 42.1792 69.7735 41.7877 69.664 41.632L69.6582 41.6237L69.6526 41.6153C69.5803 41.5069 69.4793 41.424 69.2027 41.424C69.0423 41.424 68.9094 41.4552 68.7929 41.5101C68.7295 41.5399 68.6455 41.5936 68.5424 41.6842V44.6679C68.5744 44.6826 68.6044 44.6938 68.6325 44.7023C68.8103 44.7511 68.9727 44.7727 69.1216 44.7727C69.2243 44.7727 69.3119 44.7558 69.3903 44.7257C69.4347 44.6997 69.4899 44.6529 69.5512 44.5611L69.5611 44.5462ZM69.73 45.451C69.5407 45.5321 69.3379 45.5727 69.1216 45.5727C68.8917 45.5727 68.6551 45.5389 68.4117 45.4713C68.1819 45.4037 67.9588 45.2752 67.7424 45.0859V41.3541C67.9858 41.0837 68.2224 40.8944 68.4523 40.7862C68.6821 40.6781 68.9323 40.624 69.2027 40.624C69.703 40.624 70.0748 40.8065 70.3182 41.1716C70.5751 41.5366 70.7036 42.1383 70.7036 42.9766C70.7036 43.4634 70.6562 43.8758 70.5616 44.2138C70.4805 44.5383 70.3655 44.802 70.2168 45.0048C70.0816 45.2076 69.9193 45.3564 69.73 45.451ZM86.7069 48.9688H82.3998L82.2815 48.3181C82.0901 48.454 81.8917 48.5776 81.6861 48.6885C81.0312 49.0494 80.2781 49.2121 79.4573 49.2121C78.1354 49.2121 77.0282 48.7669 76.3395 47.7432L76.3358 47.7377C75.7216 46.8082 75.4528 45.6306 75.4528 44.2747V37.2279H80.5413V43.8285C80.5413 44.2778 80.5953 44.5152 80.6357 44.6194C80.6725 44.6323 80.7529 44.651 80.8973 44.651C81.0913 44.651 81.2182 44.6171 81.3011 44.5777C81.359 44.5449 81.4662 44.4605 81.6185 44.2814V37.2279H86.7069V48.9688ZM82.4185 44.5586C82.148 44.9237 81.8979 45.1671 81.668 45.2888C81.4517 45.3969 81.1948 45.451 80.8973 45.451C80.4376 45.451 80.1266 45.3226 79.9644 45.0657C79.8156 44.8088 79.7413 44.3964 79.7413 43.8285V38.0279H76.2528V44.2747C76.2528 45.5321 76.503 46.5395 77.0032 47.2966C77.5035 48.0403 78.3216 48.4121 79.4573 48.4121C80.174 48.4121 80.7892 48.2702 81.303 47.9862C81.5895 47.8319 81.8621 47.6477 82.1207 47.4335C82.3322 47.2583 82.5344 47.0631 82.7273 46.8478C82.7325 46.8419 82.7377 46.8361 82.743 46.8302H82.8241L83.0675 48.1688H85.9069V38.0279H82.4185V44.5586ZM87.979 37.2279H92.7229C92.5117 37.1207 92.3125 36.9873 92.1274 36.8261L92.1219 36.8214L92.1166 36.8165C91.5154 36.2736 91.2241 35.5574 91.2241 34.7423C91.2241 33.9295 91.5138 33.2151 92.1114 32.6727C92.6976 32.1269 93.4341 31.8735 94.2551 31.8735C95.0761 31.8735 95.8126 32.1269 96.3988 32.6728C96.9964 33.2152 97.286 33.9296 97.286 34.7423C97.286 35.5574 96.9947 36.2736 96.3935 36.8165L96.3882 36.8214L96.3827 36.8261C96.1976 36.9873 95.9985 37.1207 95.7873 37.2279H96.921V48.9688H91.8325V41.5457H87.979V37.2279ZM92.6325 40.7457V48.1688H96.121V38.0279H88.779V40.7457H92.6325ZM95.8573 33.2617C95.4382 32.8696 94.9041 32.6735 94.2551 32.6735C93.606 32.6735 93.072 32.8696 92.6528 33.2617C92.2336 33.6403 92.0241 34.1338 92.0241 34.7423C92.0241 35.3507 92.2336 35.8442 92.6528 36.2228C93.072 36.5879 93.606 36.7704 94.2551 36.7704C94.9041 36.7704 95.4382 36.5879 95.8573 36.2228C96.2765 35.8442 96.486 35.3507 96.486 34.7423C96.486 34.1338 96.2765 33.6403 95.8573 33.2617ZM99.7345 33.2527H107.581V44.1124C107.581 44.3329 107.617 44.4423 107.639 44.4848C107.686 44.5784 107.733 44.6428 107.776 44.6876C107.833 44.7252 107.894 44.7551 107.96 44.7778C108.085 44.8024 108.198 44.8133 108.302 44.8133C108.606 44.8133 109.002 44.7435 109.504 44.5722L110.295 44.3022L111.505 48.4225L110.743 48.6511C110.47 48.733 110.21 48.8083 109.962 48.8771C109.702 48.9533 109.436 49.0139 109.164 49.0593C108.902 49.103 108.627 49.139 108.341 49.1676C108.04 49.1977 107.716 49.2121 107.369 49.2121C106.609 49.2121 105.905 49.0905 105.274 48.8249L105.267 48.822C104.671 48.5641 104.152 48.2039 103.721 47.7396L103.711 47.7288L103.701 47.7176C103.287 47.2374 102.981 46.675 102.775 46.0431L102.773 46.0344L102.77 46.0257C102.582 45.3987 102.493 44.718 102.493 43.9907V37.5704H99.7345V33.2527ZM103.293 36.7704V43.9907C103.293 44.6533 103.374 45.255 103.536 45.7958C103.712 46.3366 103.969 46.8031 104.307 47.1952C104.658 47.5738 105.084 47.8713 105.585 48.0876C106.098 48.304 106.693 48.4121 107.369 48.4121C107.694 48.4121 107.991 48.3986 108.262 48.3716C108.532 48.3445 108.789 48.3107 109.033 48.2702C109.276 48.2296 109.513 48.1755 109.742 48.1079C109.743 48.1077 109.744 48.1075 109.745 48.1073C109.838 48.0815 109.932 48.0547 110.029 48.0269C110.185 47.9821 110.347 47.9347 110.513 47.8848L109.763 45.3293C109.566 45.3964 109.378 45.4516 109.199 45.4949C108.872 45.5738 108.573 45.6133 108.302 45.6133C108.127 45.6133 107.944 45.593 107.755 45.5524C107.579 45.4983 107.417 45.4172 107.268 45.309C107.133 45.1874 107.018 45.0319 106.923 44.8426C106.829 44.6533 106.781 44.4099 106.781 44.1124V34.0527H100.534V36.7704H103.293ZM119.389 47.2358H119.307C119.298 47.2454 119.288 47.255 119.278 47.2645C119.099 47.4404 118.904 47.599 118.693 47.7403C118.499 47.8708 118.291 47.9866 118.07 48.0876C117.611 48.304 117.151 48.4121 116.691 48.4121C116.042 48.4121 115.454 48.2905 114.927 48.0471C114.413 47.8037 113.973 47.4521 113.608 46.9924C113.243 46.5327 112.959 45.9783 112.756 45.3293C112.554 44.6668 112.452 43.9231 112.452 43.0983C112.452 42.2735 112.574 41.5299 112.817 40.8673C113.061 40.2048 113.378 39.6504 113.771 39.2042C114.163 38.7445 114.616 38.393 115.129 38.1496C115.643 37.9062 116.164 37.7845 116.691 37.7845C117.259 37.7845 117.725 37.8792 118.091 38.0685C118.143 38.094 118.196 38.1209 118.248 38.1493C118.553 38.3163 118.839 38.5327 119.105 38.7986L118.983 37.3383V34.0527H122.471V48.1688H119.632L119.389 47.2358ZM118.905 48.5525C118.745 48.6475 118.579 48.7344 118.407 48.8133C117.853 49.0733 117.279 49.2121 116.691 49.2121C115.94 49.2121 115.235 49.0708 114.591 48.7734L114.584 48.7701C113.956 48.4726 113.42 48.0423 112.982 47.4899C112.547 46.9419 112.22 46.2963 111.993 45.5679L111.991 45.5635C111.761 44.8122 111.652 43.9879 111.652 43.0983C111.652 42.195 111.786 41.3559 112.066 40.5915C112.337 39.8554 112.699 39.2125 113.166 38.6805C113.626 38.1425 114.166 37.7205 114.787 37.4266C115.399 37.1366 116.036 36.9845 116.691 36.9845C117.228 36.9845 117.734 37.0578 118.183 37.2335V33.2527H123.271V48.9688H119.014L118.905 48.5525ZM118.095 41.489C117.962 41.4472 117.813 41.424 117.644 41.424C117.471 41.424 117.301 41.4843 117.106 41.7031C116.984 41.8412 116.822 42.2168 116.822 43.0578C116.822 43.9346 116.958 44.3648 117.074 44.533C117.195 44.6917 117.343 44.7727 117.604 44.7727C117.792 44.7727 117.926 44.7427 118.022 44.7027C118.061 44.6831 118.116 44.6451 118.183 44.5723V41.5203C118.157 41.5089 118.132 41.4999 118.108 41.4929L118.095 41.489ZM118.983 41.1107V44.8426C118.794 45.1265 118.584 45.3226 118.354 45.4307C118.138 45.5254 117.888 45.5727 117.604 45.5727C117.103 45.5727 116.711 45.3834 116.427 45.0048C116.157 44.6262 116.022 43.9772 116.022 43.0578C116.022 42.1654 116.184 41.5366 116.509 41.1716C116.833 40.8065 117.212 40.624 117.644 40.624C117.888 40.624 118.118 40.6578 118.334 40.7254C118.564 40.793 118.78 40.9214 118.983 41.1107ZM127.816 37.4025L127.821 37.4005C128.557 37.1243 129.315 36.9845 130.089 36.9845C130.97 36.9845 131.778 37.1261 132.492 37.434C133.196 37.7317 133.801 38.1471 134.291 38.6864C134.774 39.2171 135.133 39.834 135.369 40.5281C135.603 41.2122 135.716 41.9355 135.716 42.6927C135.716 43.0309 135.695 43.355 135.65 43.6636C135.623 43.9296 135.593 44.1591 135.555 44.3265L135.416 44.953H134.17L135.571 47.5044L134.944 47.9083C134.265 48.346 133.521 48.6756 132.717 48.899L132.704 48.9027C131.92 49.1059 131.169 49.2121 130.454 49.2121C129.579 49.2121 128.744 49.0858 127.955 48.8277L127.946 48.8248L127.937 48.8217C127.16 48.5474 126.469 48.1539 125.874 47.637L125.865 47.6296L125.857 47.622C125.271 47.0839 124.81 46.4319 124.472 45.6773L124.466 45.6648C124.133 44.8878 123.976 44.0275 123.976 43.0983C123.976 42.1759 124.142 41.3184 124.492 40.5397C124.829 39.7881 125.282 39.1419 125.857 38.6152C126.432 38.0871 127.086 37.6819 127.816 37.4025ZM126.398 39.2042C125.911 39.6504 125.519 40.2048 125.222 40.8673C124.924 41.5299 124.776 42.2735 124.776 43.0983C124.776 43.9366 124.918 44.6871 125.201 45.3496C125.499 46.0121 125.898 46.5733 126.398 47.033C126.912 47.4792 127.514 47.824 128.203 48.0674C128.906 48.2972 129.657 48.4121 130.454 48.4121C131.09 48.4121 131.773 48.3175 132.503 48.1282C133.233 47.9254 133.902 47.6279 134.511 47.2358L133.375 45.1671C132.929 45.3699 132.51 45.5254 132.118 45.6335C131.739 45.7282 131.347 45.7755 130.941 45.7755C130.63 45.7755 130.333 45.7485 130.049 45.6944C129.765 45.6403 129.501 45.5524 129.258 45.4307C129.031 45.3108 128.838 45.1516 128.677 44.953C128.674 44.95 128.672 44.947 128.67 44.944C128.507 44.7276 128.399 44.464 128.345 44.153H134.774C134.801 44.0313 134.829 43.8352 134.856 43.5648C134.896 43.2944 134.916 43.0037 134.916 42.6927C134.916 42.0166 134.815 41.3811 134.612 40.7862C134.409 40.1913 134.105 39.6707 133.699 39.2245C133.294 38.7783 132.787 38.4268 132.178 38.1699C131.583 37.913 130.887 37.7845 130.089 37.7845C129.413 37.7845 128.751 37.9062 128.102 38.1496C127.466 38.393 126.898 38.7445 126.398 39.2042ZM131.38 44.953H130.501C130.642 44.9679 130.789 44.9755 130.941 44.9755C131.09 44.9755 131.236 44.968 131.38 44.953ZM128.305 41.8814C128.38 41.5553 128.496 41.2886 128.654 41.0814C128.752 40.9536 128.865 40.8485 128.994 40.7659C129.346 40.5361 129.738 40.4211 130.17 40.4211C130.765 40.4211 131.178 40.5631 131.408 40.8471C131.468 40.9211 131.52 40.9992 131.564 41.0814C131.69 41.3148 131.752 41.5815 131.752 41.8814H128.305ZM137.232 37.2279H141.599L141.729 38.284C142.003 38.0376 142.298 37.8257 142.616 37.6512C143.421 37.2092 144.283 36.9845 145.191 36.9845C145.683 36.9845 146.135 37.024 146.503 37.1357C146.811 37.2142 147.122 37.3213 147.433 37.4548L148.051 37.7197L147.011 42.1243L146.196 41.8761C145.912 41.7897 145.664 41.7317 145.452 41.6981L145.427 41.6942L145.403 41.6889C145.236 41.6518 144.995 41.6268 144.664 41.6268C144.252 41.6268 143.822 41.7492 143.361 42.0343L143.349 42.0416C142.997 42.2515 142.641 42.6453 142.32 43.3144V48.9688H137.232V37.2279ZM141.52 43.1389C141.899 42.2871 142.372 41.6921 142.94 41.3541C143.508 41.0026 144.083 40.8268 144.664 40.8268C145.029 40.8268 145.333 40.8538 145.577 40.9079C145.601 40.9118 145.626 40.916 145.651 40.9203C145.888 40.9617 146.147 41.0252 146.428 41.1107L147.118 38.1902C146.834 38.0685 146.557 37.9738 146.287 37.9062C146.03 37.8251 145.665 37.7845 145.191 37.7845C144.421 37.7845 143.69 37.9738 143.001 38.3524C142.581 38.583 142.198 38.8989 141.854 39.3001C141.635 39.5548 141.431 39.8437 141.243 40.1671C141.241 40.1706 141.238 40.1742 141.236 40.1778H141.155L140.892 38.0279H138.032V48.1688H141.52V43.1389ZM150.331 43.6644C149.928 43.3738 149.585 43.034 149.313 42.6425L149.309 42.636L149.304 42.6294C148.994 42.1636 148.845 41.6349 148.845 41.0702C148.845 40.4421 148.991 39.8515 149.294 39.3169C149.59 38.7951 150.003 38.3616 150.515 38.0146L150.525 38.008C151.043 37.6681 151.64 37.4204 152.303 37.2539C152.976 37.0711 153.716 36.9845 154.513 36.9845C155.557 36.9845 156.515 37.1533 157.371 37.5105C158.146 37.8208 158.831 38.1581 159.419 38.5258L160.155 38.986L157.893 42.0224C158.082 42.1232 158.262 42.2349 158.434 42.3576C158.867 42.6435 159.227 43.0018 159.503 43.4318C159.819 43.9083 159.957 44.4592 159.957 45.0454C159.957 45.6529 159.809 46.2299 159.516 46.7645C159.231 47.2987 158.806 47.746 158.276 48.1152L158.272 48.1181C157.747 48.4788 157.118 48.7479 156.405 48.9409L156.394 48.944C155.678 49.1268 154.865 49.2121 153.965 49.2121C152.995 49.2121 152.024 49.0476 151.055 48.7249L151.052 48.7237C150.119 48.4079 149.29 48.0143 148.573 47.5364L147.884 47.0772L150.331 43.6644ZM158.813 46.384C159.043 45.9648 159.157 45.5186 159.157 45.0454C159.157 44.5857 159.049 44.1935 158.833 43.869C158.617 43.531 158.333 43.2471 157.981 43.0172C157.643 42.7738 157.258 42.5778 156.825 42.429C156.392 42.2668 155.96 42.1248 155.527 42.0031C155.203 41.922 154.892 41.8409 154.594 41.7597C154.31 41.6786 154.053 41.5975 153.823 41.5164C153.607 41.4352 153.431 41.3473 153.296 41.2527C153.174 41.1581 153.114 41.0431 153.114 40.9079C153.114 40.7051 153.228 40.5631 153.458 40.482C153.688 40.3873 154.067 40.34 154.594 40.34C155.081 40.34 155.561 40.4279 156.034 40.6037C156.507 40.7795 156.981 41.0026 157.454 41.273L158.995 39.2042C158.778 39.0684 158.544 38.9358 158.294 38.8065C157.922 38.6141 157.513 38.4289 157.068 38.251C156.325 37.94 155.473 37.7845 154.513 37.7845C153.769 37.7845 153.1 37.8657 152.505 38.0279C151.91 38.1766 151.396 38.393 150.964 38.6769C150.545 38.9609 150.22 39.3057 149.99 39.7113C149.76 40.1169 149.645 40.5699 149.645 41.0702C149.645 41.4893 149.754 41.8611 149.97 42.1857C150.186 42.4966 150.463 42.7738 150.801 43.0172C151.139 43.2606 151.518 43.4702 151.937 43.6459C152.356 43.8082 152.775 43.9502 153.195 44.0719C153.519 44.1665 153.83 44.2612 154.128 44.3558C154.439 44.4369 154.709 44.5248 154.939 44.6195C155.169 44.7006 155.351 44.7952 155.486 44.9034C155.622 44.9981 155.689 45.113 155.689 45.2482C155.689 45.451 155.568 45.6065 155.324 45.7147C155.081 45.8093 154.655 45.8566 154.046 45.8566C153.452 45.8566 152.87 45.7552 152.302 45.5524C151.734 45.3496 151.153 45.0724 150.558 44.7209L149.017 46.8707C149.234 47.0154 149.463 47.1525 149.706 47.282C150.189 47.54 150.723 47.7679 151.308 47.9659C152.201 48.2634 153.086 48.4121 153.965 48.4121C154.817 48.4121 155.561 48.331 156.196 48.1688C156.845 47.993 157.386 47.7564 157.819 47.4589C158.265 47.1479 158.596 46.7896 158.813 46.384ZM153.624 45.0362C153.268 45.0016 152.918 44.9228 152.571 44.799C152.224 44.6749 151.866 44.5183 151.498 44.3279C151.541 44.3469 151.584 44.3655 151.628 44.3837L151.638 44.388L151.648 44.392C152.088 44.5622 152.529 44.7116 152.971 44.8399M152.971 44.8399C153.195 44.9053 153.414 44.971 153.624 45.0362ZM67.7424 73.9395V76.7383H64.254V63.0279H67.0934L67.3368 63.9609H67.4179C67.4291 63.9508 67.4404 63.9408 67.4516 63.9309C67.6372 63.7675 67.8331 63.6191 68.0396 63.4855C68.2599 63.343 68.4921 63.2175 68.7362 63.109C69.2365 62.8927 69.7436 62.7845 70.2574 62.7845C70.8658 62.7845 71.4202 62.9062 71.9205 63.1496C72.4207 63.393 72.8399 63.7378 73.1779 64.184C73.5295 64.6302 73.7999 65.171 73.9892 65.8065C74.1785 66.442 74.2731 67.1519 74.2731 67.9361C74.2731 68.815 74.1514 69.5924 73.9081 70.2685C73.6647 70.9445 73.3402 71.5192 72.9345 71.9924C72.5424 72.4521 72.0827 72.8037 71.5554 73.0471C71.0416 73.2905 70.5075 73.4121 69.9531 73.4121C69.5205 73.4121 69.1081 73.3243 68.716 73.1485C68.6338 73.1116 68.5528 73.0715 68.473 73.0282C68.172 72.8646 67.8879 72.6546 67.6207 72.3981L67.7424 73.9395ZM71.894 73.7719C71.2771 74.0634 70.6276 74.2121 69.9531 74.2121C69.4644 74.2121 68.9924 74.1225 68.5424 73.9435V77.5383H63.454V62.2279H67.7115L67.8285 62.6764C68.016 62.5668 68.2103 62.4673 68.4113 62.378L68.4187 62.3747C69.013 62.1177 69.6278 61.9845 70.2574 61.9845C70.9755 61.9845 71.6512 62.129 72.2704 62.4302C72.8823 62.7279 73.3982 63.1519 73.811 63.6948C74.2322 64.2312 74.5433 64.8644 74.7559 65.5781C74.9709 66.2998 75.0731 67.0882 75.0731 67.9361C75.0731 68.8874 74.9416 69.7595 74.6608 70.5395C74.3896 71.2928 74.0199 71.9553 73.5424 72.5125C73.0793 73.0552 72.5289 73.4783 71.894 73.7719ZM69.5611 69.5462L69.5717 69.5317C69.6425 69.4352 69.7217 69.2751 69.7855 69.0198L69.7882 69.0089L69.7912 68.9981C69.8603 68.7515 69.9036 68.4164 69.9036 67.9766C69.9036 67.1792 69.7735 66.7877 69.664 66.632L69.6582 66.6237L69.6526 66.6153C69.5803 66.5069 69.4793 66.424 69.2027 66.424C69.0423 66.424 68.9094 66.4552 68.7929 66.5101C68.7295 66.5399 68.6455 66.5936 68.5424 66.6842V69.6679C68.5743 69.6825 68.6043 69.6938 68.6324 69.7023C68.8103 69.7511 68.9727 69.7727 69.1216 69.7727C69.2243 69.7727 69.3118 69.7558 69.3903 69.7257C69.4346 69.6997 69.4899 69.6529 69.5512 69.5611L69.5611 69.5462ZM69.73 70.451C69.5407 70.5321 69.3379 70.5727 69.1216 70.5727C68.8917 70.5727 68.6551 70.5389 68.4117 70.4713C68.1819 70.4037 67.9588 70.2752 67.7424 70.0859V66.3541C67.9858 66.0837 68.2224 65.8944 68.4523 65.7862C68.6821 65.6781 68.9323 65.624 69.2027 65.624C69.703 65.624 70.0748 65.8065 70.3182 66.1716C70.5751 66.5366 70.7036 67.1383 70.7036 67.9766C70.7036 68.4634 70.6562 68.8758 70.5616 69.2138C70.4805 69.5383 70.3655 69.802 70.2168 70.0048C70.0816 70.2076 69.9193 70.3564 69.73 70.451ZM76.4263 62.2279H80.7939L80.9235 63.284C81.1971 63.0376 81.4924 62.8257 81.8104 62.6512C82.6154 62.2092 83.4776 61.9845 84.3858 61.9845C84.8778 61.9845 85.3291 62.024 85.6971 62.1357C86.0058 62.2142 86.3161 62.3213 86.6277 62.4548L87.2456 62.7197L86.2057 67.1243L85.39 66.8761C85.1062 66.7897 84.859 66.7317 84.6464 66.6981L84.6218 66.6942L84.5976 66.6889C84.4308 66.6518 84.1894 66.6268 83.8585 66.6268C83.4469 66.6268 83.0162 66.7492 82.5556 67.0343L82.5438 67.0416C82.1911 67.2515 81.8353 67.6453 81.5148 68.3144V73.9688H76.4263V62.2279ZM80.7148 68.1389C81.0934 67.2871 81.5666 66.6921 82.1345 66.3541C82.7024 66.0026 83.2771 65.8268 83.8585 65.8268C84.2235 65.8268 84.5278 65.8538 84.7711 65.9079C84.7958 65.9118 84.8207 65.916 84.8459 65.9203C85.0828 65.9617 85.3418 66.0252 85.6229 66.1107C85.623 66.1107 85.6229 66.1107 85.6229 66.1107L86.3126 63.1902C86.0286 63.0685 85.7514 62.9738 85.481 62.9062C85.2241 62.8251 84.859 62.7845 84.3858 62.7845C83.6151 62.7845 82.8849 62.9738 82.1954 63.3524C81.7753 63.583 81.3929 63.8989 81.0481 64.3001C80.8293 64.5548 80.6256 64.8437 80.4371 65.1671C80.435 65.1706 80.4329 65.1742 80.4309 65.1778H80.3497L80.0861 63.0279H77.2263V73.1688H80.7148V68.1389ZM87.8261 65.5194C88.1628 64.7694 88.6146 64.1244 89.1872 63.5983C89.7493 63.0685 90.393 62.6679 91.1133 62.4009C91.8383 62.1239 92.5896 61.9845 93.3627 61.9845C94.1223 61.9845 94.8601 62.1239 95.5713 62.4008C96.3031 62.667 96.954 63.0669 97.5178 63.5983C98.0904 64.1244 98.5422 64.7694 98.879 65.5194C99.2293 66.2997 99.3953 67.1644 99.3953 68.0983C99.3953 69.0323 99.2293 69.897 98.879 70.6773C98.5422 71.4273 98.0914 72.077 97.5221 72.6146L97.5135 72.6228C96.9502 73.139 96.3021 73.5362 95.5755 73.8144L95.5668 73.8178C94.8561 74.0804 94.1199 74.2121 93.3627 74.2121C92.5939 74.2121 91.846 74.0811 91.1232 73.8197L91.1135 73.8161L91.1038 73.8123C90.391 73.5334 89.752 73.1364 89.1917 72.6227L89.1829 72.6147C88.6136 72.077 88.1628 71.4273 87.8261 70.6773L87.8205 70.6648C87.4875 69.8878 87.33 69.0275 87.33 68.0983C87.33 67.1692 87.4876 66.3089 87.8206 65.5319L87.8261 65.5194ZM96.9728 64.184C96.486 63.7242 95.9249 63.3795 95.2894 63.1496C94.6675 62.9062 94.0252 62.7845 93.3627 62.7845C92.6866 62.7845 92.0308 62.9062 91.3953 63.1496C90.7734 63.3795 90.219 63.7242 89.7322 64.184C89.2455 64.6302 88.8534 65.1845 88.5559 65.8471C88.272 66.5096 88.13 67.26 88.13 68.0983C88.13 68.9366 88.272 69.6871 88.5559 70.3496C88.8534 71.0121 89.2455 71.5733 89.7322 72.033C90.219 72.4792 90.7734 72.824 91.3953 73.0674C92.0308 73.2972 92.6866 73.4121 93.3627 73.4121C94.0252 73.4121 94.6675 73.2972 95.2894 73.0674C95.9249 72.824 96.486 72.4792 96.9728 72.033C97.4596 71.5733 97.8517 71.0121 98.1491 70.3496C98.4466 69.6871 98.5953 68.9366 98.5953 68.0983C98.5953 67.26 98.4466 66.5096 98.1491 65.8471C97.8517 65.1845 97.4596 64.6302 96.9728 64.184ZM93.9421 66.6632C93.8474 66.4939 93.7133 66.3834 93.3627 66.3834C93.012 66.3834 92.8779 66.4939 92.7833 66.6632L92.7783 66.6722C92.6176 66.9512 92.4996 67.4033 92.4996 68.0983C92.4996 68.7877 92.6156 69.251 92.7806 69.549C92.87 69.7021 93.0039 69.8133 93.3627 69.8133C93.7214 69.8133 93.8553 69.7021 93.9447 69.5489C94.1097 69.251 94.2258 68.7877 94.2258 68.0983C94.2258 67.4033 94.1078 66.9512 93.9471 66.6722L93.9421 66.6632ZM92.0849 69.944C91.828 69.4843 91.6996 68.869 91.6996 68.0983C91.6996 67.3276 91.828 66.7192 92.0849 66.273C92.3418 65.8133 92.7677 65.5834 93.3627 65.5834C93.9576 65.5834 94.3835 65.8133 94.6404 66.273C94.8973 66.7192 95.0258 67.3276 95.0258 68.0983C95.0258 68.869 94.8973 69.4843 94.6404 69.944C94.3835 70.3902 93.9576 70.6133 93.3627 70.6133C92.7677 70.6133 92.3418 70.3902 92.0849 69.944ZM103.658 73.5338C103.834 73.5744 104.036 73.6014 104.266 73.615C104.496 73.642 104.807 73.6555 105.199 73.6555H106.213C106.727 73.6555 107.119 73.6893 107.39 73.7569C107.66 73.8245 107.795 73.9936 107.795 74.264C107.795 74.5479 107.572 74.771 107.126 74.9333C106.693 75.109 106.132 75.1969 105.443 75.1969C104.753 75.1969 104.199 75.1226 103.78 74.9738C103.36 74.8251 103.151 74.5885 103.151 74.264C103.151 74.1152 103.191 73.9868 103.272 73.8786C103.354 73.7705 103.482 73.6555 103.658 73.5338ZM101.082 68.0375C101.206 68.2421 101.343 68.4253 101.492 68.5873C101.64 68.7474 101.801 68.8866 101.973 69.005C102.007 69.0281 102.041 69.0504 102.076 69.0719V69.153C102.045 69.1742 102.015 69.1958 101.985 69.2177C101.807 69.3492 101.646 69.4935 101.501 69.6508C101.393 69.7684 101.293 69.8931 101.204 70.0251C100.974 70.3631 100.859 70.7079 100.859 71.0595C100.859 71.4921 100.954 71.8437 101.143 72.1141C101.188 72.1736 101.234 72.2312 101.283 72.2868C101.44 72.4668 101.618 72.6261 101.816 72.7649C101.835 72.778 101.854 72.7909 101.873 72.8037V72.8848C101.846 72.8976 101.819 72.9105 101.793 72.9235C101.563 73.0375 101.36 73.1601 101.184 73.2914C100.616 73.7152 100.332 74.2287 100.332 74.8319C100.332 75.2916 100.447 75.6769 100.676 75.9879C100.92 76.3124 101.251 76.5761 101.67 76.7789C102.089 76.9817 102.569 77.1237 103.11 77.2048C103.665 77.2995 104.26 77.3468 104.895 77.3468C105.842 77.3468 106.693 77.2589 107.451 77.0831C108.221 76.9074 108.877 76.6572 109.418 76.3327C109.959 76.0082 110.371 75.6161 110.655 75.1564C110.953 74.7102 111.101 74.2099 111.101 73.6555C111.101 72.7226 110.736 72.0533 110.006 71.6476C109.276 71.2285 108.235 71.0189 106.883 71.0189H105.159C104.591 71.0189 104.185 70.9783 103.942 70.8972C103.698 70.8026 103.577 70.6403 103.577 70.4104C103.577 70.2617 103.597 70.1535 103.638 70.0859C103.692 70.0048 103.78 69.9169 103.901 69.8223C104.361 69.9169 104.787 69.9643 105.179 69.9643C105.787 69.9643 106.349 69.9034 106.862 69.7817C107.39 69.6465 107.843 69.4437 108.221 69.1733C108.613 68.9028 108.918 68.5581 109.134 68.1389C109.35 67.7062 109.458 67.1924 109.458 66.5975C109.458 66.5114 109.452 66.4265 109.44 66.3428C109.424 66.2294 109.396 66.1183 109.357 66.0093C109.303 65.82 109.242 65.6645 109.174 65.5428H111V63.0279H106.903C106.389 62.8657 105.814 62.7845 105.179 62.7845C104.584 62.7845 104.016 62.8589 103.475 63.0076C102.948 63.1564 102.475 63.3862 102.056 63.6972C101.636 63.9947 101.305 64.38 101.062 64.8533C100.818 65.313 100.697 65.8538 100.697 66.4758C100.697 67.0707 100.825 67.5913 101.082 68.0375ZM100.352 64.4833C100.651 63.9046 101.063 63.4226 101.586 63.0498C102.085 62.6806 102.645 62.4107 103.258 62.2377L103.263 62.2362C103.877 62.0674 104.517 61.9845 105.179 61.9845C105.835 61.9845 106.451 62.0626 107.021 62.2279H111.8V66.3428H110.246C110.254 66.4271 110.258 66.512 110.258 66.5975C110.258 67.2886 110.133 67.9303 109.849 68.4967L109.845 68.5058C109.569 69.0411 109.178 69.4843 108.681 69.8281C108.444 69.9965 108.189 70.1406 107.916 70.262C108.886 70.3477 109.726 70.5655 110.4 70.9511C111.414 71.5172 111.901 72.4753 111.901 73.6555C111.901 74.3575 111.711 75.0091 111.328 75.5885C110.967 76.1685 110.457 76.642 109.829 77.0187C109.201 77.3957 108.463 77.6726 107.631 77.8626C107.63 77.8628 107.629 77.8629 107.628 77.8631L107.451 77.0831L107.631 77.8626C107.63 77.8626 107.631 77.8625 107.631 77.8626C106.803 78.0546 105.889 78.1468 104.895 78.1468C104.223 78.1468 103.585 78.097 102.984 77.9948C102.38 77.9035 101.823 77.7414 101.322 77.499C100.805 77.2489 100.367 76.9088 100.036 76.4679L100.033 76.4634C99.6833 75.9902 99.5317 75.4295 99.5317 74.8319C99.5317 73.9499 99.946 73.2555 100.608 72.7273C100.572 72.6838 100.537 72.6394 100.503 72.5941L100.495 72.5836L100.488 72.5729C100.179 72.1318 100.059 71.6057 100.059 71.0595C100.059 70.5226 100.237 70.0238 100.542 69.5752C100.651 69.4157 100.77 69.2652 100.899 69.1236C100.713 68.9216 100.546 68.697 100.398 68.4521L100.393 68.4444L100.389 68.4367C100.052 67.8513 99.8967 67.1888 99.8967 66.4758C99.8967 65.7505 100.039 65.0778 100.352 64.4833ZM105.511 66.0313L105.502 66.023C105.409 65.935 105.315 65.8966 105.179 65.8966C105.043 65.8966 104.949 65.935 104.856 66.023L104.855 66.024C104.851 66.0275 104.762 66.1133 104.762 66.4758C104.762 66.8282 104.841 66.9488 104.867 66.9795C104.957 67.0602 105.048 67.0955 105.179 67.0955C105.315 67.0955 105.409 67.0572 105.502 66.9691C105.524 66.9479 105.616 66.8433 105.616 66.4758C105.616 66.1255 105.527 66.0456 105.52 66.0394L105.511 66.0313ZM104.307 67.5507C104.077 67.3209 103.962 66.9626 103.962 66.4758C103.962 66.0026 104.077 65.6578 104.307 65.4414C104.55 65.2116 104.841 65.0966 105.179 65.0966C105.517 65.0966 105.808 65.2116 106.051 65.4414C106.294 65.6578 106.416 66.0026 106.416 66.4758C106.416 66.9626 106.294 67.3209 106.051 67.5507C105.808 67.7806 105.517 67.8955 105.179 67.8955C104.841 67.8955 104.55 67.7806 104.307 67.5507ZM112.91 62.2279H117.277L117.407 63.284C117.68 63.0376 117.976 62.8257 118.294 62.6512C119.099 62.2092 119.961 61.9845 120.869 61.9845C121.361 61.9845 121.812 62.024 122.18 62.1357C122.489 62.2142 122.799 62.3213 123.111 62.4548L123.729 62.7197L122.689 67.1243L121.873 66.8761C121.589 66.7897 121.342 66.7317 121.13 66.6981L121.105 66.6942L121.081 66.6889C120.914 66.6518 120.673 66.6268 120.342 66.6268C119.93 66.6268 119.5 66.7492 119.039 67.0343L119.027 67.0416C118.674 67.2515 118.319 67.6453 117.998 68.3144V73.9688H112.91V62.2279ZM117.198 68.1389C117.577 67.2871 118.05 66.6921 118.618 66.3541C119.186 66.0026 119.76 65.8268 120.342 65.8268C120.707 65.8268 121.011 65.8538 121.254 65.9079C121.279 65.9118 121.304 65.916 121.329 65.9203C121.566 65.9617 121.825 66.0252 122.106 66.1107L122.796 63.1902C122.512 63.0685 122.235 62.9738 121.964 62.9062C121.707 62.8251 121.342 62.7845 120.869 62.7845C120.098 62.7845 119.368 62.9738 118.679 63.3524C118.259 63.583 117.876 63.8989 117.531 64.3001C117.313 64.5548 117.109 64.8437 116.92 65.1671C116.918 65.1706 116.916 65.1742 116.914 65.1778H116.833L116.569 63.0279H113.71V73.1688H117.198V68.1389ZM124.499 68.4041L124.504 68.3957C124.815 67.8434 125.272 67.397 125.84 67.0465L124.106 63.8095L124.79 63.4255C125.611 62.9646 126.452 62.6086 127.312 62.3606C128.184 62.1094 129.083 61.9845 130.008 61.9845C130.791 61.9845 131.522 62.0873 132.193 62.3044C132.89 62.512 133.499 62.8528 134.002 63.3357C134.526 63.8116 134.907 64.4164 135.16 65.1229C135.431 65.8299 135.554 66.6389 135.554 67.5304V73.9688H131.278L131.137 73.3553C130.864 73.5092 130.582 73.6503 130.291 73.7788L130.284 73.782L130.277 73.785C129.596 74.0697 128.883 74.2121 128.142 74.2121C127.534 74.2121 126.963 74.1185 126.446 73.9115L126.435 73.9073L126.425 73.9028C125.936 73.691 125.505 73.4069 125.143 73.0449C124.78 72.6821 124.503 72.2575 124.315 71.7779L124.31 71.7662L124.306 71.7544C124.139 71.2859 124.057 70.7957 124.057 70.2888C124.057 69.6109 124.195 68.978 124.495 68.4126L124.499 68.4041ZM130.948 72.5394C131.156 72.415 131.357 72.2824 131.552 72.1416C131.565 72.1325 131.578 72.1233 131.59 72.1141H131.671L131.915 73.1688H134.754V67.5304C134.754 66.7057 134.639 65.9958 134.409 65.4009C134.193 64.7924 133.875 64.2989 133.456 63.9203C133.05 63.5282 132.55 63.2442 131.955 63.0685C131.374 62.8792 130.725 62.7845 130.008 62.7845C129.156 62.7845 128.332 62.8995 127.534 63.1293C126.98 63.2889 126.432 63.4975 125.891 63.7549C125.795 63.8006 125.699 63.8479 125.604 63.8967C125.462 63.9688 125.322 64.0443 125.181 64.1231L126.398 66.3947C127.007 66.1107 127.534 65.9011 127.98 65.7659C128.44 65.6172 128.886 65.5428 129.319 65.5428C129.887 65.5428 130.333 65.6307 130.657 65.8065C130.675 65.815 130.692 65.8237 130.709 65.8327C131.016 65.9965 131.202 66.2514 131.266 66.5975C130.985 66.6138 130.714 66.6333 130.454 66.6559C129.636 66.727 128.92 66.8292 128.305 66.9626C127.493 67.1383 126.831 67.3817 126.317 67.6927C125.817 67.9902 125.445 68.3552 125.201 68.7879C124.972 69.2206 124.857 69.7209 124.857 70.2888C124.857 70.7079 124.924 71.1068 125.059 71.4854C125.208 71.864 125.425 72.1952 125.709 72.4792C125.992 72.7631 126.337 72.993 126.743 73.1688C127.149 73.331 127.615 73.4121 128.142 73.4121C128.778 73.4121 129.386 73.2905 129.968 73.0471C130.309 72.8965 130.635 72.7272 130.948 72.5394ZM129.871 69.615L129.86 69.6168C129.512 69.6769 129.292 69.7524 129.166 69.8195C129.092 69.8583 129.044 69.8916 129.013 69.9163C129.077 69.9271 129.164 69.935 129.278 69.935C129.579 69.935 129.824 69.8813 130.029 69.7898C130.183 69.7123 130.328 69.6302 130.466 69.5439V69.5261C130.243 69.5503 130.049 69.5795 129.881 69.6129L129.871 69.615ZM130.466 68.7217C130.188 68.7496 129.941 68.7852 129.724 68.8285C129.332 68.8961 129.021 68.9907 128.791 69.1124C128.561 69.2341 128.399 69.3693 128.305 69.5181C128.223 69.6668 128.183 69.829 128.183 70.0048C128.183 70.4916 128.548 70.735 129.278 70.735C129.684 70.735 130.049 70.6606 130.373 70.5119C130.698 70.3496 130.995 70.1671 131.266 69.9643V68.6663C130.975 68.6789 130.709 68.6973 130.466 68.7217ZM135.65 62.2279H139.724L139.777 62.4953C140.272 62.1269 140.889 61.9845 141.541 61.9845C142.155 61.9845 142.707 62.1985 143.155 62.6191C143.221 62.678 143.284 62.74 143.343 62.8048C143.388 62.7601 143.435 62.7163 143.483 62.6734C144.018 62.1978 144.684 61.9845 145.414 61.9845C146.403 61.9845 147.207 62.4266 147.744 63.2554C148.266 64.0259 148.486 65.0033 148.486 66.1107V73.9688H135.65V62.2279ZM139.736 66.5164C139.911 66.0026 140.114 65.7457 140.344 65.7457C140.614 65.7457 140.75 65.9485 140.75 66.3541V73.1688H143.386V66.5164C143.562 66.0026 143.785 65.7457 144.056 65.7457C144.285 65.7457 144.4 65.9485 144.4 66.3541V73.1688H147.686V66.1107C147.686 65.0966 147.483 64.2921 147.077 63.6972C146.685 63.0888 146.131 62.7845 145.414 62.7845C144.847 62.7845 144.38 62.9468 144.015 63.2713C143.934 63.3429 143.859 63.4171 143.789 63.494C143.542 63.7655 143.36 64.0699 143.244 64.4071C143.163 64.0112 143.025 63.6877 142.829 63.4367C142.764 63.3533 142.693 63.2779 142.616 63.2104C142.318 62.9265 141.96 62.7845 141.541 62.7845C140.932 62.7845 140.466 62.9333 140.141 63.2307C140.077 63.2896 140.016 63.3503 139.957 63.4128C139.725 63.6618 139.539 63.94 139.399 64.2476C139.396 64.2534 139.393 64.2592 139.391 64.2651H139.31L139.066 63.0279H136.45V73.1688H139.736V66.5164Z" fill="black"/>
<path d="M65.4304 16.5522C66.0253 16.9038 66.6067 17.1809 67.1746 17.3838C67.7425 17.5866 68.3239 17.688 68.9188 17.688C69.5273 17.688 69.9532 17.6407 70.1966 17.546C70.4399 17.4378 70.5616 17.2824 70.5616 17.0795C70.5616 16.9443 70.494 16.8294 70.3588 16.7347C70.2236 16.6266 70.0411 16.5319 69.8112 16.4508C69.5814 16.3562 69.3109 16.2683 68.9999 16.1871C68.7025 16.0925 68.3915 15.9978 68.067 15.9032C67.6478 15.7815 67.2287 15.6395 66.8095 15.4773C66.3904 15.3015 66.0118 15.0919 65.6737 14.8485C65.3357 14.6052 65.0585 14.328 64.8422 14.017C64.6259 13.6925 64.5177 13.3207 64.5177 12.9015C64.5177 12.4012 64.6326 11.9483 64.8625 11.5426C65.0923 11.137 65.4168 10.7922 65.836 10.5083C66.2687 10.2243 66.7825 10.008 67.3774 9.85925C67.9723 9.69699 68.6416 9.61587 69.3853 9.61587C70.3453 9.61587 71.1971 9.77136 71.9408 10.0823C72.6845 10.3798 73.3267 10.6976 73.8676 11.0356L72.3261 13.1043C71.8529 12.8339 71.3797 12.6108 70.9064 12.435C70.4332 12.2593 69.9532 12.1714 69.4664 12.1714C68.9391 12.1714 68.5605 12.2187 68.3306 12.3133C68.1008 12.3945 67.9859 12.5364 67.9859 12.7393C67.9859 12.8745 68.0467 12.9894 68.1684 13.084C68.3036 13.1787 68.4794 13.2666 68.6957 13.3477C68.9256 13.4288 69.1825 13.51 69.4664 13.5911C69.7639 13.6722 70.0749 13.7533 70.3994 13.8345C70.8321 13.9562 71.2647 14.0981 71.6974 14.2604C72.1301 14.4091 72.5154 14.6052 72.8535 14.8485C73.205 15.0784 73.489 15.3624 73.7053 15.7004C73.9216 16.0249 74.0298 16.417 74.0298 16.8767C74.0298 17.35 73.9149 17.7962 73.685 18.2153C73.4687 18.6209 73.1374 18.9793 72.6912 19.2902C72.2585 19.5877 71.7177 19.8243 71.0687 20.0001C70.4332 20.1624 69.6895 20.2435 68.8377 20.2435C67.9588 20.2435 67.0732 20.0948 66.1808 19.7973C65.3019 19.4998 64.538 19.1348 63.889 18.7021L65.4304 16.5522Z" fill="black"/>
<path d="M85.907 20.0001H83.0675L82.8241 18.6615H82.743C82.3103 19.1483 81.8303 19.5336 81.303 19.8176C80.7892 20.1015 80.174 20.2435 79.4574 20.2435C78.3216 20.2435 77.5036 19.8717 77.0033 19.128C76.503 18.3708 76.2529 17.3635 76.2529 16.106V9.85925H79.7413V15.6598C79.7413 16.2277 79.8157 16.6401 79.9644 16.897C80.1267 17.1539 80.4377 17.2824 80.8974 17.2824C81.1948 17.2824 81.4517 17.2283 81.6681 17.1201C81.8979 16.9984 82.1481 16.755 82.4185 16.39V9.85925H85.907V20.0001Z" fill="black"/>
<path d="M88.5762 5.88403H92.0647V9.16967L91.9836 10.63C92.3486 10.3054 92.7543 10.0553 93.2005 9.87953C93.6467 9.70376 94.0996 9.61587 94.5593 9.61587C95.1678 9.61587 95.7221 9.73756 96.2224 9.98094C96.7227 10.2243 97.1486 10.5691 97.5002 11.0153C97.8517 11.4615 98.1221 12.0023 98.3114 12.6378C98.5007 13.2733 98.5954 13.9764 98.5954 14.7471C98.5954 15.626 98.4737 16.4102 98.2303 17.0998C97.9869 17.7759 97.6624 18.3505 97.2568 18.8238C96.8647 19.2835 96.405 19.635 95.8776 19.8784C95.3638 20.1218 94.8298 20.2435 94.2754 20.2435C93.8157 20.2435 93.3627 20.1353 92.9165 19.919C92.4703 19.6891 92.0512 19.3511 91.659 18.9049H91.5779L91.294 20.0001H88.5762V5.88403ZM92.0647 16.9173C92.281 17.1066 92.5041 17.235 92.734 17.3026C92.9774 17.3702 93.214 17.404 93.4438 17.404C93.6602 17.404 93.863 17.3635 94.0523 17.2824C94.2416 17.1877 94.4038 17.039 94.539 16.8362C94.6878 16.6333 94.8027 16.3697 94.8838 16.0452C94.9785 15.7071 95.0258 15.2947 95.0258 14.808C95.0258 13.9697 94.8974 13.368 94.6405 13.0029C94.3971 12.6378 94.0252 12.4553 93.525 12.4553C93.2545 12.4553 93.0044 12.5094 92.7745 12.6176C92.5447 12.7257 92.3081 12.915 92.0647 13.1854V16.9173Z" fill="black"/>
<path d="M101.914 16.5522C102.509 16.9038 103.09 17.1809 103.658 17.3838C104.226 17.5866 104.807 17.688 105.402 17.688C106.011 17.688 106.436 17.6407 106.68 17.546C106.923 17.4378 107.045 17.2824 107.045 17.0795C107.045 16.9443 106.977 16.8294 106.842 16.7347C106.707 16.6266 106.524 16.5319 106.295 16.4508C106.065 16.3562 105.794 16.2683 105.483 16.1871C105.186 16.0925 104.875 15.9978 104.55 15.9032C104.131 15.7815 103.712 15.6395 103.293 15.4773C102.874 15.3015 102.495 15.0919 102.157 14.8485C101.819 14.6052 101.542 14.328 101.325 14.017C101.109 13.6925 101.001 13.3207 101.001 12.9015C101.001 12.4012 101.116 11.9483 101.346 11.5426C101.576 11.137 101.9 10.7922 102.319 10.5083C102.752 10.2243 103.266 10.008 103.861 9.85925C104.456 9.69699 105.125 9.61587 105.869 9.61587C106.829 9.61587 107.68 9.77136 108.424 10.0823C109.168 10.3798 109.81 10.6976 110.351 11.0356L108.809 13.1043C108.336 12.8339 107.863 12.6108 107.39 12.435C106.916 12.2593 106.436 12.1714 105.95 12.1714C105.422 12.1714 105.044 12.2187 104.814 12.3133C104.584 12.3945 104.469 12.5364 104.469 12.7393C104.469 12.8745 104.53 12.9894 104.652 13.084C104.787 13.1787 104.963 13.2666 105.179 13.3477C105.409 13.4288 105.666 13.51 105.95 13.5911C106.247 13.6722 106.558 13.7533 106.883 13.8345C107.315 13.9562 107.748 14.0981 108.181 14.2604C108.613 14.4091 108.999 14.6052 109.337 14.8485C109.688 15.0784 109.972 15.3624 110.189 15.7004C110.405 16.0249 110.513 16.417 110.513 16.8767C110.513 17.35 110.398 17.7962 110.168 18.2153C109.952 18.6209 109.621 18.9793 109.175 19.2902C108.742 19.5877 108.201 19.8243 107.552 20.0001C106.916 20.1624 106.173 20.2435 105.321 20.2435C104.442 20.2435 103.556 20.0948 102.664 19.7973C101.785 19.4998 101.021 19.1348 100.372 18.7021L101.914 16.5522Z" fill="black"/>
<path d="M114.886 12.577H112.452V9.98094L115.048 9.85925L115.494 7.22263H118.374V9.85925H122.39V12.577H118.374V15.6395C118.374 16.3697 118.537 16.87 118.861 17.1404C119.199 17.3973 119.693 17.5257 120.342 17.5257C120.693 17.5257 121.018 17.4987 121.315 17.4446C121.626 17.377 121.917 17.2959 122.187 17.2012L122.796 19.7162C122.35 19.8379 121.849 19.9528 121.295 20.0609C120.741 20.1826 120.119 20.2435 119.429 20.2435C118.591 20.2435 117.881 20.1353 117.3 19.919C116.732 19.7026 116.265 19.3984 115.9 19.0063C115.549 18.6007 115.292 18.1207 115.129 17.5663C114.967 16.9984 114.886 16.3764 114.886 15.7004V12.577Z" fill="black"/>
<path d="M125.871 9.85925H128.731L128.994 12.0091H129.075C129.562 11.1708 130.15 10.5623 130.84 10.1838C131.529 9.80516 132.26 9.61587 133.03 9.61587C133.503 9.61587 133.869 9.65643 134.125 9.73756C134.396 9.80516 134.673 9.89981 134.957 10.0215L134.267 12.9421C133.956 12.8474 133.672 12.7798 133.416 12.7393C133.172 12.6852 132.868 12.6581 132.503 12.6581C131.922 12.6581 131.347 12.8339 130.779 13.1854C130.211 13.5235 129.738 14.1184 129.359 14.9702V20.0001H125.871V9.85925Z" fill="black"/>
<path d="M137.018 17.1201C137.018 16.5522 137.133 16.0519 137.363 15.6193C137.606 15.1866 137.978 14.8215 138.478 14.524C138.992 14.2131 139.654 13.9697 140.466 13.7939C141.277 13.6181 142.264 13.4964 143.427 13.4288C143.359 13.0638 143.156 12.8001 142.818 12.6378C142.494 12.4621 142.048 12.3742 141.48 12.3742C141.047 12.3742 140.601 12.4485 140.141 12.5973C139.695 12.7325 139.168 12.9421 138.559 13.226L137.342 10.9545C138.113 10.5218 138.897 10.1905 139.695 9.96066C140.493 9.7308 141.318 9.61587 142.169 9.61587C142.886 9.61587 143.535 9.71052 144.116 9.89981C144.711 10.0756 145.212 10.3595 145.617 10.7516C146.036 11.1302 146.354 11.6238 146.57 12.2322C146.8 12.8271 146.915 13.537 146.915 14.3618V20.0001H144.076L143.832 18.9455H143.751C143.251 19.3105 142.71 19.6215 142.129 19.8784C141.547 20.1218 140.939 20.2435 140.303 20.2435C139.776 20.2435 139.31 20.1624 138.904 20.0001C138.498 19.8243 138.154 19.5945 137.87 19.3105C137.586 19.0266 137.369 18.6953 137.221 18.3167C137.085 17.9381 137.018 17.5393 137.018 17.1201ZM140.344 16.8362C140.344 17.3229 140.709 17.5663 141.439 17.5663C141.845 17.5663 142.21 17.4919 142.534 17.3432C142.859 17.1809 143.156 16.9984 143.427 16.7956V15.4976C142.805 15.5246 142.291 15.5787 141.885 15.6598C141.493 15.7274 141.182 15.8221 140.952 15.9438C140.723 16.0655 140.56 16.2007 140.466 16.3494C140.385 16.4981 140.344 16.6604 140.344 16.8362Z" fill="black"/>
<path d="M151.369 12.577H148.936V9.98094L151.532 9.85925L151.978 7.22263H154.858V9.85925H158.874V12.577H154.858V15.6395C154.858 16.3697 155.02 16.87 155.345 17.1404C155.683 17.3973 156.176 17.5257 156.825 17.5257C157.177 17.5257 157.501 17.4987 157.799 17.4446C158.11 17.377 158.4 17.2959 158.671 17.2012L159.279 19.7162C158.833 19.8379 158.333 19.9528 157.778 20.0609C157.224 20.1826 156.602 20.2435 155.912 20.2435C155.074 20.2435 154.364 20.1353 153.783 19.919C153.215 19.7026 152.748 19.3984 152.383 19.0063C152.032 18.6007 151.775 18.1207 151.613 17.5663C151.45 16.9984 151.369 16.3764 151.369 15.7004V12.577Z" fill="black"/>
<path d="M161.259 14.9297C161.259 14.1049 161.408 13.3612 161.705 12.6987C162.003 12.0362 162.395 11.4818 162.881 11.0356C163.382 10.5759 163.95 10.2243 164.585 9.98094C165.234 9.73756 165.897 9.61587 166.573 9.61587C167.37 9.61587 168.067 9.74432 168.662 10.0012C169.27 10.2581 169.777 10.6097 170.183 11.0559C170.588 11.5021 170.893 12.0226 171.096 12.6176C171.298 13.2125 171.4 13.848 171.4 14.524C171.4 14.835 171.379 15.1257 171.339 15.3962C171.312 15.6666 171.285 15.8626 171.258 15.9843H164.828C164.883 16.2953 164.991 16.559 165.153 16.7753C165.315 16.9781 165.511 17.1404 165.741 17.2621C165.985 17.3838 166.248 17.4716 166.532 17.5257C166.816 17.5798 167.114 17.6069 167.425 17.6069C167.83 17.6069 168.222 17.5595 168.601 17.4649C168.993 17.3567 169.412 17.2012 169.858 16.9984L170.994 19.0671C170.386 19.4593 169.716 19.7567 168.986 19.9595C168.256 20.1488 167.573 20.2435 166.938 20.2435C166.14 20.2435 165.39 20.1286 164.687 19.8987C163.997 19.6553 163.395 19.3105 162.881 18.8643C162.381 18.4046 161.982 17.8435 161.685 17.1809C161.401 16.5184 161.259 15.768 161.259 14.9297ZM168.236 13.7128C168.236 13.3071 168.121 12.9623 167.891 12.6784C167.661 12.3945 167.249 12.2525 166.654 12.2525C166.221 12.2525 165.829 12.3674 165.477 12.5973C165.139 12.8136 164.91 13.1854 164.788 13.7128H168.236Z" fill="black"/>
<path fill-rule="evenodd" clip-rule="evenodd" d="M16.7356 9.01912C17.3994 10.1465 17.3153 11.6604 16.6558 13.2101L16.5469 13.466L12.7782 15.6479L12.6907 15.6755C11.8671 15.9356 11.5311 16.5078 11.5266 17.08C11.5218 17.6789 11.8859 18.4461 12.8382 18.9876L23.3175 24.4601L39.422 15.4867L39.5346 15.4601C40.9457 15.1259 42.2497 15.5184 42.9987 16.5979C43.7172 17.6334 43.7746 19.0886 43.2355 20.6049L43.1337 20.8911L31.8199 27.5318C31.5004 27.8492 31.4168 28.2216 31.4644 28.6218C31.5119 29.0205 31.6912 29.4089 31.8777 29.6707L43.1149 36.2664L43.2216 36.5273C43.5433 37.3136 43.7653 38.5086 43.8051 39.7585C43.8451 41.0131 43.7051 42.4242 43.224 43.6268L43.1187 43.8901L31.7164 50.6447L31.6898 50.658C31.5893 50.7083 31.3966 50.947 31.4659 51.6188C31.4955 51.9059 31.5702 52.188 31.6617 52.4083C31.7349 52.5844 31.7934 52.6616 31.8074 52.6818L42.9181 59.2637L42.9581 59.2945C43.2345 59.5071 43.3873 59.8079 43.4774 60.0393C43.5748 60.2892 43.6418 60.5717 43.6892 60.8565C43.7845 61.4283 43.8173 62.1105 43.8054 62.7838C43.7934 63.4606 43.7358 64.1578 43.6392 64.7661C43.5474 65.3437 43.4059 65.9416 43.1787 66.3506L43.0711 66.5443L33.9168 72.0867L33.8392 72.1147C32.0241 72.7713 30.3997 72.0082 29.5926 70.7428C28.7911 69.4861 28.7851 67.7025 30.1401 66.4272L30.1984 66.3724L34.3984 63.7164L34.4171 63.7059C34.4845 63.668 34.6531 63.469 34.6282 62.9529C34.6061 62.4935 34.4397 62.149 34.3243 62.0197L23.3182 55.5318L6.87098 64.6758L6.75377 64.7021C5.23444 65.044 3.85789 64.4941 3.05758 63.4506C2.25757 62.4076 2.08423 60.9373 2.8078 59.5663L2.9197 59.3543L14.3869 52.7057C15.002 51.9732 14.8916 51.0045 14.4276 50.5878L2.99343 43.4719L2.90873 43.3717C2.72636 43.1562 2.61333 42.8948 2.53777 42.6666C2.45834 42.4268 2.39957 42.1588 2.35582 41.8831C2.26824 41.3313 2.23095 40.6843 2.23492 40.0371C2.2389 39.3878 2.28458 38.7163 2.37091 38.112C2.45503 37.5232 2.58571 36.9389 2.78613 36.4979L2.89722 36.2535L14.3376 29.6814C14.703 29.1247 14.8122 28.7621 14.8122 28.4935C14.8122 28.2417 14.7155 27.9382 14.3617 27.4941L3.2113 20.4955C3.05843 20.4394 2.93733 20.3516 2.85065 20.2687C2.71529 20.1393 2.62858 19.9914 2.57293 19.8777C2.46078 19.6485 2.38765 19.3747 2.33606 19.1157C2.22991 18.5828 2.17481 17.8998 2.16689 17.2192C2.15895 16.5359 2.1981 15.8134 2.29641 15.1984C2.3454 14.892 2.41239 14.5909 2.5051 14.3261C2.59024 14.0829 2.72991 13.7718 2.97972 13.5412L3.04503 13.4809L13.0063 7.60312L13.1714 7.58009C14.6994 7.36687 16.0394 7.8366 16.7356 9.01912ZM13.5599 9.21342C14.5316 9.11758 15.0543 9.45145 15.2981 9.86552C15.5682 10.3242 15.6594 11.145 15.2217 12.3056L12.0964 14.115C10.6778 14.6003 9.8688 15.7611 9.85844 17.0668C9.84808 18.3714 10.6307 19.6577 12.0298 20.4469L12.0415 20.4536L23.3431 26.3555L40.0256 17.0601C40.8507 16.8954 41.3599 17.1624 41.6281 17.5489C41.9136 17.9603 42.0671 18.7084 41.7549 19.7661L30.8217 26.1834L30.7588 26.2399C29.9136 27.0006 29.7069 27.9707 29.8079 28.819C29.9049 29.634 30.2835 30.3716 30.676 30.8426L30.7692 30.9544L41.7689 37.4107C41.9532 37.9798 42.1069 38.8432 42.1377 39.8116C42.1702 40.8295 42.0639 41.8803 41.7697 42.7503L30.9141 49.1811C29.8323 49.7436 29.7252 51.0017 29.8064 51.7899C29.8525 52.2364 29.9668 52.6766 30.1211 53.0482C30.2599 53.3824 30.4867 53.7977 30.8385 54.044L30.8645 54.0622L41.9054 60.6027C41.9105 60.614 41.9164 60.6279 41.923 60.6448C41.9639 60.7499 42.007 60.9107 42.0437 61.1308C42.1167 61.5686 42.1483 62.1419 42.1374 62.7543C42.1267 63.3632 42.0746 63.982 41.9917 64.5044C41.9294 64.8959 41.8571 65.1845 41.7934 65.3677L33.199 70.5711C32.2043 70.8982 31.4073 70.4857 30.9991 69.8457C30.5862 69.1984 30.5813 68.3478 31.2307 67.6933L35.2562 65.1478C36.1387 64.6368 36.3298 63.6061 36.2945 62.8726C36.2583 62.1214 35.9724 61.2167 35.36 60.7064L35.308 60.6631L23.3424 53.6097L6.27773 63.0969C5.42898 63.2501 4.75973 62.9288 4.38127 62.4354C4.01955 61.9638 3.88075 61.2796 4.18725 60.5477L15.4441 54.0211L15.5276 53.9323C16.7509 52.6326 16.8722 50.4232 15.4462 49.2646L15.4055 49.2315L4.15318 42.2287C4.14394 42.2062 4.13316 42.1777 4.12138 42.1421C4.07909 42.0144 4.03813 41.8405 4.00341 41.6217C3.93406 41.1847 3.8995 40.6329 3.90309 40.0473C3.90667 39.4639 3.94797 38.8686 4.02235 38.3479C4.07742 37.9624 4.14653 37.6479 4.21897 37.4181L15.498 30.9387L15.605 30.785C16.1255 30.0367 16.4804 29.2905 16.4804 28.4935C16.4804 27.6742 16.1073 26.9746 15.5582 26.3226L15.4742 26.2228L4.03373 19.0421C4.01562 18.9831 3.99411 18.9002 3.97212 18.7899C3.89297 18.3925 3.8422 17.8201 3.83499 17.1998C3.82781 16.5823 3.86428 15.9586 3.9437 15.4618C3.98358 15.2124 4.03098 15.0162 4.0796 14.8773C4.09347 14.8377 4.10566 14.8079 4.11536 14.7863L13.5599 9.21342ZM23.3427 30.7372L34.7095 37.4942L34.7644 37.5414C35.565 38.2288 36.2753 39.0008 36.2941 39.993C36.3127 40.9721 35.6494 41.8205 34.8026 42.6443L34.7231 42.7217L22.778 49.3578L11.2506 42.7074L11.1663 42.6177C10.3815 41.7829 9.79008 40.9433 9.80657 39.9944C9.82329 39.0319 10.4583 38.2655 11.203 37.5661L11.2774 37.4963L23.3427 30.7372ZM12.2726 38.8509C11.6098 39.4871 11.4781 39.8151 11.4745 40.0234C11.4707 40.2442 11.6039 40.6291 12.2995 41.3866L22.7935 47.4408L33.7171 41.3722C34.4983 40.5967 34.6299 40.2176 34.6262 40.0247C34.6228 39.8428 34.4907 39.5151 33.7313 38.8534L23.3179 32.6632L12.2726 38.8509Z" fill="black"/>
</svg>
