<svg width="236" height="80" viewBox="0 0 236 80" fill="none" xmlns="http://www.w3.org/2000/svg">
<path fill-rule="evenodd" clip-rule="evenodd" d="M95.0652 35.2692H100.135V39.3225C100.149 39.3168 100.163 39.3112 100.178 39.3056C100.711 39.0954 101.261 38.9874 101.824 38.9874C102.539 38.9874 103.212 39.1313 103.829 39.4315C104.438 39.7277 104.957 40.1486 105.38 40.6856C105.802 41.2213 106.113 41.8542 106.326 42.568C106.54 43.2858 106.642 44.0644 106.642 44.8971C106.642 45.8455 106.511 46.719 106.233 47.5065L106.231 47.5113C105.961 48.2619 105.593 48.9219 105.117 49.4771C104.656 50.0178 104.107 50.4393 103.475 50.7318C102.86 51.0224 102.213 51.1706 101.541 51.1706C100.953 51.1706 100.383 51.0313 99.8391 50.7674L99.8304 50.7632L99.8218 50.7588C99.646 50.6682 99.4758 50.5651 99.3109 50.45L99.187 50.9281H95.0652V35.2692ZM98.8531 49.0398H98.9339C98.9419 49.0489 98.95 49.0579 98.958 49.067C99.1418 49.2735 99.3316 49.4563 99.5273 49.6154C99.7401 49.7884 99.96 49.9333 100.187 50.0502C100.631 50.2657 101.083 50.3735 101.541 50.3735C102.093 50.3735 102.625 50.2522 103.137 50.0097C103.663 49.7673 104.121 49.417 104.511 48.9589C104.915 48.4874 105.239 47.9149 105.481 47.2413C105.724 46.5542 105.845 45.7728 105.845 44.8971C105.845 44.1292 105.751 43.4287 105.562 42.7955C105.374 42.1623 105.104 41.6234 104.754 41.1789C104.404 40.7343 103.979 40.3908 103.481 40.1483C102.982 39.9058 102.43 39.7845 101.824 39.7845C101.366 39.7845 100.914 39.8721 100.47 40.0472C100.339 40.0988 100.211 40.1568 100.087 40.2212C99.7906 40.3756 99.5139 40.5668 99.2573 40.7949L99.3381 39.3399V36.0663H95.8623V50.131H98.5702L98.8531 49.0398ZM101.15 46.5216L101.161 46.5072C101.231 46.411 101.31 46.2515 101.374 45.9971L101.376 45.9863L101.379 45.9755C101.448 45.7298 101.491 45.3959 101.491 44.9578C101.491 44.1632 101.362 43.7731 101.253 43.618L101.247 43.6098L101.241 43.6014C101.169 43.4934 101.069 43.4107 100.793 43.4107C100.633 43.4107 100.501 43.4419 100.385 43.4965C100.322 43.5262 100.238 43.5798 100.135 43.67V46.6428C100.167 46.6575 100.197 46.6687 100.225 46.6771C100.402 46.7258 100.564 46.7473 100.712 46.7473C100.815 46.7473 100.902 46.7304 100.98 46.7004C101.024 46.6745 101.079 46.6279 101.14 46.5364L101.15 46.5216ZM101.318 47.4231C101.13 47.504 100.928 47.5444 100.712 47.5444C100.483 47.5444 100.247 47.5107 100.005 47.4433C99.7759 47.376 99.5536 47.248 99.3381 47.0594V43.3411C99.5806 43.0717 99.8163 42.8831 100.045 42.7753C100.274 42.6675 100.524 42.6136 100.793 42.6136C101.292 42.6136 101.662 42.7955 101.905 43.1592C102.16 43.523 102.288 44.1225 102.288 44.9578C102.288 45.4427 102.241 45.8536 102.147 46.1904C102.066 46.5138 101.952 46.7765 101.803 46.9786C101.669 47.1806 101.507 47.3288 101.318 47.4231ZM118.234 50.9281H113.942L113.824 50.2797C113.634 50.4152 113.436 50.5384 113.231 50.6489C112.579 51.0085 111.828 51.1706 111.01 51.1706C109.693 51.1706 108.59 50.727 107.904 49.707L107.9 49.7015C107.288 48.7754 107.02 47.602 107.02 46.2511V39.2299H112.09V45.8065C112.09 46.2541 112.144 46.4907 112.184 46.5946C112.221 46.6074 112.301 46.626 112.445 46.626C112.638 46.626 112.765 46.5923 112.847 46.553C112.905 46.5203 113.012 46.4362 113.164 46.2577V39.2299H118.234V50.9281ZM113.961 46.534C113.691 46.8977 113.442 47.1402 113.213 47.2615C112.998 47.3692 112.742 47.4231 112.445 47.4231C111.987 47.4231 111.677 47.2951 111.516 47.0392C111.367 46.7832 111.293 46.3723 111.293 45.8065V40.027H107.818V46.2511C107.818 47.504 108.067 48.5076 108.565 49.2621C109.064 50.003 109.879 50.3735 111.01 50.3735C111.724 50.3735 112.337 50.232 112.849 49.9491C113.135 49.7954 113.406 49.6118 113.664 49.3984C113.875 49.2239 114.076 49.0293 114.268 48.8148C114.274 48.809 114.279 48.8031 114.284 48.7973H114.365L114.607 50.131H117.437V40.027H113.961V46.534ZM119.501 39.2299H124.228C124.017 39.1231 123.819 38.9902 123.634 38.8296L123.629 38.8249L123.624 38.82C123.025 38.279 122.734 37.5655 122.734 36.7533C122.734 35.9435 123.023 35.2317 123.618 34.6913C124.202 34.1474 124.936 33.895 125.754 33.895C126.572 33.895 127.306 34.1475 127.89 34.6914C128.486 35.2318 128.774 35.9436 128.774 36.7533C128.774 37.5655 128.484 38.279 127.885 38.82L127.88 38.8249L127.874 38.8296C127.69 38.9902 127.491 39.1231 127.281 39.2299H128.411V50.9281H123.341V43.532H119.501V39.2299ZM124.138 42.7349V50.131H127.613V40.027H120.298V42.7349H124.138ZM127.351 35.2781C126.933 34.8875 126.401 34.6921 125.754 34.6921C125.108 34.6921 124.576 34.8875 124.158 35.2781C123.74 35.6554 123.531 36.1471 123.531 36.7533C123.531 37.3596 123.74 37.8513 124.158 38.2285C124.576 38.5922 125.108 38.7741 125.754 38.7741C126.401 38.7741 126.933 38.5922 127.351 38.2285C127.768 37.8513 127.977 37.3596 127.977 36.7533C127.977 36.1471 127.768 35.6554 127.351 35.2781ZM131.214 35.2692H139.032V46.0894C139.032 46.3091 139.068 46.4181 139.089 46.4604C139.136 46.5537 139.183 46.6178 139.226 46.6625C139.283 46.7 139.344 46.7297 139.409 46.7524C139.533 46.7768 139.647 46.7877 139.751 46.7877C140.053 46.7877 140.448 46.7182 140.948 46.5476L141.736 46.2785L142.941 50.3838L142.182 50.6116C141.91 50.6931 141.651 50.7682 141.404 50.8368C141.145 50.9127 140.88 50.9731 140.609 51.0183C140.348 51.0618 140.074 51.0977 139.789 51.1262C139.489 51.1562 139.166 51.1706 138.821 51.1706C138.063 51.1706 137.362 51.0493 136.733 50.7848L136.726 50.7818C136.132 50.5249 135.615 50.166 135.185 49.7034L135.175 49.6926L135.166 49.6815C134.753 49.203 134.448 48.6426 134.244 48.013L134.241 48.0044L134.238 47.9957C134.051 47.371 133.962 46.6928 133.962 45.9682V39.5712H131.214V35.2692ZM134.759 38.7741V45.9682C134.759 46.6283 134.84 47.2278 135.002 47.7667C135.177 48.3055 135.433 48.7703 135.77 49.161C136.12 49.5382 136.544 49.8346 137.043 50.0502C137.555 50.2657 138.147 50.3735 138.821 50.3735C139.144 50.3735 139.441 50.36 139.71 50.3331C139.98 50.3061 140.236 50.2724 140.478 50.232C140.721 50.1916 140.956 50.1377 141.185 50.0704C141.186 50.0702 141.187 50.07 141.188 50.0697C141.28 50.044 141.375 50.0173 141.471 49.9897C141.627 49.945 141.787 49.8978 141.953 49.8481L141.206 47.3019C141.01 47.3687 140.822 47.4237 140.644 47.4669C140.318 47.5455 140.02 47.5848 139.751 47.5848C139.575 47.5848 139.394 47.5646 139.205 47.5242C139.03 47.4703 138.868 47.3894 138.72 47.2817C138.585 47.1604 138.471 47.0055 138.376 46.8169C138.282 46.6283 138.235 46.3858 138.235 46.0894V36.0663H132.011V38.7741H134.759ZM150.796 49.2014H150.716C150.706 49.211 150.696 49.2206 150.687 49.2301C150.508 49.4053 150.314 49.5633 150.104 49.7041C149.91 49.8342 149.703 49.9495 149.483 50.0502C149.025 50.2657 148.567 50.3735 148.109 50.3735C147.462 50.3735 146.876 50.2522 146.351 50.0097C145.839 49.7673 145.401 49.417 145.037 48.9589C144.673 48.5009 144.39 47.9485 144.188 47.3019C143.986 46.6418 143.885 45.9008 143.885 45.079C143.885 44.2572 144.007 43.5163 144.249 42.8561C144.492 42.196 144.808 41.6437 145.199 41.1991C145.589 40.741 146.041 40.3908 146.553 40.1483C147.065 39.9058 147.583 39.7845 148.109 39.7845C148.675 39.7845 149.139 39.8788 149.503 40.0674C149.556 40.0928 149.608 40.1197 149.66 40.1479C149.964 40.3144 150.249 40.53 150.513 40.7949L150.392 39.3399V36.0663H153.868V50.131H151.039L150.796 49.2014ZM150.315 50.5133C150.156 50.6079 149.99 50.6946 149.818 50.7732C149.267 51.0322 148.695 51.1706 148.109 51.1706C147.36 51.1706 146.658 51.0297 146.017 50.7335L146.009 50.7301C145.384 50.4337 144.85 50.005 144.413 49.4546C143.979 48.9086 143.654 48.2653 143.428 47.5396L143.426 47.5352C143.197 46.7867 143.088 45.9653 143.088 45.079C143.088 44.1789 143.221 43.3429 143.501 42.5813C143.77 41.8479 144.132 41.2073 144.596 40.6772C145.054 40.1412 145.593 39.7208 146.212 39.4279C146.822 39.1389 147.456 38.9874 148.109 38.9874C148.644 38.9874 149.147 39.0604 149.595 39.2355V35.2692H154.665V50.9281H150.423L150.315 50.5133ZM149.508 43.4755C149.375 43.4339 149.226 43.4107 149.059 43.4107C148.886 43.4107 148.716 43.4708 148.523 43.6888C148.4 43.8264 148.239 44.2006 148.239 45.0386C148.239 45.9122 148.375 46.3408 148.49 46.5084C148.611 46.6666 148.758 46.7473 149.018 46.7473C149.205 46.7473 149.339 46.7174 149.435 46.6775C149.473 46.658 149.528 46.6201 149.595 46.5476V43.5068C149.569 43.4953 149.544 43.4863 149.521 43.4794L149.508 43.4755ZM150.392 43.0986V46.8169C150.204 47.0998 149.995 47.2951 149.766 47.4029C149.55 47.4972 149.301 47.5444 149.018 47.5444C148.52 47.5444 148.129 47.3558 147.846 46.9786C147.577 46.6013 147.442 45.9547 147.442 45.0386C147.442 44.1494 147.604 43.523 147.927 43.1592C148.25 42.7955 148.627 42.6136 149.059 42.6136C149.301 42.6136 149.53 42.6473 149.746 42.7147C149.975 42.782 150.19 42.91 150.392 43.0986ZM159.193 39.4039L159.198 39.4019C159.932 39.1267 160.687 38.9874 161.458 38.9874C162.336 38.9874 163.141 39.1285 163.853 39.4353C164.554 39.7318 165.157 40.1458 165.645 40.6831C166.126 41.2118 166.483 41.8265 166.719 42.5181C166.952 43.1997 167.065 43.9204 167.065 44.6748C167.065 45.0118 167.043 45.3347 166.998 45.6422C166.972 45.9073 166.942 46.1359 166.904 46.3027L166.766 46.9269H165.524L166.92 49.469L166.295 49.8714C165.619 50.3076 164.878 50.636 164.076 50.8586L164.063 50.8623C163.282 51.0648 162.534 51.1706 161.822 51.1706C160.95 51.1706 160.118 51.0447 159.331 50.7876L159.322 50.7847L159.314 50.7816C158.539 50.5083 157.851 50.1162 157.258 49.6012L157.249 49.5938L157.241 49.5863C156.658 49.0501 156.199 48.4005 155.861 47.6486L155.855 47.6361C155.524 46.8619 155.367 46.0048 155.367 45.079C155.367 44.1599 155.533 43.3055 155.881 42.5296C156.217 41.7808 156.669 41.1369 157.241 40.6122C157.814 40.0859 158.466 39.6823 159.193 39.4039ZM157.78 41.1991C157.295 41.6437 156.905 42.196 156.608 42.8561C156.312 43.5163 156.164 44.2572 156.164 45.079C156.164 45.9143 156.305 46.662 156.588 47.3221C156.885 47.9822 157.282 48.5413 157.78 48.9993C158.292 49.4439 158.892 49.7875 159.579 50.03C160.28 50.259 161.027 50.3735 161.822 50.3735C162.455 50.3735 163.136 50.2792 163.863 50.0906C164.591 49.8885 165.257 49.5921 165.864 49.2014L164.732 47.1402C164.287 47.3423 163.87 47.4972 163.479 47.605C163.102 47.6993 162.711 47.7465 162.307 47.7465C161.997 47.7465 161.701 47.7195 161.418 47.6656C161.135 47.6117 160.872 47.5242 160.63 47.4029C160.404 47.2835 160.211 47.1248 160.051 46.9269C160.049 46.9239 160.046 46.9209 160.044 46.9179C159.882 46.7024 159.774 46.4397 159.72 46.1298H166.126C166.153 46.0086 166.18 45.8132 166.207 45.5438C166.248 45.2743 166.268 44.9847 166.268 44.6748C166.268 44.0012 166.167 43.3681 165.965 42.7753C165.763 42.1825 165.459 41.6639 165.055 41.2193C164.651 40.7747 164.146 40.4244 163.54 40.1685C162.947 39.9125 162.253 39.7845 161.458 39.7845C160.785 39.7845 160.125 39.9058 159.478 40.1483C158.845 40.3908 158.279 40.741 157.78 41.1991ZM162.744 46.9269H161.868C162.009 46.9418 162.155 46.9494 162.307 46.9494C162.456 46.9494 162.601 46.9418 162.744 46.9269ZM159.68 43.8665C159.755 43.5416 159.871 43.2759 160.029 43.0694C160.126 42.9421 160.239 42.8373 160.367 42.7551C160.717 42.5261 161.108 42.4116 161.539 42.4116C162.132 42.4116 162.543 42.553 162.772 42.8359C162.832 42.9096 162.883 42.9875 162.928 43.0694C163.053 43.302 163.115 43.5677 163.115 43.8665H159.68ZM168.575 39.2299H172.927L173.056 40.2822C173.328 40.0367 173.623 39.8255 173.939 39.6516C174.741 39.2113 175.6 38.9874 176.505 38.9874C176.996 38.9874 177.445 39.0267 177.812 39.138C178.119 39.2162 178.429 39.323 178.739 39.456L179.355 39.7199L178.319 44.1085L177.506 43.8612C177.223 43.7751 176.977 43.7173 176.765 43.6839L176.741 43.68L176.716 43.6747C176.55 43.6377 176.31 43.6128 175.98 43.6128C175.57 43.6128 175.141 43.7348 174.682 44.0189L174.67 44.0262C174.319 44.2353 173.964 44.6276 173.645 45.2943V50.9281H168.575V39.2299ZM172.848 45.1194C173.225 44.2707 173.696 43.6779 174.262 43.3411C174.828 42.9908 175.401 42.8157 175.98 42.8157C176.344 42.8157 176.647 42.8427 176.889 42.8965C176.914 42.9004 176.939 42.9046 176.964 42.9089C177.2 42.9502 177.458 43.0134 177.738 43.0986L178.425 40.1887C178.142 40.0674 177.866 39.9731 177.597 39.9058C177.341 39.8249 176.977 39.7845 176.505 39.7845C175.737 39.7845 175.01 39.9731 174.323 40.3503C173.904 40.5801 173.523 40.8949 173.18 41.2946C172.962 41.5483 172.759 41.8362 172.571 42.1584C172.569 42.1619 172.567 42.1655 172.565 42.1691H172.484L172.221 40.027H169.372V50.131H172.848V45.1194ZM181.626 45.643C181.225 45.3534 180.884 45.0149 180.612 44.6248L180.608 44.6184L180.603 44.6118C180.294 44.1476 180.146 43.6209 180.146 43.0582C180.146 42.4324 180.291 41.844 180.593 41.3113C180.888 40.7914 181.299 40.3595 181.81 40.0137L181.819 40.0072C182.335 39.6685 182.93 39.4217 183.591 39.2558C184.262 39.0736 184.999 38.9874 185.793 38.9874C186.833 38.9874 187.787 39.1556 188.641 39.5115C189.413 39.8206 190.095 40.1568 190.682 40.5231L191.415 40.9816L189.161 44.007C189.349 44.1075 189.529 44.2187 189.7 44.341C190.131 44.6258 190.49 44.9828 190.765 45.4113C191.079 45.886 191.218 46.4349 191.218 47.019C191.218 47.6243 191.07 48.1991 190.778 48.7318C190.494 49.2641 190.071 49.7098 189.543 50.0776L189.539 50.0806C189.016 50.4399 188.389 50.708 187.679 50.9004L187.668 50.9034C186.954 51.0855 186.144 51.1706 185.247 51.1706C184.28 51.1706 183.313 51.0067 182.348 50.6851L182.345 50.6839C181.415 50.3693 180.589 49.9771 179.875 49.5009L179.188 49.0435L181.626 45.643ZM190.077 48.3527C190.306 47.9351 190.421 47.4905 190.421 47.019C190.421 46.5609 190.313 46.1702 190.097 45.8469C189.882 45.5101 189.599 45.2272 189.249 44.9982C188.912 44.7557 188.528 44.5603 188.097 44.4121C187.666 44.2505 187.235 44.109 186.804 43.9878C186.48 43.9069 186.17 43.8261 185.874 43.7453C185.591 43.6644 185.335 43.5836 185.106 43.5028C184.89 43.422 184.715 43.3344 184.581 43.2401C184.459 43.1458 184.399 43.0313 184.399 42.8965C184.399 42.6945 184.513 42.553 184.742 42.4722C184.971 42.3779 185.349 42.3307 185.874 42.3307C186.359 42.3307 186.837 42.4183 187.309 42.5934C187.78 42.7686 188.252 42.9908 188.723 43.2603L190.259 41.1991C190.042 41.0637 189.81 40.9316 189.56 40.8028C189.189 40.611 188.782 40.4266 188.339 40.2493C187.598 39.9394 186.75 39.7845 185.793 39.7845C185.052 39.7845 184.385 39.8653 183.793 40.027C183.2 40.1752 182.688 40.3908 182.257 40.6737C181.839 40.9566 181.516 41.3001 181.287 41.7043C181.058 42.1084 180.943 42.5597 180.943 43.0582C180.943 43.4758 181.051 43.8463 181.267 44.1696C181.482 44.4795 181.758 44.7557 182.095 44.9982C182.432 45.2407 182.809 45.4495 183.227 45.6246C183.644 45.7863 184.062 45.9277 184.48 46.049C184.803 46.1433 185.113 46.2376 185.409 46.3319C185.719 46.4127 185.988 46.5003 186.217 46.5946C186.446 46.6754 186.628 46.7697 186.763 46.8775C186.898 46.9718 186.965 47.0863 186.965 47.221C186.965 47.4231 186.844 47.5781 186.601 47.6858C186.359 47.7801 185.935 47.8273 185.328 47.8273C184.736 47.8273 184.156 47.7262 183.59 47.5242C183.025 47.3221 182.445 47.0459 181.853 46.6956L180.317 48.8377C180.533 48.9818 180.762 49.1184 181.004 49.2475C181.485 49.5045 182.017 49.7316 182.6 49.9289C183.489 50.2253 184.372 50.3735 185.247 50.3735C186.096 50.3735 186.837 50.2927 187.47 50.131C188.117 49.9559 188.656 49.7201 189.087 49.4237C189.532 49.1139 189.862 48.7569 190.077 48.3527ZM184.908 47.0099C184.553 46.9754 184.204 46.8968 183.859 46.7735C183.512 46.6498 183.156 46.4938 182.789 46.3041C182.832 46.323 182.875 46.3415 182.918 46.3597L182.929 46.364L182.939 46.368C183.377 46.5376 183.816 46.6864 184.256 46.8142M184.256 46.8142C184.48 46.8794 184.698 46.9448 184.908 47.0099ZM99.3381 75.808V78.5967H95.8623V64.9361H98.6914L98.9339 65.8657H99.0148C99.0259 65.8557 99.0371 65.8457 99.0484 65.8358C99.2332 65.673 99.4285 65.5251 99.6342 65.3921C99.8537 65.2501 100.085 65.125 100.328 65.0169C100.827 64.8014 101.332 64.6936 101.844 64.6936C102.45 64.6936 103.002 64.8149 103.501 65.0574C103.999 65.2999 104.417 65.6434 104.754 66.088C105.104 66.5325 105.374 67.0714 105.562 67.7046C105.751 68.3378 105.845 69.0451 105.845 69.8264C105.845 70.7021 105.724 71.4768 105.481 72.1504C105.239 72.824 104.915 73.3965 104.511 73.868C104.121 74.3261 103.663 74.6763 103.137 74.9188C102.625 75.1613 102.093 75.2826 101.541 75.2826C101.11 75.2826 100.699 75.195 100.308 75.0199C100.226 74.9832 100.145 74.9432 100.066 74.9C99.7661 74.737 99.4831 74.5278 99.2168 74.2722L99.3381 75.808ZM103.475 75.641C102.86 75.9315 102.213 76.0797 101.541 76.0797C101.054 76.0797 100.584 75.9903 100.135 75.812V79.3938H95.0652V64.139H99.3073L99.4238 64.5859C99.6107 64.4767 99.8043 64.3775 100.005 64.2886L100.012 64.2853C100.604 64.0292 101.217 63.8965 101.844 63.8965C102.559 63.8965 103.233 64.0404 103.85 64.3406C104.459 64.6372 104.973 65.0596 105.385 65.6006C105.804 66.135 106.114 66.7659 106.326 67.4771C106.54 68.1961 106.642 68.9817 106.642 69.8264C106.642 70.7743 106.511 71.6433 106.231 72.4203C105.961 73.171 105.593 73.831 105.117 74.3862C104.656 74.9269 104.107 75.3485 103.475 75.641ZM101.15 71.4307L101.161 71.4163C101.231 71.3201 101.31 71.1606 101.374 70.9062L101.376 70.8954L101.379 70.8846C101.448 70.6389 101.491 70.305 101.491 69.8669C101.491 69.0723 101.362 68.6822 101.253 68.5271L101.247 68.5189L101.241 68.5105C101.169 68.4025 101.069 68.3198 100.793 68.3198C100.633 68.3198 100.501 68.351 100.385 68.4056C100.322 68.4353 100.238 68.4889 100.135 68.5791V71.5519C100.167 71.5665 100.197 71.5778 100.225 71.5862C100.402 71.6349 100.564 71.6564 100.712 71.6564C100.815 71.6564 100.902 71.6395 100.98 71.6095C101.024 71.5837 101.079 71.537 101.14 71.4455L101.15 71.4307ZM101.318 72.3322C101.13 72.4131 100.928 72.4535 100.712 72.4535C100.483 72.4535 100.247 72.4198 100.005 72.3524C99.7759 72.2851 99.5536 72.1571 99.3381 71.9685V68.2502C99.5806 67.9808 99.8163 67.7922 100.045 67.6844C100.274 67.5766 100.524 67.5227 100.793 67.5227C101.292 67.5227 101.662 67.7046 101.905 68.0683C102.16 68.4321 102.288 69.0316 102.288 69.8669C102.288 70.3518 102.241 70.7627 102.147 71.0995C102.066 71.4229 101.952 71.6856 101.803 71.8876C101.669 72.0897 101.507 72.2379 101.318 72.3322ZM107.99 64.139H112.342L112.471 65.1913C112.744 64.9458 113.038 64.7346 113.355 64.5607C114.157 64.1204 115.016 63.8965 115.921 63.8965C116.411 63.8965 116.861 63.9358 117.227 64.0471C117.535 64.1253 117.844 64.2321 118.155 64.3651L118.77 64.629L117.734 69.0176L116.922 68.7703C116.639 68.6842 116.392 68.6264 116.181 68.593L116.156 68.5891L116.132 68.5838C115.966 68.5468 115.725 68.5219 115.396 68.5219C114.985 68.5219 114.556 68.6439 114.097 68.928L114.086 68.9353C113.734 69.1444 113.38 69.5367 113.06 70.2033V75.8372H107.99V64.139ZM112.263 70.0285C112.641 69.1798 113.112 68.587 113.678 68.2502C114.244 67.8999 114.816 67.7248 115.396 67.7248C115.759 67.7248 116.062 67.7518 116.305 67.8056C116.329 67.8095 116.354 67.8137 116.379 67.818C116.615 67.8592 116.874 67.9225 117.154 68.0077C117.154 68.0077 117.154 68.0077 117.154 68.0077L117.841 65.0978C117.558 64.9765 117.282 64.8822 117.012 64.8149C116.756 64.734 116.392 64.6936 115.921 64.6936C115.153 64.6936 114.426 64.8822 113.738 65.2594C113.32 65.4892 112.939 65.804 112.595 66.2037C112.377 66.4574 112.174 66.7453 111.987 67.0675C111.985 67.071 111.982 67.0746 111.98 67.0782H111.9L111.637 64.9361H108.788V75.0401H112.263V70.0285ZM119.349 67.4185C119.684 66.6713 120.134 66.0286 120.705 65.5044C121.265 64.9765 121.906 64.5774 122.624 64.3114C123.346 64.0354 124.095 63.8965 124.865 63.8965C125.622 63.8965 126.357 64.0354 127.066 64.3113C127.795 64.5765 128.443 64.975 129.005 65.5044C129.576 66.0286 130.026 66.6713 130.361 67.4185C130.71 68.196 130.876 69.0576 130.876 69.9881C130.876 70.9186 130.71 71.7802 130.361 72.5577C130.026 73.305 129.577 73.9523 129.009 74.4879L129.001 74.4961C128.44 75.0105 127.794 75.4062 127.07 75.6834L127.061 75.6868C126.353 75.9485 125.62 76.0797 124.865 76.0797C124.099 76.0797 123.354 75.9491 122.634 75.6886L122.624 75.6851L122.615 75.6813C121.904 75.4034 121.268 75.0078 120.709 74.496L120.701 74.488C120.133 73.9523 119.684 73.305 119.349 72.5577L119.343 72.5452C119.011 71.771 118.854 70.9139 118.854 69.9881C118.854 69.0623 119.011 68.2052 119.343 67.431L119.349 67.4185ZM128.462 66.088C127.977 65.6299 127.418 65.2864 126.785 65.0574C126.165 64.8149 125.525 64.6936 124.865 64.6936C124.192 64.6936 123.538 64.8149 122.905 65.0574C122.285 65.2864 121.733 65.6299 121.248 66.088C120.763 66.5325 120.372 67.0849 120.076 67.745C119.793 68.4051 119.652 69.1528 119.652 69.9881C119.652 70.8234 119.793 71.5711 120.076 72.2312C120.372 72.8913 120.763 73.4504 121.248 73.9084C121.733 74.353 122.285 74.6966 122.905 74.9391C123.538 75.1681 124.192 75.2826 124.865 75.2826C125.525 75.2826 126.165 75.1681 126.785 74.9391C127.418 74.6966 127.977 74.353 128.462 73.9084C128.947 73.4504 129.338 72.8913 129.634 72.2312C129.931 71.5711 130.079 70.8234 130.079 69.9881C130.079 69.1528 129.931 68.4051 129.634 67.745C129.338 67.0849 128.947 66.5325 128.462 66.088ZM125.442 68.5582C125.348 68.3895 125.215 68.2794 124.865 68.2794C124.516 68.2794 124.382 68.3895 124.288 68.5582L124.283 68.5671C124.123 68.8451 124.005 69.2955 124.005 69.9881C124.005 70.675 124.121 71.1366 124.285 71.4334C124.374 71.5861 124.508 71.6968 124.865 71.6968C125.223 71.6968 125.356 71.5861 125.445 71.4334C125.609 71.1366 125.725 70.675 125.725 69.9881C125.725 69.2955 125.608 68.8451 125.447 68.5671L125.442 68.5582ZM123.592 71.827C123.336 71.369 123.208 70.756 123.208 69.9881C123.208 69.2202 123.336 68.614 123.592 68.1694C123.848 67.7113 124.272 67.4823 124.865 67.4823C125.458 67.4823 125.882 67.7113 126.138 68.1694C126.394 68.614 126.522 69.2202 126.522 69.9881C126.522 70.756 126.394 71.369 126.138 71.827C125.882 72.2716 125.458 72.4939 124.865 72.4939C124.272 72.4939 123.848 72.2716 123.592 71.827ZM135.123 75.4038C135.298 75.4443 135.5 75.4712 135.729 75.4847C135.958 75.5116 136.268 75.5251 136.659 75.5251H137.669C138.181 75.5251 138.572 75.5588 138.841 75.6261C139.111 75.6935 139.245 75.8619 139.245 76.1313C139.245 76.4142 139.023 76.6365 138.578 76.7982C138.147 76.9733 137.588 77.0609 136.901 77.0609C136.214 77.0609 135.662 76.9868 135.244 76.8386C134.827 76.6904 134.618 76.4546 134.618 76.1313C134.618 75.9831 134.658 75.8551 134.739 75.7474C134.82 75.6396 134.948 75.5251 135.123 75.4038ZM132.557 69.9275C132.68 70.1313 132.816 70.3139 132.965 70.4753C133.113 70.6348 133.272 70.7735 133.445 70.8915C133.478 70.9145 133.512 70.9367 133.547 70.9581V71.0389C133.516 71.06 133.486 71.0815 133.457 71.1034C133.279 71.2344 133.118 71.3782 132.974 71.535C132.866 71.6521 132.767 71.7764 132.678 71.9079C132.449 72.2447 132.334 72.5882 132.334 72.9385C132.334 73.3696 132.429 73.7198 132.617 73.9893C132.662 74.0486 132.708 74.1059 132.756 74.1613C132.913 74.3406 133.09 74.4994 133.288 74.6377C133.307 74.6508 133.326 74.6637 133.345 74.6763V74.7572C133.318 74.7699 133.291 74.7828 133.265 74.7957C133.036 74.9093 132.833 75.0315 132.658 75.1622C132.092 75.5845 131.809 76.0961 131.809 76.6971C131.809 77.1552 131.923 77.5391 132.152 77.849C132.395 78.1723 132.725 78.435 133.143 78.6371C133.56 78.8392 134.038 78.9806 134.577 79.0615C135.13 79.1558 135.722 79.2029 136.356 79.2029C137.299 79.2029 138.147 79.1154 138.902 78.9402C139.67 78.7651 140.323 78.5159 140.862 78.1925C141.401 77.8692 141.812 77.4785 142.095 77.0205C142.391 76.5759 142.539 76.0774 142.539 75.5251C142.539 74.5955 142.175 73.9287 141.448 73.5245C140.721 73.1069 139.683 72.898 138.336 72.898H136.618C136.052 72.898 135.648 72.8576 135.406 72.7768C135.163 72.6825 135.042 72.5208 135.042 72.2918C135.042 72.1436 135.062 72.0358 135.103 71.9685C135.157 71.8876 135.244 71.8001 135.365 71.7058C135.823 71.8001 136.248 71.8472 136.639 71.8472C137.245 71.8472 137.804 71.7866 138.316 71.6654C138.841 71.5306 139.292 71.3286 139.67 71.0591C140.06 70.7897 140.364 70.4461 140.579 70.0285C140.795 69.5974 140.902 69.0855 140.902 68.4927C140.902 68.4069 140.896 68.3223 140.884 68.239C140.868 68.126 140.84 68.0152 140.801 67.9067C140.747 67.7181 140.687 67.5631 140.619 67.4419H142.438V64.9361H138.356C137.844 64.7744 137.272 64.6936 136.639 64.6936C136.046 64.6936 135.48 64.7677 134.941 64.9159C134.416 65.0641 133.944 65.2931 133.526 65.603C133.109 65.8994 132.779 66.2833 132.536 66.7548C132.294 67.2129 132.173 67.7518 132.173 68.3715C132.173 68.9642 132.301 69.4829 132.557 69.9275ZM131.83 66.3862C132.127 65.8096 132.537 65.3293 133.058 64.9579C133.556 64.59 134.113 64.3211 134.725 64.1487L134.73 64.1473C135.341 63.9791 135.979 63.8965 136.639 63.8965C137.292 63.8965 137.906 63.9743 138.474 64.139H143.235V68.239H141.687C141.695 68.3229 141.699 68.4076 141.699 68.4927C141.699 69.1813 141.574 69.8207 141.292 70.385L141.287 70.3941C141.012 70.9274 140.622 71.369 140.128 71.7116C139.892 71.8793 139.637 72.0229 139.366 72.1439C140.332 72.2293 141.169 72.4463 141.84 72.8305C142.851 73.3945 143.336 74.3491 143.336 75.5251C143.336 76.2245 143.147 76.8738 142.766 77.451C142.406 78.0289 141.898 78.5007 141.272 78.876C140.646 79.2517 139.911 79.5275 139.081 79.7168C139.081 79.717 139.08 79.7172 139.079 79.7174L138.902 78.9402L139.081 79.7168C139.081 79.7169 139.082 79.7168 139.081 79.7168C138.257 79.9082 137.346 80 136.356 80C135.686 80 135.051 79.9504 134.451 79.8485C133.849 79.7576 133.294 79.5961 132.795 79.3546C132.28 79.1054 131.844 78.7665 131.515 78.3273L131.511 78.3228C131.163 77.8513 131.012 77.2926 131.012 76.6971C131.012 75.8184 131.425 75.1265 132.084 74.6002C132.048 74.5569 132.013 74.5127 131.979 74.4675L131.972 74.4571L131.964 74.4464C131.656 74.0069 131.537 73.4827 131.537 72.9385C131.537 72.4035 131.715 71.9065 132.019 71.4596C132.127 71.3007 132.245 71.1507 132.374 71.0097C132.189 70.8084 132.023 70.5845 131.875 70.3406L131.87 70.333L131.866 70.3252C131.53 69.7419 131.375 69.0819 131.375 68.3715C131.375 67.6488 131.517 66.9786 131.83 66.3862ZM136.969 67.9286L136.96 67.9204C136.867 67.8326 136.774 67.7944 136.639 67.7944C136.503 67.7944 136.41 67.8326 136.317 67.9204L136.316 67.9213C136.312 67.9248 136.223 68.0103 136.223 68.3715C136.223 68.7225 136.302 68.8427 136.328 68.8734C136.417 68.9538 136.508 68.9889 136.639 68.9889C136.774 68.9889 136.867 68.9508 136.96 68.863C136.983 68.8419 137.074 68.7377 137.074 68.3715C137.074 68.0224 136.985 67.9428 136.978 67.9366L136.969 67.9286ZM135.77 69.4425C135.541 69.2135 135.426 68.8565 135.426 68.3715C135.426 67.8999 135.541 67.5564 135.77 67.3409C136.012 67.1118 136.302 66.9973 136.639 66.9973C136.975 66.9973 137.265 67.1118 137.507 67.3409C137.75 67.5564 137.871 67.8999 137.871 68.3715C137.871 68.8565 137.75 69.2135 137.507 69.4425C137.265 69.6715 136.975 69.786 136.639 69.786C136.302 69.786 136.012 69.6715 135.77 69.4425ZM144.341 64.139H148.693L148.822 65.1913C149.095 64.9458 149.389 64.7346 149.706 64.5607C150.508 64.1204 151.367 63.8965 152.272 63.8965C152.762 63.8965 153.212 63.9358 153.578 64.0471C153.886 64.1253 154.195 64.2321 154.505 64.3651L155.121 64.629L154.085 69.0176L153.272 68.7703C152.989 68.6842 152.743 68.6264 152.531 68.593L152.507 68.5891L152.483 68.5838C152.316 68.5468 152.076 68.5219 151.746 68.5219C151.336 68.5219 150.907 68.6439 150.448 68.928L150.436 68.9353C150.085 69.1444 149.73 69.5367 149.411 70.2033V75.8372H144.341V64.139ZM148.614 70.0285C148.991 69.1798 149.463 68.587 150.028 68.2502C150.594 67.8999 151.167 67.7248 151.746 67.7248C152.11 67.7248 152.413 67.7518 152.656 67.8056C152.68 67.8095 152.705 67.8137 152.73 67.818C152.966 67.8592 153.224 67.9225 153.504 68.0077L154.191 65.0978C153.908 64.9765 153.632 64.8822 153.363 64.8149C153.107 64.734 152.743 64.6936 152.272 64.6936C151.504 64.6936 150.776 64.8822 150.089 65.2594C149.671 65.4892 149.29 65.804 148.946 66.2037C148.728 66.4574 148.525 66.7453 148.337 67.0675C148.335 67.071 148.333 67.0746 148.331 67.0782H148.25L147.987 64.9361H145.138V75.0401H148.614V70.0285ZM155.889 70.2927L155.893 70.2844C156.203 69.7341 156.658 69.2894 157.224 68.9401L155.496 65.7149L156.178 65.3323C156.996 64.873 157.834 64.5183 158.691 64.2712C159.56 64.021 160.456 63.8965 161.377 63.8965C162.157 63.8965 162.885 63.999 163.554 64.2153C164.248 64.4221 164.856 64.7616 165.357 65.2428C165.878 65.7169 166.258 66.3196 166.51 67.0235C166.78 67.728 166.903 68.534 166.903 69.4223V75.8372H162.643L162.502 75.226C162.23 75.3793 161.949 75.5199 161.659 75.6479L161.652 75.6511L161.645 75.6541C160.967 75.9378 160.256 76.0797 159.518 76.0797C158.912 76.0797 158.344 75.9864 157.828 75.7802L157.817 75.776L157.807 75.7715C157.32 75.5605 156.89 75.2773 156.53 74.9166C156.168 74.5552 155.893 74.1322 155.705 73.6543L155.7 73.6427L155.696 73.6309C155.529 73.164 155.448 72.6756 155.448 72.1706C155.448 71.4952 155.585 70.8646 155.884 70.3012L155.889 70.2927ZM162.314 74.4131C162.521 74.2891 162.722 74.1569 162.916 74.0166C162.929 74.0075 162.941 73.9984 162.954 73.9893H163.035L163.277 75.0401H166.106V69.4223C166.106 68.6005 165.992 67.8932 165.763 67.3004C165.547 66.6942 165.23 66.2025 164.813 65.8253C164.409 65.4346 163.91 65.1517 163.317 64.9765C162.738 64.7879 162.091 64.6936 161.377 64.6936C160.529 64.6936 159.707 64.8081 158.912 65.0371C158.36 65.1962 157.815 65.404 157.276 65.6604C157.18 65.706 157.084 65.7531 156.989 65.8018C156.848 65.8736 156.708 65.9488 156.568 66.0273L157.78 68.2906C158.387 68.0077 158.912 67.7989 159.357 67.6642C159.815 67.516 160.259 67.4419 160.69 67.4419C161.256 67.4419 161.701 67.5295 162.024 67.7046C162.042 67.713 162.059 67.7217 162.076 67.7307C162.382 67.8939 162.567 68.1479 162.63 68.4927C162.35 68.509 162.081 68.5284 161.821 68.551C161.007 68.6218 160.293 68.7236 159.68 68.8565C158.872 69.0316 158.212 69.2741 157.7 69.5839C157.201 69.8803 156.831 70.2441 156.588 70.6752C156.359 71.1063 156.245 71.6047 156.245 72.1706C156.245 72.5882 156.312 72.9856 156.447 73.3628C156.595 73.74 156.81 74.0701 157.093 74.353C157.376 74.6359 157.72 74.865 158.124 75.0401C158.528 75.2018 158.993 75.2826 159.518 75.2826C160.152 75.2826 160.758 75.1613 161.337 74.9188C161.677 74.7688 162.002 74.6002 162.314 74.4131ZM161.24 71.4993L161.23 71.5011C160.883 71.5609 160.664 71.6361 160.538 71.703C160.465 71.7416 160.417 71.7748 160.386 71.7995C160.45 71.8102 160.536 71.818 160.65 71.818C160.95 71.818 161.194 71.7646 161.398 71.6734C161.551 71.5962 161.696 71.5144 161.833 71.4284V71.4107C161.611 71.4348 161.418 71.4638 161.251 71.4972L161.24 71.4993ZM161.833 70.6092C161.556 70.637 161.31 70.6725 161.095 70.7156C160.704 70.7829 160.394 70.8773 160.165 70.9985C159.936 71.1197 159.774 71.2545 159.68 71.4027C159.599 71.5508 159.559 71.7125 159.559 71.8876C159.559 72.3726 159.923 72.6151 160.65 72.6151C161.054 72.6151 161.418 72.541 161.741 72.3929C162.065 72.2312 162.361 72.0493 162.63 71.8472V70.554C162.341 70.5666 162.076 70.5849 161.833 70.6092ZM166.999 64.139H171.058L171.111 64.4054C171.604 64.0384 172.219 63.8965 172.868 63.8965C173.48 63.8965 174.031 64.1097 174.476 64.5288C174.542 64.5875 174.605 64.6492 174.663 64.7139C174.709 64.6693 174.756 64.6256 174.804 64.5828C175.337 64.109 176 63.8965 176.728 63.8965C177.713 63.8965 178.514 64.337 179.049 65.1627C179.569 65.9304 179.788 66.9044 179.788 68.0077V75.8372H166.999V64.139ZM171.069 68.4119C171.245 67.8999 171.447 67.644 171.676 67.644C171.945 67.644 172.08 67.8461 172.08 68.2502V75.0401H174.707V68.4119C174.882 67.8999 175.104 67.644 175.374 67.644C175.603 67.644 175.717 67.8461 175.717 68.2502V75.0401H178.991V68.0077C178.991 66.9973 178.789 66.1957 178.385 65.603C177.994 64.9967 177.442 64.6936 176.728 64.6936C176.162 64.6936 175.697 64.8553 175.333 65.1786C175.253 65.2499 175.178 65.3239 175.108 65.4005C174.862 65.671 174.681 65.9743 174.565 66.3103C174.484 65.9158 174.347 65.5936 174.152 65.3434C174.087 65.2603 174.016 65.1852 173.939 65.118C173.643 64.8351 173.286 64.6936 172.868 64.6936C172.262 64.6936 171.797 64.8418 171.474 65.1382C171.41 65.1968 171.349 65.2573 171.29 65.3196C171.059 65.5677 170.873 65.8449 170.734 66.1513C170.731 66.1572 170.728 66.163 170.726 66.1688H170.645L170.403 64.9361H167.796V75.0401H171.069V68.4119Z" fill="black"/>
<path d="M97.0344 18.6294C97.6272 18.9797 98.2065 19.2558 98.7723 19.4579C99.3381 19.66 99.9174 19.761 100.51 19.761C101.116 19.761 101.541 19.7139 101.783 19.6196C102.026 19.5118 102.147 19.3569 102.147 19.1548C102.147 19.0201 102.08 18.9056 101.945 18.8113C101.81 18.7035 101.628 18.6092 101.399 18.5283C101.17 18.434 100.901 18.3465 100.591 18.2656C100.295 18.1713 99.9848 18.077 99.6615 17.9827C99.2438 17.8615 98.8262 17.72 98.4086 17.5584C97.9909 17.3832 97.6137 17.1744 97.2769 16.9319C96.9401 16.6894 96.664 16.4132 96.4484 16.1034C96.2328 15.7801 96.1251 15.4096 96.1251 14.992C96.1251 14.4935 96.2396 14.0422 96.4686 13.638C96.6976 13.2339 97.021 12.8903 97.4386 12.6074C97.8697 12.3245 98.3816 12.109 98.9744 11.9608C99.5672 11.7991 100.234 11.7183 100.975 11.7183C101.931 11.7183 102.78 11.8732 103.521 12.183C104.262 12.4794 104.902 12.796 105.441 13.1328L103.905 15.194C103.434 14.9246 102.962 14.7023 102.491 14.5272C102.019 14.352 101.541 14.2645 101.056 14.2645C100.53 14.2645 100.153 14.3116 99.9242 14.4059C99.6951 14.4868 99.5806 14.6282 99.5806 14.8303C99.5806 14.965 99.6413 15.0795 99.7625 15.1738C99.8972 15.2681 100.072 15.3557 100.288 15.4365C100.517 15.5174 100.773 15.5982 101.056 15.679C101.352 15.7599 101.662 15.8407 101.985 15.9215C102.416 16.0428 102.848 16.1842 103.279 16.3459C103.71 16.4941 104.094 16.6894 104.431 16.9319C104.781 17.1609 105.064 17.4439 105.279 17.7807C105.495 18.104 105.603 18.4947 105.603 18.9527C105.603 19.4242 105.488 19.8688 105.259 20.2864C105.044 20.6906 104.713 21.0476 104.269 21.3575C103.838 21.6538 103.299 21.8896 102.652 22.0647C102.019 22.2264 101.278 22.3072 100.429 22.3072C99.5537 22.3072 98.6713 22.159 97.7821 21.8627C96.9064 21.5663 96.1453 21.2025 95.4986 20.7714L97.0344 18.6294Z" fill="black"/>
<path d="M117.437 22.0647H114.607L114.365 20.731H114.284C113.853 21.216 113.375 21.6 112.849 21.8829C112.337 22.1658 111.724 22.3072 111.01 22.3072C109.879 22.3072 109.064 21.9368 108.565 21.1958C108.067 20.4414 107.818 19.4377 107.818 18.1848V11.9608H111.293V17.7402C111.293 18.3061 111.367 18.717 111.516 18.9729C111.677 19.2289 111.987 19.3569 112.445 19.3569C112.742 19.3569 112.998 19.303 113.213 19.1952C113.442 19.074 113.691 18.8315 113.961 18.4677V11.9608H117.437V22.0647Z" fill="black"/>
<path d="M120.096 8H123.572V11.2737L123.491 12.7287C123.855 12.4053 124.259 12.1561 124.704 11.981C125.148 11.8058 125.599 11.7183 126.057 11.7183C126.664 11.7183 127.216 11.8395 127.715 12.082C128.213 12.3245 128.637 12.668 128.988 13.1126C129.338 13.5572 129.607 14.0961 129.796 14.7293C129.985 15.3624 130.079 16.063 130.079 16.8309C130.079 17.7066 129.958 18.4879 129.715 19.175C129.473 19.8486 129.149 20.4212 128.745 20.8927C128.354 21.3507 127.896 21.701 127.371 21.9435C126.859 22.186 126.327 22.3072 125.775 22.3072C125.317 22.3072 124.865 22.1995 124.421 21.9839C123.976 21.7549 123.558 21.4181 123.168 20.9735H123.087L122.804 22.0647H120.096V8ZM123.572 18.9931C123.787 19.1817 124.01 19.3097 124.239 19.3771C124.481 19.4444 124.717 19.4781 124.946 19.4781C125.162 19.4781 125.364 19.4377 125.552 19.3569C125.741 19.2626 125.903 19.1144 126.037 18.9123C126.185 18.7102 126.3 18.4475 126.381 18.1242C126.475 17.7874 126.522 17.3765 126.522 16.8915C126.522 16.0562 126.394 15.4567 126.138 15.093C125.896 14.7293 125.525 14.5474 125.027 14.5474C124.757 14.5474 124.508 14.6013 124.279 14.709C124.05 14.8168 123.814 15.0054 123.572 15.2749V18.9931Z" fill="black"/>
<path d="M133.385 18.6294C133.978 18.9797 134.557 19.2558 135.123 19.4579C135.689 19.66 136.268 19.761 136.861 19.761C137.467 19.761 137.891 19.7139 138.134 19.6196C138.376 19.5118 138.498 19.3569 138.498 19.1548C138.498 19.0201 138.43 18.9056 138.296 18.8113C138.161 18.7035 137.979 18.6092 137.75 18.5283C137.521 18.434 137.252 18.3465 136.942 18.2656C136.645 18.1713 136.335 18.077 136.012 17.9827C135.594 17.8615 135.177 17.72 134.759 17.5584C134.342 17.3832 133.964 17.1744 133.628 16.9319C133.291 16.6894 133.015 16.4132 132.799 16.1034C132.583 15.7801 132.476 15.4096 132.476 14.992C132.476 14.4935 132.59 14.0422 132.819 13.638C133.048 13.2339 133.372 12.8903 133.789 12.6074C134.22 12.3245 134.732 12.109 135.325 11.9608C135.918 11.7991 136.585 11.7183 137.326 11.7183C138.282 11.7183 139.131 11.8732 139.872 12.183C140.613 12.4794 141.253 12.796 141.792 13.1328L140.256 15.194C139.784 14.9246 139.313 14.7023 138.841 14.5272C138.37 14.352 137.891 14.2645 137.406 14.2645C136.881 14.2645 136.504 14.3116 136.275 14.4059C136.046 14.4868 135.931 14.6282 135.931 14.8303C135.931 14.965 135.992 15.0795 136.113 15.1738C136.248 15.2681 136.423 15.3557 136.639 15.4365C136.868 15.5174 137.124 15.5982 137.406 15.679C137.703 15.7599 138.013 15.8407 138.336 15.9215C138.767 16.0428 139.198 16.1842 139.629 16.3459C140.06 16.4941 140.444 16.6894 140.781 16.9319C141.131 17.1609 141.414 17.4439 141.63 17.7807C141.845 18.104 141.953 18.4947 141.953 18.9527C141.953 19.4242 141.839 19.8688 141.61 20.2864C141.394 20.6906 141.064 21.0476 140.62 21.3575C140.188 21.6538 139.65 21.8896 139.003 22.0647C138.37 22.2264 137.629 22.3072 136.78 22.3072C135.904 22.3072 135.022 22.159 134.133 21.8627C133.257 21.5663 132.496 21.2025 131.849 20.7714L133.385 18.6294Z" fill="black"/>
<path d="M146.31 14.6686H143.885V12.082L146.472 11.9608L146.917 9.33373H149.786V11.9608H153.787V14.6686H149.786V17.72C149.786 18.4475 149.948 18.946 150.271 19.2154C150.608 19.4714 151.1 19.5994 151.746 19.5994C152.096 19.5994 152.42 19.5724 152.716 19.5185C153.026 19.4512 153.316 19.3703 153.585 19.276L154.191 21.7818C153.747 21.9031 153.248 22.0176 152.696 22.1254C152.144 22.2466 151.524 22.3072 150.837 22.3072C150.002 22.3072 149.294 22.1995 148.715 21.9839C148.149 21.7684 147.684 21.4652 147.321 21.0746C146.97 20.6704 146.714 20.1921 146.553 19.6398C146.391 19.074 146.31 18.4543 146.31 17.7807V14.6686Z" fill="black"/>
<path d="M157.255 11.9608H160.104L160.367 14.1028H160.448C160.933 13.2675 161.519 12.6613 162.206 12.2841C162.893 11.9069 163.621 11.7183 164.389 11.7183C164.86 11.7183 165.224 11.7587 165.48 11.8395C165.749 11.9069 166.025 12.0012 166.308 12.1224L165.621 15.0324C165.311 14.9381 165.028 14.8707 164.772 14.8303C164.53 14.7764 164.227 14.7495 163.863 14.7495C163.284 14.7495 162.711 14.9246 162.145 15.2749C161.58 15.6117 161.108 16.2044 160.731 17.0532V22.0647H157.255V11.9608Z" fill="black"/>
<path d="M168.362 19.1952C168.362 18.6294 168.476 18.1309 168.705 17.6998C168.948 17.2687 169.318 16.905 169.817 16.6086C170.328 16.2987 170.989 16.0562 171.797 15.8811C172.605 15.706 173.589 15.5847 174.747 15.5174C174.68 15.1536 174.478 14.8909 174.141 14.7293C173.818 14.5541 173.373 14.4665 172.807 14.4665C172.376 14.4665 171.932 14.5406 171.474 14.6888C171.029 14.8236 170.504 15.0324 169.897 15.3153L168.685 13.052C169.453 12.6209 170.234 12.2908 171.029 12.0618C171.824 11.8328 172.646 11.7183 173.494 11.7183C174.208 11.7183 174.855 11.8126 175.434 12.0012C176.027 12.1763 176.526 12.4592 176.93 12.8499C177.347 13.2271 177.664 13.7189 177.88 14.3251C178.109 14.9179 178.223 15.6251 178.223 16.4469V22.0647H175.394L175.151 21.0139H175.071C174.572 21.3777 174.033 21.6875 173.454 21.9435C172.875 22.186 172.268 22.3072 171.635 22.3072C171.11 22.3072 170.645 22.2264 170.241 22.0647C169.837 21.8896 169.493 21.6606 169.21 21.3777C168.927 21.0948 168.712 20.7647 168.564 20.3875C168.429 20.0103 168.362 19.6128 168.362 19.1952ZM171.676 18.9123C171.676 19.3973 172.039 19.6398 172.767 19.6398C173.171 19.6398 173.535 19.5657 173.858 19.4175C174.181 19.2558 174.478 19.074 174.747 18.8719V17.5786C174.128 17.6055 173.616 17.6594 173.211 17.7402C172.821 17.8076 172.511 17.9019 172.282 18.0232C172.053 18.1444 171.891 18.2791 171.797 18.4273C171.716 18.5755 171.676 18.7372 171.676 18.9123Z" fill="black"/>
<path d="M182.661 14.6686H180.236V12.082L182.823 11.9608L183.267 9.33373H186.137V11.9608H190.138V14.6686H186.137V17.72C186.137 18.4475 186.298 18.946 186.622 19.2154C186.958 19.4714 187.45 19.5994 188.097 19.5994C188.447 19.5994 188.77 19.5724 189.067 19.5185C189.377 19.4512 189.666 19.3703 189.936 19.276L190.542 21.7818C190.097 21.9031 189.599 22.0176 189.047 22.1254C188.494 22.2466 187.875 22.3072 187.188 22.3072C186.352 22.3072 185.645 22.1995 185.066 21.9839C184.5 21.7684 184.035 21.4652 183.671 21.0746C183.321 20.6704 183.065 20.1921 182.903 19.6398C182.742 19.074 182.661 18.4543 182.661 17.7807V14.6686Z" fill="black"/>
<path d="M192.515 17.0128C192.515 16.191 192.663 15.45 192.959 14.7899C193.255 14.1297 193.646 13.5774 194.131 13.1328C194.63 12.6748 195.195 12.3245 195.829 12.082C196.475 11.8395 197.135 11.7183 197.809 11.7183C198.604 11.7183 199.298 11.8462 199.89 12.1022C200.497 12.3582 201.002 12.7085 201.406 13.153C201.81 13.5976 202.113 14.1163 202.315 14.709C202.517 15.3018 202.618 15.935 202.618 16.6086C202.618 16.9184 202.598 17.2081 202.558 17.4775C202.531 17.747 202.504 17.9423 202.477 18.0636H196.071C196.125 18.3734 196.233 18.6361 196.394 18.8517C196.556 19.0538 196.751 19.2154 196.98 19.3367C197.223 19.4579 197.486 19.5455 197.769 19.5994C198.052 19.6533 198.348 19.6802 198.658 19.6802C199.062 19.6802 199.453 19.6331 199.83 19.5387C200.22 19.431 200.638 19.276 201.083 19.074L202.214 21.1352C201.608 21.5259 200.941 21.8222 200.214 22.0243C199.486 22.2129 198.806 22.3072 198.173 22.3072C197.378 22.3072 196.63 22.1927 195.93 21.9637C195.243 21.7212 194.643 21.3777 194.131 20.9331C193.633 20.475 193.235 19.916 192.939 19.2558C192.656 18.5957 192.515 17.848 192.515 17.0128ZM199.466 15.8003C199.466 15.3961 199.352 15.0526 199.123 14.7697C198.893 14.4868 198.483 14.3453 197.89 14.3453C197.459 14.3453 197.068 14.4598 196.718 14.6888C196.381 14.9044 196.152 15.2749 196.031 15.8003H199.466Z" fill="black"/>
<path fill-rule="evenodd" clip-rule="evenodd" d="M48.5168 14.1127C49.1781 15.236 49.0943 16.7443 48.4372 18.2884L48.3287 18.5434L44.5737 20.7174L44.4866 20.7449C43.666 21.004 43.3312 21.5741 43.3267 22.1443C43.3219 22.741 43.6847 23.5054 44.6335 24.045L55.0747 29.4976L71.1206 20.5568L71.2329 20.5302C72.6388 20.1972 73.9381 20.5884 74.6844 21.6639C75.4003 22.6956 75.4574 24.1455 74.9202 25.6564L74.8189 25.9415L63.5461 32.5581C63.2278 32.8743 63.1445 33.2454 63.192 33.6441C63.2393 34.0414 63.4179 34.4284 63.6037 34.6892L74.8001 41.2609L74.9064 41.5208C75.2269 42.3043 75.4481 43.495 75.4878 44.7404C75.5276 45.9903 75.3881 47.3963 74.9088 48.5945L74.8039 48.8569L63.4431 55.5869L63.4166 55.6002C63.3164 55.6503 63.1244 55.8881 63.1934 56.5575C63.2229 56.8436 63.2974 57.1247 63.3886 57.3441C63.4615 57.5196 63.5198 57.5965 63.5337 57.6166L74.604 64.1746L74.6439 64.2053C74.9193 64.4171 75.0715 64.7168 75.1613 64.9474C75.2583 65.1963 75.3251 65.4779 75.3724 65.7616C75.4673 66.3313 75.4999 67.011 75.4881 67.6819C75.4762 68.3563 75.4188 69.0509 75.3225 69.657C75.2311 70.2325 75.0901 70.8282 74.8637 71.2357L74.7565 71.4287L65.6355 76.9509L65.5581 76.9789C63.7496 77.633 62.1311 76.8728 61.327 75.6119C60.5284 74.3598 60.5224 72.5827 61.8725 71.312L61.9306 71.2574L66.1153 68.6111L66.134 68.6007C66.2011 68.5629 66.3691 68.3646 66.3443 67.8504C66.3222 67.3927 66.1565 67.0494 66.0415 66.9205L55.0754 60.4563L38.688 69.567L38.5712 69.5932C37.0574 69.9338 35.6858 69.3859 34.8884 68.3463C34.0913 67.307 33.9186 65.8421 34.6396 64.4761L34.7511 64.2648L46.1766 57.6405C46.7894 56.9106 46.6794 55.9454 46.2171 55.5302L34.8245 48.4402L34.7401 48.3404C34.5584 48.1257 34.4458 47.8652 34.3705 47.6378C34.2914 47.3989 34.2328 47.1319 34.1892 46.8572C34.102 46.3074 34.0648 45.6627 34.0688 45.0179C34.0727 44.3709 34.1183 43.7019 34.2043 43.0998C34.2881 42.5131 34.4183 41.9309 34.618 41.4916L34.7287 41.2481L46.1274 34.6999C46.4916 34.1452 46.6003 33.7839 46.6003 33.5163C46.6003 33.2654 46.504 32.963 46.1514 32.5205L35.0416 25.5473C34.8893 25.4915 34.7686 25.404 34.6823 25.3214C34.5474 25.1924 34.461 25.0451 34.4056 24.9318C34.2938 24.7035 34.221 24.4307 34.1695 24.1726C34.0638 23.6417 34.0089 22.9611 34.001 22.283C33.9931 21.6021 34.0321 20.8823 34.13 20.2696C34.1789 19.9642 34.2456 19.6642 34.338 19.4004C34.4228 19.1581 34.562 18.8481 34.8109 18.6183L34.8759 18.5582L44.801 12.7019L44.9654 12.6789C46.488 12.4665 47.8231 12.9345 48.5168 14.1127ZM45.3526 14.3063C46.3207 14.2108 46.8416 14.5435 47.0845 14.956C47.3535 15.413 47.4445 16.2309 47.0083 17.3872L43.8944 19.19C42.481 19.6736 41.6749 20.8302 41.6646 22.1311C41.6543 23.431 42.4341 24.7126 43.828 25.499L43.8397 25.5056L55.1002 31.3861L71.7221 22.1244C72.5442 21.9604 73.0515 22.2263 73.3188 22.6115C73.6032 23.0214 73.7562 23.7668 73.445 24.8206L62.5516 31.2145L62.489 31.2709C61.6468 32.0288 61.4409 32.9954 61.5415 33.8406C61.6382 34.6526 62.0154 35.3876 62.4065 35.8569L62.4993 35.9682L73.459 42.4011C73.6427 42.968 73.7958 43.8283 73.8265 44.7933C73.8588 45.8074 73.753 46.8544 73.4598 47.7212L62.6436 54.1286C61.5658 54.6891 61.4591 55.9426 61.5401 56.728C61.5859 57.1729 61.6998 57.6114 61.8536 57.9816C61.9919 58.3147 62.2178 58.7285 62.5684 58.9739L62.5942 58.992L73.595 65.5087C73.6001 65.52 73.606 65.5339 73.6125 65.5506C73.6533 65.6554 73.6963 65.8156 73.7328 66.0349C73.8055 66.4712 73.837 67.0423 73.8262 67.6525C73.8155 68.2592 73.7636 68.8757 73.681 69.3962C73.619 69.7864 73.5469 70.0738 73.4835 70.2564L64.9203 75.4409C63.9292 75.7667 63.135 75.3558 62.7283 74.7181C62.317 74.0732 62.3121 73.2256 62.9592 72.5735L66.97 70.0373C67.8493 69.5282 68.0397 68.5012 68.0045 67.7704C67.9684 67.0219 67.6835 66.1205 67.0734 65.6121L67.0216 65.5689L55.0995 58.5411L38.0969 67.9938C37.2512 68.1465 36.5844 67.8264 36.2073 67.3347C35.8469 66.8648 35.7086 66.1831 36.014 65.4539L47.2299 58.9511L47.3132 58.8626C48.532 57.5676 48.6528 55.3662 47.232 54.2118L47.1915 54.1789L35.9801 47.2016C35.9709 47.1792 35.9601 47.1507 35.9484 47.1153C35.9062 46.988 35.8654 46.8147 35.8308 46.5967C35.7617 46.1613 35.7273 45.6116 35.7309 45.0281C35.7345 44.4468 35.7756 43.8536 35.8497 43.3348C35.9046 42.9508 35.9734 42.6374 36.0456 42.4084L47.2837 35.9525L47.3902 35.7994C47.9088 35.0539 48.2624 34.3103 48.2624 33.5163C48.2624 32.7 47.8907 32.0029 47.3437 31.3533L47.2599 31.2538L35.8611 24.0993C35.843 24.0404 35.8216 23.9579 35.7997 23.8479C35.7208 23.452 35.6702 22.8816 35.663 22.2637C35.6559 21.6484 35.6922 21.0269 35.7713 20.5319C35.8111 20.2834 35.8583 20.088 35.9067 19.9496C35.9206 19.9101 35.9327 19.8805 35.9424 19.8589L45.3526 14.3063ZM55.0998 35.7519L66.4253 42.4842L66.48 42.5312C67.2776 43.2162 67.9854 43.9854 68.0042 44.974C68.0227 45.9495 67.3618 46.7948 66.5181 47.6156L66.4388 47.6927L54.5372 54.3047L43.0517 47.6785L42.9677 47.5891C42.1858 46.7573 41.5965 45.9208 41.6129 44.9754C41.6296 44.0164 42.2623 43.2527 43.0043 42.5559L43.0784 42.4864L55.0998 35.7519ZM44.07 43.836C43.4096 44.4699 43.2784 44.7967 43.2748 45.0042C43.271 45.2242 43.4037 45.6077 44.0968 46.3625L54.5526 52.3947L65.4365 46.3481C66.2148 45.5755 66.346 45.1978 66.3423 45.0055C66.3389 44.8243 66.2073 44.4978 65.4506 43.8385L55.0751 37.6708L44.07 43.836Z" fill="black"/>
</svg>
