<svg width="236" height="80" viewBox="0 0 236 80" fill="none" xmlns="http://www.w3.org/2000/svg">
<path fill-rule="evenodd" clip-rule="evenodd" d="M94.2881 31.3687H99.3765V35.4368C99.3907 35.4311 99.4049 35.4254 99.4191 35.4198C99.9546 35.2089 100.507 35.1005 101.071 35.1005C101.789 35.1005 102.465 35.2449 103.084 35.5462C103.695 35.8435 104.216 36.2659 104.64 36.8048C105.064 37.3425 105.377 37.9777 105.59 38.6941C105.805 39.4146 105.907 40.196 105.907 41.0318C105.907 41.9836 105.776 42.8603 105.497 43.6507L105.495 43.6554C105.224 44.4088 104.854 45.0713 104.377 45.6284C103.913 46.1711 103.363 46.5942 102.728 46.8878C102.111 47.1794 101.462 47.3281 100.787 47.3281C100.197 47.3281 99.6256 47.1883 99.0794 46.9235L99.0706 46.9192L99.062 46.9148C98.8856 46.8239 98.7147 46.7204 98.5493 46.6049L98.4249 47.0847H94.2881V31.3687ZM98.0898 45.1895H98.1709C98.1789 45.1987 98.187 45.2078 98.195 45.2168C98.3796 45.4241 98.57 45.6076 98.7664 45.7672C98.98 45.9409 99.2007 46.0863 99.4284 46.2036C99.8746 46.4199 100.328 46.5281 100.787 46.5281C101.342 46.5281 101.876 46.4064 102.39 46.163C102.917 45.9197 103.377 45.5681 103.769 45.1084C104.174 44.6351 104.499 44.0605 104.742 43.3844C104.986 42.6949 105.107 41.9106 105.107 41.0318C105.107 40.2611 105.013 39.558 104.823 38.9225C104.634 38.287 104.364 37.7461 104.012 37.2999C103.66 36.8537 103.235 36.5089 102.734 36.2656C102.234 36.0222 101.68 35.9005 101.071 35.9005C100.611 35.9005 100.159 35.9884 99.7123 36.1642C99.5809 36.2159 99.453 36.2741 99.3286 36.3388C99.0307 36.4937 98.753 36.6856 98.4954 36.9146L98.5765 35.4543V32.1687H95.0881V46.2847H97.8058L98.0898 45.1895ZM100.395 42.6621L100.406 42.6477C100.477 42.5512 100.556 42.391 100.62 42.1358L100.622 42.1249L100.625 42.1141C100.694 41.8675 100.738 41.5324 100.738 41.0926C100.738 40.2952 100.608 39.9036 100.498 39.7479L100.492 39.7397L100.487 39.7313C100.414 39.6229 100.313 39.5399 100.037 39.5399C99.8764 39.5399 99.7435 39.5712 99.627 39.626C99.5636 39.6559 99.4796 39.7096 99.3765 39.8002V42.7838C99.4085 42.7985 99.4385 42.8098 99.4666 42.8183C99.6445 42.8671 99.8068 42.8887 99.9557 42.8887C100.058 42.8887 100.146 42.8717 100.224 42.8416C100.269 42.8157 100.324 42.7689 100.385 42.677L100.395 42.6621ZM100.564 43.567C100.375 43.6481 100.172 43.6887 99.9557 43.6887C99.7258 43.6887 99.4892 43.6549 99.2458 43.5873C99.016 43.5197 98.7929 43.3912 98.5765 43.2019V39.4701C98.8199 39.1997 99.0565 39.0104 99.2864 38.9022C99.5163 38.794 99.7664 38.7399 100.037 38.7399C100.537 38.7399 100.909 38.9225 101.152 39.2875C101.409 39.6526 101.538 40.2543 101.538 41.0926C101.538 41.5794 101.49 41.9918 101.396 42.3298C101.315 42.6543 101.2 42.918 101.051 43.1208C100.916 43.3236 100.753 43.4723 100.564 43.567ZM117.541 47.0847H113.234L113.116 46.434C112.924 46.57 112.726 46.6936 112.52 46.8045C111.865 47.1654 111.112 47.3281 110.291 47.3281C108.97 47.3281 107.862 46.8829 107.174 45.8592L107.17 45.8536C106.556 44.9242 106.287 43.7465 106.287 42.3906V35.3439H111.375V41.9444C111.375 42.3937 111.429 42.6311 111.47 42.7354C111.507 42.7482 111.587 42.767 111.731 42.767C111.925 42.767 112.052 42.7331 112.135 42.6937C112.193 42.6609 112.3 42.5765 112.453 42.3973V35.3439H117.541V47.0847ZM113.253 42.6746C112.982 43.0397 112.732 43.283 112.502 43.4047C112.286 43.5129 112.029 43.567 111.731 43.567C111.272 43.567 110.961 43.4385 110.798 43.1816C110.65 42.9247 110.575 42.5123 110.575 41.9444V36.1439H107.087V42.3906C107.087 43.6481 107.337 44.6554 107.837 45.4126C108.338 46.1563 109.156 46.5281 110.291 46.5281C111.008 46.5281 111.623 46.3861 112.137 46.1022C112.424 45.9479 112.696 45.7637 112.955 45.5495C113.166 45.3743 113.369 45.179 113.561 44.9637C113.567 44.9579 113.572 44.952 113.577 44.9461H113.658L113.902 46.2847H116.741V36.1439H113.253V42.6746ZM118.813 35.3439H123.557C123.346 35.2367 123.147 35.1033 122.961 34.9421L122.956 34.9373L122.951 34.9325C122.35 34.3895 122.058 33.6733 122.058 32.8582C122.058 32.0455 122.348 31.3311 122.945 30.7887C123.532 30.2428 124.268 29.9895 125.089 29.9895C125.91 29.9895 126.647 30.2429 127.233 30.7888C127.83 31.3312 128.12 32.0455 128.12 32.8582C128.12 33.6733 127.829 34.3895 127.228 34.9325L127.222 34.9373L127.217 34.9421C127.032 35.1033 126.833 35.2367 126.621 35.3439H127.755V47.0847H122.667V39.6616H118.813V35.3439ZM123.467 38.8616V46.2847H126.955V36.1439H119.613V38.8616H123.467ZM126.691 31.3777C126.272 30.9856 125.738 30.7895 125.089 30.7895C124.44 30.7895 123.906 30.9856 123.487 31.3777C123.068 31.7563 122.858 32.2498 122.858 32.8582C122.858 33.4667 123.068 33.9602 123.487 34.3388C123.906 34.7039 124.44 34.8864 125.089 34.8864C125.738 34.8864 126.272 34.7039 126.691 34.3388C127.111 33.9602 127.32 33.4667 127.32 32.8582C127.32 32.2498 127.111 31.7563 126.691 31.3777ZM130.569 31.3687H138.415V42.2284C138.415 42.4489 138.452 42.5582 138.473 42.6008C138.52 42.6943 138.567 42.7587 138.61 42.8035C138.667 42.8412 138.728 42.8711 138.794 42.8938C138.919 42.9183 139.033 42.9292 139.136 42.9292C139.44 42.9292 139.837 42.8595 140.338 42.6882L141.129 42.4182L142.339 46.5385L141.577 46.767C141.304 46.8489 141.044 46.9243 140.796 46.9931C140.537 47.0693 140.27 47.1299 139.998 47.1753C139.736 47.219 139.462 47.255 139.176 47.2836C138.874 47.3137 138.55 47.3281 138.204 47.3281C137.443 47.3281 136.739 47.2064 136.108 46.9409L136.101 46.9379C135.505 46.68 134.986 46.3198 134.555 45.8556L134.545 45.8447L134.535 45.8336C134.121 45.3533 133.815 44.791 133.609 44.159L133.607 44.1504L133.604 44.1416C133.416 43.5146 133.327 42.834 133.327 42.1067V35.6864H130.569V31.3687ZM134.127 34.8864V42.1067C134.127 42.7692 134.208 43.3709 134.37 43.9118C134.546 44.4526 134.803 44.9191 135.141 45.3112C135.493 45.6898 135.918 45.9873 136.419 46.2036C136.933 46.4199 137.527 46.5281 138.204 46.5281C138.528 46.5281 138.825 46.5146 139.096 46.4875C139.366 46.4605 139.623 46.4267 139.867 46.3861C140.11 46.3456 140.347 46.2915 140.576 46.2239C140.577 46.2237 140.578 46.2235 140.579 46.2233C140.672 46.1974 140.766 46.1707 140.863 46.1429C141.019 46.0981 141.181 46.0507 141.347 46.0008L140.597 43.4453C140.4 43.5124 140.212 43.5676 140.033 43.6109C139.706 43.6898 139.407 43.7292 139.136 43.7292C138.961 43.7292 138.778 43.709 138.589 43.6684C138.413 43.6143 138.251 43.5332 138.102 43.425C137.967 43.3033 137.852 43.1478 137.757 42.9585C137.663 42.7692 137.615 42.5259 137.615 42.2284V32.1687H131.369V34.8864H134.127ZM150.223 45.3518H150.142C150.132 45.3614 150.122 45.371 150.112 45.3805C149.933 45.5564 149.738 45.715 149.527 45.8563C149.333 45.9868 149.125 46.1026 148.904 46.2036C148.445 46.4199 147.985 46.5281 147.525 46.5281C146.876 46.5281 146.288 46.4064 145.761 46.163C145.247 45.9197 144.807 45.5681 144.442 45.1084C144.077 44.6487 143.793 44.0943 143.591 43.4453C143.388 42.7828 143.286 42.0391 143.286 41.2143C143.286 40.3895 143.408 39.6458 143.651 38.9833C143.895 38.3208 144.212 37.7664 144.605 37.3202C144.997 36.8605 145.45 36.5089 145.963 36.2656C146.477 36.0222 146.998 35.9005 147.525 35.9005C148.093 35.9005 148.56 35.9951 148.925 36.1844C148.978 36.2099 149.03 36.2369 149.082 36.2652C149.387 36.4323 149.673 36.6487 149.939 36.9146L149.817 35.4543V32.1687H153.305V46.2847H150.466L150.223 45.3518ZM149.739 46.6684C149.579 46.7634 149.413 46.8504 149.241 46.9293C148.687 47.1893 148.113 47.3281 147.525 47.3281C146.774 47.3281 146.07 47.1867 145.425 46.8894L145.418 46.8861C144.79 46.5885 144.255 46.1583 143.816 45.6059C143.381 45.0579 143.055 44.4123 142.827 43.6839L142.826 43.6795C142.596 42.9282 142.486 42.1038 142.486 41.2143C142.486 40.3109 142.62 39.4719 142.9 38.7075C143.171 37.9714 143.533 37.3285 144 36.7965C144.46 36.2585 145.001 35.8365 145.621 35.5426C146.233 35.2525 146.87 35.1005 147.525 35.1005C148.062 35.1005 148.568 35.1737 149.017 35.3495V31.3687H154.105V47.0847H149.848L149.739 46.6684ZM148.929 39.6049C148.796 39.5632 148.647 39.5399 148.478 39.5399C148.305 39.5399 148.135 39.6003 147.941 39.819C147.818 39.9571 147.656 40.3327 147.656 41.1737C147.656 42.0505 147.792 42.4807 147.908 42.649C148.03 42.8076 148.177 42.8887 148.438 42.8887C148.626 42.8887 148.76 42.8586 148.856 42.8186C148.895 42.7991 148.95 42.7611 149.017 42.6883V39.6363C148.991 39.6248 148.966 39.6158 148.942 39.6088L148.929 39.6049ZM149.817 39.2267V42.9585C149.628 43.2425 149.418 43.4385 149.188 43.5467C148.972 43.6413 148.722 43.6887 148.438 43.6887C147.938 43.6887 147.545 43.4994 147.262 43.1208C146.991 42.7422 146.856 42.0932 146.856 41.1737C146.856 40.2813 147.018 39.6526 147.343 39.2875C147.667 38.9225 148.046 38.7399 148.478 38.7399C148.722 38.7399 148.952 38.7737 149.168 38.8413C149.398 38.9089 149.614 39.0374 149.817 39.2267ZM158.65 35.5185L158.655 35.5165C159.391 35.2403 160.149 35.1005 160.923 35.1005C161.804 35.1005 162.612 35.2421 163.326 35.55C164.03 35.8476 164.635 36.2631 165.126 36.8024C165.608 37.333 165.967 37.9499 166.203 38.644C166.437 39.3282 166.551 40.0514 166.551 40.8087C166.551 41.1468 166.529 41.4709 166.484 41.7796C166.457 42.0456 166.427 42.2751 166.389 42.4425L166.25 43.0689H165.004L166.405 45.6203L165.778 46.0242C165.099 46.462 164.355 46.7916 163.551 47.015L163.538 47.0187C162.754 47.2219 162.003 47.3281 161.289 47.3281C160.413 47.3281 159.578 47.2018 158.789 46.9437L158.78 46.9408L158.771 46.9377C157.994 46.6634 157.303 46.2699 156.708 45.753L156.699 45.7456L156.691 45.738C156.105 45.1999 155.645 44.5479 155.306 43.7932L155.3 43.7808C154.967 43.0037 154.81 42.1435 154.81 41.2143C154.81 40.2919 154.976 39.4343 155.326 38.6556C155.663 37.9041 156.117 37.2578 156.691 36.7312C157.266 36.203 157.92 35.7979 158.65 35.5185ZM157.232 37.3202C156.745 37.7664 156.353 38.3208 156.056 38.9833C155.758 39.6458 155.61 40.3895 155.61 41.2143C155.61 42.0526 155.752 42.803 156.036 43.4656C156.333 44.1281 156.732 44.6892 157.232 45.149C157.746 45.5951 158.348 45.9399 159.037 46.1833C159.74 46.4132 160.491 46.5281 161.289 46.5281C161.924 46.5281 162.607 46.4335 163.337 46.2442C164.067 46.0413 164.736 45.7439 165.345 45.3518L164.209 43.283C163.763 43.4859 163.344 43.6413 162.952 43.7495C162.573 43.8442 162.181 43.8915 161.775 43.8915C161.464 43.8915 161.167 43.8644 160.883 43.8104C160.599 43.7563 160.335 43.6684 160.092 43.5467C159.865 43.4268 159.672 43.2676 159.511 43.0689C159.509 43.066 159.506 43.0629 159.504 43.0599C159.341 42.8436 159.233 42.5799 159.179 42.2689H165.609C165.636 42.1473 165.663 41.9512 165.69 41.6808C165.73 41.4104 165.751 41.1197 165.751 40.8087C165.751 40.1326 165.649 39.4971 165.446 38.9022C165.243 38.3073 164.939 37.7867 164.534 37.3405C164.128 36.8943 163.621 36.5427 163.012 36.2858C162.418 36.0289 161.721 35.9005 160.923 35.9005C160.247 35.9005 159.585 36.0222 158.936 36.2656C158.3 36.5089 157.732 36.8605 157.232 37.3202ZM162.214 43.0689H161.335C161.476 43.0838 161.623 43.0915 161.775 43.0915C161.924 43.0915 162.071 43.0839 162.214 43.0689ZM159.139 39.9974C159.214 39.6712 159.331 39.4046 159.489 39.1974C159.586 39.0696 159.699 38.9644 159.828 38.8819C160.18 38.652 160.572 38.5371 161.005 38.5371C161.6 38.5371 162.012 38.6791 162.242 38.963C162.302 39.037 162.354 39.1151 162.398 39.1974C162.524 39.4308 162.587 39.6975 162.587 39.9974H159.139ZM168.066 35.3439H172.434L172.563 36.3999C172.837 36.1536 173.132 35.9417 173.45 35.7671C174.255 35.3251 175.117 35.1005 176.025 35.1005C176.517 35.1005 176.969 35.1399 177.337 35.2516C177.645 35.3302 177.956 35.4373 178.267 35.5708L178.885 35.8356L177.845 40.2403L177.03 39.992C176.746 39.9056 176.499 39.8477 176.286 39.8141L176.261 39.8102L176.237 39.8048C176.07 39.7678 175.829 39.7427 175.498 39.7427C175.087 39.7427 174.656 39.8652 174.195 40.1503L174.183 40.1576C173.831 40.3675 173.475 40.7613 173.154 41.4303V47.0847H168.066V35.3439ZM172.354 41.2549C172.733 40.403 173.206 39.8081 173.774 39.4701C174.342 39.1185 174.917 38.9427 175.498 38.9427C175.863 38.9427 176.167 38.9698 176.411 39.0239C176.435 39.0278 176.46 39.0319 176.486 39.0363C176.722 39.0777 176.981 39.1411 177.263 39.2267L177.952 36.3061C177.668 36.1844 177.391 36.0898 177.121 36.0222C176.864 35.9411 176.499 35.9005 176.025 35.9005C175.255 35.9005 174.525 36.0898 173.835 36.4684C173.415 36.699 173.033 37.0149 172.688 37.4161C172.469 37.6707 172.265 37.9597 172.077 38.283C172.075 38.2866 172.073 38.2902 172.07 38.2937H171.989L171.726 36.1439H168.866V46.2847H172.354V41.2549ZM181.165 41.7804C180.762 41.4897 180.42 41.15 180.147 40.7585L180.143 40.752L180.138 40.7454C179.828 40.2795 179.679 39.7509 179.679 39.1861C179.679 38.558 179.825 37.9675 180.128 37.4328C180.424 36.9111 180.837 36.4775 181.349 36.1306L181.359 36.124C181.877 35.784 182.474 35.5364 183.137 35.3698C183.811 35.187 184.55 35.1005 185.347 35.1005C186.391 35.1005 187.349 35.2693 188.205 35.6265C188.98 35.9367 189.665 36.2741 190.253 36.6418L190.99 37.102L188.727 40.1384C188.916 40.2392 189.096 40.3508 189.268 40.4736C189.701 40.7594 190.061 41.1178 190.337 41.5478C190.653 42.0243 190.792 42.5752 190.792 43.1613C190.792 43.7689 190.643 44.3458 190.351 44.8805C190.065 45.4146 189.64 45.862 189.11 46.2312L189.106 46.2341C188.582 46.5948 187.952 46.8638 187.24 47.0569L187.228 47.0599C186.512 47.2428 185.699 47.3281 184.799 47.3281C183.829 47.3281 182.858 47.1636 181.89 46.8409L181.886 46.8397C180.953 46.5239 180.124 46.1303 179.407 45.6523L178.718 45.1932L181.165 41.7804ZM189.647 44.4999C189.877 44.0808 189.992 43.6346 189.992 43.1613C189.992 42.7016 189.883 42.3095 189.667 41.985C189.451 41.647 189.167 41.363 188.815 41.1332C188.477 40.8898 188.092 40.6937 187.659 40.545C187.227 40.3828 186.794 40.2408 186.361 40.1191C186.037 40.038 185.726 39.9568 185.428 39.8757C185.144 39.7946 184.887 39.7135 184.657 39.6323C184.441 39.5512 184.265 39.4633 184.13 39.3687C184.008 39.274 183.948 39.1591 183.948 39.0239C183.948 38.8211 184.063 38.6791 184.292 38.598C184.522 38.5033 184.901 38.456 185.428 38.456C185.915 38.456 186.395 38.5439 186.868 38.7197C187.341 38.8954 187.815 39.1185 188.288 39.3889L189.829 37.3202C189.612 37.1844 189.378 37.0518 189.128 36.9225C188.756 36.73 188.347 36.5449 187.903 36.367C187.159 36.056 186.307 35.9005 185.347 35.9005C184.603 35.9005 183.934 35.9816 183.339 36.1439C182.744 36.2926 182.23 36.5089 181.798 36.7929C181.379 37.0768 181.054 37.4216 180.824 37.8273C180.594 38.2329 180.479 38.6858 180.479 39.1861C180.479 39.6053 180.588 39.9771 180.804 40.3016C181.02 40.6126 181.297 40.8898 181.636 41.1332C181.974 41.3766 182.352 41.5861 182.771 41.7619C183.19 41.9242 183.61 42.0661 184.029 42.1878C184.353 42.2825 184.664 42.3771 184.962 42.4718C185.273 42.5529 185.543 42.6408 185.773 42.7354C186.003 42.8166 186.185 42.9112 186.321 43.0194C186.456 43.114 186.523 43.2289 186.523 43.3642C186.523 43.567 186.402 43.7225 186.158 43.8306C185.915 43.9253 185.489 43.9726 184.881 43.9726C184.286 43.9726 183.704 43.8712 183.136 43.6684C182.568 43.4656 181.987 43.1884 181.392 42.8368L179.851 44.9867C180.068 45.1314 180.298 45.2685 180.54 45.398C181.023 45.6559 181.558 45.8839 182.143 46.0819C183.035 46.3794 183.921 46.5281 184.799 46.5281C185.651 46.5281 186.395 46.447 187.03 46.2847C187.679 46.109 188.22 45.8723 188.653 45.5749C189.099 45.2639 189.43 44.9056 189.647 44.4999ZM184.458 43.1522C184.102 43.1176 183.752 43.0388 183.405 42.915C183.058 42.7908 182.7 42.6343 182.332 42.4439C182.375 42.4628 182.418 42.4814 182.462 42.4997L182.472 42.504L182.482 42.508C182.922 42.6782 183.363 42.8276 183.805 42.9558M183.805 42.9558C184.029 43.0213 184.248 43.087 184.458 43.1522ZM98.5765 72.0554V74.8543H95.0881V61.1439H97.9275L98.1709 62.0768H98.252C98.2632 62.0668 98.2745 62.0568 98.2857 62.0469C98.4713 61.8835 98.6673 61.735 98.8737 61.6015C99.094 61.459 99.3262 61.3335 99.5703 61.225C100.071 61.0087 100.578 60.9005 101.091 60.9005C101.7 60.9005 102.254 61.0222 102.755 61.2656C103.255 61.5089 103.674 61.8537 104.012 62.2999C104.364 62.7461 104.634 63.287 104.823 63.9225C105.013 64.558 105.107 65.2678 105.107 66.052C105.107 66.9309 104.986 67.7084 104.742 68.3844C104.499 69.0605 104.174 69.6352 103.769 70.1084C103.377 70.5681 102.917 70.9197 102.39 71.163C101.876 71.4064 101.342 71.5281 100.787 71.5281C100.355 71.5281 99.9422 71.4402 99.5501 71.2644C99.4679 71.2276 99.3869 71.1875 99.3071 71.1441C99.0061 70.9806 98.722 70.7705 98.4548 70.514L98.5765 72.0554ZM102.728 71.8879C102.111 72.1794 101.462 72.3281 100.787 72.3281C100.299 72.3281 99.8265 72.2384 99.3765 72.0595V75.6543H94.2881V60.3439H98.5456L98.6626 60.7924C98.8501 60.6828 99.0445 60.5833 99.2454 60.494L99.2528 60.4907C99.8471 60.2337 100.462 60.1005 101.091 60.1005C101.81 60.1005 102.485 60.2449 103.105 60.5462C103.716 60.8438 104.232 61.2678 104.645 61.8107C105.066 62.3472 105.377 62.9803 105.59 63.6941C105.805 64.4158 105.907 65.2042 105.907 66.052C105.907 67.0034 105.776 67.8755 105.495 68.6554C105.224 69.4088 104.854 70.0713 104.377 70.6284C103.913 71.1712 103.363 71.5942 102.728 71.8879ZM100.395 67.6621L100.406 67.6477C100.477 67.5512 100.556 67.391 100.62 67.1358L100.622 67.1249L100.625 67.1141C100.694 66.8675 100.738 66.5324 100.738 66.0926C100.738 65.2952 100.608 64.9036 100.498 64.7479L100.492 64.7397L100.487 64.7313C100.414 64.6229 100.313 64.5399 100.037 64.5399C99.8764 64.5399 99.7435 64.5712 99.627 64.626C99.5636 64.6559 99.4796 64.7096 99.3765 64.8002V67.7838C99.4085 67.7985 99.4385 67.8098 99.4665 67.8183C99.6444 67.8671 99.8068 67.8887 99.9557 67.8887C100.058 67.8887 100.146 67.8717 100.224 67.8416C100.269 67.8157 100.324 67.7689 100.385 67.677L100.395 67.6621ZM100.564 68.567C100.375 68.6481 100.172 68.6887 99.9557 68.6887C99.7258 68.6887 99.4892 68.6549 99.2458 68.5873C99.016 68.5197 98.7929 68.3912 98.5765 68.2019V64.4701C98.8199 64.1997 99.0565 64.0104 99.2864 63.9022C99.5163 63.794 99.7664 63.7399 100.037 63.7399C100.537 63.7399 100.909 63.9225 101.152 64.2875C101.409 64.6526 101.538 65.2543 101.538 66.0926C101.538 66.5794 101.49 66.9918 101.396 67.3298C101.315 67.6543 101.2 67.918 101.051 68.1208C100.916 68.3236 100.753 68.4723 100.564 68.567ZM107.26 60.3439H111.628L111.758 61.3999C112.031 61.1536 112.327 60.9417 112.644 60.7671C113.449 60.3251 114.312 60.1005 115.22 60.1005C115.712 60.1005 116.163 60.1399 116.531 60.2516C116.84 60.3302 117.15 60.4373 117.462 60.5708L118.08 60.8356L117.04 65.2403L116.224 64.992C115.94 64.9056 115.693 64.8477 115.48 64.8141L115.456 64.8102L115.432 64.8048C115.265 64.7678 115.024 64.7428 114.693 64.7428C114.281 64.7428 113.85 64.8652 113.39 65.1503L113.378 65.1576C113.025 65.3675 112.669 65.7613 112.349 66.4303V72.0847H107.26V60.3439ZM111.549 66.2549C111.928 65.403 112.401 64.8081 112.969 64.4701C113.537 64.1185 114.111 63.9427 114.693 63.9427C115.058 63.9427 115.362 63.9698 115.605 64.0239C115.63 64.0278 115.655 64.0319 115.68 64.0363C115.917 64.0777 116.176 64.1411 116.457 64.2267C116.457 64.2267 116.457 64.2267 116.457 64.2267L117.147 61.3061C116.863 61.1844 116.586 61.0898 116.315 61.0222C116.058 60.9411 115.693 60.9005 115.22 60.9005C114.449 60.9005 113.719 61.0898 113.029 61.4684C112.609 61.699 112.227 62.0149 111.882 62.4161C111.663 62.6707 111.46 62.9597 111.271 63.283C111.269 63.2866 111.267 63.2902 111.265 63.2937H111.184L110.92 61.1439H108.06V71.2847H111.549V66.2549ZM118.66 63.6354C118.997 62.8854 119.449 62.2403 120.021 61.7143C120.583 61.1844 121.227 60.7838 121.947 60.5169C122.672 60.2398 123.424 60.1005 124.197 60.1005C124.956 60.1005 125.694 60.2399 126.405 60.5168C127.137 60.7829 127.788 61.1829 128.352 61.7143C128.925 62.2403 129.376 62.8854 129.713 63.6354C130.063 64.4157 130.229 65.2804 130.229 66.2143C130.229 67.1482 130.063 68.0129 129.713 68.7932C129.376 69.5433 128.925 70.1929 128.356 70.7306L128.348 70.7387C127.784 71.255 127.136 71.6522 126.41 71.9304L126.401 71.9338C125.69 72.1964 124.954 72.3281 124.197 72.3281C123.428 72.3281 122.68 72.1971 121.957 71.9356L121.948 71.9321L121.938 71.9283C121.225 71.6494 120.586 71.2523 120.026 70.7387L120.017 70.7306C119.448 70.193 118.997 69.5433 118.66 68.7932L118.655 68.7808C118.322 68.0037 118.164 67.1435 118.164 66.2143C118.164 65.2851 118.322 64.4249 118.655 63.6479L118.66 63.6354ZM127.807 62.2999C127.32 61.8402 126.759 61.4954 126.124 61.2656C125.502 61.0222 124.859 60.9005 124.197 60.9005C123.521 60.9005 122.865 61.0222 122.229 61.2656C121.607 61.4954 121.053 61.8402 120.566 62.2999C120.08 62.7461 119.687 63.3005 119.39 63.963C119.106 64.6256 118.964 65.376 118.964 66.2143C118.964 67.0526 119.106 67.803 119.39 68.4656C119.687 69.1281 120.08 69.6892 120.566 70.149C121.053 70.5951 121.607 70.9399 122.229 71.1833C122.865 71.4132 123.521 71.5281 124.197 71.5281C124.859 71.5281 125.502 71.4132 126.124 71.1833C126.759 70.9399 127.32 70.5951 127.807 70.149C128.294 69.6892 128.686 69.1281 128.983 68.4656C129.281 67.803 129.429 67.0526 129.429 66.2143C129.429 65.376 129.281 64.6256 128.983 63.963C128.686 63.3005 128.294 62.7461 127.807 62.2999ZM124.776 64.7792C124.682 64.6099 124.547 64.4994 124.197 64.4994C123.846 64.4994 123.712 64.6099 123.617 64.7792L123.612 64.7882C123.452 65.0672 123.334 65.5192 123.334 66.2143C123.334 66.9037 123.45 67.367 123.615 67.6649C123.704 67.8181 123.838 67.9292 124.197 67.9292C124.556 67.9292 124.689 67.8181 124.779 67.6649C124.944 67.3669 125.06 66.9037 125.06 66.2143C125.06 65.5192 124.942 65.0671 124.781 64.7881L124.776 64.7792ZM122.919 68.0599C122.662 67.6002 122.534 66.985 122.534 66.2143C122.534 65.4436 122.662 64.8351 122.919 64.3889C123.176 63.9292 123.602 63.6994 124.197 63.6994C124.792 63.6994 125.218 63.9292 125.475 64.3889C125.731 64.8351 125.86 65.4436 125.86 66.2143C125.86 66.985 125.731 67.6002 125.475 68.0599C125.218 68.5061 124.792 68.7292 124.197 68.7292C123.602 68.7292 123.176 68.5061 122.919 68.0599ZM134.492 71.6498C134.668 71.6904 134.871 71.7174 135.1 71.7309C135.33 71.758 135.641 71.7715 136.033 71.7715H137.047C137.561 71.7715 137.953 71.8053 138.224 71.8729C138.494 71.9405 138.629 72.1095 138.629 72.3799C138.629 72.6639 138.406 72.887 137.96 73.0492C137.527 73.225 136.966 73.3129 136.277 73.3129C135.587 73.3129 135.033 73.2385 134.614 73.0898C134.194 72.9411 133.985 72.7044 133.985 72.3799C133.985 72.2312 134.025 72.1028 134.107 71.9946C134.188 71.8864 134.316 71.7715 134.492 71.6498ZM131.916 66.1535C132.04 66.358 132.177 66.5413 132.327 66.7032C132.474 66.8633 132.635 67.0026 132.808 67.121C132.841 67.1441 132.875 67.1663 132.91 67.1878V67.269C132.879 67.2902 132.849 67.3117 132.819 67.3337C132.641 67.4651 132.48 67.6095 132.335 67.7668C132.227 67.8843 132.128 68.0091 132.038 68.1411C131.808 68.4791 131.693 68.8239 131.693 69.1754C131.693 69.6081 131.788 69.9597 131.977 70.2301C132.022 70.2896 132.068 70.3472 132.117 70.4027C132.274 70.5827 132.452 70.7421 132.65 70.8809C132.669 70.894 132.688 70.9069 132.707 70.9197V71.0008C132.68 71.0136 132.654 71.0265 132.627 71.0395C132.397 71.1535 132.194 71.2761 132.018 71.4073C131.45 71.8311 131.166 72.3446 131.166 72.9478C131.166 73.4075 131.281 73.7929 131.511 74.1039C131.754 74.4284 132.085 74.6921 132.504 74.8949C132.924 75.0977 133.404 75.2397 133.944 75.3208C134.499 75.4154 135.094 75.4628 135.729 75.4628C136.676 75.4628 137.527 75.3749 138.285 75.1991C139.055 75.0233 139.711 74.7732 140.252 74.4487C140.793 74.1242 141.205 73.7321 141.489 73.2723C141.787 72.8261 141.935 72.3259 141.935 71.7715C141.935 70.8385 141.57 70.1692 140.84 69.7636C140.11 69.3444 139.069 69.1349 137.717 69.1349H135.993C135.425 69.1349 135.019 69.0943 134.776 69.0132C134.533 68.9185 134.411 68.7563 134.411 68.5264C134.411 68.3777 134.431 68.2695 134.472 68.2019C134.526 68.1208 134.614 68.0329 134.735 67.9382C135.195 68.0329 135.621 68.0802 136.013 68.0802C136.622 68.0802 137.183 68.0194 137.696 67.8977C138.224 67.7625 138.677 67.5597 139.055 67.2892C139.447 67.0188 139.752 66.674 139.968 66.2549C140.184 65.8222 140.293 65.3084 140.293 64.7135C140.293 64.6274 140.286 64.5425 140.274 64.4588C140.258 64.3454 140.23 64.2342 140.191 64.1253C140.137 63.936 140.076 63.7805 140.009 63.6588H141.834V61.1439H137.737C137.223 60.9816 136.649 60.9005 136.013 60.9005C135.418 60.9005 134.85 60.9749 134.309 61.1236C133.782 61.2723 133.309 61.5022 132.89 61.8132C132.471 62.1106 132.139 62.496 131.896 62.9692C131.653 63.4289 131.531 63.9698 131.531 64.5918C131.531 65.1867 131.659 65.7073 131.916 66.1535ZM131.187 62.5993C131.485 62.0206 131.897 61.5385 132.42 61.1658C132.919 60.7965 133.479 60.5266 134.092 60.3536L134.097 60.3522C134.711 60.1834 135.351 60.1005 136.013 60.1005C136.669 60.1005 137.285 60.1785 137.855 60.3439H142.634V64.4588H141.08C141.088 64.5431 141.093 64.628 141.093 64.7135C141.093 65.4045 140.967 66.0463 140.684 66.6126L140.679 66.6218C140.403 67.1571 140.012 67.6003 139.515 67.9441C139.278 68.1124 139.023 68.2565 138.751 68.3779C139.72 68.4636 140.56 68.6814 141.234 69.067C142.249 69.6331 142.735 70.5913 142.735 71.7715C142.735 72.4734 142.546 73.1251 142.163 73.7044C141.801 74.2844 141.291 74.7579 140.664 75.1347C140.035 75.5117 139.297 75.7885 138.465 75.9785C138.464 75.9787 138.463 75.9789 138.463 75.9791L138.285 75.1991L138.465 75.9785C138.465 75.9786 138.465 75.9785 138.465 75.9785C137.637 76.1706 136.724 76.2628 135.729 76.2628C135.057 76.2628 134.419 76.213 133.818 76.1107C133.214 76.0194 132.657 75.8574 132.156 75.615C131.639 75.3648 131.201 75.0247 130.871 74.5839L130.867 74.5794C130.517 74.1062 130.366 73.5455 130.366 72.9478C130.366 72.0659 130.78 71.3714 131.442 70.8433C131.406 70.7998 131.371 70.7554 131.337 70.7101L131.329 70.6996L131.322 70.6889C131.013 70.2478 130.893 69.7217 130.893 69.1754C130.893 68.6386 131.071 68.1397 131.376 67.6912C131.485 67.5317 131.604 67.3812 131.733 67.2396C131.547 67.0375 131.38 66.8129 131.232 66.5681L131.227 66.5604L131.223 66.5526C130.886 65.9672 130.731 65.3047 130.731 64.5918C130.731 63.8665 130.873 63.1938 131.187 62.5993ZM136.345 64.1473L136.336 64.139C136.243 64.0509 136.149 64.0126 136.013 64.0126C135.877 64.0126 135.784 64.0509 135.69 64.139L135.689 64.14C135.686 64.1435 135.596 64.2292 135.596 64.5918C135.596 64.9441 135.675 65.0647 135.702 65.0955C135.791 65.1762 135.883 65.2115 136.013 65.2115C136.149 65.2115 136.243 65.1732 136.336 65.0851C136.358 65.0639 136.45 64.9593 136.45 64.5918C136.45 64.2414 136.361 64.1615 136.354 64.1553L136.345 64.1473ZM135.141 65.6667C134.911 65.4368 134.796 65.0785 134.796 64.5918C134.796 64.1185 134.911 63.7737 135.141 63.5574C135.384 63.3275 135.675 63.2126 136.013 63.2126C136.351 63.2126 136.642 63.3275 136.885 63.5574C137.129 63.7737 137.25 64.1185 137.25 64.5918C137.25 65.0785 137.129 65.4368 136.885 65.6667C136.642 65.8966 136.351 66.0115 136.013 66.0115C135.675 66.0115 135.384 65.8966 135.141 65.6667ZM143.744 60.3439H148.111L148.241 61.3999C148.515 61.1536 148.81 60.9417 149.128 60.7671C149.933 60.3251 150.795 60.1005 151.703 60.1005C152.195 60.1005 152.647 60.1399 153.014 60.2516C153.323 60.3301 153.634 60.4373 153.945 60.5708L154.563 60.8356L153.523 65.2403L152.707 64.992C152.424 64.9056 152.176 64.8477 151.964 64.8141L151.939 64.8102L151.915 64.8048C151.748 64.7678 151.507 64.7428 151.176 64.7428C150.764 64.7428 150.334 64.8652 149.873 65.1503L149.861 65.1576C149.509 65.3675 149.153 65.7613 148.832 66.4303V72.0847H143.744V60.3439ZM148.032 66.2549C148.411 65.403 148.884 64.8081 149.452 64.4701C150.02 64.1185 150.594 63.9427 151.176 63.9427C151.541 63.9427 151.845 63.9698 152.089 64.0239C152.113 64.0278 152.138 64.0319 152.163 64.0363C152.4 64.0777 152.659 64.1411 152.94 64.2267L153.63 61.3061C153.346 61.1844 153.069 61.0898 152.798 61.0222C152.542 60.9411 152.176 60.9005 151.703 60.9005C150.933 60.9005 150.202 61.0898 149.513 61.4684C149.093 61.699 148.71 62.0149 148.366 62.4161C148.147 62.6707 147.943 62.9597 147.755 63.283C147.752 63.2866 147.75 63.2902 147.748 63.2937H147.667L147.403 61.1439H144.544V71.2847H148.032V66.2549ZM155.334 66.5201L155.338 66.5117C155.649 65.9594 156.106 65.513 156.674 65.1625L154.94 61.9255L155.624 61.5415C156.445 61.0806 157.286 60.7246 158.146 60.4766C159.018 60.2254 159.918 60.1005 160.842 60.1005C161.625 60.1005 162.356 60.2033 163.027 60.4204C163.724 60.628 164.334 60.9687 164.836 61.4516C165.36 61.9275 165.741 62.5324 165.994 63.2389C166.265 63.9459 166.388 64.7549 166.388 65.6464V72.0847H162.112L161.971 71.4713C161.698 71.6252 161.416 71.7663 161.125 71.8948L161.118 71.898L161.111 71.901C160.431 72.1857 159.717 72.3281 158.976 72.3281C158.368 72.3281 157.797 72.2345 157.28 72.0275L157.269 72.0233L157.259 72.0188C156.77 71.807 156.339 71.5228 155.977 71.1608C155.614 70.7981 155.337 70.3735 155.149 69.8939L155.144 69.8822L155.14 69.8704C154.973 69.4018 154.891 68.9116 154.891 68.4047C154.891 67.7269 155.029 67.094 155.329 66.5286L155.334 66.5201ZM161.783 70.6554C161.99 70.531 162.191 70.3983 162.386 70.2575C162.399 70.2484 162.412 70.2393 162.424 70.2301H162.505L162.749 71.2847H165.588V65.6464C165.588 64.8216 165.473 64.1118 165.243 63.5168C165.027 62.9084 164.709 62.4149 164.29 62.0363C163.885 61.6442 163.384 61.3602 162.789 61.1844C162.208 60.9951 161.559 60.9005 160.842 60.9005C159.991 60.9005 159.166 61.0154 158.368 61.2453C157.814 61.4049 157.267 61.6134 156.726 61.8709C156.629 61.9166 156.534 61.9639 156.438 62.0127C156.297 62.0848 156.156 62.1602 156.015 62.2391L157.232 64.5106C157.841 64.2267 158.368 64.0171 158.814 63.8819C159.274 63.7332 159.72 63.6588 160.153 63.6588C160.721 63.6588 161.167 63.7467 161.491 63.9225C161.509 63.9309 161.526 63.9397 161.543 63.9487C161.85 64.1125 162.036 64.3674 162.1 64.7135C161.819 64.7298 161.548 64.7493 161.288 64.7719C160.47 64.843 159.754 64.9452 159.139 65.0785C158.327 65.2543 157.665 65.4977 157.151 65.8087C156.651 66.1061 156.279 66.4712 156.036 66.9039C155.806 67.3366 155.691 67.8368 155.691 68.4047C155.691 68.8239 155.758 69.2228 155.894 69.6013C156.042 69.9799 156.259 70.3112 156.543 70.5951C156.827 70.8791 157.171 71.109 157.577 71.2847C157.983 71.447 158.449 71.5281 158.976 71.5281C159.612 71.5281 160.22 71.4064 160.802 71.163C161.143 71.0124 161.47 70.8432 161.783 70.6554ZM160.705 67.731L160.694 67.7328C160.346 67.7928 160.126 67.8684 160 67.9354C159.926 67.9742 159.878 68.0075 159.848 68.0323C159.911 68.0431 159.998 68.0509 160.112 68.0509C160.413 68.0509 160.658 67.9973 160.863 67.9057C161.017 67.8282 161.162 67.7462 161.3 67.6599V67.6421C161.077 67.6662 160.883 67.6954 160.715 67.7289L160.705 67.731ZM161.3 66.8377C161.022 66.8656 160.775 66.9012 160.558 66.9444C160.166 67.0121 159.855 67.1067 159.625 67.2284C159.396 67.3501 159.233 67.4853 159.139 67.634C159.058 67.7828 159.017 67.945 159.017 68.1208C159.017 68.6075 159.382 68.8509 160.112 68.8509C160.518 68.8509 160.883 68.7766 161.207 68.6278C161.532 68.4656 161.829 68.283 162.1 68.0802V66.7823C161.81 66.7949 161.543 66.8133 161.3 66.8377ZM166.484 60.3439H170.558L170.611 60.6113C171.106 60.2429 171.723 60.1005 172.375 60.1005C172.989 60.1005 173.542 60.3144 173.989 60.7351C174.055 60.794 174.118 60.856 174.177 60.9208C174.222 60.8761 174.269 60.8322 174.318 60.7893C174.853 60.3138 175.519 60.1005 176.249 60.1005C177.237 60.1005 178.041 60.5426 178.579 61.3713C179.101 62.1418 179.32 63.1193 179.32 64.2267V72.0847H166.484V60.3439ZM170.57 64.6323C170.745 64.1185 170.948 63.8616 171.178 63.8616C171.449 63.8616 171.584 64.0644 171.584 64.4701V71.2847H174.22V64.6323C174.396 64.1185 174.619 63.8616 174.89 63.8616C175.119 63.8616 175.234 64.0644 175.234 64.4701V71.2847H178.52V64.2267C178.52 63.2126 178.317 62.4081 177.912 61.8132C177.519 61.2047 176.965 60.9005 176.249 60.9005C175.681 60.9005 175.214 61.0627 174.849 61.3873C174.769 61.4589 174.693 61.5331 174.623 61.61C174.376 61.8815 174.194 62.1858 174.078 62.523C173.997 62.1272 173.859 61.8037 173.663 61.5526C173.598 61.4692 173.527 61.3938 173.45 61.3264C173.152 61.0425 172.794 60.9005 172.375 60.9005C171.766 60.9005 171.3 61.0492 170.975 61.3467C170.911 61.4055 170.85 61.4662 170.791 61.5288C170.559 61.7777 170.373 62.056 170.233 62.3635C170.23 62.3694 170.227 62.3752 170.225 62.3811H170.144L169.9 61.1439H167.284V71.2847H170.57V64.6323Z" fill="black"/>
<path d="M96.2645 14.6682C96.8594 15.0197 97.4408 15.2969 98.0087 15.4997C98.5766 15.7025 99.158 15.804 99.7529 15.804C100.361 15.804 100.787 15.7566 101.031 15.662C101.274 15.5538 101.396 15.3983 101.396 15.1955C101.396 15.0603 101.328 14.9454 101.193 14.8507C101.058 14.7425 100.875 14.6479 100.645 14.5668C100.415 14.4721 100.145 14.3842 99.8341 14.3031C99.5366 14.2085 99.2256 14.1138 98.9011 14.0192C98.4819 13.8975 98.0628 13.7555 97.6436 13.5932C97.2245 13.4175 96.8459 13.2079 96.5079 12.9645C96.1698 12.7211 95.8926 12.444 95.6763 12.133C95.46 11.8085 95.3518 11.4366 95.3518 11.0175C95.3518 10.5172 95.4667 10.0642 95.6966 9.6586C95.9264 9.25296 96.2509 8.90817 96.6701 8.62423C97.1028 8.34029 97.6166 8.12395 98.2115 7.97522C98.8064 7.81296 99.4757 7.73183 100.219 7.73183C101.179 7.73183 102.031 7.88733 102.775 8.19831C103.519 8.49578 104.161 8.81353 104.702 9.15155L103.16 11.2203C102.687 10.9499 102.214 10.7268 101.741 10.551C101.267 10.3752 100.787 10.2873 100.301 10.2873C99.7732 10.2873 99.3946 10.3347 99.1648 10.4293C98.9349 10.5104 98.82 10.6524 98.82 10.8552C98.82 10.9904 98.8808 11.1054 99.0025 11.2C99.1377 11.2947 99.3135 11.3825 99.5298 11.4637C99.7597 11.5448 100.017 11.6259 100.301 11.707C100.598 11.7882 100.909 11.8693 101.233 11.9504C101.666 12.0721 102.099 12.2141 102.532 12.3763C102.964 12.5251 103.35 12.7211 103.688 12.9645C104.039 13.1944 104.323 13.4783 104.539 13.8163C104.756 14.1409 104.864 14.533 104.864 14.9927C104.864 15.4659 104.749 15.9121 104.519 16.3313C104.303 16.7369 103.972 17.0952 103.525 17.4062C103.093 17.7037 102.552 17.9403 101.903 18.1161C101.267 18.2783 100.524 18.3594 99.6718 18.3594C98.7929 18.3594 97.9073 18.2107 97.0149 17.9133C96.136 17.6158 95.3721 17.2507 94.7231 16.818L96.2645 14.6682Z" fill="black"/>
<path d="M116.741 18.1161H113.902L113.658 16.7775H113.577C113.144 17.2642 112.664 17.6496 112.137 17.9335C111.623 18.2175 111.008 18.3594 110.291 18.3594C109.156 18.3594 108.338 17.9876 107.837 17.244C107.337 16.4868 107.087 15.4794 107.087 14.222V7.97522H110.575V13.7758C110.575 14.3437 110.65 14.7561 110.799 15.013C110.961 15.2699 111.272 15.3983 111.731 15.3983C112.029 15.3983 112.286 15.3442 112.502 15.2361C112.732 15.1144 112.982 14.871 113.253 14.5059V7.97522H116.741V18.1161Z" fill="black"/>
<path d="M119.41 4H122.899V7.28564L122.818 8.74592C123.183 8.42141 123.588 8.17127 124.035 7.9955C124.481 7.81972 124.934 7.73183 125.393 7.73183C126.002 7.73183 126.556 7.85352 127.057 8.09691C127.557 8.34029 127.983 8.68508 128.334 9.13127C128.686 9.57747 128.956 10.1183 129.146 10.7538C129.335 11.3893 129.429 12.0924 129.429 12.8631C129.429 13.742 129.308 14.5262 129.064 15.2158C128.821 15.8918 128.497 16.4665 128.091 16.9397C127.699 17.3995 127.239 17.751 126.712 17.9944C126.198 18.2378 125.664 18.3594 125.109 18.3594C124.65 18.3594 124.197 18.2513 123.751 18.0349C123.304 17.8051 122.885 17.4671 122.493 17.0209H122.412L122.128 18.1161H119.41V4ZM122.899 15.0333C123.115 15.2225 123.338 15.351 123.568 15.4186C123.811 15.4862 124.048 15.52 124.278 15.52C124.494 15.52 124.697 15.4794 124.886 15.3983C125.076 15.3037 125.238 15.1549 125.373 14.9521C125.522 14.7493 125.637 14.4856 125.718 14.1611C125.813 13.8231 125.86 13.4107 125.86 12.924C125.86 12.0856 125.731 11.484 125.475 11.1189C125.231 10.7538 124.859 10.5713 124.359 10.5713C124.089 10.5713 123.839 10.6254 123.609 10.7335C123.379 10.8417 123.142 11.031 122.899 11.3014V15.0333Z" fill="black"/>
<path d="M132.748 14.6682C133.343 15.0197 133.924 15.2969 134.492 15.4997C135.06 15.7025 135.641 15.804 136.236 15.804C136.845 15.804 137.271 15.7566 137.514 15.662C137.757 15.5538 137.879 15.3983 137.879 15.1955C137.879 15.0603 137.811 14.9454 137.676 14.8507C137.541 14.7425 137.358 14.6479 137.129 14.5668C136.899 14.4721 136.628 14.3842 136.317 14.3031C136.02 14.2085 135.709 14.1138 135.384 14.0192C134.965 13.8975 134.546 13.7555 134.127 13.5932C133.708 13.4175 133.329 13.2079 132.991 12.9645C132.653 12.7211 132.376 12.444 132.16 12.133C131.943 11.8085 131.835 11.4366 131.835 11.0175C131.835 10.5172 131.95 10.0642 132.18 9.6586C132.41 9.25296 132.734 8.90817 133.153 8.62423C133.586 8.34029 134.1 8.12395 134.695 7.97522C135.29 7.81296 135.959 7.73183 136.703 7.73183C137.663 7.73183 138.515 7.88733 139.258 8.19831C140.002 8.49578 140.644 8.81353 141.185 9.15155L139.644 11.2203C139.17 10.9499 138.697 10.7268 138.224 10.551C137.751 10.3752 137.271 10.2873 136.784 10.2873C136.257 10.2873 135.878 10.3347 135.648 10.4293C135.418 10.5104 135.303 10.6524 135.303 10.8552C135.303 10.9904 135.364 11.1054 135.486 11.2C135.621 11.2947 135.797 11.3825 136.013 11.4637C136.243 11.5448 136.5 11.6259 136.784 11.707C137.081 11.7882 137.392 11.8693 137.717 11.9504C138.149 12.0721 138.582 12.2141 139.015 12.3763C139.448 12.5251 139.833 12.7211 140.171 12.9645C140.522 13.1944 140.806 13.4783 141.023 13.8163C141.239 14.1409 141.347 14.533 141.347 14.9927C141.347 15.4659 141.232 15.9121 141.002 16.3313C140.786 16.7369 140.455 17.0952 140.009 17.4062C139.576 17.7037 139.035 17.9403 138.386 18.1161C137.751 18.2783 137.007 18.3594 136.155 18.3594C135.276 18.3594 134.391 18.2107 133.498 17.9133C132.619 17.6158 131.855 17.2507 131.206 16.818L132.748 14.6682Z" fill="black"/>
<path d="M145.72 10.693H143.286V8.09691L145.882 7.97522L146.329 5.33859H149.209V7.97522H153.224V10.693H149.209V13.7555C149.209 14.4856 149.371 14.9859 149.695 15.2563C150.033 15.5133 150.527 15.6417 151.176 15.6417C151.527 15.6417 151.852 15.6147 152.149 15.5606C152.46 15.493 152.751 15.4118 153.022 15.3172L153.63 17.8321C153.184 17.9538 152.684 18.0687 152.129 18.1769C151.575 18.2986 150.953 18.3594 150.263 18.3594C149.425 18.3594 148.715 18.2513 148.134 18.0349C147.566 17.8186 147.099 17.5144 146.734 17.1223C146.383 16.7166 146.126 16.2366 145.964 15.6823C145.801 15.1144 145.72 14.4924 145.72 13.8163V10.693Z" fill="black"/>
<path d="M156.705 7.97522H159.565L159.828 10.1251H159.909C160.396 9.28677 160.984 8.67831 161.674 8.29972C162.364 7.92113 163.094 7.73183 163.864 7.73183C164.338 7.73183 164.703 7.7724 164.96 7.85352C165.23 7.92113 165.507 8.01578 165.791 8.13747L165.102 11.058C164.791 10.9634 164.507 10.8958 164.25 10.8552C164.006 10.8011 163.702 10.7741 163.337 10.7741C162.756 10.7741 162.181 10.9499 161.613 11.3014C161.045 11.6394 160.572 12.2344 160.193 13.0862V18.1161H156.705V7.97522Z" fill="black"/>
<path d="M167.852 15.2361C167.852 14.6682 167.967 14.1679 168.197 13.7352C168.44 13.3025 168.812 12.9375 169.312 12.64C169.826 12.329 170.489 12.0856 171.3 11.9099C172.111 11.7341 173.098 11.6124 174.261 11.5448C174.193 11.1797 173.991 10.9161 173.652 10.7538C173.328 10.578 172.882 10.4901 172.314 10.4901C171.881 10.4901 171.435 10.5645 170.975 10.7132C170.529 10.8485 170.002 11.058 169.393 11.342L168.176 9.07043C168.947 8.63775 169.731 8.30648 170.529 8.07662C171.327 7.84676 172.152 7.73183 173.003 7.73183C173.72 7.73183 174.369 7.82648 174.951 8.01578C175.545 8.19155 176.046 8.4755 176.451 8.86761C176.871 9.2462 177.188 9.73972 177.405 10.3482C177.634 10.9431 177.749 11.653 177.749 12.4778V18.1161H174.91L174.667 17.0614H174.585C174.085 17.4265 173.544 17.7375 172.963 17.9944C172.382 18.2378 171.773 18.3594 171.138 18.3594C170.61 18.3594 170.144 18.2783 169.738 18.1161C169.332 17.9403 168.988 17.7104 168.704 17.4265C168.42 17.1425 168.203 16.8113 168.055 16.4327C167.92 16.0541 167.852 15.6552 167.852 15.2361ZM171.178 14.9521C171.178 15.4389 171.543 15.6823 172.273 15.6823C172.679 15.6823 173.044 15.6079 173.369 15.4592C173.693 15.2969 173.991 15.1144 174.261 14.9116V13.6135C173.639 13.6406 173.125 13.6947 172.72 13.7758C172.327 13.8434 172.016 13.938 171.787 14.0597C171.557 14.1814 171.394 14.3166 171.3 14.4654C171.219 14.6141 171.178 14.7763 171.178 14.9521Z" fill="black"/>
<path d="M182.203 10.693H179.77V8.09691L182.366 7.97522L182.812 5.33859H185.692V7.97522H189.708V10.693H185.692V13.7555C185.692 14.4856 185.854 14.9859 186.179 15.2563C186.517 15.5133 187.01 15.6417 187.659 15.6417C188.011 15.6417 188.335 15.6147 188.633 15.5606C188.944 15.493 189.234 15.4118 189.505 15.3172L190.113 17.8321C189.667 17.9538 189.167 18.0687 188.612 18.1769C188.058 18.2986 187.436 18.3594 186.747 18.3594C185.908 18.3594 185.198 18.2513 184.617 18.0349C184.049 17.8186 183.583 17.5144 183.218 17.1223C182.866 16.7166 182.609 16.2366 182.447 15.6823C182.285 15.1144 182.203 14.4924 182.203 13.8163V10.693Z" fill="black"/>
<path d="M192.093 13.0456C192.093 12.2209 192.242 11.4772 192.539 10.8147C192.837 10.1521 193.229 9.59775 193.716 9.15155C194.216 8.69184 194.784 8.34029 195.419 8.09691C196.068 7.85352 196.731 7.73183 197.407 7.73183C198.205 7.73183 198.901 7.86029 199.496 8.11719C200.104 8.37409 200.611 8.72564 201.017 9.17184C201.423 9.61803 201.727 10.1386 201.93 10.7335C202.132 11.3285 202.234 11.964 202.234 12.64C202.234 12.951 202.214 13.2417 202.173 13.5121C202.146 13.7825 202.119 13.9786 202.092 14.1003H195.663C195.717 14.4113 195.825 14.6749 195.987 14.8913C196.149 15.0941 196.345 15.2563 196.575 15.378C196.819 15.4997 197.082 15.5876 197.366 15.6417C197.65 15.6958 197.948 15.7228 198.259 15.7228C198.664 15.7228 199.056 15.6755 199.435 15.5809C199.827 15.4727 200.246 15.3172 200.692 15.1144L201.828 17.1831C201.22 17.5752 200.55 17.8727 199.82 18.0755C199.09 18.2648 198.407 18.3594 197.772 18.3594C196.974 18.3594 196.224 18.2445 195.521 18.0147C194.831 17.7713 194.229 17.4265 193.716 16.9803C193.215 16.5206 192.816 15.9594 192.519 15.2969C192.235 14.6344 192.093 13.884 192.093 13.0456ZM199.07 11.8287C199.07 11.4231 198.955 11.0783 198.725 10.7944C198.495 10.5104 198.083 10.3685 197.488 10.3685C197.055 10.3685 196.663 10.4834 196.312 10.7132C195.974 10.9296 195.744 11.3014 195.622 11.8287H199.07Z" fill="black"/>
<path fill-rule="evenodd" clip-rule="evenodd" d="M47.5697 7.13508C48.2335 8.26246 48.1494 9.77633 47.4899 11.326L47.381 11.582L43.6123 13.7639L43.5249 13.7915C42.7013 14.0516 42.3652 14.6237 42.3607 15.196C42.3559 15.7949 42.72 16.5621 43.6724 17.1036L54.1516 22.5761L70.2561 13.6027L70.3688 13.576C71.7799 13.2418 73.0838 13.6344 73.8328 14.7138C74.5513 15.7493 74.6087 17.2045 74.0696 18.7209L73.9678 19.007L62.654 25.6478C62.3345 25.9652 62.2509 26.3376 62.2985 26.7378C62.346 27.1365 62.5253 27.5249 62.7118 27.7866L73.949 34.3824L74.0557 34.6432C74.3774 35.4296 74.5994 36.6246 74.6392 37.8745C74.6792 39.129 74.5392 40.5402 74.0581 41.7427L73.9528 42.0061L62.5505 48.7607L62.524 48.7739C62.4234 48.8242 62.2307 49.063 62.3 49.7348C62.3296 50.0219 62.4044 50.304 62.4958 50.5242C62.569 50.7004 62.6276 50.7776 62.6415 50.7978L73.7522 57.3797L73.7922 57.4104C74.0686 57.6231 74.2214 57.9238 74.3116 58.1553C74.4089 58.4051 74.4759 58.6877 74.5233 58.9725C74.6186 59.5443 74.6514 60.2265 74.6395 60.8997C74.6276 61.5766 74.57 62.2737 74.4733 62.8821C74.3815 63.4597 74.24 64.0576 74.0128 64.4666L73.9052 64.6602L64.7509 70.2026L64.6733 70.2307C62.8582 70.8872 61.2338 70.1242 60.4267 68.8587C59.6252 67.6021 59.6192 65.8185 60.9742 64.5432L61.0325 64.4883L65.2325 61.8324L65.2512 61.8219C65.3186 61.784 65.4872 61.585 65.4623 61.0689C65.4402 60.6095 65.2738 60.265 65.1584 60.1356L54.1523 53.6478L37.7051 62.7917L37.5879 62.8181C36.0686 63.1599 34.692 62.61 33.8917 61.5666C33.0917 60.5235 32.9183 59.0532 33.6419 57.6823L33.7538 57.4702L45.221 50.8217C45.8361 50.0891 45.7257 49.1205 45.2617 48.7038L33.8275 41.5878L33.7428 41.4877C33.5605 41.2722 33.4474 41.0107 33.3719 40.7826C33.2924 40.5427 33.2337 40.2748 33.1899 39.9991C33.1023 39.4472 33.0651 38.8002 33.069 38.1531C33.073 37.5037 33.1187 36.8323 33.205 36.228C33.2891 35.6391 33.4198 35.0548 33.6202 34.6139L33.7313 34.3695L45.1717 27.7974C45.5372 27.2407 45.6463 26.8781 45.6463 26.6095C45.6463 26.3576 45.5496 26.0542 45.1958 25.6101L34.0454 18.6114C33.8925 18.5554 33.7714 18.4676 33.6848 18.3847C33.5494 18.2552 33.4627 18.1074 33.407 17.9937C33.2949 17.7645 33.2218 17.4907 33.1702 17.2317C33.064 16.6988 33.0089 16.0158 33.001 15.3352C32.9931 14.6518 33.0322 13.9294 33.1305 13.3144C33.1795 13.008 33.2465 12.7069 33.3392 12.442C33.4244 12.1989 33.564 11.8877 33.8138 11.6571L33.8791 11.5968L43.8404 5.71909L44.0055 5.69605C45.5335 5.48283 46.8735 5.95257 47.5697 7.13508ZM44.394 7.32938C45.3657 7.23355 45.8884 7.56742 46.1322 7.98149C46.4023 8.44016 46.4935 9.26099 46.0558 10.4216L42.9305 12.2309C41.5119 12.7163 40.7029 13.8771 40.6925 15.1827C40.6822 16.4874 41.4648 17.7737 42.8639 18.5629L42.8756 18.5695L54.1772 24.4715L70.8597 15.1761C71.6848 15.0114 72.1941 15.2783 72.4623 15.6649C72.7477 16.0763 72.9012 16.8244 72.589 17.882L61.6558 24.2993L61.5929 24.3559C60.7477 25.1166 60.541 26.0866 60.642 26.935C60.739 27.7499 61.1176 28.4876 61.5102 28.9586L61.6033 29.0703L72.603 35.5267C72.7873 36.0957 72.941 36.9591 72.9718 37.9276C73.0043 38.9454 72.898 39.9963 72.6038 40.8662L61.7482 47.297C60.6664 47.8595 60.5593 49.1177 60.6406 49.9059C60.6866 50.3524 60.8009 50.7925 60.9552 51.1641C61.0941 51.4984 61.3208 51.9137 61.6726 52.16L61.6986 52.1781L72.7395 58.7187C72.7446 58.73 72.7505 58.7439 72.7571 58.7607C72.798 58.8659 72.8412 59.0267 72.8778 59.2467C72.9508 59.6846 72.9824 60.2579 72.9715 60.8703C72.9608 61.4792 72.9087 62.098 72.8258 62.6203C72.7636 63.0119 72.6912 63.3004 72.6275 63.4837L64.0331 68.6871C63.0384 69.0141 62.2414 68.6017 61.8332 67.9617C61.4203 67.3144 61.4154 66.4637 62.0649 65.8093L66.0903 63.2638C66.9728 62.7528 67.1639 61.7221 67.1286 60.9886C67.0924 60.2374 66.8065 59.3327 66.1941 58.8224L66.1421 58.779L54.1765 51.7256L37.1118 61.2129C36.2631 61.3661 35.5938 61.0448 35.2154 60.5513C34.8537 60.0797 34.7149 59.3955 35.0214 58.6636L46.2782 52.1371L46.3617 52.0483C47.585 50.7486 47.7063 48.5392 46.2803 47.3806L46.2396 47.3475L34.9873 40.3447C34.978 40.3222 34.9673 40.2937 34.9555 40.2581C34.9132 40.1304 34.8722 39.9564 34.8375 39.7376C34.7682 39.3006 34.7336 38.7489 34.7372 38.1633C34.7408 37.5799 34.7821 36.9845 34.8565 36.4639C34.9115 36.0784 34.9806 35.7639 35.0531 35.5341L46.3322 29.0546L46.4391 28.9009C46.9596 28.1527 47.3145 27.4064 47.3145 26.6095C47.3145 25.7902 46.9414 25.0906 46.3924 24.4386L46.3083 24.3388L34.8678 17.1581C34.8497 17.0991 34.8282 17.0162 34.8062 16.9058C34.7271 16.5085 34.6763 15.936 34.6691 15.3158C34.6619 14.6983 34.6984 14.0746 34.7778 13.5778C34.8177 13.3283 34.8651 13.1322 34.9137 12.9933C34.9276 12.9537 34.9398 12.9239 34.9495 12.9023L44.394 7.32938ZM54.1768 28.8532L65.5436 35.6102L65.5985 35.6573C66.3991 36.3448 67.1094 37.1168 67.1283 38.109C67.1469 39.0881 66.4835 39.9365 65.6368 40.7602L65.5572 40.8376L53.6121 47.4738L42.0847 40.8234L42.0004 40.7337C41.2156 39.8989 40.6242 39.0592 40.6407 38.1104C40.6574 37.1479 41.2925 36.3814 42.0371 35.6821L42.1115 35.6123L54.1768 28.8532ZM43.1067 36.9669C42.444 37.603 42.3123 37.9311 42.3086 38.1394C42.3048 38.3602 42.438 38.745 43.1337 39.5026L53.6276 45.5568L64.5512 39.4881C65.3324 38.7127 65.464 38.3336 65.4603 38.1407C65.4569 37.9587 65.3248 37.6311 64.5654 36.9694L54.152 30.7792L43.1067 36.9669Z" fill="black"/>
</svg>
