<svg width="206" height="80" viewBox="0 0 206 80" fill="none" xmlns="http://www.w3.org/2000/svg">
<path d="M30.1855 29.5811V25.1182C30.1862 24.3266 29.9512 23.5528 29.5104 22.8952C29.0696 22.2377 28.4431 21.7263 27.7106 21.4262L0 10.0001V12.475L24.6829 22.618C24.9327 22.7264 25.1299 22.9284 25.2324 23.1806C25.3348 23.4328 25.3341 23.7152 25.2306 23.967C25.1819 24.0911 25.1082 24.2037 25.0139 24.298C24.9197 24.3922 24.807 24.466 24.6829 24.5147L0 34.7185V44.6739L14.8747 38.5374L24.6525 42.5692C24.7777 42.6202 24.8915 42.6957 24.9871 42.7913C25.0828 42.8869 25.1583 43.0006 25.2094 43.1258C25.2604 43.2511 25.2859 43.3852 25.2843 43.5204C25.2827 43.6556 25.2541 43.7892 25.2002 43.9132C25.1515 44.0372 25.0777 44.1499 24.9835 44.2441C24.8892 44.3384 24.7766 44.4122 24.6525 44.4609L0 54.6343V70.3559L27.6751 58.9603C28.4076 58.6601 29.0341 58.1487 29.4749 57.4912C29.9157 56.8337 30.1507 56.0598 30.15 55.2682V45.039C30.151 44.2467 29.9162 43.472 29.4754 42.8136C29.0347 42.1552 28.408 41.6429 27.6751 41.3419L17.8719 37.2847L27.6751 33.2529C28.4171 32.9684 29.0547 32.4647 29.5032 31.8087C29.9517 31.1528 30.1897 30.3757 30.1855 29.5811V29.5811Z" fill="black"/>
<path d="M53.0038 13.6824C53.1463 13.4338 53.3562 13.2304 53.6093 13.0958C53.8623 12.9612 54.1482 12.9008 54.4341 12.9216C55.4485 12.9216 56.3007 13.7585 56.3007 15.1939C56.3007 16.6294 55.4333 17.4663 54.4341 17.4663C54.1482 17.4871 53.8623 17.4267 53.6093 17.2921C53.3562 17.1575 53.1463 16.9541 53.0038 16.7055V18.7851H52.2683V12.9926H53.0038V13.6824ZM55.4993 15.2041C55.4993 14.1897 54.9921 13.5658 54.2464 13.5658C53.5921 13.5658 52.9733 14.073 52.9733 15.2041C52.9733 16.3352 53.5921 16.8424 54.2464 16.8424C55.0326 16.8323 55.5094 16.2337 55.5094 15.1939L55.4993 15.2041Z" fill="black"/>
<path d="M58.894 13.7331C58.2143 13.7331 57.8795 14.1135 57.8795 15.0721V17.3749H57.139V12.9925H57.8593V13.7584C57.9648 13.5208 58.138 13.3196 58.3572 13.1798C58.5764 13.04 58.8319 12.9678 59.0918 12.9722H59.3099V13.7584C59.1577 13.7483 59.0157 13.7331 58.894 13.7331Z" fill="black"/>
<path d="M61.7191 17.4661C60.7047 17.4661 59.6294 16.7763 59.6294 15.1937C59.6294 13.6112 60.7047 12.9214 61.7191 12.9214C62.7336 12.9214 63.8139 13.6112 63.8139 15.1937C63.8139 16.7763 62.7386 17.4661 61.7191 17.4661ZM63.0278 15.1937C63.0278 14.0322 62.3887 13.5706 61.7191 13.5706C61.0496 13.5706 60.4156 14.0018 60.4156 15.1937C60.4156 16.3857 61.0547 16.8168 61.7191 16.8168C62.3836 16.8168 63.0278 16.3147 63.0278 15.1937Z" fill="black"/>
<path d="M65.3505 12.9929V17.5579C65.3505 18.4658 65.1628 18.76 64.336 18.76H63.9607V18.1412H64.1636C64.544 18.1412 64.615 18.0296 64.615 17.5731V12.9929H65.3505ZM65.3505 12.369H64.6099V11.4763H65.3505V12.369Z" fill="black"/>
<path d="M68.3041 16.8169C68.5538 16.841 68.8046 16.7839 69.0194 16.6542C69.2341 16.5245 69.4013 16.329 69.4961 16.0967H70.2518C70.1303 16.5138 69.87 16.877 69.514 17.126C69.1579 17.3751 68.7275 17.4951 68.294 17.4662C66.9143 17.4662 66.1535 16.4518 66.1535 15.1888C66.1302 14.898 66.1678 14.6055 66.2638 14.3301C66.3599 14.0546 66.5122 13.8022 66.7112 13.5888C66.9102 13.3755 67.1515 13.206 67.4196 13.0911C67.6878 12.9762 67.9769 12.9185 68.2686 12.9215C69.6026 12.9215 70.404 14.0425 70.2975 15.4221H66.9549C66.9481 15.6033 66.9779 15.7839 67.0427 15.9532C67.1075 16.1226 67.2059 16.277 67.332 16.4073C67.458 16.5376 67.6091 16.6411 67.7762 16.7115C67.9432 16.7819 68.1228 16.8178 68.3041 16.8169V16.8169ZM69.5367 14.7881C69.5161 14.461 69.3717 14.1541 69.1328 13.9297C68.894 13.7054 68.5786 13.5805 68.2509 13.5805C67.9232 13.5805 67.6078 13.7054 67.3689 13.9297C67.13 14.1541 66.9856 14.461 66.9651 14.7881H69.5367Z" fill="black"/>
<path d="M74.065 14.4533C74.0093 14.1972 73.8657 13.9686 73.6591 13.8074C73.4525 13.6462 73.1958 13.5624 72.9339 13.5708C72.2796 13.5708 71.676 14.078 71.676 15.1787C71.676 16.2793 72.2846 16.817 72.9339 16.817C73.1987 16.8259 73.4586 16.7436 73.67 16.5839C73.8815 16.4242 74.0316 16.1967 74.0954 15.9395H74.8613C74.7628 16.3793 74.5149 16.7714 74.1597 17.0488C73.8046 17.3263 73.3642 17.472 72.9136 17.4611C71.6607 17.4611 70.8847 16.5126 70.8847 15.1837C70.8847 13.8548 71.7064 12.9165 72.9947 12.9165C73.4312 12.9083 73.8559 13.0576 74.1913 13.337C74.5266 13.6165 74.7501 14.0074 74.8207 14.4381L74.065 14.4533Z" fill="black"/>
<path d="M76.5749 11.8975V12.9931H77.4017V13.5865H76.5749V16.1784C76.5749 16.6298 76.6104 16.7465 77.0314 16.7465H77.4017V17.3754H76.8691C76.0322 17.3754 75.8546 17.1928 75.8546 16.2798V13.5865H75.1648V12.9931H75.8293V11.8975H76.5749Z" fill="black"/>
<path d="M81.6266 13.5457C81.1954 13.5457 80.7085 13.7029 80.7085 14.0985C80.7085 14.4942 80.952 14.6057 81.373 14.692L81.9918 14.8137C82.783 14.9659 83.483 15.2651 83.483 16.1122C83.483 16.9592 82.7019 17.4665 81.7077 17.4665C81.2598 17.5002 80.8159 17.3614 80.467 17.0785C80.1181 16.7956 79.8906 16.39 79.831 15.9448H80.6071C80.6377 16.2107 80.7721 16.4538 80.9811 16.621C81.1902 16.7882 81.4568 16.866 81.7229 16.8375C82.2809 16.8375 82.7374 16.594 82.7374 16.1883C82.7374 15.7825 82.3215 15.5644 81.8497 15.468L81.2005 15.3361C80.6071 15.2144 79.9578 14.9354 79.9578 14.1239C79.9578 13.3123 80.7389 12.9066 81.7077 12.9066C82.1155 12.8711 82.5215 12.9925 82.8429 13.246C83.1643 13.4996 83.3769 13.8661 83.4373 14.271H82.6664C82.6162 14.0414 82.4813 13.8391 82.2885 13.7047C82.0958 13.5702 81.8594 13.5134 81.6266 13.5457V13.5457Z" fill="black"/>
<path d="M85.6697 17.4666C84.6553 17.4666 84.2748 16.7869 84.2748 15.7877V12.9929H85.0103V15.5696C85.0103 16.2442 85.127 16.8275 85.9284 16.8275C86.6283 16.8275 87.0392 16.3203 87.0392 15.3971V12.9929H87.7797V17.3753H87.0392V16.7514C86.9006 16.9867 86.6988 17.1785 86.4567 17.3049C86.2147 17.4313 85.942 17.4873 85.6697 17.4666V17.4666Z" fill="black"/>
<path d="M89.587 13.6824C89.7296 13.4338 89.9395 13.2304 90.1925 13.0958C90.4456 12.9612 90.7315 12.9008 91.0174 12.9216C92.0318 12.9216 92.884 13.7585 92.884 15.1939C92.884 16.6294 92.0115 17.4663 91.0174 17.4663C90.7315 17.4871 90.4456 17.4267 90.1925 17.2921C89.9395 17.1575 89.7296 16.9541 89.587 16.7055V18.7851H88.8465V12.9926H89.587V13.6824ZM92.0775 15.2041C92.0775 14.1897 91.5702 13.5658 90.8297 13.5658C90.1703 13.5658 89.5515 14.073 89.5515 15.2041C89.5515 16.3352 90.1703 16.8424 90.8297 16.8424C91.5855 16.8323 92.0572 16.2337 92.0572 15.1939L92.0775 15.2041Z" fill="black"/>
<path d="M94.4399 13.6824C94.5825 13.4338 94.7924 13.2304 95.0454 13.0958C95.2985 12.9612 95.5844 12.9008 95.8703 12.9216C96.8847 12.9216 97.7368 13.7585 97.7368 15.1939C97.7368 16.6294 96.8695 17.4663 95.8703 17.4663C95.5844 17.4871 95.2985 17.4267 95.0454 17.2921C94.7924 17.1575 94.5825 16.9541 94.4399 16.7055V18.7851H93.6994V12.9926H94.4399V13.6824ZM96.9304 15.2041C96.9304 14.1897 96.4231 13.5658 95.6826 13.5658C95.0232 13.5658 94.4095 14.073 94.4095 15.2041C94.4095 16.3352 95.0232 16.8424 95.6826 16.8424C96.4384 16.8323 96.9304 16.2337 96.9304 15.1939V15.2041Z" fill="black"/>
<path d="M100.402 17.4661C99.3872 17.4661 98.3068 16.7763 98.3068 15.1937C98.3068 13.6112 99.3821 12.9214 100.402 12.9214C101.007 12.9214 101.588 13.1619 102.016 13.5899C102.444 14.018 102.684 14.5985 102.684 15.2039C102.684 15.8092 102.444 16.3898 102.016 16.8178C101.588 17.2459 101.007 17.4864 100.402 17.4864V17.4661ZM101.695 15.1937C101.695 14.0322 101.056 13.5706 100.391 13.5706C99.727 13.5706 99.0829 14.0018 99.0829 15.1937C99.0829 16.3857 99.722 16.8168 100.391 16.8168C101.061 16.8168 101.695 16.3147 101.695 15.1937Z" fill="black"/>
<path d="M105.078 13.7333C104.399 13.7333 104.064 14.1137 104.064 15.0723V17.3751H103.318V12.9927H104.044V13.7586C104.148 13.5198 104.32 13.3174 104.54 13.1774C104.759 13.0373 105.016 12.966 105.276 12.9725H105.494V13.7586C105.342 13.7485 105.2 13.7333 105.078 13.7333Z" fill="black"/>
<path d="M107.301 11.8975V12.9931H108.132V13.5865H107.301V16.1784C107.301 16.6298 107.336 16.7465 107.757 16.7465H108.132V17.3754H107.595C106.758 17.3754 106.58 17.1928 106.58 16.2798V13.5865H105.89V12.9931H106.58V11.8975H107.301Z" fill="black"/>
<path d="M110.62 16.8169C110.87 16.8405 111.121 16.7833 111.337 16.6537C111.552 16.5241 111.72 16.3289 111.817 16.0967H112.577C112.456 16.5138 112.196 16.877 111.84 17.126C111.484 17.3751 111.053 17.4951 110.62 17.4662C109.24 17.4662 108.479 16.4517 108.479 15.1888C108.457 14.8977 108.495 14.6052 108.592 14.3297C108.688 14.0542 108.841 13.8018 109.04 13.5886C109.24 13.3754 109.481 13.206 109.75 13.0911C110.018 12.9763 110.307 12.9185 110.599 12.9215C111.928 12.9215 112.735 14.0425 112.628 15.4221H109.301C109.293 15.6011 109.321 15.7798 109.383 15.9478C109.445 16.1157 109.541 16.2693 109.664 16.3995C109.787 16.5297 109.935 16.6337 110.099 16.7054C110.264 16.7772 110.44 16.8151 110.62 16.8169V16.8169ZM111.857 14.7881C111.857 14.4464 111.722 14.1187 111.48 13.8771C111.238 13.6355 110.911 13.4997 110.569 13.4997C110.227 13.4997 109.9 13.6355 109.658 13.8771C109.416 14.1187 109.281 14.4464 109.281 14.7881H111.857Z" fill="black"/>
<path d="M117.225 11.4763V17.3753H116.485V16.721C116.342 16.9696 116.132 17.173 115.879 17.3076C115.626 17.4422 115.34 17.5026 115.054 17.4818C114.04 17.4818 113.188 16.655 113.188 15.2095C113.188 13.7639 114.055 12.9371 115.054 12.9371C115.34 12.9163 115.626 12.9767 115.879 13.1113C116.132 13.2459 116.342 13.4493 116.485 13.6979V11.4763H117.225ZM113.994 15.1942C113.994 16.2087 114.501 16.8326 115.242 16.8326C115.901 16.8326 116.515 16.3253 116.515 15.1942C116.515 14.0631 115.901 13.5559 115.242 13.5559C114.486 13.5559 113.994 14.1544 113.994 15.1942Z" fill="black"/>
<path d="M121.018 13.6827C121.161 13.4341 121.371 13.2307 121.624 13.0961C121.877 12.9615 122.163 12.9011 122.449 12.9219C123.463 12.9219 124.315 13.7588 124.315 15.1942C124.315 16.6297 123.448 17.4666 122.449 17.4666C122.163 17.4873 121.877 17.427 121.624 17.2923C121.371 17.1577 121.161 16.9544 121.018 16.7057V17.3753H120.278V11.4763H121.018V13.6827ZM123.514 15.2044C123.514 14.1899 123.007 13.5661 122.261 13.5661C121.602 13.5661 120.988 14.0733 120.988 15.2044C120.988 16.3355 121.602 16.8427 122.261 16.8427C123.017 16.8326 123.499 16.234 123.499 15.1942L123.514 15.2044Z" fill="black"/>
<path d="M126.675 17.5473C126.36 18.5009 126.132 18.7849 125.153 18.7849H124.768V18.1661H125.072C125.579 18.1661 125.792 18.1357 125.985 17.4509L126.036 17.3748L124.458 13.0077H125.28L126.391 16.3807L127.471 13.0077H128.242L126.675 17.5473Z" fill="black"/>
<path d="M58.5099 27.8826L60.3001 34.5414L62.0244 27.8826H63.6574L61.0659 36.8895H59.6763L57.6832 29.6373L55.7611 36.8895H54.3766L51.78 27.8826H53.4181L55.1424 34.5414L56.9377 27.8826H58.5099Z" fill="black"/>
<path d="M68.44 35.7646C68.955 35.8124 69.4718 35.6938 69.9146 35.4264C70.3573 35.1589 70.7027 34.7566 70.9 34.2784H72.4724C72.0564 35.8356 70.6312 37.1036 68.44 37.1036C65.5945 37.1036 64.0221 35.0748 64.0221 32.4017C64.0221 29.5562 65.9292 27.7302 68.3892 27.7302C71.1333 27.7302 72.7919 30.0431 72.589 32.8886H65.6858C65.6708 33.2601 65.7308 33.6307 65.8624 33.9784C65.9939 34.3261 66.1943 34.6437 66.4514 34.9122C66.7085 35.1807 67.0171 35.3946 67.3588 35.541C67.7005 35.6875 68.0682 35.7635 68.44 35.7646ZM70.9761 31.58C70.9123 30.9231 70.6064 30.3134 70.1179 29.8696C69.6294 29.4258 68.9932 29.1796 68.3332 29.179C67.6732 29.1783 67.0366 29.4233 66.5472 29.8662C66.0579 30.309 65.7508 30.9181 65.6858 31.5749L70.9761 31.58Z" fill="black"/>
<path d="M75.6866 29.3025C75.9832 28.7926 76.4159 28.3754 76.9364 28.0977C77.4569 27.82 78.0444 27.6928 78.6331 27.7304C80.6921 27.7304 82.4824 29.4547 82.4824 32.4164C82.4824 35.3782 80.6921 37.1025 78.6331 37.1025C78.0444 37.1401 77.4569 37.0129 76.9364 36.7352C76.4159 36.4575 75.9832 36.0403 75.6866 35.5303V36.8895H74.1651V24.7534H75.6866V29.3025ZM80.824 32.4164C80.824 30.2763 79.8097 29.0388 78.2477 29.0388C76.8936 29.0388 75.6206 30.0531 75.6206 32.4164C75.6206 34.7797 76.8936 35.7991 78.2477 35.7991C79.8046 35.7991 80.824 34.5617 80.824 32.4164Z" fill="black"/>
<path d="M87.1062 31.1791H86.8526V29.7895H87.0555C89.1652 29.7895 90.286 29.2063 90.286 27.7609C90.286 26.4575 89.2159 25.7881 87.9227 25.7881C87.5927 25.7618 87.2609 25.8028 86.9472 25.9083C86.6335 26.0139 86.3444 26.182 86.0974 26.4024C85.8505 26.6228 85.6508 26.891 85.5104 27.1907C85.3699 27.4904 85.2917 27.8155 85.2804 28.1463H83.7083C83.8908 26.0062 85.4123 24.5151 87.9582 24.5151C90.0679 24.5151 91.8936 25.3519 91.8936 27.5935C91.8943 28.2093 91.7046 28.8103 91.3506 29.3142C90.9965 29.818 90.4954 30.2001 89.9158 30.4082C91.7263 30.9762 92.2284 32.1781 92.2284 33.4511C92.2284 35.8955 90.149 37.0823 87.8415 37.0823C84.9964 37.0823 83.688 35.3123 83.5206 33.2837H85.0979C85.2652 34.7747 86.1476 35.8195 87.8567 35.8195C89.4644 35.8195 90.6004 34.9827 90.6004 33.4764C90.6004 31.7471 89.0435 31.1791 87.1062 31.1791Z" fill="black"/>
<path d="M100.884 24.7534H101.696V26.0264H100.94C100.139 26.0264 100.002 26.2089 100.002 27.1472V27.8825H101.696V29.1048H100.002V36.8895H98.4805V29.1048H97.2228V27.8825H98.4805V27.2283C98.4552 25.3569 98.8406 24.7534 100.884 24.7534Z" fill="black"/>
<path d="M106.528 37.1036C104.438 37.1036 102.211 35.6834 102.211 32.4169C102.211 29.1504 104.438 27.7302 106.528 27.7302C108.617 27.7302 110.849 29.1555 110.849 32.4169C110.849 35.6783 108.622 37.1036 106.528 37.1036ZM109.226 32.4169C109.226 30.0229 107.902 29.0693 106.528 29.0693C105.153 29.0693 103.834 29.9569 103.834 32.4169C103.834 34.8769 105.158 35.7646 106.528 35.7646C107.897 35.7646 109.226 34.7298 109.226 32.4169V32.4169Z" fill="black"/>
<path d="M115.251 37.1038C113.161 37.1038 112.375 35.6988 112.375 33.6395V27.8826H113.896V33.1881C113.896 34.5779 114.13 35.785 115.788 35.785C117.229 35.785 118.081 34.7706 118.081 32.8381V27.8826H119.603V36.8908H118.081V35.5974C117.796 36.087 117.38 36.4874 116.88 36.7535C116.38 37.0197 115.816 37.141 115.251 37.1038Z" fill="black"/>
<path d="M126.161 27.7301C128.342 27.7301 129.128 29.1351 129.128 31.1944V36.8905H127.606V31.6458C127.606 30.2611 127.373 29.054 125.633 29.054C124.157 29.054 123.254 30.0684 123.254 32.0009V36.8905H121.733V27.8823H123.254V29.2366C123.553 28.742 123.982 28.3396 124.495 28.0738C125.008 27.808 125.584 27.689 126.161 27.7301V27.7301Z" fill="black"/>
<path d="M138.95 24.7533V36.8893H137.429V35.5302C137.132 36.0401 136.699 36.4573 136.179 36.735C135.659 37.0127 135.071 37.1399 134.482 37.1023C132.423 37.1023 130.633 35.3983 130.633 32.4163C130.633 29.4342 132.423 27.7302 134.482 27.7302C135.071 27.6926 135.659 27.8198 136.179 28.0975C136.699 28.3752 137.132 28.7924 137.429 29.3024V24.738L138.95 24.7533ZM132.291 32.4163C132.291 34.5615 133.306 35.799 134.868 35.799C136.222 35.799 137.495 34.7847 137.495 32.4163C137.495 30.0479 136.222 29.0387 134.868 29.0387C133.311 29.0387 132.291 30.2761 132.291 32.4163Z" fill="black"/>
<path d="M146.628 31.3469V31.1288C146.628 29.4905 145.705 28.9376 144.6 28.9376C143.347 28.9376 142.611 29.6224 142.54 30.7281H140.968C141.12 28.7855 142.824 27.6848 144.584 27.6848C147.065 27.6848 148.186 28.8717 148.165 31.3977V33.4773C148.128 34.615 148.206 35.7537 148.399 36.8756H146.877C146.811 36.4644 146.772 36.0493 146.76 35.6329C146.207 36.5561 145.269 37.0887 143.676 37.0887C141.987 37.0887 140.582 36.1554 140.582 34.4968C140.537 32.3867 142.931 31.7679 146.628 31.3469ZM142.226 34.4765C142.226 35.3337 142.88 35.9018 143.966 35.9018C145.391 35.9018 146.745 35.2475 146.745 33.1222V32.5541C143.986 32.8382 142.226 33.2389 142.226 34.4765Z" fill="black"/>
<path d="M152.043 25.6206V27.8825H153.752V29.1047H152.043V34.445C152.043 35.3832 152.114 35.6165 152.981 35.6165H153.752V36.8894H152.646C150.922 36.8894 150.521 36.504 150.521 34.6276V29.1047H149.101V27.8825H150.521V25.6206H152.043Z" fill="black"/>
<path d="M156.728 26.5944H155.207V24.7534H156.728V26.5944ZM156.728 36.8895H155.207V27.8825H156.728V36.8895Z" fill="black"/>
<path d="M162.666 37.1036C160.571 37.1036 158.344 35.6834 158.344 32.4169C158.344 29.1504 160.571 27.7302 162.666 27.7302C164.76 27.7302 166.982 29.1555 166.982 32.4169C166.982 35.6783 164.755 37.1036 162.666 37.1036ZM165.359 32.4169C165.359 30.0229 164.035 29.0693 162.666 29.0693C161.296 29.0693 159.967 29.9569 159.967 32.4169C159.967 34.8769 161.291 35.7646 162.666 35.7646C164.04 35.7646 165.359 34.7298 165.359 32.4169Z" fill="black"/>
<path d="M173.038 27.7305C175.214 27.7305 176 29.1355 176 31.1948V36.8908H174.478V31.6462C174.478 30.2615 174.245 29.0543 172.5 29.0543C171.029 29.0543 170.126 30.0687 170.126 32.0012V36.8908H168.605V27.8826H170.126V29.2369C170.425 28.7416 170.856 28.3387 171.369 28.0728C171.883 27.8069 172.461 27.6884 173.038 27.7305Z" fill="black"/>
<path d="M60.4842 46.5253V54.3252C60.4842 56.1662 60.1495 56.9219 59.6322 57.4899C59.2268 57.8968 58.7395 58.2131 58.2027 58.4177C57.6659 58.6223 57.0918 58.7105 56.5183 58.6766C54.4897 58.6766 53.1052 57.7384 52.8212 55.9177H54.444C54.6418 56.719 55.1287 57.3377 56.5335 57.3377C56.8702 57.3623 57.2083 57.3153 57.5256 57.1999C57.8429 57.0846 58.1322 56.9034 58.3745 56.6683C58.7092 56.3183 58.9627 55.8974 58.9627 54.6752V53.8232C58.6825 54.327 58.2648 54.7408 57.7584 55.0165C57.252 55.2921 56.6777 55.4182 56.1024 55.3801C54.1093 55.3801 52.2836 53.7725 52.2836 50.8766C52.2836 47.9808 54.1093 46.3732 56.1024 46.3732C56.6798 46.337 57.2555 46.4661 57.7622 46.7454C58.2688 47.0248 58.6852 47.4428 58.9627 47.9504V46.5253H60.4842ZM53.942 50.8766C53.942 52.9357 54.9968 54.092 56.4777 54.092C57.8369 54.092 59.0135 53.1689 59.0135 50.8766C59.0135 48.5843 57.8267 47.6816 56.4777 47.6816C54.9968 47.6816 53.942 48.8176 53.942 50.8766V50.8766Z" fill="black"/>
<path d="M66.2399 48.0523C64.8349 48.0523 64.1298 48.8385 64.1298 50.8116V55.5338H62.6082V46.5256H64.0943V48.098C64.3112 47.6085 64.6673 47.1936 65.1183 46.905C65.5692 46.6164 66.0951 46.4668 66.6304 46.4749C66.7807 46.4651 66.9315 46.4651 67.0819 46.4749V48.098C66.8022 48.068 66.5211 48.0527 66.2399 48.0523V48.0523Z" fill="black"/>
<path d="M73.7991 49.9893V49.7712C73.7991 48.1329 72.8759 47.58 71.7702 47.58C70.5174 47.58 69.7819 48.2647 69.7109 49.3705H68.1385C68.2907 47.4278 69.9949 46.3271 71.755 46.3271C74.2302 46.3271 75.3562 47.514 75.336 50.0451V52.1196C75.2982 53.2574 75.3764 54.396 75.5693 55.518H74.0476C73.982 55.1083 73.9414 54.695 73.9259 54.2803C73.3781 55.1984 72.4397 55.7361 70.8471 55.7361C69.158 55.7361 67.753 54.7977 67.753 53.1391C67.7124 51.0291 70.0862 50.4103 73.7991 49.9893ZM69.3964 53.1239C69.3964 53.976 70.0507 54.5441 71.1362 54.5441C72.5615 54.5441 73.9157 53.8898 73.9157 51.7645V51.1965C71.1362 51.4805 69.3812 51.8609 69.3812 53.1239H69.3964Z" fill="black"/>
<path d="M81.7687 46.373C83.9447 46.373 84.7309 47.7831 84.7309 49.8424V55.5334H83.2092V50.2938C83.2092 48.9041 82.9759 47.6969 81.2311 47.6969C79.7601 47.6969 78.8573 48.7113 78.8573 50.6438V55.5334H77.3356V46.5252H78.8573V47.8795C79.1563 47.3841 79.5865 46.9812 80.1004 46.7153C80.6143 46.4495 81.1917 46.331 81.7687 46.373Z" fill="black"/>
<path d="M88.6609 44.2534V46.5102H90.37V47.7325H88.6609V53.0727C88.6609 54.011 88.7268 54.2442 89.5991 54.2442H90.37V55.5172H89.2644C87.5401 55.5172 87.1394 55.1318 87.1394 53.2553V47.7477H85.7144V46.5254H87.1394V44.2534H88.6609Z" fill="black"/>
<path d="M94.876 47.6665C93.9884 47.6665 92.9841 47.981 92.9841 48.8027C92.9841 49.523 93.4913 49.8577 94.3586 50.0251L95.6318 50.2736C97.2701 50.5932 98.7106 51.212 98.7106 52.9568C98.7106 54.7017 97.1027 55.7516 95.0434 55.7516C92.6848 55.7516 91.3458 54.1944 91.1784 52.6221H92.7863C92.8538 53.1669 93.131 53.664 93.5591 54.0078C93.9871 54.3516 94.5323 54.515 95.0789 54.4633C96.2303 54.4633 97.1686 53.9561 97.1686 53.1242C97.1686 52.2924 96.3165 51.8308 95.3427 51.633L94.0036 51.3642C92.7863 51.1106 91.4675 50.5425 91.4675 48.8686C91.4675 47.2811 93.0754 46.3579 95.0688 46.3579C97.0621 46.3579 98.3352 47.4484 98.6193 49.1527H97.0266C96.7679 48.0825 95.931 47.6665 94.876 47.6665Z" fill="black"/>
<path d="M106.057 47.9505C106.353 47.44 106.786 47.0221 107.306 46.7436C107.826 46.465 108.414 46.3368 109.003 46.3733C111.062 46.3733 112.853 48.0976 112.853 51.0644C112.853 54.0312 111.062 55.7504 109.003 55.7504C108.414 55.7881 107.826 55.6604 107.305 55.3817C106.785 55.1031 106.352 54.6845 106.057 54.1732V58.4536H104.535V46.5254H106.057V47.9505ZM111.199 51.0644C111.199 48.9192 110.185 47.6817 108.618 47.6817C107.264 47.6817 105.991 48.696 105.991 51.0644C105.991 53.4328 107.264 54.442 108.618 54.442C110.175 54.442 111.199 53.2046 111.199 51.0644V51.0644Z" fill="black"/>
<path d="M118.095 48.0523C116.69 48.0523 115.985 48.8385 115.985 50.8116V55.5338H114.464V46.5256H115.955V48.098C116.171 47.6077 116.526 47.192 116.978 46.9033C117.429 46.6145 117.955 46.4655 118.491 46.4749C118.641 46.4651 118.792 46.4651 118.942 46.4749V48.098C118.661 48.0676 118.378 48.0524 118.095 48.0523V48.0523Z" fill="black"/>
<path d="M123.837 55.7518C121.743 55.7518 119.516 54.3265 119.516 51.0651C119.516 47.8036 121.743 46.3733 123.837 46.3733C125.932 46.3733 128.154 47.7986 128.154 51.0651C128.154 54.3316 125.927 55.7518 123.837 55.7518ZM126.531 51.0651C126.531 48.671 125.207 47.7124 123.837 47.7124C122.468 47.7124 121.139 48.6 121.139 51.0651C121.139 53.5302 122.463 54.4127 123.837 54.4127C125.212 54.4127 126.546 53.3831 126.546 51.0651H126.531Z" fill="black"/>
<path d="M137.438 46.5251V54.3251C137.438 56.166 137.103 56.9217 136.586 57.4897C136.18 57.8967 135.693 58.2129 135.156 58.4175C134.619 58.6221 134.045 58.7103 133.472 58.6764C131.443 58.6764 130.059 57.7382 129.77 55.9175H131.397C131.595 56.7188 132.082 57.3375 133.487 57.3375C133.824 57.3621 134.162 57.3151 134.479 57.1997C134.796 57.0844 135.086 56.9032 135.328 56.6681C135.663 56.3182 135.916 55.8972 135.916 54.675V53.823C135.636 54.3276 135.217 54.742 134.71 55.0177C134.202 55.2934 133.627 55.419 133.051 55.3799C131.063 55.3799 129.237 53.7723 129.237 50.8765C129.237 47.9806 131.063 46.373 133.051 46.373C133.629 46.3358 134.206 46.4645 134.713 46.7439C135.221 47.0233 135.638 47.4418 135.916 47.9502V46.5251H137.438ZM130.895 50.8765C130.895 52.9355 131.945 54.0918 133.431 54.0918C134.79 54.0918 135.967 53.1688 135.967 50.8765C135.967 48.5841 134.78 47.6814 133.431 47.6814C131.945 47.6814 130.895 48.8174 130.895 50.8765V50.8765Z" fill="black"/>
<path d="M143.196 48.0523C141.791 48.0523 141.086 48.8385 141.086 50.8116V55.5338H139.564V46.5256H141.05V48.098C141.267 47.6081 141.623 47.1928 142.074 46.9041C142.525 46.6154 143.051 46.4661 143.586 46.4749C143.737 46.4651 143.887 46.4651 144.038 46.4749V48.098C143.758 48.0682 143.477 48.0529 143.196 48.0523Z" fill="black"/>
<path d="M150.74 49.9893V49.7712C150.74 48.1329 149.817 47.58 148.711 47.58C147.458 47.58 146.718 48.2647 146.652 49.3705H145.079C145.232 47.4278 146.936 46.3271 148.696 46.3271C151.171 46.3271 152.292 47.514 152.277 50.0451V52.1196C152.239 53.2574 152.317 54.396 152.51 55.518H150.989C150.925 55.1081 150.886 54.6948 150.872 54.2803C150.319 55.1984 149.386 55.7361 147.793 55.7361C146.104 55.7361 144.694 54.7977 144.694 53.1391C144.643 51.0291 147.037 50.4103 150.74 49.9893ZM146.322 53.1239C146.322 53.976 146.971 54.5441 148.062 54.5441C149.487 54.5441 150.841 53.8898 150.841 51.7645V51.1965C148.092 51.4805 146.322 51.8609 146.322 53.1239Z" fill="black"/>
<path d="M154.284 55.5319V46.525H155.805V47.879C156.073 47.4011 156.468 47.0063 156.946 46.7379C157.423 46.4695 157.966 46.3379 158.513 46.3576C159.888 46.3576 160.709 46.9611 161.11 47.95C161.431 47.439 161.882 47.0223 162.416 46.7425C162.951 46.4627 163.55 46.3299 164.153 46.3576C166.247 46.3576 167.064 47.7675 167.064 49.8265V55.5167H165.543V50.2931C165.543 48.9035 165.274 47.6965 163.62 47.6965C162.312 47.6965 161.44 48.7108 161.44 50.643V55.5319H159.918V50.2931C159.918 48.9035 159.649 47.6965 157.996 47.6965C156.688 47.6965 155.821 48.7108 155.821 50.643V55.5319H154.284Z" fill="black"/>
</svg>
