<svg width="176" height="80" viewBox="0 0 176 80" fill="none" xmlns="http://www.w3.org/2000/svg">
<path d="M18.5344 14.415L22.13 25.3502L25.2067 14.415H30.73L25.0214 32.8381H19.424L15.4206 20.9391L11.4913 32.8381H5.78272L0 14.415H5.85686L8.93357 25.3095L12.5663 14.4113L18.5344 14.415Z" fill="black"/>
<path d="M49.8187 27.5332C48.9291 30.7211 46.0007 33.3901 41.33 33.3901C36.2516 33.3901 31.7292 29.7574 31.7292 23.5669C31.7292 17.6359 36.1404 13.8549 40.9222 13.8549C46.6308 13.8549 50.1524 17.3764 50.1524 23.3074C50.1585 23.8901 50.1213 24.4724 50.0412 25.0496H37.2154C37.3266 27.1255 39.2171 28.6082 41.4041 28.6082C43.4429 28.6082 44.592 27.6444 45.111 26.1988L49.8187 27.5332ZM44.7033 21.4169C44.6291 20.0083 43.6653 18.3031 40.9964 18.3031C38.624 18.3031 37.4378 20.0453 37.3266 21.4169H44.7033Z" fill="black"/>
<path d="M53.7921 32.8379V6.00012H59.3153V16.157C60.0937 15.0078 62.1325 13.9699 64.6532 13.9699C69.9911 13.9699 73.2161 18.0475 73.2161 23.5707C73.2161 29.2052 69.5833 33.2457 64.4308 33.2457C61.9842 33.2457 60.0937 32.1707 59.2412 30.762V32.8379H53.7921ZM63.4299 19.0483C61.2429 19.0483 59.2412 20.494 59.2412 23.6078C59.2412 26.6474 61.2429 28.2043 63.4299 28.2043C65.617 28.2043 67.5816 26.6845 67.5816 23.6078C67.5816 20.5311 65.617 19.0483 63.4299 19.0483Z" fill="black"/>
<path d="M80.62 18.53L86.551 13.674H76.5053V8.78088H93.8572V13.3033L87.9262 17.8961C89.7803 18.0133 91.5173 18.8423 92.7745 20.2101C94.0317 21.5778 94.7118 23.3784 94.6727 25.2357C94.6727 29.4986 91.1512 33.3538 85.2202 33.3538C79.6191 33.3538 76.0605 29.7581 75.6898 25.6435L81.328 24.6055C81.4021 26.7184 82.9219 28.3865 85.1831 28.3865C87.4443 28.3865 88.7788 26.8667 88.7788 25.0874C88.7788 22.7892 86.9995 21.8254 85.2943 21.8254C84.5443 21.8419 83.8083 22.0322 83.1443 22.3814L80.62 18.53Z" fill="black"/>
<path d="M101.343 25.5729C102.348 25.5757 103.312 25.9739 104.027 26.6814C104.741 27.3889 105.149 28.349 105.161 29.3544C105.161 30.3623 104.761 31.3288 104.048 32.0415C103.336 32.7541 102.369 33.1545 101.361 33.1545C100.353 33.1545 99.3869 32.7541 98.6742 32.0415C97.9616 31.3288 97.5612 30.3623 97.5612 29.3544C97.5651 28.3527 97.9648 27.3931 98.6731 26.6848C99.3815 25.9764 100.341 25.5768 101.343 25.5729V25.5729Z" fill="black"/>
<path d="M110.169 12.3357C111.763 9.92623 114.432 8.22107 118.325 8.22107C122.217 8.22107 124.923 9.92623 126.517 12.3357C128.185 14.8564 128.63 17.8589 128.63 20.8244C128.63 23.7899 128.185 26.7925 126.517 29.3132C124.923 31.6856 122.254 33.4278 118.325 33.4278C114.395 33.4278 111.763 31.6856 110.169 29.3132C108.501 26.7925 108.053 23.7899 108.053 20.8244C108.053 17.8589 108.501 14.8601 110.169 12.3357ZM114.803 26.0511C115.47 27.3856 116.545 28.2753 118.325 28.2753C120.104 28.2753 121.179 27.3856 121.846 26.0511C122.55 24.6425 122.773 22.752 122.773 20.8244C122.773 18.8969 122.55 17.0064 121.846 15.5977C121.179 14.2633 120.141 13.3736 118.325 13.3736C116.508 13.3736 115.47 14.2633 114.803 15.5977C114.136 17.0064 113.913 18.8969 113.913 20.8244C113.913 22.752 114.136 24.6462 114.803 26.0511Z" fill="black"/>
<path d="M2.07324 66.9417V40.1039H7.59648V50.2607C8.37493 49.1116 10.4137 48.0737 12.9344 48.0737C18.2723 48.0737 21.4973 52.1512 21.4973 57.6745C21.4973 63.3089 17.8645 67.3494 12.712 67.3494C10.2654 67.3494 8.37493 66.2744 7.52235 64.8658V66.9417H2.07324ZM11.7111 53.1521C9.52406 53.1521 7.52235 54.5978 7.52235 57.7115C7.52235 60.7512 9.52406 62.3081 11.7111 62.3081C13.8982 62.3081 15.8628 60.7882 15.8628 57.7115C15.8628 54.6348 13.8982 53.1521 11.7111 53.1521Z" fill="black"/>
<path d="M43.3683 57.7108C43.3683 63.4193 39.1054 67.4969 33.5822 67.4969C28.0589 67.4969 23.796 63.4193 23.796 57.7108C23.796 52.0022 28.096 47.9617 33.5822 47.9617C39.0683 47.9617 43.3683 51.9985 43.3683 57.7108ZM37.7339 57.7108C37.7339 54.597 35.7322 53.1513 33.5822 53.1513C31.4322 53.1513 29.4305 54.597 29.4305 57.7108C29.4305 60.8245 31.4692 62.3073 33.5822 62.3073C35.6951 62.3073 37.7339 60.8245 37.7339 57.7108V57.7108Z" fill="black"/>
<path d="M65.2431 57.7108C65.2431 63.4193 60.9802 67.4969 55.4569 67.4969C49.9337 67.4969 45.6708 63.4193 45.6708 57.7108C45.6708 52.0022 49.9707 47.9617 55.4569 47.9617C60.9431 47.9617 65.2431 51.9985 65.2431 57.7108ZM59.6086 57.7108C59.6086 54.597 57.6069 53.1513 55.4569 53.1513C53.3069 53.1513 51.3052 54.597 51.3052 57.7108C51.3052 60.8245 53.344 62.3073 55.4569 62.3073C57.5698 62.3073 59.6086 60.8245 59.6086 57.7108V57.7108Z" fill="black"/>
<path d="M75.5821 48.5185H79.1777V53.4487H75.5821V60.3435C75.5821 61.8633 76.3976 62.271 77.6208 62.271C78.1203 62.2627 78.6174 62.2006 79.1036 62.0857V66.7563C78.8812 66.8676 77.9545 67.2753 76.1752 67.2753C72.3571 67.2753 70.0218 65.0141 70.0218 61.3443V53.4487H66.7597V48.5185H67.6864C69.614 48.5185 70.5407 47.2211 70.5407 45.516V43.1436H75.5821V48.5185Z" fill="black"/>
<path d="M87.2956 57.7478C87.2956 60.6762 89.2603 62.3073 91.5956 62.3073C92.4475 62.3448 93.2873 62.0947 93.9798 61.5972C94.6724 61.0996 95.1774 60.3835 95.4137 59.5642L100.381 61.084C99.5654 64.309 96.5257 67.4969 91.5956 67.4969C86.1094 67.4969 81.6982 63.4564 81.6982 57.7478C81.6982 52.0392 85.9982 47.9617 91.4102 47.9617C96.4887 47.9617 99.4542 51.0754 100.27 54.3746L95.2283 55.8944C95.0254 55.0777 94.5444 54.3572 93.8679 53.8566C93.1915 53.356 92.3618 53.1066 91.5215 53.1513C89.1861 53.1513 87.2956 54.7823 87.2956 57.7478Z" fill="black"/>
<path d="M108.128 56.3021L112.465 55.6349C113.466 55.4866 113.799 55.0047 113.799 54.3746C113.799 53.2996 112.873 52.3728 111.093 52.3728C109.129 52.3728 108.05 53.7073 107.942 55.0789L103.046 54.078C103.268 51.4461 105.715 47.9617 111.13 47.9617C117.098 47.9617 119.285 51.2979 119.285 55.0789V64.0866C119.284 65.0424 119.359 65.9968 119.508 66.9409H114.429C114.288 66.2584 114.225 65.5618 114.244 64.865C113.28 66.4219 111.501 67.4598 109.055 67.4598C105.01 67.4598 102.675 64.7909 102.675 61.8625C102.675 58.6004 105.084 56.747 108.128 56.3021ZM113.799 59.7125V58.897L110.315 59.453C109.129 59.6383 108.235 60.1944 108.235 61.4918C108.235 62.4556 108.869 63.3823 110.426 63.3823C112.094 63.3823 113.799 62.5668 113.799 59.7125Z" fill="black"/>
<path d="M123.543 66.9409V48.5177H128.918V50.6306C129.844 48.9996 132.217 47.9617 134.219 47.9617C136.854 47.9617 138.745 49.0367 139.671 50.853C141.117 48.7772 142.896 47.9617 145.38 47.9617C148.864 47.9617 152.201 50.0005 152.201 55.0047V66.9409H146.752V56.2651C146.752 54.5228 145.825 53.1513 143.823 53.1513C141.821 53.1513 140.746 54.6711 140.746 56.3021V66.9409H135.186V56.2651C135.186 54.5228 134.259 53.1513 132.221 53.1513C130.256 53.1513 129.181 54.6711 129.181 56.3392V66.9409H123.543Z" fill="black"/>
<path d="M156.576 73.9847V48.5184H162.025V50.4089C162.804 49.2227 164.805 48.0736 167.437 48.0736C172.775 48.0736 176 52.1512 176 57.6744C176 63.3089 172.367 67.3494 167.215 67.3494C164.842 67.3494 163.063 66.5338 162.21 65.4959V73.9847H156.576ZM166.288 53.152C164.101 53.152 162.136 54.6348 162.136 57.7115C162.136 60.7882 164.101 62.308 166.288 62.308C168.475 62.308 170.477 60.7882 170.477 57.7115C170.477 54.6348 168.512 53.152 166.288 53.152Z" fill="black"/>
</svg>
