<svg width="206" height="80" viewBox="0 0 206 80" fill="none" xmlns="http://www.w3.org/2000/svg">
<g clip-path="url(#clip0)">
<path d="M34.1865 34.1764V29.122C34.1873 28.2255 33.9211 27.349 33.4219 26.6043C32.9227 25.8596 32.2131 25.2805 31.3836 24.9406L0 12V14.8029L27.9546 26.2903C28.2374 26.4131 28.4608 26.6418 28.5768 26.9275C28.6928 27.2132 28.6921 27.533 28.5749 27.8181C28.5197 27.9587 28.4362 28.0863 28.3294 28.193C28.2227 28.2997 28.0951 28.3833 27.9546 28.4385L0 39.9948V51.2697L16.8463 44.3198L27.9201 48.886C28.062 48.9438 28.1908 49.0293 28.2991 49.1376C28.4074 49.2458 28.493 49.3746 28.5508 49.5165C28.6086 49.6583 28.6374 49.8102 28.6357 49.9633C28.6339 50.1164 28.6015 50.2677 28.5404 50.4081C28.4853 50.5486 28.4017 50.6762 28.295 50.783C28.1882 50.8897 28.0606 50.9733 27.9201 51.0284L0 62.5503V80.3558L31.3434 67.4497C32.1729 67.1098 32.8825 66.5306 33.3817 65.7859C33.8809 65.0412 34.1471 64.1648 34.1463 63.2683V51.6832C34.1474 50.7859 33.8815 49.9085 33.3823 49.1629C32.8832 48.4172 32.1734 47.837 31.3434 47.4961L20.2408 42.9011L31.3434 38.3349C32.1837 38.0127 32.9059 37.4422 33.4138 36.6993C33.9217 35.9564 34.1913 35.0764 34.1865 34.1764V34.1764Z" fill="black"/>
<path d="M60.0292 16.1704C60.1907 15.8888 60.4284 15.6585 60.715 15.5061C61.0016 15.3536 61.3254 15.2852 61.6492 15.3087C62.7981 15.3087 63.7632 16.2566 63.7632 17.8823C63.7632 19.508 62.7809 20.4558 61.6492 20.4558C61.3254 20.4793 61.0016 20.4109 60.715 20.2585C60.4284 20.106 60.1907 19.8757 60.0292 19.5941V21.9494H59.1963V15.3892H60.0292V16.1704ZM62.8555 17.8938C62.8555 16.7449 62.2811 16.0383 61.4367 16.0383C60.6956 16.0383 59.9948 16.6127 59.9948 17.8938C59.9948 19.1748 60.6956 19.7492 61.4367 19.7492C62.327 19.7377 62.867 19.0599 62.867 17.8823L62.8555 17.8938Z" fill="black"/>
<path d="M66.7002 16.2277C65.9305 16.2277 65.5513 16.6586 65.5513 17.7443V20.3523H64.7126V15.389H65.5284V16.2565C65.6479 15.9874 65.844 15.7594 66.0923 15.6011C66.3405 15.4428 66.6299 15.361 66.9243 15.3661H67.1713V16.2565C66.999 16.245 66.8381 16.2277 66.7002 16.2277Z" fill="black"/>
<path d="M69.8998 20.4554C68.7509 20.4554 67.5331 19.6742 67.5331 17.8819C67.5331 16.0896 68.7509 15.3083 69.8998 15.3083C71.0487 15.3083 72.2723 16.0896 72.2723 17.8819C72.2723 19.6742 71.0545 20.4554 69.8998 20.4554ZM71.3819 17.8819C71.3819 16.5664 70.6581 16.0436 69.8998 16.0436C69.1416 16.0436 68.4235 16.5319 68.4235 17.8819C68.4235 19.2318 69.1473 19.7201 69.8998 19.7201C70.6524 19.7201 71.3819 19.1514 71.3819 17.8819Z" fill="black"/>
<path d="M74.0125 15.3896V20.5597C74.0125 21.5879 73.8 21.9211 72.8636 21.9211H72.4385V21.2203H72.6683C73.0991 21.2203 73.1796 21.0939 73.1796 20.5769V15.3896H74.0125ZM74.0125 14.683H73.1738V13.672H74.0125V14.683Z" fill="black"/>
<path d="M77.3577 19.7203C77.6405 19.7475 77.9245 19.6829 78.1677 19.5359C78.4109 19.389 78.6002 19.1676 78.7076 18.9045H79.5636C79.4259 19.377 79.1311 19.7883 78.7279 20.0703C78.3246 20.3524 77.8372 20.4883 77.3462 20.4556C75.7837 20.4556 74.922 19.3067 74.922 17.8763C74.8957 17.5469 74.9382 17.2157 75.047 16.9037C75.1557 16.5918 75.3283 16.3059 75.5536 16.0643C75.779 15.8227 76.0523 15.6307 76.3559 15.5006C76.6596 15.3705 76.9871 15.305 77.3175 15.3085C78.8283 15.3085 79.7359 16.578 79.6153 18.1405H75.8296C75.8219 18.3457 75.8557 18.5503 75.9291 18.7421C76.0025 18.9338 76.1139 19.1088 76.2567 19.2563C76.3994 19.4039 76.5705 19.5211 76.7597 19.6008C76.949 19.6806 77.1524 19.7212 77.3577 19.7203V19.7203ZM78.7536 17.4225C78.7303 17.052 78.5668 16.7044 78.2962 16.4504C78.0257 16.1963 77.6685 16.0549 77.2974 16.0549C76.9262 16.0549 76.569 16.1963 76.2985 16.4504C76.028 16.7044 75.8644 17.052 75.8411 17.4225H78.7536Z" fill="black"/>
<path d="M83.8821 17.0434C83.8191 16.7533 83.6564 16.4945 83.4224 16.3119C83.1884 16.1293 82.8978 16.0344 82.6011 16.0439C81.86 16.0439 81.1764 16.6183 81.1764 17.8649C81.1764 19.1115 81.8658 19.7204 82.6011 19.7204C82.901 19.7305 83.1953 19.6373 83.4348 19.4564C83.6742 19.2755 83.8443 19.0179 83.9165 18.7266H84.784C84.6724 19.2247 84.3916 19.6687 83.9894 19.983C83.5871 20.2972 83.0884 20.4622 82.5781 20.4499C81.1592 20.4499 80.2803 19.3757 80.2803 17.8706C80.2803 16.3656 81.2109 15.3029 82.67 15.3029C83.1643 15.2936 83.6453 15.4627 84.0251 15.7792C84.4049 16.0956 84.658 16.5383 84.738 17.0262L83.8821 17.0434Z" fill="black"/>
<path d="M86.7247 14.1489V15.3897H87.6611V16.0618H86.7247V18.9973C86.7247 19.5085 86.7649 19.6407 87.2417 19.6407H87.6611V20.353H87.0579C86.11 20.353 85.909 20.1462 85.909 19.1122V16.0618H85.1277V15.3897H85.8803V14.1489H86.7247Z" fill="black"/>
<path d="M92.446 16.0154C91.9577 16.0154 91.4062 16.1935 91.4062 16.6416C91.4062 17.0897 91.6819 17.2161 92.1587 17.3137L92.8596 17.4516C93.7557 17.6239 94.5484 17.9628 94.5484 18.9222C94.5484 19.8815 93.6638 20.4559 92.5379 20.4559C92.0306 20.4942 91.5279 20.337 91.1327 20.0166C90.7376 19.6962 90.4799 19.2368 90.4124 18.7326H91.2913C91.326 19.0338 91.4782 19.309 91.715 19.4984C91.9517 19.6878 92.2537 19.7759 92.5551 19.7436C93.187 19.7436 93.704 19.4679 93.704 19.0083C93.704 18.5488 93.233 18.3018 92.6987 18.1926L91.9634 18.0433C91.2913 17.9054 90.556 17.5894 90.556 16.6703C90.556 15.7512 91.4407 15.2916 92.5379 15.2916C92.9997 15.2515 93.4595 15.389 93.8235 15.6761C94.1875 15.9632 94.4283 16.3784 94.4967 16.8369H93.6236C93.5668 16.5769 93.414 16.3478 93.1957 16.1955C92.9774 16.0433 92.7096 15.9789 92.446 16.0154V16.0154Z" fill="black"/>
<path d="M97.025 20.4561C95.8761 20.4561 95.4453 19.6863 95.4453 18.5546V15.3894H96.2782V18.3076C96.2782 19.0716 96.4103 19.7322 97.318 19.7322C98.1107 19.7322 98.576 19.1578 98.576 18.1123V15.3894H99.4147V20.3527H98.576V19.6461C98.419 19.9126 98.1905 20.1297 97.9163 20.2729C97.6422 20.4161 97.3334 20.4795 97.025 20.4561V20.4561Z" fill="black"/>
<path d="M101.462 16.1704C101.623 15.8888 101.861 15.6585 102.147 15.5061C102.434 15.3536 102.758 15.2852 103.082 15.3087C104.23 15.3087 105.195 16.2566 105.195 17.8823C105.195 19.508 104.207 20.4558 103.082 20.4558C102.758 20.4793 102.434 20.4109 102.147 20.2585C101.861 20.106 101.623 19.8757 101.462 19.5941V21.9494H100.623V15.3892H101.462V16.1704ZM104.282 17.8938C104.282 16.7449 103.708 16.0383 102.869 16.0383C102.122 16.0383 101.421 16.6127 101.421 17.8938C101.421 19.1748 102.122 19.7492 102.869 19.7492C103.725 19.7377 104.259 19.0599 104.259 17.8823L104.282 17.8938Z" fill="black"/>
<path d="M106.958 16.1704C107.119 15.8888 107.357 15.6585 107.643 15.5061C107.93 15.3536 108.254 15.2852 108.578 15.3087C109.727 15.3087 110.692 16.2566 110.692 17.8823C110.692 19.508 109.709 20.4558 108.578 20.4558C108.254 20.4793 107.93 20.4109 107.643 20.2585C107.357 20.106 107.119 19.8757 106.958 19.5941V21.9494H106.119V15.3892H106.958V16.1704ZM109.778 17.8938C109.778 16.7449 109.204 16.0383 108.365 16.0383C107.618 16.0383 106.923 16.6127 106.923 17.8938C106.923 19.1748 107.618 19.7492 108.365 19.7492C109.221 19.7377 109.778 19.0599 109.778 17.8823V17.8938Z" fill="black"/>
<path d="M113.71 20.4554C112.561 20.4554 111.337 19.6742 111.337 17.8819C111.337 16.0896 112.555 15.3083 113.71 15.3083C114.395 15.3083 115.053 15.5807 115.538 16.0655C116.022 16.5503 116.295 17.2078 116.295 17.8934C116.295 18.579 116.022 19.2365 115.538 19.7213C115.053 20.206 114.395 20.4784 113.71 20.4784V20.4554ZM115.174 17.8819C115.174 16.5664 114.451 16.0436 113.698 16.0436C112.946 16.0436 112.216 16.5319 112.216 17.8819C112.216 19.2318 112.94 19.7201 113.698 19.7201C114.456 19.7201 115.174 19.1514 115.174 17.8819Z" fill="black"/>
<path d="M119.006 16.228C118.236 16.228 117.857 16.6588 117.857 17.7445V20.3525H117.013V15.3893H117.834V16.2567C117.952 15.9862 118.148 15.757 118.396 15.5984C118.645 15.4398 118.935 15.359 119.23 15.3663H119.477V16.2567C119.305 16.2452 119.144 16.228 119.006 16.228Z" fill="black"/>
<path d="M121.523 14.1489V15.3897H122.465V16.0618H121.523V18.9973C121.523 19.5085 121.563 19.6407 122.04 19.6407H122.465V20.353H121.856C120.908 20.353 120.707 20.1462 120.707 19.1122V16.0618H119.926V15.3897H120.707V14.1489H121.523Z" fill="black"/>
<path d="M125.282 19.7203C125.565 19.7469 125.85 19.6821 126.094 19.5353C126.338 19.3885 126.528 19.1675 126.638 18.9045H127.499C127.362 19.377 127.067 19.7883 126.664 20.0703C126.26 20.3524 125.773 20.4883 125.282 20.4555C123.719 20.4555 122.858 19.3066 122.858 17.8763C122.832 17.5466 122.876 17.2153 122.985 16.9033C123.094 16.5913 123.268 16.3055 123.493 16.064C123.719 15.8225 123.993 15.6307 124.297 15.5006C124.601 15.3705 124.928 15.3051 125.259 15.3085C126.764 15.3085 127.677 16.578 127.557 18.1405H123.788C123.779 18.3432 123.811 18.5457 123.881 18.7359C123.952 18.926 124.06 19.1 124.2 19.2475C124.339 19.3949 124.507 19.5127 124.693 19.594C124.879 19.6752 125.079 19.7181 125.282 19.7203V19.7203ZM126.684 17.4225C126.684 17.0355 126.53 16.6643 126.256 16.3907C125.983 16.1171 125.612 15.9633 125.225 15.9633C124.838 15.9633 124.466 16.1171 124.193 16.3907C123.919 16.6643 123.765 17.0355 123.765 17.4225H126.684Z" fill="black"/>
<path d="M132.763 13.672V20.3529H131.924V19.6118C131.763 19.8934 131.525 20.1237 131.239 20.2762C130.952 20.4286 130.628 20.497 130.304 20.4735C129.155 20.4735 128.19 19.5371 128.19 17.9C128.19 16.2628 129.173 15.3264 130.304 15.3264C130.628 15.3029 130.952 15.3713 131.239 15.5237C131.525 15.6762 131.763 15.9065 131.924 16.1881V13.672H132.763ZM129.104 17.8827C129.104 19.0316 129.678 19.7382 130.517 19.7382C131.264 19.7382 131.959 19.1637 131.959 17.8827C131.959 16.6017 131.264 16.0272 130.517 16.0272C129.661 16.0272 129.104 16.7051 129.104 17.8827Z" fill="black"/>
<path d="M137.059 16.1709C137.22 15.8892 137.458 15.6589 137.745 15.5065C138.031 15.3541 138.355 15.2857 138.679 15.3092C139.828 15.3092 140.793 16.257 140.793 17.8827C140.793 19.5084 139.811 20.4562 138.679 20.4562C138.355 20.4798 138.031 20.4114 137.745 20.2589C137.458 20.1065 137.22 19.8762 137.059 19.5946V20.3528H136.22V13.672H137.059V16.1709ZM139.885 17.8942C139.885 16.7453 139.311 16.0387 138.466 16.0387C137.72 16.0387 137.025 16.6132 137.025 17.8942C137.025 19.1752 137.72 19.7497 138.466 19.7497C139.322 19.7382 139.868 19.0603 139.868 17.8827L139.885 17.8942Z" fill="black"/>
<path d="M143.465 20.5476C143.109 21.6275 142.851 21.9492 141.742 21.9492H141.305V21.2484H141.65C142.224 21.2484 142.466 21.2139 142.684 20.4384L142.741 20.3523L140.955 15.4062H141.885L143.143 19.2263L144.367 15.4062H145.24L143.465 20.5476Z" fill="black"/>
<path d="M66.2652 32.2529L68.2927 39.7944L70.2456 32.2529H72.0951L69.16 42.4537H67.5862L65.329 34.2402L63.1521 42.4537H61.5841L58.6433 32.2529H60.4985L62.4514 39.7944L64.4847 32.2529H66.2652Z" fill="black"/>
<path d="M77.5115 41.1796C78.0948 41.2337 78.6801 41.0995 79.1816 40.7966C79.683 40.4936 80.0741 40.038 80.2976 39.4965H82.0784C81.6073 41.26 79.9931 42.6961 77.5115 42.6961C74.2888 42.6961 72.5081 40.3984 72.5081 37.371C72.5081 34.1483 74.668 32.0803 77.4541 32.0803C80.5618 32.0803 82.4403 34.6998 82.2105 37.9225H74.3922C74.3753 38.3432 74.4433 38.7629 74.5923 39.1567C74.7412 39.5505 74.9681 39.9102 75.2593 40.2143C75.5505 40.5183 75.9001 40.7606 76.2871 40.9264C76.674 41.0923 77.0905 41.1784 77.5115 41.1796ZM80.3838 36.4404C80.3115 35.6964 79.9651 35.0059 79.4118 34.5032C78.8586 34.0006 78.1381 33.7218 77.3906 33.7211C76.6431 33.7204 75.9221 33.9978 75.3679 34.4994C74.8137 35.001 74.4659 35.6908 74.3922 36.4346L80.3838 36.4404Z" fill="black"/>
<path d="M85.7187 33.8608C86.0545 33.2833 86.5447 32.8108 87.1341 32.4963C87.7236 32.1818 88.389 32.0377 89.0557 32.0803C91.3877 32.0803 93.4152 34.0331 93.4152 37.3875C93.4152 40.7418 91.3877 42.6946 89.0557 42.6946C88.389 42.7372 87.7236 42.5931 87.1341 42.2786C86.5447 41.9641 86.0545 41.4916 85.7187 40.9141V42.4534H83.9955V28.7087H85.7187V33.8608ZM91.537 37.3875C91.537 34.9636 90.3883 33.5622 88.6192 33.5622C87.0856 33.5622 85.644 34.7109 85.644 37.3875C85.644 40.064 87.0856 41.2185 88.6192 41.2185C90.3825 41.2185 91.537 39.8171 91.537 37.3875Z" fill="black"/>
<path d="M98.6518 35.9862H98.3647V34.4124H98.5944C100.984 34.4124 102.253 33.7519 102.253 32.1149C102.253 30.6388 101.041 29.8806 99.5766 29.8806C99.2029 29.8509 98.8271 29.8973 98.4718 30.0168C98.1165 30.1364 97.7891 30.3268 97.5094 30.5764C97.2298 30.826 97.0036 31.1297 96.8445 31.4692C96.6855 31.8086 96.5969 32.1768 96.5841 32.5514H94.8036C95.0104 30.1276 96.7335 28.439 99.6168 28.439C102.006 28.439 104.074 29.3867 104.074 31.9254C104.075 32.6228 103.86 33.3035 103.459 33.8741C103.058 34.4447 102.49 34.8775 101.834 35.1131C103.884 35.7564 104.453 37.1177 104.453 38.5594C104.453 41.3278 102.098 42.6718 99.4847 42.6718C96.2625 42.6718 94.7806 40.6673 94.5911 38.3698H96.3773C96.5669 40.0585 97.5663 41.2417 99.5019 41.2417C101.323 41.2417 102.609 40.294 102.609 38.5881C102.609 36.6295 100.846 35.9862 98.6518 35.9862Z" fill="black"/>
<path d="M114.256 28.7087H115.175V30.1504H114.32C113.412 30.1504 113.257 30.3572 113.257 31.4198V32.2526H115.175V33.6368H113.257V42.4534H111.534V33.6368H110.109V32.2526H111.534V31.5117C111.505 29.3922 111.942 28.7087 114.256 28.7087Z" fill="black"/>
<path d="M120.648 42.6961C118.281 42.6961 115.759 41.0877 115.759 37.3882C115.759 33.6888 118.281 32.0803 120.648 32.0803C123.014 32.0803 125.542 33.6945 125.542 37.3882C125.542 41.0819 123.02 42.6961 120.648 42.6961ZM123.704 37.3882C123.704 34.6768 122.204 33.5969 120.648 33.5969C119.091 33.5969 117.597 34.6022 117.597 37.3882C117.597 40.1743 119.097 41.1796 120.648 41.1796C122.199 41.1796 123.704 40.0077 123.704 37.3882V37.3882Z" fill="black"/>
<path d="M130.527 42.6964C128.16 42.6964 127.27 41.1052 127.27 38.7729V32.2529H128.993V38.2617C128.993 39.8357 129.257 41.2029 131.136 41.2029C132.767 41.2029 133.732 40.054 133.732 37.8653V32.2529H135.456V42.4552H133.732V40.9903C133.41 41.5448 132.939 41.9983 132.372 42.2997C131.806 42.6011 131.167 42.7385 130.527 42.6964Z" fill="black"/>
<path d="M142.883 32.0803C145.353 32.0803 146.243 33.6715 146.243 36.0038V42.4548H144.52V36.515C144.52 34.9468 144.256 33.5796 142.286 33.5796C140.614 33.5796 139.591 34.7285 139.591 36.9171V42.4548H137.868V32.2526H139.591V33.7864C139.93 33.2263 140.416 32.7706 140.997 32.4695C141.578 32.1685 142.23 32.0337 142.883 32.0803V32.0803Z" fill="black"/>
<path d="M157.368 28.7086V42.4533H155.645V40.914C155.309 41.4915 154.819 41.964 154.229 42.2785C153.64 42.593 152.974 42.7371 152.308 42.6945C149.976 42.6945 147.948 40.7647 147.948 37.3874C147.948 34.0101 149.976 32.0802 152.308 32.0802C152.974 32.0376 153.64 32.1817 154.229 32.4962C154.819 32.8107 155.309 33.2832 155.645 33.8607V28.6914L157.368 28.7086ZM149.826 37.3874C149.826 39.817 150.975 41.2184 152.744 41.2184C154.278 41.2184 155.719 40.0697 155.719 37.3874C155.719 34.7051 154.278 33.5621 152.744 33.5621C150.981 33.5621 149.826 34.9635 149.826 37.3874Z" fill="black"/>
<path d="M166.064 36.1761V35.9291C166.064 34.0736 165.018 33.4475 163.766 33.4475C162.347 33.4475 161.514 34.223 161.434 35.4753H159.653C159.825 33.2751 161.755 32.0286 163.749 32.0286C166.558 32.0286 167.827 33.3728 167.804 36.2335V38.5888C167.762 39.8774 167.85 41.1669 168.069 42.4376H166.345C166.27 41.9719 166.226 41.5017 166.213 41.0302C165.587 42.0757 164.524 42.6789 162.72 42.6789C160.807 42.6789 159.216 41.6219 159.216 39.7434C159.165 37.3537 161.876 36.6529 166.064 36.1761ZM161.077 39.7204C161.077 40.6913 161.818 41.3347 163.048 41.3347C164.662 41.3347 166.196 40.5936 166.196 38.1867V37.5433C163.071 37.865 161.077 38.3188 161.077 39.7204Z" fill="black"/>
<path d="M172.195 29.6909V32.2526H174.131V33.6368H172.195V39.685C172.195 40.7475 172.276 41.0117 173.258 41.0117H174.131V42.4534H172.879C170.926 42.4534 170.472 42.0169 170.472 39.8917V33.6368H168.864V32.2526H170.472V29.6909H172.195Z" fill="black"/>
<path d="M177.502 30.7937H175.779V28.7087H177.502V30.7937ZM177.502 42.4534H175.779V32.2526H177.502V42.4534Z" fill="black"/>
<path d="M184.226 42.6961C181.854 42.6961 179.332 41.0877 179.332 37.3882C179.332 33.6888 181.854 32.0803 184.226 32.0803C186.599 32.0803 189.115 33.6945 189.115 37.3882C189.115 41.0819 186.593 42.6961 184.226 42.6961ZM187.277 37.3882C187.277 34.6768 185.777 33.5969 184.226 33.5969C182.675 33.5969 181.17 34.6022 181.17 37.3882C181.17 40.1743 182.67 41.1796 184.226 41.1796C185.783 41.1796 187.277 40.0077 187.277 37.3882Z" fill="black"/>
<path d="M195.974 32.0807C198.438 32.0807 199.328 33.6719 199.328 36.0042V42.4552H197.605V36.5154C197.605 34.9472 197.341 33.58 195.365 33.58C193.699 33.58 192.676 34.7289 192.676 36.9175V42.4552H190.953V32.253H192.676V33.7868C193.015 33.2258 193.502 32.7695 194.084 32.4684C194.666 32.1672 195.32 32.0331 195.974 32.0807Z" fill="black"/>
<path d="M68.5012 53.3663V62.2001C68.5012 64.2851 68.1221 65.1409 67.5363 65.7842C67.0771 66.2451 66.5253 66.6033 65.9173 66.835C65.3094 67.0667 64.6591 67.1666 64.0097 67.1282C61.7122 67.1282 60.1441 66.0656 59.8225 64.0037H61.6605C61.8845 64.9112 62.4359 65.6119 64.0269 65.6119C64.4082 65.6397 64.7911 65.5865 65.1505 65.4558C65.5098 65.3252 65.8374 65.12 66.1118 64.8537C66.4909 64.4574 66.7781 63.9807 66.7781 62.5965V61.6315C66.4607 62.2021 65.9876 62.6708 65.4141 62.983C64.8406 63.2952 64.1902 63.438 63.5387 63.3948C61.2814 63.3948 59.2137 61.5741 59.2137 58.2944C59.2137 55.0148 61.2814 53.194 63.5387 53.194C64.1926 53.153 64.8446 53.2993 65.4184 53.6157C65.9921 53.932 66.4638 54.4054 66.7781 54.9803V53.3663H68.5012ZM61.0918 58.2944C61.0918 60.6264 62.2865 61.9359 63.9637 61.9359C65.503 61.9359 66.8355 60.8906 66.8355 58.2944C66.8355 55.6983 65.4915 54.6759 63.9637 54.6759C62.2865 54.6759 61.0918 55.9625 61.0918 58.2944V58.2944Z" fill="black"/>
<path d="M75.0198 55.0959C73.4286 55.0959 72.6301 55.9863 72.6301 58.2209V63.569H70.9067V53.3668H72.5899V55.1476C72.8355 54.5932 73.2388 54.1233 73.7495 53.7964C74.2602 53.4696 74.8558 53.3002 75.4621 53.3093C75.6324 53.2983 75.8031 53.2983 75.9734 53.3093V55.1476C75.6567 55.1136 75.3383 55.0964 75.0198 55.0959V55.0959Z" fill="black"/>
<path d="M83.5809 57.2899V57.0429C83.5809 55.1874 82.5354 54.5612 81.2831 54.5612C79.8643 54.5612 79.0313 55.3367 78.9509 56.589H77.1701C77.3424 54.3889 79.2726 53.1423 81.2659 53.1423C84.0692 53.1423 85.3445 54.4865 85.3215 57.3531V59.7025C85.2788 60.9911 85.3673 62.2807 85.5858 63.5514H83.8624C83.7881 63.0874 83.7421 62.6193 83.7246 62.1497C83.1042 63.1895 82.0414 63.7984 80.2376 63.7984C78.3247 63.7984 76.7335 62.7356 76.7335 60.8572C76.6875 58.4675 79.376 57.7667 83.5809 57.2899ZM78.5947 60.84C78.5947 61.805 79.3358 62.4484 80.5651 62.4484C82.1793 62.4484 83.7131 61.7074 83.7131 59.3004V58.6571C80.5651 58.9787 78.5775 59.4096 78.5775 60.84H78.5947Z" fill="black"/>
<path d="M92.607 53.1942C95.0713 53.1942 95.9617 54.7912 95.9617 57.1234V63.5688H94.2384V57.6347C94.2384 56.0607 93.9741 54.6935 91.998 54.6935C90.3321 54.6935 89.3096 55.8424 89.3096 58.0311V63.5688H87.5863V53.3665H89.3096V54.9003C89.6482 54.3393 90.1355 53.883 90.7175 53.5819C91.2995 53.2808 91.9534 53.1466 92.607 53.1942Z" fill="black"/>
<path d="M100.413 50.7935V53.3494H102.348V54.7336H100.413V60.7818C100.413 61.8443 100.487 62.1085 101.475 62.1085H102.348V63.5502H101.096C99.1433 63.5502 98.6895 63.1137 98.6895 60.9885V54.7509H97.0756V53.3666H98.6895V50.7935H100.413Z" fill="black"/>
<path d="M107.452 54.6588C106.446 54.6588 105.309 55.015 105.309 55.9456C105.309 56.7613 105.883 57.1405 106.866 57.33L108.307 57.6115C110.163 57.9734 111.794 58.6742 111.794 60.6503C111.794 62.6265 109.973 63.8156 107.641 63.8156C104.97 63.8156 103.453 62.052 103.264 60.2712H105.085C105.161 60.8883 105.475 61.4513 105.96 61.8406C106.445 62.2299 107.062 62.415 107.681 62.3565C108.985 62.3565 110.048 61.782 110.048 60.8399C110.048 59.8978 109.083 59.3751 107.98 59.151L106.464 58.8466C105.085 58.5594 103.591 57.916 103.591 56.0203C103.591 54.2223 105.412 53.1768 107.67 53.1768C109.927 53.1768 111.369 54.4118 111.691 56.342H109.887C109.594 55.1299 108.646 54.6588 107.452 54.6588Z" fill="black"/>
<path d="M120.114 54.9804C120.45 54.4023 120.94 53.929 121.529 53.6135C122.119 53.298 122.784 53.1528 123.451 53.1941C125.783 53.1941 127.811 55.147 127.811 58.5071C127.811 61.8671 125.783 63.8142 123.451 63.8142C122.784 63.8569 122.118 63.7123 121.528 63.3967C120.939 63.081 120.449 62.607 120.114 62.028V66.8756H118.391V53.3665H120.114V54.9804ZM125.938 58.5071C125.938 56.0775 124.79 54.676 123.015 54.676C121.481 54.676 120.04 55.8248 120.04 58.5071C120.04 61.1894 121.481 62.3324 123.015 62.3324C124.778 62.3324 125.938 60.9309 125.938 58.5071V58.5071Z" fill="black"/>
<path d="M133.748 55.0959C132.157 55.0959 131.359 55.9863 131.359 58.2209V63.569H129.635V53.3668H131.324V55.1476C131.569 54.5923 131.972 54.1216 132.483 53.7945C132.994 53.4675 133.59 53.2987 134.196 53.3093C134.367 53.2983 134.538 53.2983 134.708 53.3093V55.1476C134.389 55.1132 134.069 55.0959 133.748 55.0959V55.0959Z" fill="black"/>
<path d="M140.252 63.8162C137.879 63.8162 135.357 62.202 135.357 58.5082C135.357 54.8145 137.879 53.1946 140.252 53.1946C142.624 53.1946 145.14 54.8088 145.14 58.5082C145.14 62.2077 142.618 63.8162 140.252 63.8162ZM143.302 58.5082C143.302 55.7968 141.803 54.7111 140.252 54.7111C138.701 54.7111 137.196 55.7164 137.196 58.5082C137.196 61.3001 138.695 62.2996 140.252 62.2996C141.808 62.2996 143.319 61.1335 143.319 58.5082H143.302Z" fill="black"/>
<path d="M155.655 53.3662V62.2C155.655 64.285 155.276 65.1408 154.69 65.7841C154.23 66.245 153.679 66.6032 153.071 66.8349C152.463 67.0666 151.813 67.1665 151.163 67.1281C148.866 67.1281 147.298 66.0655 146.97 64.0035H148.814C149.038 64.911 149.589 65.6118 151.18 65.6118C151.562 65.6396 151.945 65.5864 152.304 65.4557C152.663 65.325 152.991 65.1198 153.265 64.8536C153.644 64.4573 153.932 63.9805 153.932 62.5963V61.6314C153.614 62.2029 153.14 62.6722 152.565 62.9845C151.99 63.2967 151.339 63.439 150.686 63.3947C148.435 63.3947 146.367 61.5739 146.367 58.2943C146.367 55.0146 148.435 53.1939 150.686 53.1939C151.341 53.1518 151.994 53.2975 152.569 53.6139C153.144 53.9304 153.617 54.4043 153.932 54.9802V53.3662H155.655ZM148.245 58.2943C148.245 60.6262 149.434 61.9358 151.117 61.9358C152.656 61.9358 153.989 60.8904 153.989 58.2943C153.989 55.6981 152.645 54.6757 151.117 54.6757C149.434 54.6757 148.245 55.9623 148.245 58.2943V58.2943Z" fill="black"/>
<path d="M162.176 55.0959C160.585 55.0959 159.786 55.9863 159.786 58.2209V63.569H158.063V53.3668H159.746V55.1476C159.991 54.5927 160.394 54.1224 160.905 53.7955C161.416 53.4685 162.012 53.2994 162.618 53.3093C162.789 53.2983 162.959 53.2983 163.13 53.3093V55.1476C162.813 55.1138 162.495 55.0966 162.176 55.0959Z" fill="black"/>
<path d="M170.72 57.2899V57.0429C170.72 55.1874 169.675 54.5612 168.422 54.5612C167.004 54.5612 166.165 55.3367 166.09 56.589H164.309C164.482 54.3889 166.412 53.1423 168.405 53.1423C171.209 53.1423 172.478 54.4865 172.461 57.3531V59.7025C172.418 60.9911 172.507 62.2807 172.725 63.5514H171.002C170.93 63.0872 170.886 62.6191 170.87 62.1497C170.243 63.1895 169.186 63.7984 167.383 63.7984C165.47 63.7984 163.873 62.7356 163.873 60.8572C163.815 58.4675 166.527 57.7667 170.72 57.2899ZM165.717 60.84C165.717 61.805 166.452 62.4484 167.687 62.4484C169.301 62.4484 170.835 61.7074 170.835 59.3004V58.6571C167.722 58.9787 165.717 59.4096 165.717 60.84Z" fill="black"/>
<path d="M174.734 63.567V53.3662H176.457V54.8998C176.76 54.3585 177.207 53.9113 177.748 53.6073C178.289 53.3034 178.904 53.1544 179.524 53.1767C181.081 53.1767 182.011 53.8602 182.465 54.9802C182.828 54.4014 183.339 53.9295 183.944 53.6126C184.55 53.2957 185.228 53.1453 185.911 53.1767C188.283 53.1767 189.208 54.7734 189.208 57.1054V63.5498H187.485V57.6338C187.485 56.06 187.18 54.693 185.308 54.693C183.826 54.693 182.838 55.8418 182.838 58.0301V63.567H181.115V57.6338C181.115 56.06 180.811 54.693 178.938 54.693C177.456 54.693 176.474 55.8418 176.474 58.0301V63.567H174.734Z" fill="black"/>
</g>
<defs>
<clipPath id="clip0">
<rect width="206" height="80" fill="white"/>
</clipPath>
</defs>
</svg>
