<svg width="176" height="80" viewBox="0 0 176 80" fill="none" xmlns="http://www.w3.org/2000/svg">
<path d="M30.1855 29.5813V25.1183C30.1862 24.3268 29.9512 23.5529 29.5104 22.8954C29.0696 22.2378 28.4431 21.7264 27.7106 21.4263L0 10.0002V12.4751L24.6829 22.6181C24.9327 22.7265 25.1299 22.9285 25.2324 23.1807C25.3348 23.433 25.3341 23.7153 25.2306 23.9671C25.1819 24.0912 25.1082 24.2039 25.0139 24.2981C24.9197 24.3924 24.807 24.4661 24.6829 24.5148L0 34.7187V44.674L14.8747 38.5375L24.6525 42.5693C24.7777 42.6203 24.8915 42.6958 24.9871 42.7914C25.0828 42.887 25.1583 43.0008 25.2094 43.126C25.2604 43.2512 25.2859 43.3853 25.2843 43.5205C25.2827 43.6557 25.2541 43.7893 25.2002 43.9133C25.1515 44.0373 25.0777 44.15 24.9835 44.2443C24.8892 44.3385 24.7766 44.4123 24.6525 44.461L0 54.6344V70.356L27.6751 58.9604C28.4076 58.6603 29.0341 58.1488 29.4749 57.4913C29.9157 56.8338 30.1507 56.0599 30.15 55.2683V45.0391C30.151 44.2468 29.9162 43.4722 29.4754 42.8138C29.0347 42.1554 28.408 41.643 27.6751 41.342L17.8719 37.2848L27.6751 33.253C28.4171 32.9686 29.0547 32.4648 29.5032 31.8089C29.9517 31.1529 30.1897 30.3759 30.1855 29.5813V29.5813Z" fill="black"/>
<path d="M53.0038 13.6826C53.1463 13.4339 53.3562 13.2306 53.6093 13.096C53.8623 12.9614 54.1482 12.901 54.4341 12.9217C55.4485 12.9217 56.3007 13.7586 56.3007 15.1941C56.3007 16.6295 55.4333 17.4664 54.4341 17.4664C54.1482 17.4872 53.8623 17.4268 53.6093 17.2922C53.3562 17.1576 53.1463 16.9542 53.0038 16.7056V18.7852H52.2683V12.9927H53.0038V13.6826ZM55.4993 15.2042C55.4993 14.1898 54.9921 13.5659 54.2464 13.5659C53.5921 13.5659 52.9733 14.0731 52.9733 15.2042C52.9733 16.3353 53.5921 16.8425 54.2464 16.8425C55.0326 16.8324 55.5094 16.2339 55.5094 15.1941L55.4993 15.2042Z" fill="black"/>
<path d="M58.894 13.7332C58.2143 13.7332 57.8795 14.1136 57.8795 15.0723V17.375H57.139V12.9927H57.8593V13.7586C57.9648 13.521 58.138 13.3197 58.3572 13.1799C58.5764 13.0401 58.8319 12.9679 59.0918 12.9724H59.3099V13.7586C59.1577 13.7484 59.0157 13.7332 58.894 13.7332Z" fill="black"/>
<path d="M61.7191 17.4662C60.7047 17.4662 59.6294 16.7764 59.6294 15.1939C59.6294 13.6113 60.7047 12.9215 61.7191 12.9215C62.7336 12.9215 63.8139 13.6113 63.8139 15.1939C63.8139 16.7764 62.7386 17.4662 61.7191 17.4662ZM63.0278 15.1939C63.0278 14.0323 62.3887 13.5708 61.7191 13.5708C61.0496 13.5708 60.4156 14.0019 60.4156 15.1939C60.4156 16.3858 61.0547 16.817 61.7191 16.817C62.3836 16.817 63.0278 16.3148 63.0278 15.1939Z" fill="black"/>
<path d="M65.3505 12.993V17.558C65.3505 18.4659 65.1628 18.7601 64.336 18.7601H63.9607V18.1413H64.1636C64.544 18.1413 64.615 18.0297 64.615 17.5732V12.993H65.3505ZM65.3505 12.3691H64.6099V11.4764H65.3505V12.3691Z" fill="black"/>
<path d="M68.3041 16.8171C68.5538 16.8411 68.8046 16.7841 69.0194 16.6543C69.2341 16.5246 69.4013 16.3291 69.4961 16.0968H70.2518C70.1303 16.514 69.87 16.8771 69.514 17.1262C69.1579 17.3752 68.7275 17.4952 68.294 17.4663C66.9143 17.4663 66.1535 16.4519 66.1535 15.1889C66.1302 14.8981 66.1678 14.6056 66.2638 14.3302C66.3599 14.0547 66.5122 13.8023 66.7112 13.589C66.9102 13.3757 67.1515 13.2062 67.4196 13.0913C67.6878 12.9764 67.9769 12.9186 68.2686 12.9216C69.6026 12.9216 70.404 14.0426 70.2975 15.4222H66.9549C66.9481 15.6034 66.9779 15.7841 67.0427 15.9534C67.1075 16.1227 67.2059 16.2771 67.332 16.4075C67.458 16.5378 67.6091 16.6412 67.7762 16.7116C67.9432 16.782 68.1228 16.8179 68.3041 16.8171V16.8171ZM69.5367 14.7882C69.5161 14.4611 69.3717 14.1542 69.1328 13.9299C68.894 13.7055 68.5786 13.5807 68.2509 13.5807C67.9232 13.5807 67.6078 13.7055 67.3689 13.9299C67.13 14.1542 66.9856 14.4611 66.9651 14.7882H69.5367Z" fill="black"/>
<path d="M74.065 14.4535C74.0093 14.1973 73.8657 13.9688 73.6591 13.8075C73.4525 13.6463 73.1958 13.5626 72.9339 13.5709C72.2796 13.5709 71.676 14.0781 71.676 15.1788C71.676 16.2794 72.2846 16.8171 72.9339 16.8171C73.1987 16.826 73.4586 16.7438 73.67 16.584C73.8815 16.4243 74.0316 16.1968 74.0954 15.9396H74.8613C74.7628 16.3794 74.5149 16.7715 74.1597 17.049C73.8046 17.3264 73.3642 17.4721 72.9136 17.4613C71.6607 17.4613 70.8847 16.5128 70.8847 15.1838C70.8847 13.8549 71.7064 12.9166 72.9947 12.9166C73.4312 12.9084 73.8559 13.0577 74.1913 13.3371C74.5266 13.6166 74.7501 14.0075 74.8207 14.4382L74.065 14.4535Z" fill="black"/>
<path d="M76.5749 11.8976V12.9932H77.4017V13.5866H76.5749V16.1785C76.5749 16.6299 76.6104 16.7466 77.0314 16.7466H77.4017V17.3756H76.8691C76.0322 17.3756 75.8546 17.193 75.8546 16.28V13.5866H75.1648V12.9932H75.8293V11.8976H76.5749Z" fill="black"/>
<path d="M81.6266 13.5458C81.1954 13.5458 80.7085 13.703 80.7085 14.0987C80.7085 14.4943 80.952 14.6059 81.373 14.6921L81.9918 14.8138C82.783 14.966 83.483 15.2653 83.483 16.1123C83.483 16.9594 82.7019 17.4666 81.7077 17.4666C81.2598 17.5003 80.8159 17.3615 80.467 17.0786C80.1181 16.7957 79.8906 16.3901 79.831 15.9449H80.6071C80.6377 16.2108 80.7721 16.4539 80.9811 16.6211C81.1902 16.7883 81.4568 16.8662 81.7229 16.8376C82.2809 16.8376 82.7374 16.5942 82.7374 16.1884C82.7374 15.7826 82.3215 15.5645 81.8497 15.4681L81.2005 15.3363C80.6071 15.2145 79.9578 14.9356 79.9578 14.124C79.9578 13.3125 80.7389 12.9067 81.7077 12.9067C82.1155 12.8712 82.5215 12.9926 82.8429 13.2461C83.1643 13.4997 83.3769 13.8662 83.4373 14.2711H82.6664C82.6162 14.0415 82.4813 13.8393 82.2885 13.7048C82.0958 13.5703 81.8594 13.5135 81.6266 13.5458V13.5458Z" fill="black"/>
<path d="M85.6697 17.4667C84.6553 17.4667 84.2748 16.787 84.2748 15.7878V12.993H85.0103V15.5697C85.0103 16.2443 85.127 16.8276 85.9284 16.8276C86.6283 16.8276 87.0392 16.3204 87.0392 15.3973V12.993H87.7797V17.3754H87.0392V16.7515C86.9006 16.9868 86.6988 17.1786 86.4567 17.305C86.2147 17.4314 85.942 17.4874 85.6697 17.4667V17.4667Z" fill="black"/>
<path d="M89.587 13.6826C89.7296 13.4339 89.9395 13.2306 90.1925 13.096C90.4456 12.9614 90.7315 12.901 91.0174 12.9217C92.0318 12.9217 92.884 13.7586 92.884 15.1941C92.884 16.6295 92.0115 17.4664 91.0174 17.4664C90.7315 17.4872 90.4456 17.4268 90.1925 17.2922C89.9395 17.1576 89.7296 16.9542 89.587 16.7056V18.7852H88.8465V12.9927H89.587V13.6826ZM92.0775 15.2042C92.0775 14.1898 91.5702 13.5659 90.8297 13.5659C90.1703 13.5659 89.5515 14.0731 89.5515 15.2042C89.5515 16.3353 90.1703 16.8425 90.8297 16.8425C91.5855 16.8324 92.0572 16.2339 92.0572 15.1941L92.0775 15.2042Z" fill="black"/>
<path d="M94.4399 13.6826C94.5825 13.4339 94.7924 13.2306 95.0454 13.096C95.2985 12.9614 95.5844 12.901 95.8703 12.9217C96.8847 12.9217 97.7368 13.7586 97.7368 15.1941C97.7368 16.6295 96.8695 17.4664 95.8703 17.4664C95.5844 17.4872 95.2985 17.4268 95.0454 17.2922C94.7924 17.1576 94.5825 16.9542 94.4399 16.7056V18.7852H93.6994V12.9927H94.4399V13.6826ZM96.9304 15.2042C96.9304 14.1898 96.4231 13.5659 95.6826 13.5659C95.0232 13.5659 94.4095 14.0731 94.4095 15.2042C94.4095 16.3353 95.0232 16.8425 95.6826 16.8425C96.4384 16.8324 96.9304 16.2339 96.9304 15.1941V15.2042Z" fill="black"/>
<path d="M100.402 17.4662C99.3872 17.4662 98.3068 16.7764 98.3068 15.1938C98.3068 13.6113 99.3821 12.9215 100.402 12.9215C101.007 12.9215 101.588 13.162 102.016 13.59C102.444 14.0181 102.684 14.5986 102.684 15.204C102.684 15.8093 102.444 16.3899 102.016 16.818C101.588 17.246 101.007 17.4865 100.402 17.4865V17.4662ZM101.695 15.1938C101.695 14.0323 101.056 13.5707 100.391 13.5707C99.727 13.5707 99.0829 14.0019 99.0829 15.1938C99.0829 16.3858 99.722 16.817 100.391 16.817C101.061 16.817 101.695 16.3148 101.695 15.1938Z" fill="black"/>
<path d="M105.078 13.7334C104.399 13.7334 104.064 14.1138 104.064 15.0725V17.3752H103.318V12.9929H104.044V13.7588C104.148 13.5199 104.32 13.3176 104.54 13.1775C104.759 13.0374 105.016 12.9661 105.276 12.9726H105.494V13.7588C105.342 13.7486 105.2 13.7334 105.078 13.7334Z" fill="black"/>
<path d="M107.301 11.8976V12.9932H108.132V13.5866H107.301V16.1785C107.301 16.6299 107.336 16.7466 107.757 16.7466H108.132V17.3756H107.595C106.758 17.3756 106.58 17.193 106.58 16.28V13.5866H105.89V12.9932H106.58V11.8976H107.301Z" fill="black"/>
<path d="M110.62 16.8171C110.87 16.8406 111.121 16.7834 111.337 16.6538C111.552 16.5242 111.72 16.329 111.817 16.0968H112.577C112.456 16.514 112.196 16.8771 111.84 17.1262C111.484 17.3752 111.053 17.4952 110.62 17.4663C109.24 17.4663 108.479 16.4519 108.479 15.1889C108.457 14.8978 108.495 14.6053 108.592 14.3298C108.688 14.0543 108.841 13.802 109.04 13.5887C109.24 13.3755 109.481 13.2061 109.75 13.0913C110.018 12.9764 110.307 12.9186 110.599 12.9216C111.928 12.9216 112.735 14.0426 112.628 15.4222H109.301C109.293 15.6012 109.321 15.7799 109.383 15.9479C109.445 16.1158 109.541 16.2694 109.664 16.3996C109.787 16.5298 109.935 16.6338 110.099 16.7056C110.264 16.7773 110.44 16.8152 110.62 16.8171V16.8171ZM111.857 14.7882C111.857 14.4465 111.722 14.1188 111.48 13.8772C111.238 13.6356 110.911 13.4998 110.569 13.4998C110.227 13.4998 109.9 13.6356 109.658 13.8772C109.416 14.1188 109.281 14.4465 109.281 14.7882H111.857Z" fill="black"/>
<path d="M117.225 11.4764V17.3754H116.485V16.7211C116.342 16.9697 116.132 17.1731 115.879 17.3077C115.626 17.4423 115.34 17.5027 115.054 17.4819C114.04 17.4819 113.188 16.6552 113.188 15.2096C113.188 13.764 114.055 12.9372 115.054 12.9372C115.34 12.9165 115.626 12.9769 115.879 13.1115C116.132 13.2461 116.342 13.4494 116.485 13.6981V11.4764H117.225ZM113.994 15.1944C113.994 16.2088 114.501 16.8327 115.242 16.8327C115.901 16.8327 116.515 16.3255 116.515 15.1944C116.515 14.0633 115.901 13.556 115.242 13.556C114.486 13.556 113.994 14.1546 113.994 15.1944Z" fill="black"/>
<path d="M121.018 13.6828C121.161 13.4342 121.371 13.2308 121.624 13.0962C121.877 12.9616 122.163 12.9012 122.449 12.922C123.463 12.922 124.315 13.7589 124.315 15.1944C124.315 16.6298 123.448 17.4667 122.449 17.4667C122.163 17.4875 121.877 17.4271 121.624 17.2925C121.371 17.1579 121.161 16.9545 121.018 16.7059V17.3754H120.278V11.4764H121.018V13.6828ZM123.514 15.2045C123.514 14.1901 123.007 13.5662 122.261 13.5662C121.602 13.5662 120.988 14.0734 120.988 15.2045C120.988 16.3356 121.602 16.8428 122.261 16.8428C123.017 16.8327 123.499 16.2342 123.499 15.1944L123.514 15.2045Z" fill="black"/>
<path d="M126.675 17.5474C126.36 18.501 126.132 18.785 125.153 18.785H124.768V18.1662H125.072C125.579 18.1662 125.792 18.1358 125.985 17.4511L126.036 17.375L124.458 13.0078H125.28L126.391 16.3808L127.471 13.0078H128.242L126.675 17.5474Z" fill="black"/>
<path d="M58.5099 27.8828L60.3001 34.5417L62.0244 27.8828H63.6574L61.0659 36.8898H59.6763L57.6832 29.6375L55.7611 36.8898H54.3766L51.78 27.8828H53.4181L55.1424 34.5417L56.9377 27.8828H58.5099Z" fill="black"/>
<path d="M68.44 35.7648C68.955 35.8126 69.4718 35.6941 69.9146 35.4266C70.3573 35.1591 70.7027 34.7568 70.9 34.2787H72.4724C72.0564 35.8358 70.6312 37.1039 68.44 37.1039C65.5945 37.1039 64.0221 35.075 64.0221 32.402C64.0221 29.5565 65.9292 27.7305 68.3892 27.7305C71.1333 27.7305 72.7919 30.0434 72.589 32.8889H65.6858C65.6708 33.2603 65.7308 33.631 65.8624 33.9787C65.9939 34.3264 66.1943 34.644 66.4514 34.9125C66.7085 35.1809 67.0171 35.3948 67.3588 35.5413C67.7005 35.6877 68.0682 35.7638 68.44 35.7648ZM70.9761 31.5803C70.9123 30.9233 70.6064 30.3136 70.1179 29.8698C69.6294 29.426 68.9932 29.1798 68.3332 29.1792C67.6732 29.1786 67.0366 29.4235 66.5472 29.8664C66.0579 30.3093 65.7508 30.9184 65.6858 31.5752L70.9761 31.5803Z" fill="black"/>
<path d="M75.6866 29.3025C75.9832 28.7926 76.4159 28.3754 76.9364 28.0977C77.4569 27.82 78.0444 27.6928 78.6331 27.7304C80.6921 27.7304 82.4824 29.4547 82.4824 32.4164C82.4824 35.3782 80.6921 37.1025 78.6331 37.1025C78.0444 37.1401 77.4569 37.0129 76.9364 36.7352C76.4159 36.4575 75.9832 36.0403 75.6866 35.5303V36.8895H74.1651V24.7534H75.6866V29.3025ZM80.824 32.4164C80.824 30.2763 79.8097 29.0388 78.2477 29.0388C76.8936 29.0388 75.6206 30.0531 75.6206 32.4164C75.6206 34.7797 76.8936 35.7991 78.2477 35.7991C79.8046 35.7991 80.824 34.5617 80.824 32.4164Z" fill="black"/>
<path d="M87.1062 31.1793H86.8526V29.7897H87.0555C89.1652 29.7897 90.286 29.2065 90.286 27.7611C90.286 26.4578 89.2159 25.7883 87.9227 25.7883C87.5927 25.7621 87.2609 25.803 86.9472 25.9086C86.6335 26.0142 86.3444 26.1822 86.0974 26.4026C85.8505 26.623 85.6508 26.8912 85.5104 27.1909C85.3699 27.4907 85.2917 27.8158 85.2804 28.1466H83.7083C83.8908 26.0064 85.4123 24.5154 87.9582 24.5154C90.0679 24.5154 91.8936 25.3522 91.8936 27.5938C91.8943 28.2096 91.7046 28.8106 91.3506 29.3144C90.9965 29.8183 90.4954 30.2004 89.9158 30.4084C91.7263 30.9764 92.2284 32.1784 92.2284 33.4513C92.2284 35.8958 90.149 37.0825 87.8415 37.0825C84.9964 37.0825 83.688 35.3126 83.5206 33.284H85.0979C85.2652 34.775 86.1476 35.8197 87.8567 35.8197C89.4644 35.8197 90.6004 34.9829 90.6004 33.4767C90.6004 31.7473 89.0435 31.1793 87.1062 31.1793Z" fill="black"/>
<path d="M100.884 24.7534H101.696V26.0264H100.94C100.139 26.0264 100.002 26.2089 100.002 27.1472V27.8825H101.696V29.1048H100.002V36.8895H98.4805V29.1048H97.2228V27.8825H98.4805V27.2283C98.4552 25.3569 98.8406 24.7534 100.884 24.7534Z" fill="black"/>
<path d="M106.528 37.1039C104.438 37.1039 102.211 35.6837 102.211 32.4172C102.211 29.1507 104.438 27.7305 106.528 27.7305C108.617 27.7305 110.849 29.1558 110.849 32.4172C110.849 35.6786 108.622 37.1039 106.528 37.1039ZM109.226 32.4172C109.226 30.0231 107.902 29.0695 106.528 29.0695C105.153 29.0695 103.834 29.9572 103.834 32.4172C103.834 34.8772 105.158 35.7648 106.528 35.7648C107.897 35.7648 109.226 34.7301 109.226 32.4172V32.4172Z" fill="black"/>
<path d="M115.251 37.1041C113.161 37.1041 112.375 35.6991 112.375 33.6398V27.8828H113.896V33.1883C113.896 34.5781 114.13 35.7853 115.788 35.7853C117.229 35.7853 118.081 34.7709 118.081 32.8383V27.8828H119.603V36.891H118.081V35.5976C117.796 36.0872 117.38 36.4876 116.88 36.7538C116.38 37.0199 115.816 37.1412 115.251 37.1041Z" fill="black"/>
<path d="M126.161 27.7304C128.342 27.7304 129.128 29.1354 129.128 31.1947V36.8907H127.606V31.6461C127.606 30.2614 127.373 29.0542 125.633 29.0542C124.157 29.0542 123.254 30.0686 123.254 32.0011V36.8907H121.733V27.8825H123.254V29.2368C123.553 28.7423 123.982 28.3399 124.495 28.074C125.008 27.8082 125.584 27.6893 126.161 27.7304V27.7304Z" fill="black"/>
<path d="M138.95 24.7535V36.8896H137.429V35.5304C137.132 36.0403 136.699 36.4576 136.179 36.7352C135.659 37.0129 135.071 37.1401 134.482 37.1026C132.423 37.1026 130.633 35.3985 130.633 32.4165C130.633 29.4345 132.423 27.7305 134.482 27.7305C135.071 27.6929 135.659 27.8201 136.179 28.0978C136.699 28.3755 137.132 28.7927 137.429 29.3026V24.7383L138.95 24.7535ZM132.291 32.4165C132.291 34.5618 133.306 35.7992 134.868 35.7992C136.222 35.7992 137.495 34.7849 137.495 32.4165C137.495 30.0481 136.222 29.0389 134.868 29.0389C133.311 29.0389 132.291 30.2763 132.291 32.4165Z" fill="black"/>
<path d="M146.628 31.3469V31.1288C146.628 29.4905 145.705 28.9376 144.6 28.9376C143.347 28.9376 142.611 29.6224 142.54 30.7281H140.968C141.12 28.7855 142.824 27.6848 144.584 27.6848C147.065 27.6848 148.186 28.8717 148.165 31.3977V33.4773C148.128 34.615 148.206 35.7537 148.399 36.8756H146.877C146.811 36.4644 146.772 36.0493 146.76 35.6329C146.207 36.5561 145.269 37.0887 143.676 37.0887C141.987 37.0887 140.582 36.1554 140.582 34.4968C140.537 32.3867 142.931 31.7679 146.628 31.3469ZM142.226 34.4765C142.226 35.3337 142.88 35.9018 143.966 35.9018C145.391 35.9018 146.745 35.2475 146.745 33.1222V32.5541C143.986 32.8382 142.226 33.2389 142.226 34.4765Z" fill="black"/>
<path d="M152.043 25.6207V27.8826H153.752V29.1048H152.043V34.4451C152.043 35.3833 152.114 35.6166 152.981 35.6166H153.752V36.8896H152.646C150.922 36.8896 150.521 36.5041 150.521 34.6277V29.1048H149.101V27.8826H150.521V25.6207H152.043Z" fill="black"/>
<path d="M156.728 26.5944H155.207V24.7534H156.728V26.5944ZM156.728 36.8895H155.207V27.8825H156.728V36.8895Z" fill="black"/>
<path d="M162.666 37.1039C160.571 37.1039 158.344 35.6837 158.344 32.4172C158.344 29.1507 160.571 27.7305 162.666 27.7305C164.76 27.7305 166.982 29.1558 166.982 32.4172C166.982 35.6786 164.755 37.1039 162.666 37.1039ZM165.359 32.4172C165.359 30.0231 164.035 29.0695 162.666 29.0695C161.296 29.0695 159.967 29.9572 159.967 32.4172C159.967 34.8772 161.291 35.7648 162.666 35.7648C164.04 35.7648 165.359 34.7301 165.359 32.4172Z" fill="black"/>
<path d="M173.038 27.7307C175.214 27.7307 176 29.1357 176 31.195V36.8911H174.478V31.6464C174.478 30.2617 174.245 29.0545 172.5 29.0545C171.029 29.0545 170.126 30.069 170.126 32.0015V36.8911H168.605V27.8829H170.126V29.2371C170.425 28.7418 170.856 28.3389 171.369 28.073C171.883 27.8071 172.461 27.6887 173.038 27.7307Z" fill="black"/>
<path d="M60.4842 46.5254V54.3254C60.4842 56.1663 60.1495 56.922 59.6322 57.49C59.2268 57.897 58.7395 58.2132 58.2027 58.4178C57.6659 58.6224 57.0918 58.7106 56.5183 58.6767C54.4897 58.6767 53.1052 57.7385 52.8212 55.9178H54.444C54.6418 56.7191 55.1287 57.3378 56.5335 57.3378C56.8702 57.3624 57.2083 57.3154 57.5256 57.2C57.8429 57.0847 58.1322 56.9035 58.3745 56.6684C58.7092 56.3185 58.9627 55.8975 58.9627 54.6753V53.8233C58.6825 54.3271 58.2648 54.741 57.7584 55.0166C57.252 55.2923 56.6777 55.4184 56.1024 55.3802C54.1093 55.3802 52.2836 53.7726 52.2836 50.8768C52.2836 47.9809 54.1093 46.3733 56.1024 46.3733C56.6798 46.3371 57.2555 46.4662 57.7622 46.7456C58.2688 47.0249 58.6852 47.4429 58.9627 47.9505V46.5254H60.4842ZM53.942 50.8768C53.942 52.9358 54.9968 54.0921 56.4777 54.0921C57.8369 54.0921 59.0135 53.1691 59.0135 50.8768C59.0135 48.5844 57.8267 47.6817 56.4777 47.6817C54.9968 47.6817 53.942 48.8177 53.942 50.8768V50.8768Z" fill="black"/>
<path d="M66.2399 48.0523C64.8349 48.0523 64.1298 48.8385 64.1298 50.8116V55.5338H62.6082V46.5256H64.0943V48.098C64.3112 47.6085 64.6673 47.1936 65.1183 46.905C65.5692 46.6164 66.0951 46.4668 66.6304 46.4749C66.7807 46.4651 66.9315 46.4651 67.0819 46.4749V48.098C66.8022 48.068 66.5211 48.0527 66.2399 48.0523V48.0523Z" fill="black"/>
<path d="M73.7991 49.9895V49.7714C73.7991 48.1331 72.8759 47.5802 71.7702 47.5802C70.5174 47.5802 69.7819 48.265 69.7109 49.3707H68.1385C68.2907 47.4281 69.9949 46.3274 71.755 46.3274C74.2302 46.3274 75.3562 47.5143 75.336 50.0453V52.1198C75.2982 53.2576 75.3764 54.3963 75.5693 55.5182H74.0476C73.982 55.1085 73.9414 54.6952 73.9259 54.2806C73.3781 55.1987 72.4397 55.7363 70.8471 55.7363C69.158 55.7363 67.753 54.798 67.753 53.1393C67.7124 51.0293 70.0862 50.4105 73.7991 49.9895ZM69.3964 53.1241C69.3964 53.9763 70.0507 54.5443 71.1362 54.5443C72.5615 54.5443 73.9157 53.89 73.9157 51.7648V51.1967C71.1362 51.4807 69.3812 51.8612 69.3812 53.1241H69.3964Z" fill="black"/>
<path d="M81.7687 46.3732C83.9447 46.3732 84.7309 47.7832 84.7309 49.8425V55.5335H83.2092V50.294C83.2092 48.9042 82.9759 47.697 81.2311 47.697C79.7601 47.697 78.8573 48.7114 78.8573 50.6439V55.5335H77.3356V46.5253H78.8573V47.8796C79.1563 47.3843 79.5865 46.9814 80.1004 46.7155C80.6143 46.4496 81.1917 46.3311 81.7687 46.3732Z" fill="black"/>
<path d="M88.6609 44.2535V46.5104H90.37V47.7326H88.6609V53.0729C88.6609 54.0111 88.7268 54.2444 89.5991 54.2444H90.37V55.5173H89.2644C87.5401 55.5173 87.1394 55.1319 87.1394 53.2554V47.7478H85.7144V46.5256H87.1394V44.2535H88.6609Z" fill="black"/>
<path d="M94.876 47.6667C93.9884 47.6667 92.9841 47.9811 92.9841 48.8028C92.9841 49.5231 93.4913 49.8578 94.3586 50.0252L95.6318 50.2738C97.2701 50.5933 98.7106 51.2121 98.7106 52.957C98.7106 54.7018 97.1027 55.7517 95.0434 55.7517C92.6848 55.7517 91.3458 54.1946 91.1784 52.6222H92.7863C92.8538 53.167 93.131 53.6641 93.5591 54.0079C93.9871 54.3517 94.5323 54.5151 95.0789 54.4634C96.2303 54.4634 97.1686 53.9562 97.1686 53.1243C97.1686 52.2925 96.3165 51.8309 95.3427 51.6331L94.0036 51.3643C92.7863 51.1107 91.4675 50.5426 91.4675 48.8688C91.4675 47.2812 93.0754 46.358 95.0688 46.358C97.0621 46.358 98.3352 47.4486 98.6193 49.1528H97.0266C96.7679 48.0826 95.931 47.6667 94.876 47.6667Z" fill="black"/>
<path d="M106.057 47.9506C106.353 47.4402 106.786 47.0222 107.306 46.7437C107.826 46.4651 108.414 46.3369 109.003 46.3734C111.062 46.3734 112.853 48.0977 112.853 51.0645C112.853 54.0313 111.062 55.7506 109.003 55.7506C108.414 55.7882 107.826 55.6605 107.305 55.3819C106.785 55.1032 106.352 54.6846 106.057 54.1733V58.4537H104.535V46.5255H106.057V47.9506ZM111.199 51.0645C111.199 48.9193 110.185 47.6818 108.618 47.6818C107.264 47.6818 105.991 48.6961 105.991 51.0645C105.991 53.4329 107.264 54.4421 108.618 54.4421C110.175 54.4421 111.199 53.2047 111.199 51.0645V51.0645Z" fill="black"/>
<path d="M118.095 48.0523C116.69 48.0523 115.985 48.8385 115.985 50.8116V55.5338H114.464V46.5256H115.955V48.098C116.171 47.6077 116.526 47.192 116.978 46.9033C117.429 46.6145 117.955 46.4655 118.491 46.4749C118.641 46.4651 118.792 46.4651 118.942 46.4749V48.098C118.661 48.0676 118.378 48.0524 118.095 48.0523V48.0523Z" fill="black"/>
<path d="M123.837 55.7519C121.743 55.7519 119.516 54.3266 119.516 51.0652C119.516 47.8038 121.743 46.3734 123.837 46.3734C125.932 46.3734 128.154 47.7987 128.154 51.0652C128.154 54.3317 125.927 55.7519 123.837 55.7519ZM126.531 51.0652C126.531 48.6711 125.207 47.7125 123.837 47.7125C122.468 47.7125 121.139 48.6001 121.139 51.0652C121.139 53.5303 122.463 54.4128 123.837 54.4128C125.212 54.4128 126.546 53.3832 126.546 51.0652H126.531Z" fill="black"/>
<path d="M137.438 46.5252V54.3252C137.438 56.1661 137.103 56.9218 136.586 57.4898C136.18 57.8968 135.693 58.213 135.156 58.4176C134.619 58.6222 134.045 58.7104 133.472 58.6765C131.443 58.6765 130.059 57.7383 129.77 55.9176H131.397C131.595 56.7189 132.082 57.3377 133.487 57.3377C133.824 57.3622 134.162 57.3152 134.479 57.1999C134.796 57.0845 135.086 56.9033 135.328 56.6682C135.663 56.3183 135.916 55.8974 135.916 54.6751V53.8231C135.636 54.3278 135.217 54.7422 134.71 55.0178C134.202 55.2935 133.627 55.4192 133.051 55.3801C131.063 55.3801 129.237 53.7724 129.237 50.8766C129.237 47.9808 131.063 46.3731 133.051 46.3731C133.629 46.3359 134.206 46.4646 134.713 46.744C135.221 47.0234 135.638 47.4419 135.916 47.9503V46.5252H137.438ZM130.895 50.8766C130.895 52.9356 131.945 54.0919 133.431 54.0919C134.79 54.0919 135.967 53.1689 135.967 50.8766C135.967 48.5843 134.78 47.6815 133.431 47.6815C131.945 47.6815 130.895 48.8176 130.895 50.8766V50.8766Z" fill="black"/>
<path d="M143.196 48.0523C141.791 48.0523 141.086 48.8385 141.086 50.8116V55.5338H139.564V46.5256H141.05V48.098C141.267 47.6081 141.623 47.1928 142.074 46.9041C142.525 46.6154 143.051 46.4661 143.586 46.4749C143.737 46.4651 143.887 46.4651 144.038 46.4749V48.098C143.758 48.0682 143.477 48.0529 143.196 48.0523Z" fill="black"/>
<path d="M150.74 49.9895V49.7714C150.74 48.1331 149.817 47.5802 148.711 47.5802C147.458 47.5802 146.718 48.265 146.652 49.3707H145.079C145.232 47.4281 146.936 46.3274 148.696 46.3274C151.171 46.3274 152.292 47.5143 152.277 50.0453V52.1198C152.239 53.2576 152.317 54.3963 152.51 55.5182H150.989C150.925 55.1084 150.886 54.6951 150.872 54.2806C150.319 55.1987 149.386 55.7363 147.793 55.7363C146.104 55.7363 144.694 54.798 144.694 53.1393C144.643 51.0293 147.037 50.4105 150.74 49.9895ZM146.322 53.1241C146.322 53.9763 146.971 54.5443 148.062 54.5443C149.487 54.5443 150.841 53.89 150.841 51.7648V51.1967C148.092 51.4807 146.322 51.8612 146.322 53.1241Z" fill="black"/>
<path d="M154.284 55.5322V46.5252H155.805V47.8793C156.073 47.4013 156.468 47.0065 156.946 46.7381C157.423 46.4697 157.966 46.3381 158.513 46.3578C159.888 46.3578 160.709 46.9613 161.11 47.9503C161.431 47.4392 161.882 47.0225 162.416 46.7428C162.951 46.463 163.55 46.3301 164.153 46.3578C166.247 46.3578 167.064 47.7677 167.064 49.8267V55.5169H165.543V50.2933C165.543 48.9037 165.274 47.6967 163.62 47.6967C162.312 47.6967 161.44 48.711 161.44 50.6432V55.5322H159.918V50.2933C159.918 48.9037 159.649 47.6967 157.996 47.6967C156.688 47.6967 155.821 48.711 155.821 50.6432V55.5322H154.284Z" fill="black"/>
</svg>
