<svg width="236" height="80" viewBox="0 0 236 80" fill="none" xmlns="http://www.w3.org/2000/svg">
<path d="M52.1865 28.1764V23.122C52.1873 22.2255 51.9211 21.349 51.4219 20.6043C50.9227 19.8596 50.2131 19.2805 49.3836 18.9406L18 6V8.80292L45.9546 20.2903C46.2374 20.4131 46.4608 20.6418 46.5768 20.9275C46.6928 21.2132 46.6921 21.533 46.5749 21.8181C46.5197 21.9587 46.4362 22.0863 46.3294 22.193C46.2227 22.2997 46.0951 22.3833 45.9546 22.4385L18 33.9948V45.2697L34.8463 38.3198L45.9201 42.886C46.062 42.9438 46.1908 43.0293 46.2991 43.1376C46.4074 43.2458 46.493 43.3746 46.5508 43.5165C46.6086 43.6583 46.6374 43.8102 46.6357 43.9633C46.6339 44.1164 46.6015 44.2677 46.5404 44.4081C46.4853 44.5486 46.4017 44.6762 46.295 44.783C46.1882 44.8897 46.0606 44.9733 45.9201 45.0284L18 56.5503V74.3558L49.3434 61.4497C50.1729 61.1098 50.8825 60.5306 51.3817 59.7859C51.8809 59.0412 52.1471 58.1648 52.1463 57.2683V45.6832C52.1474 44.7859 51.8815 43.9085 51.3823 43.1629C50.8832 42.4172 50.1734 41.837 49.3434 41.4961L38.2408 36.9011L49.3434 32.3349C50.1837 32.0127 50.9059 31.4422 51.4138 30.6993C51.9217 29.9564 52.1913 29.0764 52.1865 28.1764V28.1764Z" fill="black"/>
<path d="M78.0292 10.1704C78.1907 9.88879 78.4284 9.6585 78.715 9.50605C79.0016 9.35361 79.3254 9.28521 79.6492 9.30873C80.7981 9.30873 81.7632 10.2566 81.7632 11.8823C81.7632 13.508 80.7809 14.4558 79.6492 14.4558C79.3254 14.4793 79.0016 14.4109 78.715 14.2585C78.4284 14.106 78.1907 13.8757 78.0292 13.5941V15.9494H77.1963V9.38915H78.0292V10.1704ZM80.8555 11.8938C80.8555 10.7449 80.2811 10.0383 79.4367 10.0383C78.6956 10.0383 77.9948 10.6127 77.9948 11.8938C77.9948 13.1748 78.6956 13.7492 79.4367 13.7492C80.327 13.7377 80.867 13.0599 80.867 11.8823L80.8555 11.8938Z" fill="black"/>
<path d="M84.7002 10.2277C83.9305 10.2277 83.5513 10.6586 83.5513 11.7443V14.3523H82.7126V9.38904H83.5284V10.2565C83.6479 9.98738 83.844 9.75944 84.0923 9.6011C84.3405 9.44276 84.6299 9.36101 84.9243 9.36607H85.1713V10.2565C84.999 10.245 84.8381 10.2277 84.7002 10.2277Z" fill="black"/>
<path d="M87.8998 14.4554C86.7509 14.4554 85.5331 13.6742 85.5331 11.8819C85.5331 10.0896 86.7509 9.30835 87.8998 9.30835C89.0487 9.30835 90.2723 10.0896 90.2723 11.8819C90.2723 13.6742 89.0545 14.4554 87.8998 14.4554ZM89.3819 11.8819C89.3819 10.5664 88.6581 10.0436 87.8998 10.0436C87.1416 10.0436 86.4235 10.5319 86.4235 11.8819C86.4235 13.2318 87.1473 13.7201 87.8998 13.7201C88.6524 13.7201 89.3819 13.1514 89.3819 11.8819Z" fill="black"/>
<path d="M92.0125 9.3896V14.5597C92.0125 15.5879 91.8 15.9211 90.8636 15.9211H90.4385V15.2203H90.6683C91.0991 15.2203 91.1796 15.0939 91.1796 14.5769V9.3896H92.0125ZM92.0125 8.68303H91.1738V7.672H92.0125V8.68303Z" fill="black"/>
<path d="M95.3577 13.7203C95.6405 13.7475 95.9245 13.6829 96.1677 13.5359C96.4109 13.389 96.6002 13.1676 96.7076 12.9045H97.5636C97.4259 13.377 97.1311 13.7883 96.7279 14.0703C96.3246 14.3524 95.8372 14.4883 95.3462 14.4556C93.7837 14.4556 92.922 13.3067 92.922 11.8763C92.8957 11.5469 92.9382 11.2157 93.047 10.9037C93.1557 10.5918 93.3283 10.3059 93.5536 10.0643C93.779 9.82269 94.0523 9.63072 94.3559 9.50059C94.6596 9.37046 94.9871 9.30503 95.3175 9.30848C96.8283 9.30848 97.7359 10.578 97.6153 12.1405H93.8296C93.8219 12.3457 93.8557 12.5503 93.9291 12.7421C94.0025 12.9338 94.1139 13.1088 94.2567 13.2563C94.3994 13.4039 94.5705 13.5211 94.7597 13.6008C94.949 13.6806 95.1524 13.7212 95.3577 13.7203V13.7203ZM96.7536 11.4225C96.7303 11.052 96.5668 10.7044 96.2962 10.4504C96.0257 10.1963 95.6685 10.0549 95.2974 10.0549C94.9262 10.0549 94.569 10.1963 94.2985 10.4504C94.028 10.7044 93.8644 11.052 93.8411 11.4225H96.7536Z" fill="black"/>
<path d="M101.882 11.0434C101.819 10.7533 101.656 10.4945 101.422 10.3119C101.188 10.1293 100.898 10.0344 100.601 10.0439C99.86 10.0439 99.1764 10.6183 99.1764 11.8649C99.1764 13.1115 99.8658 13.7204 100.601 13.7204C100.901 13.7305 101.195 13.6373 101.435 13.4564C101.674 13.2755 101.844 13.0179 101.917 12.7266H102.784C102.672 13.2247 102.392 13.6687 101.989 13.983C101.587 14.2972 101.088 14.4622 100.578 14.4499C99.1592 14.4499 98.2803 13.3757 98.2803 11.8706C98.2803 10.3656 99.2109 9.30285 100.67 9.30285C101.164 9.29357 101.645 9.46266 102.025 9.77915C102.405 10.0956 102.658 10.5383 102.738 11.0262L101.882 11.0434Z" fill="black"/>
<path d="M104.725 8.14893V9.38974H105.661V10.0618H104.725V12.9973C104.725 13.5085 104.765 13.6407 105.242 13.6407H105.661V14.353H105.058C104.11 14.353 103.909 14.1462 103.909 13.1122V10.0618H103.128V9.38974H103.88V8.14893H104.725Z" fill="black"/>
<path d="M110.446 10.0154C109.958 10.0154 109.406 10.1935 109.406 10.6416C109.406 11.0897 109.682 11.2161 110.159 11.3137L110.86 11.4516C111.756 11.6239 112.548 11.9628 112.548 12.9222C112.548 13.8815 111.664 14.4559 110.538 14.4559C110.031 14.4942 109.528 14.337 109.133 14.0166C108.738 13.6962 108.48 13.2368 108.412 12.7326H109.291C109.326 13.0338 109.478 13.309 109.715 13.4984C109.952 13.6878 110.254 13.7759 110.555 13.7436C111.187 13.7436 111.704 13.4679 111.704 13.0083C111.704 12.5488 111.233 12.3018 110.699 12.1926L109.963 12.0433C109.291 11.9054 108.556 11.5894 108.556 10.6703C108.556 9.7512 109.441 9.29165 110.538 9.29165C111 9.25146 111.46 9.38896 111.824 9.67609C112.188 9.96323 112.428 10.3784 112.497 10.8369H111.624C111.567 10.5769 111.414 10.3478 111.196 10.1955C110.977 10.0433 110.71 9.97894 110.446 10.0154V10.0154Z" fill="black"/>
<path d="M115.025 14.4561C113.876 14.4561 113.445 13.6863 113.445 12.5546V9.3894H114.278V12.3076C114.278 13.0716 114.41 13.7322 115.318 13.7322C116.111 13.7322 116.576 13.1578 116.576 12.1123V9.3894H117.415V14.3527H116.576V13.6461C116.419 13.9126 116.19 14.1297 115.916 14.2729C115.642 14.4161 115.333 14.4795 115.025 14.4561V14.4561Z" fill="black"/>
<path d="M119.462 10.1704C119.623 9.88879 119.861 9.6585 120.147 9.50605C120.434 9.35361 120.758 9.28521 121.082 9.30873C122.23 9.30873 123.195 10.2566 123.195 11.8823C123.195 13.508 122.207 14.4558 121.082 14.4558C120.758 14.4793 120.434 14.4109 120.147 14.2585C119.861 14.106 119.623 13.8757 119.462 13.5941V15.9494H118.623V9.38915H119.462V10.1704ZM122.282 11.8938C122.282 10.7449 121.708 10.0383 120.869 10.0383C120.122 10.0383 119.421 10.6127 119.421 11.8938C119.421 13.1748 120.122 13.7492 120.869 13.7492C121.725 13.7377 122.259 13.0599 122.259 11.8823L122.282 11.8938Z" fill="black"/>
<path d="M124.958 10.1704C125.119 9.88879 125.357 9.6585 125.643 9.50605C125.93 9.35361 126.254 9.28521 126.578 9.30873C127.727 9.30873 128.692 10.2566 128.692 11.8823C128.692 13.508 127.709 14.4558 126.578 14.4558C126.254 14.4793 125.93 14.4109 125.643 14.2585C125.357 14.106 125.119 13.8757 124.958 13.5941V15.9494H124.119V9.38915H124.958V10.1704ZM127.778 11.8938C127.778 10.7449 127.204 10.0383 126.365 10.0383C125.618 10.0383 124.923 10.6127 124.923 11.8938C124.923 13.1748 125.618 13.7492 126.365 13.7492C127.221 13.7377 127.778 13.0599 127.778 11.8823V11.8938Z" fill="black"/>
<path d="M131.71 14.4554C130.561 14.4554 129.337 13.6742 129.337 11.8819C129.337 10.0896 130.555 9.30835 131.71 9.30835C132.395 9.30835 133.053 9.5807 133.538 10.0655C134.022 10.5503 134.295 11.2078 134.295 11.8934C134.295 12.579 134.022 13.2365 133.538 13.7213C133.053 14.206 132.395 14.4784 131.71 14.4784V14.4554ZM133.174 11.8819C133.174 10.5664 132.451 10.0436 131.698 10.0436C130.946 10.0436 130.216 10.5319 130.216 11.8819C130.216 13.2318 130.94 13.7201 131.698 13.7201C132.456 13.7201 133.174 13.1514 133.174 11.8819Z" fill="black"/>
<path d="M137.006 10.228C136.236 10.228 135.857 10.6588 135.857 11.7445V14.3525H135.013V9.38928H135.834V10.2567C135.952 9.98623 136.148 9.75702 136.396 9.5984C136.645 9.43978 136.935 9.35897 137.23 9.3663H137.477V10.2567C137.305 10.2452 137.144 10.228 137.006 10.228Z" fill="black"/>
<path d="M139.523 8.14893V9.38974H140.465V10.0618H139.523V12.9973C139.523 13.5085 139.563 13.6407 140.04 13.6407H140.465V14.353H139.856C138.908 14.353 138.707 14.1462 138.707 13.1122V10.0618H137.926V9.38974H138.707V8.14893H139.523Z" fill="black"/>
<path d="M143.282 13.7203C143.565 13.7469 143.85 13.6821 144.094 13.5353C144.338 13.3885 144.528 13.1675 144.638 12.9045H145.499C145.362 13.377 145.067 13.7883 144.664 14.0703C144.26 14.3524 143.773 14.4883 143.282 14.4555C141.719 14.4555 140.858 13.3066 140.858 11.8763C140.832 11.5466 140.876 11.2153 140.985 10.9033C141.094 10.5913 141.268 10.3055 141.493 10.064C141.719 9.82254 141.993 9.63067 142.297 9.5006C142.601 9.37053 142.928 9.3051 143.259 9.30847C144.764 9.30847 145.677 10.578 145.557 12.1405H141.788C141.779 12.3432 141.811 12.5457 141.881 12.7359C141.952 12.926 142.06 13.1 142.2 13.2475C142.339 13.3949 142.507 13.5127 142.693 13.594C142.879 13.6752 143.079 13.7181 143.282 13.7203V13.7203ZM144.684 11.4225C144.684 11.0355 144.53 10.6643 144.256 10.3907C143.983 10.1171 143.612 9.96335 143.225 9.96335C142.838 9.96335 142.466 10.1171 142.193 10.3907C141.919 10.6643 141.765 11.0355 141.765 11.4225H144.684Z" fill="black"/>
<path d="M150.763 7.672V14.3529H149.924V13.6118C149.763 13.8934 149.525 14.1237 149.239 14.2762C148.952 14.4286 148.628 14.497 148.304 14.4735C147.155 14.4735 146.19 13.5371 146.19 11.9C146.19 10.2628 147.173 9.32641 148.304 9.32641C148.628 9.30289 148.952 9.37129 149.239 9.52374C149.525 9.67618 149.763 9.90647 149.924 10.1881V7.672H150.763ZM147.104 11.8827C147.104 13.0316 147.678 13.7382 148.517 13.7382C149.264 13.7382 149.959 13.1637 149.959 11.8827C149.959 10.6017 149.264 10.0272 148.517 10.0272C147.661 10.0272 147.104 10.7051 147.104 11.8827Z" fill="black"/>
<path d="M155.059 10.1709C155.22 9.88923 155.458 9.65895 155.745 9.5065C156.031 9.35406 156.355 9.28566 156.679 9.30918C157.828 9.30918 158.793 10.257 158.793 11.8827C158.793 13.5084 157.811 14.4562 156.679 14.4562C156.355 14.4798 156.031 14.4114 155.745 14.2589C155.458 14.1065 155.22 13.8762 155.059 13.5946V14.3528H154.22V7.672H155.059V10.1709ZM157.885 11.8942C157.885 10.7453 157.311 10.0387 156.466 10.0387C155.72 10.0387 155.025 10.6132 155.025 11.8942C155.025 13.1752 155.72 13.7497 156.466 13.7497C157.322 13.7382 157.868 13.0603 157.868 11.8827L157.885 11.8942Z" fill="black"/>
<path d="M161.465 14.5476C161.109 15.6275 160.851 15.9492 159.742 15.9492H159.305V15.2484H159.65C160.224 15.2484 160.466 15.2139 160.684 14.4384L160.741 14.3523L158.955 9.40625H159.885L161.143 13.2263L162.367 9.40625H163.24L161.465 14.5476Z" fill="black"/>
<path d="M84.2652 26.2529L86.2927 33.7944L88.2456 26.2529H90.0951L87.16 36.4537H85.5862L83.329 28.2402L81.1521 36.4537H79.5841L76.6433 26.2529H78.4985L80.4514 33.7944L82.4847 26.2529H84.2652Z" fill="black"/>
<path d="M95.5115 35.1796C96.0948 35.2337 96.6801 35.0995 97.1816 34.7966C97.683 34.4936 98.0741 34.038 98.2976 33.4965H100.078C99.6073 35.26 97.9931 36.6961 95.5115 36.6961C92.2888 36.6961 90.5081 34.3984 90.5081 31.371C90.5081 28.1483 92.668 26.0803 95.4541 26.0803C98.5618 26.0803 100.44 28.6998 100.21 31.9225H92.3922C92.3753 32.3432 92.4433 32.7629 92.5923 33.1567C92.7412 33.5505 92.9681 33.9102 93.2593 34.2143C93.5505 34.5183 93.9001 34.7606 94.2871 34.9264C94.674 35.0923 95.0905 35.1784 95.5115 35.1796ZM98.3838 30.4404C98.3115 29.6964 97.9651 29.0059 97.4118 28.5032C96.8586 28.0006 96.1381 27.7218 95.3906 27.7211C94.6431 27.7204 93.9221 27.9978 93.3679 28.4994C92.8137 29.001 92.4659 29.6908 92.3922 30.4346L98.3838 30.4404Z" fill="black"/>
<path d="M103.719 27.8608C104.055 27.2833 104.545 26.8108 105.134 26.4963C105.724 26.1818 106.389 26.0377 107.056 26.0803C109.388 26.0803 111.415 28.0331 111.415 31.3875C111.415 34.7418 109.388 36.6946 107.056 36.6946C106.389 36.7372 105.724 36.5931 105.134 36.2786C104.545 35.9641 104.055 35.4916 103.719 34.9141V36.4534H101.996V22.7087H103.719V27.8608ZM109.537 31.3875C109.537 28.9636 108.388 27.5622 106.619 27.5622C105.086 27.5622 103.644 28.7109 103.644 31.3875C103.644 34.064 105.086 35.2185 106.619 35.2185C108.383 35.2185 109.537 33.8171 109.537 31.3875Z" fill="black"/>
<path d="M116.652 29.9862H116.365V28.4124H116.594C118.984 28.4124 120.253 27.7519 120.253 26.1149C120.253 24.6388 119.041 23.8806 117.577 23.8806C117.203 23.8509 116.827 23.8973 116.472 24.0168C116.116 24.1364 115.789 24.3268 115.509 24.5764C115.23 24.826 115.004 25.1297 114.845 25.4692C114.685 25.8086 114.597 26.1768 114.584 26.5514H112.804C113.01 24.1276 114.733 22.439 117.617 22.439C120.006 22.439 122.074 23.3867 122.074 25.9254C122.075 26.6228 121.86 27.3035 121.459 27.8741C121.058 28.4447 120.49 28.8775 119.834 29.1131C121.884 29.7564 122.453 31.1177 122.453 32.5594C122.453 35.3278 120.098 36.6718 117.485 36.6718C114.262 36.6718 112.781 34.6673 112.591 32.3698H114.377C114.567 34.0585 115.566 35.2417 117.502 35.2417C119.323 35.2417 120.609 34.294 120.609 32.5881C120.609 30.6295 118.846 29.9862 116.652 29.9862Z" fill="black"/>
<path d="M132.256 22.7087H133.175V24.1504H132.32C131.412 24.1504 131.257 24.3572 131.257 25.4198V26.2526H133.175V27.6368H131.257V36.4534H129.534V27.6368H128.109V26.2526H129.534V25.5117C129.505 23.3922 129.942 22.7087 132.256 22.7087Z" fill="black"/>
<path d="M138.648 36.6961C136.281 36.6961 133.759 35.0877 133.759 31.3882C133.759 27.6888 136.281 26.0803 138.648 26.0803C141.014 26.0803 143.542 27.6945 143.542 31.3882C143.542 35.0819 141.02 36.6961 138.648 36.6961ZM141.704 31.3882C141.704 28.6768 140.204 27.5969 138.648 27.5969C137.091 27.5969 135.597 28.6022 135.597 31.3882C135.597 34.1743 137.097 35.1796 138.648 35.1796C140.199 35.1796 141.704 34.0077 141.704 31.3882V31.3882Z" fill="black"/>
<path d="M148.527 36.6964C146.16 36.6964 145.27 35.1052 145.27 32.7729V26.2529H146.993V32.2617C146.993 33.8357 147.257 35.2029 149.136 35.2029C150.767 35.2029 151.732 34.054 151.732 31.8653V26.2529H153.456V36.4552H151.732V34.9903C151.41 35.5448 150.939 35.9983 150.372 36.2997C149.806 36.6011 149.167 36.7385 148.527 36.6964Z" fill="black"/>
<path d="M160.883 26.0803C163.353 26.0803 164.243 27.6715 164.243 30.0038V36.4548H162.52V30.515C162.52 28.9468 162.256 27.5796 160.286 27.5796C158.614 27.5796 157.591 28.7285 157.591 30.9171V36.4548H155.868V26.2526H157.591V27.7864C157.93 27.2263 158.416 26.7706 158.997 26.4695C159.578 26.1685 160.23 26.0337 160.883 26.0803V26.0803Z" fill="black"/>
<path d="M175.368 22.7086V36.4533H173.645V34.914C173.309 35.4915 172.819 35.964 172.229 36.2785C171.64 36.593 170.974 36.7371 170.308 36.6945C167.976 36.6945 165.948 34.7647 165.948 31.3874C165.948 28.0101 167.976 26.0802 170.308 26.0802C170.974 26.0376 171.64 26.1817 172.229 26.4962C172.819 26.8107 173.309 27.2832 173.645 27.8607V22.6914L175.368 22.7086ZM167.826 31.3874C167.826 33.817 168.975 35.2184 170.744 35.2184C172.278 35.2184 173.719 34.0697 173.719 31.3874C173.719 28.7051 172.278 27.5621 170.744 27.5621C168.981 27.5621 167.826 28.9635 167.826 31.3874Z" fill="black"/>
<path d="M184.064 30.1761V29.9291C184.064 28.0736 183.018 27.4475 181.766 27.4475C180.347 27.4475 179.514 28.223 179.434 29.4753H177.653C177.825 27.2751 179.755 26.0286 181.749 26.0286C184.558 26.0286 185.827 27.3728 185.804 30.2335V32.5888C185.762 33.8774 185.85 35.1669 186.069 36.4376H184.345C184.27 35.9719 184.226 35.5017 184.213 35.0302C183.587 36.0757 182.524 36.6789 180.72 36.6789C178.807 36.6789 177.216 35.6219 177.216 33.7434C177.165 31.3537 179.876 30.6529 184.064 30.1761ZM179.077 33.7204C179.077 34.6913 179.818 35.3347 181.048 35.3347C182.662 35.3347 184.196 34.5936 184.196 32.1867V31.5433C181.071 31.865 179.077 32.3188 179.077 33.7204Z" fill="black"/>
<path d="M190.195 23.6909V26.2526H192.131V27.6368H190.195V33.685C190.195 34.7475 190.276 35.0117 191.258 35.0117H192.131V36.4534H190.879C188.926 36.4534 188.472 36.0169 188.472 33.8917V27.6368H186.864V26.2526H188.472V23.6909H190.195Z" fill="black"/>
<path d="M195.502 24.7937H193.779V22.7087H195.502V24.7937ZM195.502 36.4534H193.779V26.2526H195.502V36.4534Z" fill="black"/>
<path d="M202.226 36.6961C199.854 36.6961 197.332 35.0877 197.332 31.3882C197.332 27.6888 199.854 26.0803 202.226 26.0803C204.599 26.0803 207.115 27.6945 207.115 31.3882C207.115 35.0819 204.593 36.6961 202.226 36.6961ZM205.277 31.3882C205.277 28.6768 203.777 27.5969 202.226 27.5969C200.675 27.5969 199.17 28.6022 199.17 31.3882C199.17 34.1743 200.67 35.1796 202.226 35.1796C203.783 35.1796 205.277 34.0077 205.277 31.3882Z" fill="black"/>
<path d="M213.974 26.0807C216.438 26.0807 217.328 27.6719 217.328 30.0042V36.4552H215.605V30.5154C215.605 28.9472 215.341 27.58 213.365 27.58C211.699 27.58 210.676 28.7289 210.676 30.9175V36.4552H208.953V26.253H210.676V27.7868C211.015 27.2258 211.502 26.7695 212.084 26.4684C212.666 26.1672 213.32 26.0331 213.974 26.0807Z" fill="black"/>
<path d="M86.5012 47.3663V56.2001C86.5012 58.2851 86.1221 59.1409 85.5363 59.7842C85.0771 60.2451 84.5253 60.6033 83.9173 60.835C83.3094 61.0667 82.6591 61.1666 82.0097 61.1282C79.7122 61.1282 78.1441 60.0656 77.8225 58.0037H79.6605C79.8845 58.9112 80.4359 59.6119 82.0269 59.6119C82.4082 59.6397 82.7911 59.5865 83.1505 59.4558C83.5098 59.3252 83.8374 59.12 84.1118 58.8537C84.4909 58.4574 84.7781 57.9807 84.7781 56.5965V55.6315C84.4607 56.2021 83.9876 56.6708 83.4141 56.983C82.8406 57.2952 82.1902 57.438 81.5387 57.3948C79.2814 57.3948 77.2137 55.5741 77.2137 52.2944C77.2137 49.0148 79.2814 47.194 81.5387 47.194C82.1926 47.153 82.8446 47.2993 83.4184 47.6157C83.9921 47.932 84.4638 48.4054 84.7781 48.9803V47.3663H86.5012ZM79.0918 52.2944C79.0918 54.6264 80.2865 55.9359 81.9637 55.9359C83.503 55.9359 84.8355 54.8906 84.8355 52.2944C84.8355 49.6983 83.4915 48.6759 81.9637 48.6759C80.2865 48.6759 79.0918 49.9625 79.0918 52.2944V52.2944Z" fill="black"/>
<path d="M93.0198 49.0959C91.4286 49.0959 90.6301 49.9863 90.6301 52.2209V57.569H88.9067V47.3668H90.5899V49.1476C90.8355 48.5932 91.2388 48.1233 91.7495 47.7964C92.2602 47.4696 92.8558 47.3002 93.4621 47.3093C93.6324 47.2983 93.8031 47.2983 93.9734 47.3093V49.1476C93.6567 49.1136 93.3383 49.0964 93.0198 49.0959V49.0959Z" fill="black"/>
<path d="M101.581 51.2899V51.0429C101.581 49.1874 100.535 48.5612 99.2831 48.5612C97.8643 48.5612 97.0313 49.3367 96.9509 50.589H95.1701C95.3424 48.3889 97.2726 47.1423 99.2659 47.1423C102.069 47.1423 103.345 48.4865 103.322 51.3531V53.7025C103.279 54.9911 103.367 56.2807 103.586 57.5514H101.862C101.788 57.0874 101.742 56.6193 101.725 56.1497C101.104 57.1895 100.041 57.7984 98.2376 57.7984C96.3247 57.7984 94.7335 56.7356 94.7335 54.8572C94.6875 52.4675 97.376 51.7667 101.581 51.2899ZM96.5947 54.84C96.5947 55.805 97.3358 56.4484 98.5651 56.4484C100.179 56.4484 101.713 55.7074 101.713 53.3004V52.6571C98.5651 52.9787 96.5775 53.4096 96.5775 54.84H96.5947Z" fill="black"/>
<path d="M110.607 47.1942C113.071 47.1942 113.962 48.7912 113.962 51.1234V57.5688H112.238V51.6347C112.238 50.0607 111.974 48.6935 109.998 48.6935C108.332 48.6935 107.31 49.8424 107.31 52.0311V57.5688H105.586V47.3665H107.31V48.9003C107.648 48.3393 108.136 47.883 108.718 47.5819C109.299 47.2808 109.953 47.1466 110.607 47.1942Z" fill="black"/>
<path d="M118.413 44.7935V47.3494H120.348V48.7336H118.413V54.7818C118.413 55.8443 118.487 56.1085 119.475 56.1085H120.348V57.5502H119.096C117.143 57.5502 116.69 57.1137 116.69 54.9885V48.7509H115.076V47.3666H116.69V44.7935H118.413Z" fill="black"/>
<path d="M125.452 48.6588C124.446 48.6588 123.309 49.015 123.309 49.9456C123.309 50.7613 123.883 51.1405 124.866 51.33L126.307 51.6115C128.163 51.9734 129.794 52.6742 129.794 54.6503C129.794 56.6265 127.973 57.8156 125.641 57.8156C122.97 57.8156 121.453 56.052 121.264 54.2712H123.085C123.161 54.8883 123.475 55.4513 123.96 55.8406C124.445 56.2299 125.062 56.415 125.681 56.3565C126.985 56.3565 128.048 55.782 128.048 54.8399C128.048 53.8978 127.083 53.3751 125.98 53.151L124.464 52.8466C123.085 52.5594 121.591 51.916 121.591 50.0203C121.591 48.2223 123.412 47.1768 125.67 47.1768C127.927 47.1768 129.369 48.4118 129.691 50.342H127.887C127.594 49.1299 126.646 48.6588 125.452 48.6588Z" fill="black"/>
<path d="M138.114 48.9804C138.45 48.4023 138.94 47.929 139.529 47.6135C140.119 47.298 140.784 47.1528 141.451 47.1941C143.783 47.1941 145.811 49.147 145.811 52.5071C145.811 55.8671 143.783 57.8142 141.451 57.8142C140.784 57.8569 140.118 57.7123 139.528 57.3967C138.939 57.081 138.449 56.607 138.114 56.028V60.8756H136.391V47.3665H138.114V48.9804ZM143.938 52.5071C143.938 50.0775 142.79 48.676 141.015 48.676C139.481 48.676 138.04 49.8248 138.04 52.5071C138.04 55.1894 139.481 56.3324 141.015 56.3324C142.778 56.3324 143.938 54.9309 143.938 52.5071V52.5071Z" fill="black"/>
<path d="M151.748 49.0959C150.157 49.0959 149.359 49.9863 149.359 52.2209V57.569H147.635V47.3668H149.324V49.1476C149.569 48.5923 149.972 48.1216 150.483 47.7945C150.994 47.4675 151.59 47.2987 152.196 47.3093C152.367 47.2983 152.538 47.2983 152.708 47.3093V49.1476C152.389 49.1132 152.069 49.0959 151.748 49.0959V49.0959Z" fill="black"/>
<path d="M158.252 57.8162C155.879 57.8162 153.357 56.202 153.357 52.5082C153.357 48.8145 155.879 47.1946 158.252 47.1946C160.624 47.1946 163.14 48.8088 163.14 52.5082C163.14 56.2077 160.618 57.8162 158.252 57.8162ZM161.302 52.5082C161.302 49.7968 159.803 48.7111 158.252 48.7111C156.701 48.7111 155.196 49.7164 155.196 52.5082C155.196 55.3001 156.695 56.2996 158.252 56.2996C159.808 56.2996 161.319 55.1335 161.319 52.5082H161.302Z" fill="black"/>
<path d="M173.655 47.3662V56.2C173.655 58.285 173.276 59.1408 172.69 59.7841C172.23 60.245 171.679 60.6032 171.071 60.8349C170.463 61.0666 169.813 61.1665 169.163 61.1281C166.866 61.1281 165.298 60.0655 164.97 58.0035H166.814C167.038 58.911 167.589 59.6118 169.18 59.6118C169.562 59.6396 169.945 59.5864 170.304 59.4557C170.663 59.325 170.991 59.1198 171.265 58.8536C171.644 58.4573 171.932 57.9805 171.932 56.5963V55.6314C171.614 56.2029 171.14 56.6722 170.565 56.9845C169.99 57.2967 169.339 57.439 168.686 57.3947C166.435 57.3947 164.367 55.5739 164.367 52.2943C164.367 49.0146 166.435 47.1939 168.686 47.1939C169.341 47.1518 169.994 47.2975 170.569 47.6139C171.144 47.9304 171.617 48.4043 171.932 48.9802V47.3662H173.655ZM166.245 52.2943C166.245 54.6262 167.434 55.9358 169.117 55.9358C170.656 55.9358 171.989 54.8904 171.989 52.2943C171.989 49.6981 170.645 48.6757 169.117 48.6757C167.434 48.6757 166.245 49.9623 166.245 52.2943V52.2943Z" fill="black"/>
<path d="M180.176 49.0959C178.585 49.0959 177.786 49.9863 177.786 52.2209V57.569H176.063V47.3668H177.746V49.1476C177.991 48.5927 178.394 48.1224 178.905 47.7955C179.416 47.4685 180.012 47.2994 180.618 47.3093C180.789 47.2983 180.959 47.2983 181.13 47.3093V49.1476C180.813 49.1138 180.495 49.0966 180.176 49.0959Z" fill="black"/>
<path d="M188.72 51.2899V51.0429C188.72 49.1874 187.675 48.5612 186.422 48.5612C185.004 48.5612 184.165 49.3367 184.09 50.589H182.309C182.482 48.3889 184.412 47.1423 186.405 47.1423C189.209 47.1423 190.478 48.4865 190.461 51.3531V53.7025C190.418 54.9911 190.507 56.2807 190.725 57.5514H189.002C188.93 57.0872 188.886 56.6191 188.87 56.1497C188.243 57.1895 187.186 57.7984 185.383 57.7984C183.47 57.7984 181.873 56.7356 181.873 54.8572C181.815 52.4675 184.527 51.7667 188.72 51.2899ZM183.717 54.84C183.717 55.805 184.452 56.4484 185.687 56.4484C187.301 56.4484 188.835 55.7074 188.835 53.3004V52.6571C185.722 52.9787 183.717 53.4096 183.717 54.84Z" fill="black"/>
<path d="M192.734 57.567V47.3662H194.457V48.8998C194.76 48.3585 195.207 47.9113 195.748 47.6073C196.289 47.3034 196.904 47.1544 197.524 47.1767C199.081 47.1767 200.011 47.8602 200.465 48.9802C200.828 48.4014 201.339 47.9295 201.944 47.6126C202.55 47.2957 203.228 47.1453 203.911 47.1767C206.283 47.1767 207.208 48.7734 207.208 51.1054V57.5498H205.485V51.6338C205.485 50.06 205.18 48.693 203.308 48.693C201.826 48.693 200.838 49.8418 200.838 52.0301V57.567H199.115V51.6338C199.115 50.06 198.811 48.693 196.938 48.693C195.456 48.693 194.474 49.8418 194.474 52.0301V57.567H192.734Z" fill="black"/>
</svg>
