<svg width="206" height="80" viewBox="0 0 206 80" fill="none" xmlns="http://www.w3.org/2000/svg">
<path d="M48.5344 20.4148L52.13 31.3501L55.2067 20.4148H60.73L55.0214 38.838H49.424L45.4206 26.9389L41.4913 38.838H35.7827L30 20.4148H35.8569L38.9336 31.3093L42.5663 20.4111L48.5344 20.4148Z" fill="black"/>
<path d="M79.8187 33.5331C78.9291 36.721 76.0007 39.39 71.33 39.39C66.2516 39.39 61.7292 35.7572 61.7292 29.5667C61.7292 23.6358 66.1404 19.8547 70.9222 19.8547C76.6308 19.8547 80.1524 23.3763 80.1524 29.3073C80.1585 29.89 80.1213 30.4723 80.0412 31.0495H67.2154C67.3266 33.1253 69.2171 34.6081 71.4041 34.6081C73.4429 34.6081 74.592 33.6443 75.111 32.1986L79.8187 33.5331ZM74.7033 27.4168C74.6291 26.0081 73.6653 24.303 70.9964 24.303C68.624 24.303 67.4378 26.0452 67.3266 27.4168H74.7033Z" fill="black"/>
<path d="M83.7921 38.8378V12H89.3153V22.1568C90.0937 21.0077 92.1325 19.9698 94.6532 19.9698C99.9911 19.9698 103.216 24.0473 103.216 29.5706C103.216 35.205 99.5833 39.2455 94.4308 39.2455C91.9842 39.2455 90.0937 38.1705 89.2412 36.7619V38.8378H83.7921ZM93.4299 25.0482C91.2429 25.0482 89.2412 26.4939 89.2412 29.6077C89.2412 32.6473 91.2429 34.2042 93.4299 34.2042C95.617 34.2042 97.5816 32.6844 97.5816 29.6077C97.5816 26.5309 95.617 25.0482 93.4299 25.0482Z" fill="black"/>
<path d="M110.62 24.5298L116.551 19.6738H106.505V14.7808H123.857V19.3031L117.926 23.896C119.78 24.0132 121.517 24.8422 122.775 26.2099C124.032 27.5776 124.712 29.3782 124.673 31.2356C124.673 35.4985 121.151 39.3536 115.22 39.3536C109.619 39.3536 106.061 35.758 105.69 31.6433L111.328 30.6054C111.402 32.7183 112.922 34.3864 115.183 34.3864C117.444 34.3864 118.779 32.8666 118.779 31.0873C118.779 28.789 116.999 27.8253 115.294 27.8253C114.544 27.8418 113.808 28.0321 113.144 28.3813L110.62 24.5298Z" fill="black"/>
<path d="M131.343 31.5728C132.348 31.5756 133.312 31.9738 134.027 32.6813C134.741 33.3888 135.149 34.3489 135.161 35.3543C135.161 36.3621 134.761 37.3287 134.048 38.0414C133.336 38.754 132.369 39.1544 131.361 39.1544C130.353 39.1544 129.387 38.754 128.674 38.0414C127.962 37.3287 127.561 36.3621 127.561 35.3543C127.565 34.3526 127.965 33.393 128.673 32.6847C129.381 31.9763 130.341 31.5767 131.343 31.5728V31.5728Z" fill="black"/>
<path d="M140.17 18.3356C141.763 15.9261 144.432 14.2209 148.325 14.2209C152.217 14.2209 154.923 15.9261 156.517 18.3356C158.185 20.8563 158.63 23.8588 158.63 26.8243C158.63 29.7898 158.185 32.7924 156.517 35.3131C154.923 37.6855 152.254 39.4277 148.325 39.4277C144.395 39.4277 141.763 37.6855 140.17 35.3131C138.501 32.7924 138.053 29.7898 138.053 26.8243C138.053 23.8588 138.501 20.86 140.17 18.3356ZM144.803 32.051C145.47 33.3855 146.545 34.2751 148.325 34.2751C150.104 34.2751 151.179 33.3855 151.846 32.051C152.55 30.6424 152.773 28.7519 152.773 26.8243C152.773 24.8967 152.55 23.0062 151.846 21.5976C151.179 20.2632 150.141 19.3735 148.325 19.3735C146.508 19.3735 145.47 20.2632 144.803 21.5976C144.136 23.0062 143.913 24.8967 143.913 26.8243C143.913 28.7519 144.136 30.6461 144.803 32.051Z" fill="black"/>
<path d="M32.0732 72.9415V46.1038H37.5965V56.2606C38.3749 55.1115 40.4137 54.0735 42.9344 54.0735C48.2723 54.0735 51.4973 58.1511 51.4973 63.6743C51.4973 69.3088 47.8645 73.3493 42.712 73.3493C40.2654 73.3493 38.3749 72.2743 37.5223 70.8657V72.9415H32.0732ZM41.7111 59.152C39.5241 59.152 37.5223 60.5976 37.5223 63.7114C37.5223 66.7511 39.5241 68.3079 41.7111 68.3079C43.8982 68.3079 45.8628 66.7881 45.8628 63.7114C45.8628 60.6347 43.8982 59.152 41.7111 59.152Z" fill="black"/>
<path d="M73.3683 63.7108C73.3683 69.4193 69.1054 73.4969 63.5822 73.4969C58.0589 73.4969 53.796 69.4193 53.796 63.7108C53.796 58.0022 58.096 53.9617 63.5822 53.9617C69.0683 53.9617 73.3683 57.9985 73.3683 63.7108ZM67.7339 63.7108C67.7339 60.597 65.7322 59.1513 63.5822 59.1513C61.4322 59.1513 59.4305 60.597 59.4305 63.7108C59.4305 66.8245 61.4692 68.3073 63.5822 68.3073C65.6951 68.3073 67.7339 66.8245 67.7339 63.7108V63.7108Z" fill="black"/>
<path d="M95.2431 63.7108C95.2431 69.4193 90.9802 73.4969 85.4569 73.4969C79.9337 73.4969 75.6708 69.4193 75.6708 63.7108C75.6708 58.0022 79.9707 53.9617 85.4569 53.9617C90.9431 53.9617 95.2431 57.9985 95.2431 63.7108ZM89.6086 63.7108C89.6086 60.597 87.6069 59.1513 85.4569 59.1513C83.3069 59.1513 81.3052 60.597 81.3052 63.7108C81.3052 66.8245 83.344 68.3073 85.4569 68.3073C87.5698 68.3073 89.6086 66.8245 89.6086 63.7108V63.7108Z" fill="black"/>
<path d="M105.582 54.5185H109.178V59.4487H105.582V66.3435C105.582 67.8633 106.398 68.271 107.621 68.271C108.12 68.2627 108.617 68.2006 109.104 68.0857V72.7563C108.881 72.8676 107.954 73.2753 106.175 73.2753C102.357 73.2753 100.022 71.0141 100.022 67.3443V59.4487H96.7597V54.5185H97.6864C99.614 54.5185 100.541 53.2211 100.541 51.516V49.1436H105.582V54.5185Z" fill="black"/>
<path d="M117.296 63.7478C117.296 66.6762 119.26 68.3073 121.596 68.3073C122.448 68.3448 123.287 68.0947 123.98 67.5972C124.672 67.0996 125.177 66.3835 125.414 65.5642L130.381 67.084C129.565 70.309 126.526 73.4969 121.596 73.4969C116.109 73.4969 111.698 69.4564 111.698 63.7478C111.698 58.0392 115.998 53.9617 121.41 53.9617C126.489 53.9617 129.454 57.0754 130.27 60.3746L125.228 61.8944C125.025 61.0777 124.544 60.3572 123.868 59.8566C123.191 59.356 122.362 59.1066 121.521 59.1513C119.186 59.1513 117.296 60.7823 117.296 63.7478Z" fill="black"/>
<path d="M138.128 62.3021L142.465 61.6349C143.466 61.4866 143.799 61.0047 143.799 60.3746C143.799 59.2996 142.873 58.3728 141.093 58.3728C139.129 58.3728 138.05 59.7073 137.942 61.0789L133.046 60.078C133.268 57.4461 135.715 53.9617 141.13 53.9617C147.098 53.9617 149.285 57.2979 149.285 61.0789V70.0866C149.284 71.0424 149.359 71.9968 149.508 72.9409H144.429C144.288 72.2584 144.225 71.5618 144.244 70.865C143.28 72.4219 141.501 73.4598 139.055 73.4598C135.01 73.4598 132.675 70.7909 132.675 67.8625C132.675 64.6004 135.084 62.747 138.128 62.3021ZM143.799 65.7125V64.897L140.315 65.453C139.129 65.6383 138.235 66.1944 138.235 67.4918C138.235 68.4556 138.869 69.3823 140.426 69.3823C142.094 69.3823 143.799 68.5668 143.799 65.7125Z" fill="black"/>
<path d="M153.543 72.9409V54.5177H158.918V56.6306C159.844 54.9996 162.217 53.9617 164.219 53.9617C166.854 53.9617 168.745 55.0367 169.671 56.853C171.117 54.7772 172.896 53.9617 175.38 53.9617C178.864 53.9617 182.201 56.0005 182.201 61.0047V72.9409H176.752V62.2651C176.752 60.5228 175.825 59.1513 173.823 59.1513C171.821 59.1513 170.746 60.6711 170.746 62.3021V72.9409H165.186V62.2651C165.186 60.5228 164.259 59.1513 162.221 59.1513C160.256 59.1513 159.181 60.6711 159.181 62.3392V72.9409H153.543Z" fill="black"/>
<path d="M186.576 79.9845V54.5183H192.025V56.4088C192.804 55.2226 194.805 54.0735 197.437 54.0735C202.775 54.0735 206 58.151 206 63.6743C206 69.3087 202.367 73.3492 197.215 73.3492C194.842 73.3492 193.063 72.5337 192.21 71.4958V79.9845H186.576ZM196.288 59.1519C194.101 59.1519 192.136 60.6347 192.136 63.7114C192.136 66.7881 194.101 68.3079 196.288 68.3079C198.475 68.3079 200.477 66.7881 200.477 63.7114C200.477 60.6347 198.512 59.1519 196.288 59.1519Z" fill="black"/>
</svg>
