<svg width="206" height="80" viewBox="0 0 206 80" fill="none" xmlns="http://www.w3.org/2000/svg">
<path d="M30.1855 29.581V25.1181C30.1862 24.3265 29.9512 23.5526 29.5104 22.8951C29.0696 22.2376 28.4431 21.7262 27.7106 21.4261L0 10V12.4749L24.6829 22.6179C24.9327 22.7262 25.1299 22.9282 25.2324 23.1805C25.3348 23.4327 25.3341 23.7151 25.2306 23.9669C25.1819 24.0909 25.1082 24.2036 25.0139 24.2979C24.9197 24.3921 24.807 24.4659 24.6829 24.5146L0 34.7184V44.6738L14.8747 38.5373L24.6525 42.5691C24.7777 42.6201 24.8915 42.6956 24.9871 42.7912C25.0828 42.8868 25.1583 43.0005 25.2094 43.1257C25.2604 43.2509 25.2859 43.3851 25.2843 43.5203C25.2827 43.6555 25.2541 43.789 25.2002 43.913C25.1515 44.0371 25.0777 44.1498 24.9835 44.244C24.8892 44.3383 24.7766 44.412 24.6525 44.4608L0 54.6342V70.3558L27.6751 58.9601C28.4076 58.66 29.0341 58.1486 29.4749 57.4911C29.9157 56.8335 30.1507 56.0597 30.15 55.2681V45.0389C30.151 44.2466 29.9162 43.4719 29.4754 42.8135C29.0347 42.1551 28.408 41.6428 27.6751 41.3418L17.8719 37.2846L27.6751 33.2528C28.4171 32.9683 29.0547 32.4646 29.5032 31.8086C29.9517 31.1526 30.1897 30.3756 30.1855 29.581V29.581Z" fill="black"/>
<path d="M53.0038 13.6823C53.1463 13.4337 53.3562 13.2303 53.6093 13.0957C53.8623 12.9611 54.1482 12.9007 54.4341 12.9215C55.4485 12.9215 56.3007 13.7584 56.3007 15.1938C56.3007 16.6293 55.4333 17.4662 54.4341 17.4662C54.1482 17.4869 53.8623 17.4265 53.6093 17.2919C53.3562 17.1573 53.1463 16.954 53.0038 16.7053V18.7849H52.2683V12.9925H53.0038V13.6823ZM55.4993 15.204C55.4993 14.1895 54.9921 13.5656 54.2464 13.5656C53.5921 13.5656 52.9733 14.0729 52.9733 15.204C52.9733 16.3351 53.5921 16.8423 54.2464 16.8423C55.0326 16.8321 55.5094 16.2336 55.5094 15.1938L55.4993 15.204Z" fill="black"/>
<path d="M58.894 13.7329C58.2143 13.7329 57.8795 14.1134 57.8795 15.072V17.3748H57.139V12.9924H57.8593V13.7583C57.9648 13.5207 58.138 13.3195 58.3572 13.1796C58.5764 13.0398 58.8319 12.9677 59.0918 12.9721H59.3099V13.7583C59.1577 13.7482 59.0157 13.7329 58.894 13.7329Z" fill="black"/>
<path d="M61.7191 17.466C60.7047 17.466 59.6294 16.7761 59.6294 15.1936C59.6294 13.6111 60.7047 12.9213 61.7191 12.9213C62.7336 12.9213 63.8139 13.6111 63.8139 15.1936C63.8139 16.7761 62.7386 17.466 61.7191 17.466ZM63.0278 15.1936C63.0278 14.0321 62.3887 13.5705 61.7191 13.5705C61.0496 13.5705 60.4156 14.0016 60.4156 15.1936C60.4156 16.3856 61.0547 16.8167 61.7191 16.8167C62.3836 16.8167 63.0278 16.3146 63.0278 15.1936Z" fill="black"/>
<path d="M65.3505 12.9928V17.5578C65.3505 18.4657 65.1628 18.7599 64.336 18.7599H63.9607V18.1411H64.1636C64.544 18.1411 64.615 18.0295 64.615 17.573V12.9928H65.3505ZM65.3505 12.3689H64.6099V11.4762H65.3505V12.3689Z" fill="black"/>
<path d="M68.3041 16.8168C68.5538 16.8409 68.8046 16.7838 69.0194 16.6541C69.2341 16.5243 69.4013 16.3288 69.4961 16.0966H70.2518C70.1303 16.5137 69.87 16.8769 69.514 17.1259C69.1579 17.375 68.7275 17.495 68.294 17.4661C66.9143 17.4661 66.1535 16.4516 66.1535 15.1887C66.1302 14.8979 66.1678 14.6054 66.2638 14.3299C66.3599 14.0545 66.5122 13.802 66.7112 13.5887C66.9102 13.3754 67.1515 13.2059 67.4196 13.091C67.6878 12.9761 67.9769 12.9183 68.2686 12.9214C69.6026 12.9214 70.404 14.0423 70.2975 15.422H66.9549C66.9481 15.6031 66.9779 15.7838 67.0427 15.9531C67.1075 16.1224 67.2059 16.2769 67.332 16.4072C67.458 16.5375 67.6091 16.641 67.7762 16.7114C67.9432 16.7818 68.1228 16.8176 68.3041 16.8168V16.8168ZM69.5367 14.7879C69.5161 14.4609 69.3717 14.154 69.1328 13.9296C68.894 13.7053 68.5786 13.5804 68.2509 13.5804C67.9232 13.5804 67.6078 13.7053 67.3689 13.9296C67.13 14.154 66.9856 14.4609 66.9651 14.7879H69.5367Z" fill="black"/>
<path d="M74.065 14.4532C74.0093 14.1971 73.8657 13.9685 73.6591 13.8073C73.4525 13.646 73.1958 13.5623 72.9339 13.5706C72.2796 13.5706 71.676 14.0779 71.676 15.1785C71.676 16.2792 72.2846 16.8169 72.9339 16.8169C73.1987 16.8258 73.4586 16.7435 73.67 16.5838C73.8815 16.4241 74.0316 16.1966 74.0954 15.9394H74.8613C74.7628 16.3792 74.5149 16.7712 74.1597 17.0487C73.8046 17.3262 73.3642 17.4719 72.9136 17.461C71.6607 17.461 70.8847 16.5125 70.8847 15.1836C70.8847 13.8547 71.7064 12.9163 72.9947 12.9163C73.4312 12.9081 73.8559 13.0574 74.1913 13.3369C74.5266 13.6163 74.7501 14.0072 74.8207 14.438L74.065 14.4532Z" fill="black"/>
<path d="M76.5749 11.8973V12.9929H77.4017V13.5864H76.5749V16.1783C76.5749 16.6297 76.6104 16.7464 77.0314 16.7464H77.4017V17.3753H76.8691C76.0322 17.3753 75.8546 17.1927 75.8546 16.2797V13.5864H75.1648V12.9929H75.8293V11.8973H76.5749Z" fill="black"/>
<path d="M81.6266 13.5455C81.1954 13.5455 80.7085 13.7028 80.7085 14.0984C80.7085 14.494 80.952 14.6056 81.373 14.6919L81.9918 14.8136C82.783 14.9658 83.483 15.265 83.483 16.1121C83.483 16.9591 82.7019 17.4663 81.7077 17.4663C81.2598 17.5001 80.8159 17.3613 80.467 17.0784C80.1181 16.7955 79.8906 16.3899 79.831 15.9447H80.6071C80.6377 16.2106 80.7721 16.4537 80.9811 16.6209C81.1902 16.7881 81.4568 16.8659 81.7229 16.8374C82.2809 16.8374 82.7374 16.5939 82.7374 16.1882C82.7374 15.7824 82.3215 15.5643 81.8497 15.4679L81.2005 15.336C80.6071 15.2143 79.9578 14.9353 79.9578 14.1238C79.9578 13.3122 80.7389 12.9064 81.7077 12.9064C82.1155 12.871 82.5215 12.9924 82.8429 13.2459C83.1643 13.4994 83.3769 13.866 83.4373 14.2709H82.6664C82.6162 14.0412 82.4813 13.839 82.2885 13.7046C82.0958 13.5701 81.8594 13.5133 81.6266 13.5455V13.5455Z" fill="black"/>
<path d="M85.6697 17.4665C84.6553 17.4665 84.2748 16.7868 84.2748 15.7876V12.9928H85.0103V15.5695C85.0103 16.2441 85.127 16.8274 85.9284 16.8274C86.6283 16.8274 87.0392 16.3202 87.0392 15.397V12.9928H87.7797V17.3752H87.0392V16.7513C86.9006 16.9866 86.6988 17.1783 86.4567 17.3048C86.2147 17.4312 85.942 17.4872 85.6697 17.4665V17.4665Z" fill="black"/>
<path d="M89.587 13.6823C89.7296 13.4337 89.9395 13.2303 90.1925 13.0957C90.4456 12.9611 90.7315 12.9007 91.0174 12.9215C92.0318 12.9215 92.884 13.7584 92.884 15.1938C92.884 16.6293 92.0115 17.4662 91.0174 17.4662C90.7315 17.4869 90.4456 17.4265 90.1925 17.2919C89.9395 17.1573 89.7296 16.954 89.587 16.7053V18.7849H88.8465V12.9925H89.587V13.6823ZM92.0775 15.204C92.0775 14.1895 91.5702 13.5656 90.8297 13.5656C90.1703 13.5656 89.5515 14.0729 89.5515 15.204C89.5515 16.3351 90.1703 16.8423 90.8297 16.8423C91.5855 16.8321 92.0572 16.2336 92.0572 15.1938L92.0775 15.204Z" fill="black"/>
<path d="M94.4399 13.6823C94.5825 13.4337 94.7924 13.2303 95.0454 13.0957C95.2985 12.9611 95.5844 12.9007 95.8703 12.9215C96.8847 12.9215 97.7368 13.7584 97.7368 15.1938C97.7368 16.6293 96.8695 17.4662 95.8703 17.4662C95.5844 17.4869 95.2985 17.4265 95.0454 17.2919C94.7924 17.1573 94.5825 16.954 94.4399 16.7053V18.7849H93.6994V12.9925H94.4399V13.6823ZM96.9304 15.204C96.9304 14.1895 96.4231 13.5656 95.6826 13.5656C95.0232 13.5656 94.4095 14.0729 94.4095 15.204C94.4095 16.3351 95.0232 16.8423 95.6826 16.8423C96.4384 16.8321 96.9304 16.2336 96.9304 15.1938V15.204Z" fill="black"/>
<path d="M100.402 17.466C99.3872 17.466 98.3068 16.7761 98.3068 15.1936C98.3068 13.6111 99.3821 12.9213 100.402 12.9213C101.007 12.9213 101.588 13.1617 102.016 13.5898C102.444 14.0178 102.684 14.5984 102.684 15.2038C102.684 15.8091 102.444 16.3897 102.016 16.8177C101.588 17.2458 101.007 17.4862 100.402 17.4862V17.466ZM101.695 15.1936C101.695 14.0321 101.056 13.5705 100.391 13.5705C99.727 13.5705 99.0829 14.0016 99.0829 15.1936C99.0829 16.3856 99.722 16.8167 100.391 16.8167C101.061 16.8167 101.695 16.3146 101.695 15.1936Z" fill="black"/>
<path d="M105.078 13.7332C104.399 13.7332 104.064 14.1136 104.064 15.0722V17.375H103.318V12.9926H104.044V13.7585C104.148 13.5197 104.32 13.3173 104.54 13.1773C104.759 13.0372 105.016 12.9659 105.276 12.9723H105.494V13.7585C105.342 13.7484 105.2 13.7332 105.078 13.7332Z" fill="black"/>
<path d="M107.301 11.8973V12.9929H108.132V13.5864H107.301V16.1783C107.301 16.6297 107.336 16.7464 107.757 16.7464H108.132V17.3753H107.595C106.758 17.3753 106.58 17.1927 106.58 16.2797V13.5864H105.89V12.9929H106.58V11.8973H107.301Z" fill="black"/>
<path d="M110.62 16.8168C110.87 16.8404 111.121 16.7832 111.337 16.6535C111.552 16.5239 111.72 16.3287 111.817 16.0966H112.577C112.456 16.5137 112.196 16.8769 111.84 17.1259C111.484 17.375 111.053 17.495 110.62 17.4661C109.24 17.4661 108.479 16.4516 108.479 15.1886C108.457 14.8976 108.495 14.605 108.592 14.3296C108.688 14.0541 108.841 13.8017 109.04 13.5885C109.24 13.3753 109.481 13.2059 109.75 13.091C110.018 12.9762 110.307 12.9184 110.599 12.9214C111.928 12.9214 112.735 14.0423 112.628 15.422H109.301C109.293 15.6009 109.321 15.7797 109.383 15.9476C109.445 16.1156 109.541 16.2692 109.664 16.3994C109.787 16.5295 109.935 16.6336 110.099 16.7053C110.264 16.777 110.44 16.815 110.62 16.8168V16.8168ZM111.857 14.7879C111.857 14.4463 111.722 14.1186 111.48 13.877C111.238 13.6353 110.911 13.4996 110.569 13.4996C110.227 13.4996 109.9 13.6353 109.658 13.877C109.416 14.1186 109.281 14.4463 109.281 14.7879H111.857Z" fill="black"/>
<path d="M117.225 11.4762V17.3752H116.485V16.7208C116.342 16.9695 116.132 17.1728 115.879 17.3074C115.626 17.442 115.34 17.5024 115.054 17.4817C114.04 17.4817 113.188 16.6549 113.188 15.2093C113.188 13.7638 114.055 12.937 115.054 12.937C115.34 12.9162 115.626 12.9766 115.879 13.1112C116.132 13.2458 116.342 13.4492 116.485 13.6978V11.4762H117.225ZM113.994 15.1941C113.994 16.2086 114.501 16.8324 115.242 16.8324C115.901 16.8324 116.515 16.3252 116.515 15.1941C116.515 14.063 115.901 13.5558 115.242 13.5558C114.486 13.5558 113.994 14.1543 113.994 15.1941Z" fill="black"/>
<path d="M121.018 13.6826C121.161 13.4339 121.371 13.2306 121.624 13.096C121.877 12.9614 122.163 12.901 122.449 12.9218C123.463 12.9218 124.315 13.7587 124.315 15.1941C124.315 16.6295 123.448 17.4665 122.449 17.4665C122.163 17.4872 121.877 17.4268 121.624 17.2922C121.371 17.1576 121.161 16.9543 121.018 16.7056V17.3752H120.278V11.4762H121.018V13.6826ZM123.514 15.2043C123.514 14.1898 123.007 13.5659 122.261 13.5659C121.602 13.5659 120.988 14.0732 120.988 15.2043C120.988 16.3354 121.602 16.8426 122.261 16.8426C123.017 16.8324 123.499 16.2339 123.499 15.1941L123.514 15.2043Z" fill="black"/>
<path d="M126.675 17.5472C126.36 18.5007 126.132 18.7848 125.153 18.7848H124.768V18.166H125.072C125.579 18.166 125.792 18.1356 125.985 17.4508L126.036 17.3747L124.458 13.0076H125.28L126.391 16.3806L127.471 13.0076H128.242L126.675 17.5472Z" fill="black"/>
<path d="M58.5099 27.8826L60.3001 34.5414L62.0244 27.8826H63.6574L61.0659 36.8895H59.6763L57.6832 29.6373L55.7611 36.8895H54.3766L51.78 27.8826H53.4181L55.1424 34.5414L56.9377 27.8826H58.5099Z" fill="black"/>
<path d="M68.44 35.7646C68.955 35.8124 69.4718 35.6938 69.9146 35.4264C70.3573 35.1589 70.7027 34.7566 70.9 34.2784H72.4724C72.0564 35.8356 70.6312 37.1036 68.44 37.1036C65.5945 37.1036 64.0221 35.0748 64.0221 32.4017C64.0221 29.5562 65.9292 27.7302 68.3892 27.7302C71.1333 27.7302 72.7919 30.0431 72.589 32.8886H65.6858C65.6708 33.2601 65.7308 33.6307 65.8624 33.9784C65.9939 34.3261 66.1943 34.6437 66.4514 34.9122C66.7085 35.1807 67.0171 35.3946 67.3588 35.541C67.7005 35.6875 68.0682 35.7635 68.44 35.7646ZM70.9761 31.58C70.9123 30.9231 70.6064 30.3134 70.1179 29.8696C69.6294 29.4258 68.9932 29.1796 68.3332 29.179C67.6732 29.1783 67.0366 29.4233 66.5472 29.8662C66.0579 30.309 65.7508 30.9181 65.6858 31.5749L70.9761 31.58Z" fill="black"/>
<path d="M75.6866 29.3023C75.9832 28.7924 76.4159 28.3752 76.9364 28.0975C77.4569 27.8198 78.0444 27.6926 78.6331 27.7301C80.6921 27.7301 82.4824 29.4544 82.4824 32.4162C82.4824 35.3779 80.6921 37.1022 78.6331 37.1022C78.0444 37.1398 77.4569 37.0126 76.9364 36.7349C76.4159 36.4572 75.9832 36.04 75.6866 35.5301V36.8892H74.1651V24.7532H75.6866V29.3023ZM80.824 32.4162C80.824 30.276 79.8097 29.0386 78.2477 29.0386C76.8936 29.0386 75.6206 30.0529 75.6206 32.4162C75.6206 34.7795 76.8936 35.7989 78.2477 35.7989C79.8046 35.7989 80.824 34.5614 80.824 32.4162Z" fill="black"/>
<path d="M87.1062 31.1791H86.8526V29.7895H87.0555C89.1652 29.7895 90.286 29.2063 90.286 27.7609C90.286 26.4575 89.2159 25.7881 87.9227 25.7881C87.5927 25.7618 87.2609 25.8028 86.9472 25.9083C86.6335 26.0139 86.3444 26.182 86.0974 26.4024C85.8505 26.6228 85.6508 26.891 85.5104 27.1907C85.3699 27.4904 85.2917 27.8155 85.2804 28.1463H83.7083C83.8908 26.0062 85.4123 24.5151 87.9582 24.5151C90.0679 24.5151 91.8936 25.3519 91.8936 27.5935C91.8943 28.2093 91.7046 28.8103 91.3506 29.3142C90.9965 29.818 90.4954 30.2001 89.9158 30.4082C91.7263 30.9762 92.2284 32.1781 92.2284 33.4511C92.2284 35.8955 90.149 37.0823 87.8415 37.0823C84.9964 37.0823 83.688 35.3123 83.5206 33.2837H85.0979C85.2652 34.7747 86.1476 35.8195 87.8567 35.8195C89.4644 35.8195 90.6004 34.9827 90.6004 33.4764C90.6004 31.7471 89.0435 31.1791 87.1062 31.1791Z" fill="black"/>
<path d="M100.884 24.7532H101.696V26.0261H100.94C100.139 26.0261 100.002 26.2087 100.002 27.1469V27.8823H101.696V29.1045H100.002V36.8892H98.4805V29.1045H97.2228V27.8823H98.4805V27.2281C98.4552 25.3567 98.8406 24.7532 100.884 24.7532Z" fill="black"/>
<path d="M106.528 37.1036C104.438 37.1036 102.211 35.6834 102.211 32.4169C102.211 29.1504 104.438 27.7302 106.528 27.7302C108.617 27.7302 110.849 29.1555 110.849 32.4169C110.849 35.6783 108.622 37.1036 106.528 37.1036ZM109.226 32.4169C109.226 30.0229 107.902 29.0693 106.528 29.0693C105.153 29.0693 103.834 29.9569 103.834 32.4169C103.834 34.8769 105.158 35.7646 106.528 35.7646C107.897 35.7646 109.226 34.7298 109.226 32.4169V32.4169Z" fill="black"/>
<path d="M115.251 37.1038C113.161 37.1038 112.375 35.6988 112.375 33.6395V27.8826H113.896V33.1881C113.896 34.5779 114.13 35.785 115.788 35.785C117.229 35.785 118.081 34.7706 118.081 32.8381V27.8826H119.603V36.8908H118.081V35.5974C117.796 36.087 117.38 36.4874 116.88 36.7535C116.38 37.0197 115.816 37.141 115.251 37.1038Z" fill="black"/>
<path d="M126.161 27.7301C128.342 27.7301 129.128 29.1351 129.128 31.1944V36.8905H127.606V31.6458C127.606 30.2611 127.373 29.054 125.633 29.054C124.157 29.054 123.254 30.0684 123.254 32.0009V36.8905H121.733V27.8823H123.254V29.2366C123.553 28.742 123.982 28.3396 124.495 28.0738C125.008 27.808 125.584 27.689 126.161 27.7301V27.7301Z" fill="black"/>
<path d="M138.95 24.7533V36.8893H137.429V35.5302C137.132 36.0401 136.699 36.4573 136.179 36.735C135.659 37.0127 135.071 37.1399 134.482 37.1023C132.423 37.1023 130.633 35.3983 130.633 32.4163C130.633 29.4342 132.423 27.7302 134.482 27.7302C135.071 27.6926 135.659 27.8198 136.179 28.0975C136.699 28.3752 137.132 28.7924 137.429 29.3024V24.738L138.95 24.7533ZM132.291 32.4163C132.291 34.5615 133.306 35.799 134.868 35.799C136.222 35.799 137.495 34.7847 137.495 32.4163C137.495 30.0479 136.222 29.0387 134.868 29.0387C133.311 29.0387 132.291 30.2761 132.291 32.4163Z" fill="black"/>
<path d="M146.628 31.3467V31.1286C146.628 29.4903 145.705 28.9374 144.6 28.9374C143.347 28.9374 142.611 29.6221 142.54 30.7279H140.968C141.12 28.7852 142.824 27.6846 144.584 27.6846C147.065 27.6846 148.186 28.8715 148.165 31.3974V33.477C148.128 34.6148 148.206 35.7534 148.399 36.8754H146.877C146.811 36.4642 146.772 36.049 146.76 35.6327C146.207 36.5558 145.269 37.0884 143.676 37.0884C141.987 37.0884 140.582 36.1551 140.582 34.4965C140.537 32.3865 142.931 31.7677 146.628 31.3467ZM142.226 34.4762C142.226 35.3334 142.88 35.9015 143.966 35.9015C145.391 35.9015 146.745 35.2472 146.745 33.122V32.5539C143.986 32.8379 142.226 33.2386 142.226 34.4762Z" fill="black"/>
<path d="M152.043 25.6204V27.8822H153.752V29.1045H152.043V34.4447C152.043 35.383 152.114 35.6163 152.981 35.6163H153.752V36.8892H152.646C150.922 36.8892 150.521 36.5038 150.521 34.6273V29.1045H149.101V27.8822H150.521V25.6204H152.043Z" fill="black"/>
<path d="M156.728 26.5941H155.207V24.7532H156.728V26.5941ZM156.728 36.8892H155.207V27.8823H156.728V36.8892Z" fill="black"/>
<path d="M162.666 37.1036C160.571 37.1036 158.344 35.6834 158.344 32.4169C158.344 29.1504 160.571 27.7302 162.666 27.7302C164.76 27.7302 166.982 29.1555 166.982 32.4169C166.982 35.6783 164.755 37.1036 162.666 37.1036ZM165.359 32.4169C165.359 30.0229 164.035 29.0693 162.666 29.0693C161.296 29.0693 159.967 29.9569 159.967 32.4169C159.967 34.8769 161.291 35.7646 162.666 35.7646C164.04 35.7646 165.359 34.7298 165.359 32.4169Z" fill="black"/>
<path d="M173.038 27.7305C175.214 27.7305 176 29.1355 176 31.1948V36.8908H174.478V31.6462C174.478 30.2615 174.245 29.0543 172.5 29.0543C171.029 29.0543 170.126 30.0687 170.126 32.0012V36.8908H168.605V27.8826H170.126V29.2369C170.425 28.7416 170.856 28.3387 171.369 28.0728C171.883 27.8069 172.461 27.6884 173.038 27.7305Z" fill="black"/>
<path d="M60.4842 46.5251V54.325C60.4842 56.166 60.1495 56.9216 59.6322 57.4896C59.2268 57.8966 58.7395 58.2128 58.2027 58.4174C57.6659 58.622 57.0918 58.7103 56.5183 58.6763C54.4897 58.6763 53.1052 57.7381 52.8212 55.9174H54.444C54.6418 56.7187 55.1287 57.3375 56.5335 57.3375C56.8702 57.362 57.2083 57.3151 57.5256 57.1997C57.8429 57.0843 58.1322 56.9031 58.3745 56.668C58.7092 56.3181 58.9627 55.8972 58.9627 54.6749V53.8229C58.6825 54.3268 58.2648 54.7406 57.7584 55.0162C57.252 55.2919 56.6777 55.418 56.1024 55.3799C54.1093 55.3799 52.2836 53.7722 52.2836 50.8764C52.2836 47.9806 54.1093 46.3729 56.1024 46.3729C56.6798 46.3367 57.2555 46.4659 57.7622 46.7452C58.2688 47.0246 58.6852 47.4425 58.9627 47.9501V46.5251H60.4842ZM53.942 50.8764C53.942 52.9354 54.9968 54.0917 56.4777 54.0917C57.8369 54.0917 59.0135 53.1687 59.0135 50.8764C59.0135 48.5841 57.8267 47.6814 56.4777 47.6814C54.9968 47.6814 53.942 48.8174 53.942 50.8764V50.8764Z" fill="black"/>
<path d="M66.2399 48.0521C64.8349 48.0521 64.1298 48.8383 64.1298 50.8113V55.5336H62.6082V46.5253H64.0943V48.0977C64.3112 47.6082 64.6673 47.1933 65.1183 46.9047C65.5692 46.6161 66.0951 46.4665 66.6304 46.4746C66.7807 46.4648 66.9315 46.4648 67.0819 46.4746V48.0977C66.8022 48.0677 66.5211 48.0525 66.2399 48.0521V48.0521Z" fill="black"/>
<path d="M73.7991 49.9893V49.7712C73.7991 48.1329 72.8759 47.58 71.7702 47.58C70.5174 47.58 69.7819 48.2647 69.7109 49.3705H68.1385C68.2907 47.4278 69.9949 46.3271 71.755 46.3271C74.2302 46.3271 75.3562 47.514 75.336 50.0451V52.1196C75.2982 53.2574 75.3764 54.396 75.5693 55.518H74.0476C73.982 55.1083 73.9414 54.695 73.9259 54.2803C73.3781 55.1984 72.4397 55.7361 70.8471 55.7361C69.158 55.7361 67.753 54.7977 67.753 53.1391C67.7124 51.0291 70.0862 50.4103 73.7991 49.9893ZM69.3964 53.1239C69.3964 53.976 70.0507 54.5441 71.1362 54.5441C72.5615 54.5441 73.9157 53.8898 73.9157 51.7645V51.1965C71.1362 51.4805 69.3812 51.8609 69.3812 53.1239H69.3964Z" fill="black"/>
<path d="M81.7687 46.373C83.9447 46.373 84.7309 47.7831 84.7309 49.8424V55.5334H83.2092V50.2938C83.2092 48.9041 82.9759 47.6969 81.2311 47.6969C79.7601 47.6969 78.8573 48.7113 78.8573 50.6438V55.5334H77.3356V46.5252H78.8573V47.8795C79.1563 47.3841 79.5865 46.9812 80.1004 46.7153C80.6143 46.4495 81.1917 46.331 81.7687 46.373Z" fill="black"/>
<path d="M88.6609 44.2532V46.51H90.37V47.7322H88.6609V53.0725C88.6609 54.0107 88.7268 54.244 89.5991 54.244H90.37V55.5169H89.2644C87.5401 55.5169 87.1394 55.1315 87.1394 53.2551V47.7474H85.7144V46.5252H87.1394V44.2532H88.6609Z" fill="black"/>
<path d="M94.876 47.6663C93.9884 47.6663 92.9841 47.9808 92.9841 48.8025C92.9841 49.5227 93.4913 49.8575 94.3586 50.0249L95.6318 50.2734C97.2701 50.5929 98.7106 51.2118 98.7106 52.9566C98.7106 54.7014 97.1027 55.7514 95.0434 55.7514C92.6848 55.7514 91.3458 54.1942 91.1784 52.6218H92.7863C92.8538 53.1667 93.131 53.6638 93.5591 54.0075C93.9871 54.3513 94.5323 54.5147 95.0789 54.463C96.2303 54.463 97.1686 53.9558 97.1686 53.124C97.1686 52.2921 96.3165 51.8306 95.3427 51.6327L94.0036 51.3639C92.7863 51.1103 91.4675 50.5422 91.4675 48.8684C91.4675 47.2808 93.0754 46.3577 95.0688 46.3577C97.0621 46.3577 98.3352 47.4482 98.6193 49.1524H97.0266C96.7679 48.0822 95.931 47.6663 94.876 47.6663Z" fill="black"/>
<path d="M106.057 47.9503C106.353 47.4398 106.786 47.0219 107.306 46.7433C107.826 46.4648 108.414 46.3365 109.003 46.373C111.062 46.373 112.853 48.0973 112.853 51.0641C112.853 54.031 111.062 55.7502 109.003 55.7502C108.414 55.7879 107.826 55.6602 107.305 55.3815C106.785 55.1028 106.352 54.6842 106.057 54.173V58.4533H104.535V46.5252H106.057V47.9503ZM111.199 51.0641C111.199 48.9189 110.185 47.6815 108.618 47.6815C107.264 47.6815 105.991 48.6958 105.991 51.0641C105.991 53.4325 107.264 54.4418 108.618 54.4418C110.175 54.4418 111.199 53.2043 111.199 51.0641V51.0641Z" fill="black"/>
<path d="M118.095 48.0521C116.69 48.0521 115.985 48.8383 115.985 50.8113V55.5336H114.464V46.5253H115.955V48.0977C116.171 47.6074 116.526 47.1918 116.978 46.903C117.429 46.6142 117.955 46.4652 118.491 46.4746C118.641 46.4648 118.792 46.4648 118.942 46.4746V48.0977C118.661 48.0674 118.378 48.0521 118.095 48.0521V48.0521Z" fill="black"/>
<path d="M123.837 55.7518C121.743 55.7518 119.516 54.3265 119.516 51.0651C119.516 47.8036 121.743 46.3733 123.837 46.3733C125.932 46.3733 128.154 47.7986 128.154 51.0651C128.154 54.3316 125.927 55.7518 123.837 55.7518ZM126.531 51.0651C126.531 48.671 125.207 47.7124 123.837 47.7124C122.468 47.7124 121.139 48.6 121.139 51.0651C121.139 53.5302 122.463 54.4127 123.837 54.4127C125.212 54.4127 126.546 53.3831 126.546 51.0651H126.531Z" fill="black"/>
<path d="M137.438 46.5249V54.3248C137.438 56.1658 137.103 56.9214 136.586 57.4894C136.18 57.8964 135.693 58.2127 135.156 58.4172C134.619 58.6218 134.045 58.7101 133.472 58.6762C131.443 58.6762 130.059 57.7379 129.77 55.9173H131.397C131.595 56.7186 132.082 57.3373 133.487 57.3373C133.824 57.3618 134.162 57.3149 134.479 57.1995C134.796 57.0841 135.086 56.9029 135.328 56.6678C135.663 56.3179 135.916 55.897 135.916 54.6748V53.8227C135.636 54.3274 135.217 54.7418 134.71 55.0175C134.202 55.2932 133.627 55.4188 133.051 55.3797C131.063 55.3797 129.237 53.772 129.237 50.8762C129.237 47.9804 131.063 46.3727 133.051 46.3727C133.629 46.3355 134.206 46.4642 134.713 46.7436C135.221 47.023 135.638 47.4415 135.916 47.95V46.5249H137.438ZM130.895 50.8762C130.895 52.9352 131.945 54.0915 133.431 54.0915C134.79 54.0915 135.967 53.1685 135.967 50.8762C135.967 48.5839 134.78 47.6812 133.431 47.6812C131.945 47.6812 130.895 48.8172 130.895 50.8762V50.8762Z" fill="black"/>
<path d="M143.196 48.0521C141.791 48.0521 141.086 48.8383 141.086 50.8113V55.5336H139.564V46.5253H141.05V48.0977C141.267 47.6078 141.623 47.1926 142.074 46.9039C142.525 46.6152 143.051 46.4659 143.586 46.4746C143.737 46.4648 143.887 46.4648 144.038 46.4746V48.0977C143.758 48.0679 143.477 48.0527 143.196 48.0521Z" fill="black"/>
<path d="M150.74 49.9893V49.7712C150.74 48.1329 149.817 47.58 148.711 47.58C147.458 47.58 146.718 48.2647 146.652 49.3705H145.079C145.232 47.4278 146.936 46.3271 148.696 46.3271C151.171 46.3271 152.292 47.514 152.277 50.0451V52.1196C152.239 53.2574 152.317 54.396 152.51 55.518H150.989C150.925 55.1081 150.886 54.6948 150.872 54.2803C150.319 55.1984 149.386 55.7361 147.793 55.7361C146.104 55.7361 144.694 54.7977 144.694 53.1391C144.643 51.0291 147.037 50.4103 150.74 49.9893ZM146.322 53.1239C146.322 53.976 146.971 54.5441 148.062 54.5441C149.487 54.5441 150.841 53.8898 150.841 51.7645V51.1965C148.092 51.4805 146.322 51.8609 146.322 53.1239Z" fill="black"/>
<path d="M154.284 55.5319V46.525H155.805V47.879C156.073 47.4011 156.468 47.0063 156.946 46.7379C157.423 46.4695 157.966 46.3379 158.513 46.3576C159.888 46.3576 160.709 46.9611 161.11 47.95C161.431 47.439 161.882 47.0223 162.416 46.7425C162.951 46.4627 163.55 46.3299 164.153 46.3576C166.247 46.3576 167.064 47.7675 167.064 49.8265V55.5167H165.543V50.2931C165.543 48.9035 165.274 47.6965 163.62 47.6965C162.312 47.6965 161.44 48.7108 161.44 50.643V55.5319H159.918V50.2931C159.918 48.9035 159.649 47.6965 157.996 47.6965C156.688 47.6965 155.821 48.7108 155.821 50.643V55.5319H154.284Z" fill="black"/>
</svg>
