<svg width="236" height="80" viewBox="0 0 236 80" fill="none" xmlns="http://www.w3.org/2000/svg">
<path fill-rule="evenodd" clip-rule="evenodd" d="M95.0652 31.2692H100.135V35.3225C100.149 35.3168 100.163 35.3112 100.178 35.3056C100.711 35.0954 101.261 34.9874 101.824 34.9874C102.539 34.9874 103.212 35.1313 103.829 35.4315C104.438 35.7277 104.957 36.1486 105.38 36.6856C105.802 37.2213 106.113 37.8542 106.326 38.568C106.54 39.2858 106.642 40.0644 106.642 40.8971C106.642 41.8455 106.511 42.719 106.233 43.5065L106.231 43.5113C105.961 44.2619 105.593 44.9219 105.117 45.4771C104.656 46.0178 104.107 46.4393 103.475 46.7318C102.86 47.0224 102.213 47.1706 101.541 47.1706C100.953 47.1706 100.383 47.0313 99.8391 46.7674L99.8304 46.7632L99.8218 46.7588C99.646 46.6682 99.4758 46.5651 99.3109 46.45L99.187 46.9281H95.0652V31.2692ZM98.8531 45.0398H98.9339C98.9419 45.0489 98.95 45.0579 98.958 45.067C99.1418 45.2735 99.3316 45.4563 99.5273 45.6154C99.7401 45.7884 99.96 45.9333 100.187 46.0502C100.631 46.2657 101.083 46.3735 101.541 46.3735C102.093 46.3735 102.625 46.2522 103.137 46.0097C103.663 45.7673 104.121 45.417 104.511 44.9589C104.915 44.4874 105.239 43.9149 105.481 43.2413C105.724 42.5542 105.845 41.7728 105.845 40.8971C105.845 40.1292 105.751 39.4287 105.562 38.7955C105.374 38.1623 105.104 37.6234 104.754 37.1789C104.404 36.7343 103.979 36.3908 103.481 36.1483C102.982 35.9058 102.43 35.7845 101.824 35.7845C101.366 35.7845 100.914 35.8721 100.47 36.0472C100.339 36.0988 100.211 36.1568 100.087 36.2212C99.7906 36.3756 99.5139 36.5668 99.2573 36.7949L99.3381 35.3399V32.0663H95.8623V46.131H98.5702L98.8531 45.0398ZM101.15 42.5216L101.161 42.5072C101.231 42.411 101.31 42.2515 101.374 41.9971L101.376 41.9863L101.379 41.9755C101.448 41.7298 101.491 41.3959 101.491 40.9578C101.491 40.1632 101.362 39.7731 101.253 39.618L101.247 39.6098L101.241 39.6014C101.169 39.4934 101.069 39.4107 100.793 39.4107C100.633 39.4107 100.501 39.4419 100.385 39.4965C100.322 39.5262 100.238 39.5798 100.135 39.67V42.6428C100.167 42.6575 100.197 42.6687 100.225 42.6771C100.402 42.7258 100.564 42.7473 100.712 42.7473C100.815 42.7473 100.902 42.7304 100.98 42.7004C101.024 42.6745 101.079 42.6279 101.14 42.5364L101.15 42.5216ZM101.318 43.4231C101.13 43.504 100.928 43.5444 100.712 43.5444C100.483 43.5444 100.247 43.5107 100.005 43.4433C99.7759 43.376 99.5536 43.248 99.3381 43.0594V39.3411C99.5806 39.0717 99.8163 38.8831 100.045 38.7753C100.274 38.6675 100.524 38.6136 100.793 38.6136C101.292 38.6136 101.662 38.7955 101.905 39.1592C102.16 39.523 102.288 40.1225 102.288 40.9578C102.288 41.4427 102.241 41.8536 102.147 42.1904C102.066 42.5138 101.952 42.7765 101.803 42.9786C101.669 43.1806 101.507 43.3288 101.318 43.4231ZM118.234 46.9281H113.942L113.824 46.2797C113.634 46.4152 113.436 46.5384 113.231 46.6489C112.579 47.0085 111.828 47.1706 111.01 47.1706C109.693 47.1706 108.59 46.727 107.904 45.707L107.9 45.7015C107.288 44.7754 107.02 43.602 107.02 42.2511V35.2299H112.09V41.8065C112.09 42.2541 112.144 42.4907 112.184 42.5946C112.221 42.6074 112.301 42.626 112.445 42.626C112.638 42.626 112.765 42.5923 112.847 42.553C112.905 42.5203 113.012 42.4362 113.164 42.2577V35.2299H118.234V46.9281ZM113.961 42.534C113.691 42.8977 113.442 43.1402 113.213 43.2615C112.998 43.3692 112.742 43.4231 112.445 43.4231C111.987 43.4231 111.677 43.2951 111.516 43.0392C111.367 42.7832 111.293 42.3723 111.293 41.8065V36.027H107.818V42.2511C107.818 43.504 108.067 44.5076 108.565 45.2621C109.064 46.003 109.879 46.3735 111.01 46.3735C111.724 46.3735 112.337 46.232 112.849 45.9491C113.135 45.7954 113.406 45.6118 113.664 45.3984C113.875 45.2239 114.076 45.0293 114.268 44.8148C114.274 44.809 114.279 44.8031 114.284 44.7973H114.365L114.607 46.131H117.437V36.027H113.961V42.534ZM119.501 35.2299H124.228C124.017 35.1231 123.819 34.9902 123.634 34.8296L123.629 34.8249L123.624 34.82C123.025 34.279 122.734 33.5655 122.734 32.7533C122.734 31.9435 123.023 31.2317 123.618 30.6913C124.202 30.1474 124.936 29.895 125.754 29.895C126.572 29.895 127.306 30.1475 127.89 30.6914C128.486 31.2318 128.774 31.9436 128.774 32.7533C128.774 33.5655 128.484 34.279 127.885 34.82L127.88 34.8249L127.874 34.8296C127.69 34.9902 127.491 35.1231 127.281 35.2299H128.411V46.9281H123.341V39.532H119.501V35.2299ZM124.138 38.7349V46.131H127.613V36.027H120.298V38.7349H124.138ZM127.351 31.2781C126.933 30.8875 126.401 30.6921 125.754 30.6921C125.108 30.6921 124.576 30.8875 124.158 31.2781C123.74 31.6554 123.531 32.1471 123.531 32.7533C123.531 33.3596 123.74 33.8513 124.158 34.2285C124.576 34.5922 125.108 34.7741 125.754 34.7741C126.401 34.7741 126.933 34.5922 127.351 34.2285C127.768 33.8513 127.977 33.3596 127.977 32.7533C127.977 32.1471 127.768 31.6554 127.351 31.2781ZM131.214 31.2692H139.032V42.0894C139.032 42.3091 139.068 42.4181 139.089 42.4604C139.136 42.5537 139.183 42.6178 139.226 42.6625C139.283 42.7 139.344 42.7297 139.409 42.7524C139.533 42.7768 139.647 42.7877 139.751 42.7877C140.053 42.7877 140.448 42.7182 140.948 42.5476L141.736 42.2785L142.941 46.3838L142.182 46.6116C141.91 46.6931 141.651 46.7682 141.404 46.8368C141.145 46.9127 140.88 46.9731 140.609 47.0183C140.348 47.0618 140.074 47.0977 139.789 47.1262C139.489 47.1562 139.166 47.1706 138.821 47.1706C138.063 47.1706 137.362 47.0493 136.733 46.7848L136.726 46.7818C136.132 46.5249 135.615 46.166 135.185 45.7034L135.175 45.6926L135.166 45.6815C134.753 45.203 134.448 44.6426 134.244 44.013L134.241 44.0044L134.238 43.9957C134.051 43.371 133.962 42.6928 133.962 41.9682V35.5712H131.214V31.2692ZM134.759 34.7741V41.9682C134.759 42.6283 134.84 43.2278 135.002 43.7667C135.177 44.3055 135.433 44.7703 135.77 45.161C136.12 45.5382 136.544 45.8346 137.043 46.0502C137.555 46.2657 138.147 46.3735 138.821 46.3735C139.144 46.3735 139.441 46.36 139.71 46.3331C139.98 46.3061 140.236 46.2724 140.478 46.232C140.721 46.1916 140.956 46.1377 141.185 46.0704C141.186 46.0702 141.187 46.07 141.188 46.0697C141.28 46.044 141.375 46.0173 141.471 45.9897C141.627 45.945 141.787 45.8978 141.953 45.8481L141.206 43.3019C141.01 43.3687 140.822 43.4237 140.644 43.4669C140.318 43.5455 140.02 43.5848 139.751 43.5848C139.575 43.5848 139.394 43.5646 139.205 43.5242C139.03 43.4703 138.868 43.3894 138.72 43.2817C138.585 43.1604 138.471 43.0055 138.376 42.8169C138.282 42.6283 138.235 42.3858 138.235 42.0894V32.0663H132.011V34.7741H134.759ZM150.796 45.2014H150.716C150.706 45.211 150.696 45.2206 150.687 45.2301C150.508 45.4053 150.314 45.5633 150.104 45.7041C149.91 45.8342 149.703 45.9495 149.483 46.0502C149.025 46.2657 148.567 46.3735 148.109 46.3735C147.462 46.3735 146.876 46.2522 146.351 46.0097C145.839 45.7673 145.401 45.417 145.037 44.9589C144.673 44.5009 144.39 43.9485 144.188 43.3019C143.986 42.6418 143.885 41.9008 143.885 41.079C143.885 40.2572 144.007 39.5163 144.249 38.8561C144.492 38.196 144.808 37.6437 145.199 37.1991C145.589 36.741 146.041 36.3908 146.553 36.1483C147.065 35.9058 147.583 35.7845 148.109 35.7845C148.675 35.7845 149.139 35.8788 149.503 36.0674C149.556 36.0928 149.608 36.1197 149.66 36.1479C149.964 36.3144 150.249 36.53 150.513 36.7949L150.392 35.3399V32.0663H153.868V46.131H151.039L150.796 45.2014ZM150.315 46.5133C150.156 46.6079 149.99 46.6946 149.818 46.7732C149.267 47.0322 148.695 47.1706 148.109 47.1706C147.36 47.1706 146.658 47.0297 146.017 46.7335L146.009 46.7301C145.384 46.4337 144.85 46.005 144.413 45.4546C143.979 44.9086 143.654 44.2653 143.428 43.5396L143.426 43.5352C143.197 42.7867 143.088 41.9653 143.088 41.079C143.088 40.1789 143.221 39.3429 143.501 38.5813C143.77 37.8479 144.132 37.2073 144.596 36.6772C145.054 36.1412 145.593 35.7208 146.212 35.4279C146.822 35.1389 147.456 34.9874 148.109 34.9874C148.644 34.9874 149.147 35.0604 149.595 35.2355V31.2692H154.665V46.9281H150.423L150.315 46.5133ZM149.508 39.4755C149.375 39.4339 149.226 39.4107 149.059 39.4107C148.886 39.4107 148.716 39.4708 148.523 39.6888C148.4 39.8264 148.239 40.2006 148.239 41.0386C148.239 41.9122 148.375 42.3408 148.49 42.5084C148.611 42.6666 148.758 42.7473 149.018 42.7473C149.205 42.7473 149.339 42.7174 149.435 42.6775C149.473 42.658 149.528 42.6201 149.595 42.5476V39.5068C149.569 39.4953 149.544 39.4863 149.521 39.4794L149.508 39.4755ZM150.392 39.0986V42.8169C150.204 43.0998 149.995 43.2951 149.766 43.4029C149.55 43.4972 149.301 43.5444 149.018 43.5444C148.52 43.5444 148.129 43.3558 147.846 42.9786C147.577 42.6013 147.442 41.9547 147.442 41.0386C147.442 40.1494 147.604 39.523 147.927 39.1592C148.25 38.7955 148.627 38.6136 149.059 38.6136C149.301 38.6136 149.53 38.6473 149.746 38.7147C149.975 38.782 150.19 38.91 150.392 39.0986ZM159.193 35.4039L159.198 35.4019C159.932 35.1267 160.687 34.9874 161.458 34.9874C162.336 34.9874 163.141 35.1285 163.853 35.4353C164.554 35.7318 165.157 36.1458 165.645 36.6831C166.126 37.2118 166.483 37.8265 166.719 38.5181C166.952 39.1997 167.065 39.9204 167.065 40.6748C167.065 41.0118 167.043 41.3347 166.998 41.6422C166.972 41.9073 166.942 42.1359 166.904 42.3027L166.766 42.9269H165.524L166.92 45.469L166.295 45.8714C165.619 46.3076 164.878 46.636 164.076 46.8586L164.063 46.8623C163.282 47.0648 162.534 47.1706 161.822 47.1706C160.95 47.1706 160.118 47.0447 159.331 46.7876L159.322 46.7847L159.314 46.7816C158.539 46.5083 157.851 46.1162 157.258 45.6012L157.249 45.5938L157.241 45.5863C156.658 45.0501 156.199 44.4005 155.861 43.6486L155.855 43.6361C155.524 42.8619 155.367 42.0048 155.367 41.079C155.367 40.1599 155.533 39.3055 155.881 38.5296C156.217 37.7808 156.669 37.1369 157.241 36.6122C157.814 36.0859 158.466 35.6823 159.193 35.4039ZM157.78 37.1991C157.295 37.6437 156.905 38.196 156.608 38.8561C156.312 39.5163 156.164 40.2572 156.164 41.079C156.164 41.9143 156.305 42.662 156.588 43.3221C156.885 43.9822 157.282 44.5413 157.78 44.9993C158.292 45.4439 158.892 45.7875 159.579 46.03C160.28 46.259 161.027 46.3735 161.822 46.3735C162.455 46.3735 163.136 46.2792 163.863 46.0906C164.591 45.8885 165.257 45.5921 165.864 45.2014L164.732 43.1402C164.287 43.3423 163.87 43.4972 163.479 43.605C163.102 43.6993 162.711 43.7465 162.307 43.7465C161.997 43.7465 161.701 43.7195 161.418 43.6656C161.135 43.6117 160.872 43.5242 160.63 43.4029C160.404 43.2835 160.211 43.1248 160.051 42.9269C160.049 42.9239 160.046 42.9209 160.044 42.9179C159.882 42.7024 159.774 42.4397 159.72 42.1298H166.126C166.153 42.0086 166.18 41.8132 166.207 41.5438C166.248 41.2743 166.268 40.9847 166.268 40.6748C166.268 40.0012 166.167 39.3681 165.965 38.7753C165.763 38.1825 165.459 37.6639 165.055 37.2193C164.651 36.7747 164.146 36.4244 163.54 36.1685C162.947 35.9125 162.253 35.7845 161.458 35.7845C160.785 35.7845 160.125 35.9058 159.478 36.1483C158.845 36.3908 158.279 36.741 157.78 37.1991ZM162.744 42.9269H161.868C162.009 42.9418 162.155 42.9494 162.307 42.9494C162.456 42.9494 162.601 42.9418 162.744 42.9269ZM159.68 39.8665C159.755 39.5416 159.871 39.2759 160.029 39.0694C160.126 38.9421 160.239 38.8373 160.367 38.7551C160.717 38.5261 161.108 38.4116 161.539 38.4116C162.132 38.4116 162.543 38.553 162.772 38.8359C162.832 38.9096 162.883 38.9875 162.928 39.0694C163.053 39.302 163.115 39.5677 163.115 39.8665H159.68ZM168.575 35.2299H172.927L173.056 36.2822C173.328 36.0367 173.623 35.8255 173.939 35.6516C174.741 35.2113 175.6 34.9874 176.505 34.9874C176.996 34.9874 177.445 35.0267 177.812 35.138C178.119 35.2162 178.429 35.323 178.739 35.456L179.355 35.7199L178.319 40.1085L177.506 39.8612C177.223 39.7751 176.977 39.7173 176.765 39.6839L176.741 39.68L176.716 39.6747C176.55 39.6377 176.31 39.6128 175.98 39.6128C175.57 39.6128 175.141 39.7348 174.682 40.0189L174.67 40.0262C174.319 40.2353 173.964 40.6276 173.645 41.2943V46.9281H168.575V35.2299ZM172.848 41.1194C173.225 40.2707 173.696 39.6779 174.262 39.3411C174.828 38.9908 175.401 38.8157 175.98 38.8157C176.344 38.8157 176.647 38.8427 176.889 38.8965C176.914 38.9004 176.939 38.9046 176.964 38.9089C177.2 38.9502 177.458 39.0134 177.738 39.0986L178.425 36.1887C178.142 36.0674 177.866 35.9731 177.597 35.9058C177.341 35.8249 176.977 35.7845 176.505 35.7845C175.737 35.7845 175.01 35.9731 174.323 36.3503C173.904 36.5801 173.523 36.8949 173.18 37.2946C172.962 37.5483 172.759 37.8362 172.571 38.1584C172.569 38.1619 172.567 38.1655 172.565 38.1691H172.484L172.221 36.027H169.372V46.131H172.848V41.1194ZM181.626 41.643C181.225 41.3534 180.884 41.0149 180.612 40.6248L180.608 40.6184L180.603 40.6118C180.294 40.1476 180.146 39.6209 180.146 39.0582C180.146 38.4324 180.291 37.844 180.593 37.3113C180.888 36.7914 181.299 36.3595 181.81 36.0137L181.819 36.0072C182.335 35.6685 182.93 35.4217 183.591 35.2558C184.262 35.0736 184.999 34.9874 185.793 34.9874C186.833 34.9874 187.787 35.1556 188.641 35.5115C189.413 35.8206 190.095 36.1568 190.682 36.5231L191.415 36.9816L189.161 40.007C189.349 40.1075 189.529 40.2187 189.7 40.341C190.131 40.6258 190.49 40.9828 190.765 41.4113C191.079 41.886 191.218 42.4349 191.218 43.019C191.218 43.6243 191.07 44.1991 190.778 44.7318C190.494 45.2641 190.071 45.7098 189.543 46.0776L189.539 46.0806C189.016 46.4399 188.389 46.708 187.679 46.9004L187.668 46.9034C186.954 47.0855 186.144 47.1706 185.247 47.1706C184.28 47.1706 183.313 47.0067 182.348 46.6851L182.345 46.6839C181.415 46.3693 180.589 45.9771 179.875 45.5009L179.188 45.0435L181.626 41.643ZM190.077 44.3527C190.306 43.9351 190.421 43.4905 190.421 43.019C190.421 42.5609 190.313 42.1702 190.097 41.8469C189.882 41.5101 189.599 41.2272 189.249 40.9982C188.912 40.7557 188.528 40.5603 188.097 40.4121C187.666 40.2505 187.235 40.109 186.804 39.9878C186.48 39.9069 186.17 39.8261 185.874 39.7453C185.591 39.6644 185.335 39.5836 185.106 39.5028C184.89 39.422 184.715 39.3344 184.581 39.2401C184.459 39.1458 184.399 39.0313 184.399 38.8965C184.399 38.6945 184.513 38.553 184.742 38.4722C184.971 38.3779 185.349 38.3307 185.874 38.3307C186.359 38.3307 186.837 38.4183 187.309 38.5934C187.78 38.7686 188.252 38.9908 188.723 39.2603L190.259 37.1991C190.042 37.0637 189.81 36.9316 189.56 36.8028C189.189 36.611 188.782 36.4266 188.339 36.2493C187.598 35.9394 186.75 35.7845 185.793 35.7845C185.052 35.7845 184.385 35.8653 183.793 36.027C183.2 36.1752 182.688 36.3908 182.257 36.6737C181.839 36.9566 181.516 37.3001 181.287 37.7043C181.058 38.1084 180.943 38.5597 180.943 39.0582C180.943 39.4758 181.051 39.8463 181.267 40.1696C181.482 40.4795 181.758 40.7557 182.095 40.9982C182.432 41.2407 182.809 41.4495 183.227 41.6246C183.644 41.7863 184.062 41.9277 184.48 42.049C184.803 42.1433 185.113 42.2376 185.409 42.3319C185.719 42.4127 185.988 42.5003 186.217 42.5946C186.446 42.6754 186.628 42.7697 186.763 42.8775C186.898 42.9718 186.965 43.0863 186.965 43.221C186.965 43.4231 186.844 43.5781 186.601 43.6858C186.359 43.7801 185.935 43.8273 185.328 43.8273C184.736 43.8273 184.156 43.7262 183.59 43.5242C183.025 43.3221 182.445 43.0459 181.853 42.6956L180.317 44.8377C180.533 44.9818 180.762 45.1184 181.004 45.2475C181.485 45.5045 182.017 45.7316 182.6 45.9289C183.489 46.2253 184.372 46.3735 185.247 46.3735C186.096 46.3735 186.837 46.2927 187.47 46.131C188.117 45.9559 188.656 45.7201 189.087 45.4237C189.532 45.1139 189.862 44.7569 190.077 44.3527ZM184.908 43.0099C184.553 42.9754 184.204 42.8968 183.859 42.7735C183.512 42.6498 183.156 42.4938 182.789 42.3041C182.832 42.323 182.875 42.3415 182.918 42.3597L182.929 42.364L182.939 42.368C183.377 42.5376 183.816 42.6864 184.256 42.8142M184.256 42.8142C184.48 42.8794 184.698 42.9448 184.908 43.0099ZM99.3381 71.808V74.5967H95.8623V60.9361H98.6914L98.9339 61.8657H99.0148C99.0259 61.8557 99.0371 61.8457 99.0484 61.8358C99.2332 61.673 99.4285 61.5251 99.6342 61.3921C99.8537 61.2501 100.085 61.125 100.328 61.0169C100.827 60.8014 101.332 60.6936 101.844 60.6936C102.45 60.6936 103.002 60.8149 103.501 61.0574C103.999 61.2999 104.417 61.6434 104.754 62.088C105.104 62.5325 105.374 63.0714 105.562 63.7046C105.751 64.3378 105.845 65.0451 105.845 65.8264C105.845 66.7021 105.724 67.4768 105.481 68.1504C105.239 68.824 104.915 69.3965 104.511 69.868C104.121 70.3261 103.663 70.6763 103.137 70.9188C102.625 71.1613 102.093 71.2826 101.541 71.2826C101.11 71.2826 100.699 71.195 100.308 71.0199C100.226 70.9832 100.145 70.9432 100.066 70.9C99.7661 70.737 99.4831 70.5278 99.2168 70.2722L99.3381 71.808ZM103.475 71.641C102.86 71.9315 102.213 72.0797 101.541 72.0797C101.054 72.0797 100.584 71.9903 100.135 71.812V75.3938H95.0652V60.139H99.3073L99.4238 60.5859C99.6107 60.4767 99.8043 60.3775 100.005 60.2886L100.012 60.2853C100.604 60.0292 101.217 59.8965 101.844 59.8965C102.559 59.8965 103.233 60.0404 103.85 60.3406C104.459 60.6372 104.973 61.0596 105.385 61.6006C105.804 62.135 106.114 62.7659 106.326 63.4771C106.54 64.1961 106.642 64.9817 106.642 65.8264C106.642 66.7743 106.511 67.6433 106.231 68.4203C105.961 69.171 105.593 69.831 105.117 70.3862C104.656 70.9269 104.107 71.3485 103.475 71.641ZM101.15 67.4307L101.161 67.4163C101.231 67.3201 101.31 67.1606 101.374 66.9062L101.376 66.8954L101.379 66.8846C101.448 66.6389 101.491 66.305 101.491 65.8669C101.491 65.0723 101.362 64.6822 101.253 64.5271L101.247 64.5189L101.241 64.5105C101.169 64.4025 101.069 64.3198 100.793 64.3198C100.633 64.3198 100.501 64.351 100.385 64.4056C100.322 64.4353 100.238 64.4889 100.135 64.5791V67.5519C100.167 67.5665 100.197 67.5778 100.225 67.5862C100.402 67.6349 100.564 67.6564 100.712 67.6564C100.815 67.6564 100.902 67.6395 100.98 67.6095C101.024 67.5837 101.079 67.537 101.14 67.4455L101.15 67.4307ZM101.318 68.3322C101.13 68.4131 100.928 68.4535 100.712 68.4535C100.483 68.4535 100.247 68.4198 100.005 68.3524C99.7759 68.2851 99.5536 68.1571 99.3381 67.9685V64.2502C99.5806 63.9808 99.8163 63.7922 100.045 63.6844C100.274 63.5766 100.524 63.5227 100.793 63.5227C101.292 63.5227 101.662 63.7046 101.905 64.0683C102.16 64.4321 102.288 65.0316 102.288 65.8669C102.288 66.3518 102.241 66.7627 102.147 67.0995C102.066 67.4229 101.952 67.6856 101.803 67.8876C101.669 68.0897 101.507 68.2379 101.318 68.3322ZM107.99 60.139H112.342L112.471 61.1913C112.744 60.9458 113.038 60.7346 113.355 60.5607C114.157 60.1204 115.016 59.8965 115.921 59.8965C116.411 59.8965 116.861 59.9358 117.227 60.0471C117.535 60.1253 117.844 60.2321 118.155 60.3651L118.77 60.629L117.734 65.0176L116.922 64.7703C116.639 64.6842 116.392 64.6264 116.181 64.593L116.156 64.5891L116.132 64.5838C115.966 64.5468 115.725 64.5219 115.396 64.5219C114.985 64.5219 114.556 64.6439 114.097 64.928L114.086 64.9353C113.734 65.1444 113.38 65.5367 113.06 66.2033V71.8372H107.99V60.139ZM112.263 66.0285C112.641 65.1798 113.112 64.587 113.678 64.2502C114.244 63.8999 114.816 63.7248 115.396 63.7248C115.759 63.7248 116.062 63.7518 116.305 63.8056C116.329 63.8095 116.354 63.8137 116.379 63.818C116.615 63.8592 116.874 63.9225 117.154 64.0077C117.154 64.0077 117.154 64.0077 117.154 64.0077L117.841 61.0978C117.558 60.9765 117.282 60.8822 117.012 60.8149C116.756 60.734 116.392 60.6936 115.921 60.6936C115.153 60.6936 114.426 60.8822 113.738 61.2594C113.32 61.4892 112.939 61.804 112.595 62.2037C112.377 62.4574 112.174 62.7453 111.987 63.0675C111.985 63.071 111.982 63.0746 111.98 63.0782H111.9L111.637 60.9361H108.788V71.0401H112.263V66.0285ZM119.349 63.4185C119.684 62.6713 120.134 62.0286 120.705 61.5044C121.265 60.9765 121.906 60.5774 122.624 60.3114C123.346 60.0354 124.095 59.8965 124.865 59.8965C125.622 59.8965 126.357 60.0354 127.066 60.3113C127.795 60.5765 128.443 60.975 129.005 61.5044C129.576 62.0286 130.026 62.6713 130.361 63.4185C130.71 64.196 130.876 65.0576 130.876 65.9881C130.876 66.9186 130.71 67.7802 130.361 68.5577C130.026 69.305 129.577 69.9523 129.009 70.4879L129.001 70.4961C128.44 71.0105 127.794 71.4062 127.07 71.6834L127.061 71.6868C126.353 71.9485 125.62 72.0797 124.865 72.0797C124.099 72.0797 123.354 71.9491 122.634 71.6886L122.624 71.6851L122.615 71.6813C121.904 71.4034 121.268 71.0078 120.709 70.496L120.701 70.488C120.133 69.9523 119.684 69.305 119.349 68.5577L119.343 68.5452C119.011 67.771 118.854 66.9139 118.854 65.9881C118.854 65.0623 119.011 64.2052 119.343 63.431L119.349 63.4185ZM128.462 62.088C127.977 61.6299 127.418 61.2864 126.785 61.0574C126.165 60.8149 125.525 60.6936 124.865 60.6936C124.192 60.6936 123.538 60.8149 122.905 61.0574C122.285 61.2864 121.733 61.6299 121.248 62.088C120.763 62.5325 120.372 63.0849 120.076 63.745C119.793 64.4051 119.652 65.1528 119.652 65.9881C119.652 66.8234 119.793 67.5711 120.076 68.2312C120.372 68.8913 120.763 69.4504 121.248 69.9084C121.733 70.353 122.285 70.6966 122.905 70.9391C123.538 71.1681 124.192 71.2826 124.865 71.2826C125.525 71.2826 126.165 71.1681 126.785 70.9391C127.418 70.6966 127.977 70.353 128.462 69.9084C128.947 69.4504 129.338 68.8913 129.634 68.2312C129.931 67.5711 130.079 66.8234 130.079 65.9881C130.079 65.1528 129.931 64.4051 129.634 63.745C129.338 63.0849 128.947 62.5325 128.462 62.088ZM125.442 64.5582C125.348 64.3895 125.215 64.2794 124.865 64.2794C124.516 64.2794 124.382 64.3895 124.288 64.5582L124.283 64.5671C124.123 64.8451 124.005 65.2955 124.005 65.9881C124.005 66.675 124.121 67.1366 124.285 67.4334C124.374 67.5861 124.508 67.6968 124.865 67.6968C125.223 67.6968 125.356 67.5861 125.445 67.4334C125.609 67.1366 125.725 66.675 125.725 65.9881C125.725 65.2955 125.608 64.8451 125.447 64.5671L125.442 64.5582ZM123.592 67.827C123.336 67.369 123.208 66.756 123.208 65.9881C123.208 65.2202 123.336 64.614 123.592 64.1694C123.848 63.7113 124.272 63.4823 124.865 63.4823C125.458 63.4823 125.882 63.7113 126.138 64.1694C126.394 64.614 126.522 65.2202 126.522 65.9881C126.522 66.756 126.394 67.369 126.138 67.827C125.882 68.2716 125.458 68.4939 124.865 68.4939C124.272 68.4939 123.848 68.2716 123.592 67.827ZM135.123 71.4038C135.298 71.4443 135.5 71.4712 135.729 71.4847C135.958 71.5116 136.268 71.5251 136.659 71.5251H137.669C138.181 71.5251 138.572 71.5588 138.841 71.6261C139.111 71.6935 139.245 71.8619 139.245 72.1313C139.245 72.4142 139.023 72.6365 138.578 72.7982C138.147 72.9733 137.588 73.0609 136.901 73.0609C136.214 73.0609 135.662 72.9868 135.244 72.8386C134.827 72.6904 134.618 72.4546 134.618 72.1313C134.618 71.9831 134.658 71.8551 134.739 71.7474C134.82 71.6396 134.948 71.5251 135.123 71.4038ZM132.557 65.9275C132.68 66.1313 132.816 66.3139 132.965 66.4753C133.113 66.6348 133.272 66.7735 133.445 66.8915C133.478 66.9145 133.512 66.9367 133.547 66.9581V67.0389C133.516 67.06 133.486 67.0815 133.457 67.1034C133.279 67.2344 133.118 67.3782 132.974 67.535C132.866 67.6521 132.767 67.7764 132.678 67.9079C132.449 68.2447 132.334 68.5882 132.334 68.9385C132.334 69.3696 132.429 69.7198 132.617 69.9893C132.662 70.0486 132.708 70.1059 132.756 70.1613C132.913 70.3406 133.09 70.4994 133.288 70.6377C133.307 70.6508 133.326 70.6637 133.345 70.6763V70.7572C133.318 70.7699 133.291 70.7828 133.265 70.7957C133.036 70.9093 132.833 71.0315 132.658 71.1622C132.092 71.5845 131.809 72.0961 131.809 72.6971C131.809 73.1552 131.923 73.5391 132.152 73.849C132.395 74.1723 132.725 74.435 133.143 74.6371C133.56 74.8392 134.038 74.9806 134.577 75.0615C135.13 75.1558 135.722 75.2029 136.356 75.2029C137.299 75.2029 138.147 75.1154 138.902 74.9402C139.67 74.7651 140.323 74.5159 140.862 74.1925C141.401 73.8692 141.812 73.4785 142.095 73.0205C142.391 72.5759 142.539 72.0774 142.539 71.5251C142.539 70.5955 142.175 69.9287 141.448 69.5245C140.721 69.1069 139.683 68.898 138.336 68.898H136.618C136.052 68.898 135.648 68.8576 135.406 68.7768C135.163 68.6825 135.042 68.5208 135.042 68.2918C135.042 68.1436 135.062 68.0358 135.103 67.9685C135.157 67.8876 135.244 67.8001 135.365 67.7058C135.823 67.8001 136.248 67.8472 136.639 67.8472C137.245 67.8472 137.804 67.7866 138.316 67.6654C138.841 67.5306 139.292 67.3286 139.67 67.0591C140.06 66.7897 140.364 66.4461 140.579 66.0285C140.795 65.5974 140.902 65.0855 140.902 64.4927C140.902 64.4069 140.896 64.3223 140.884 64.239C140.868 64.126 140.84 64.0152 140.801 63.9067C140.747 63.7181 140.687 63.5631 140.619 63.4419H142.438V60.9361H138.356C137.844 60.7744 137.272 60.6936 136.639 60.6936C136.046 60.6936 135.48 60.7677 134.941 60.9159C134.416 61.0641 133.944 61.2931 133.526 61.603C133.109 61.8994 132.779 62.2833 132.536 62.7548C132.294 63.2129 132.173 63.7518 132.173 64.3715C132.173 64.9642 132.301 65.4829 132.557 65.9275ZM131.83 62.3862C132.127 61.8096 132.537 61.3293 133.058 60.9579C133.556 60.59 134.113 60.3211 134.725 60.1487L134.73 60.1473C135.341 59.9791 135.979 59.8965 136.639 59.8965C137.292 59.8965 137.906 59.9743 138.474 60.139H143.235V64.239H141.687C141.695 64.3229 141.699 64.4076 141.699 64.4927C141.699 65.1813 141.574 65.8207 141.292 66.385L141.287 66.3941C141.012 66.9274 140.622 67.369 140.128 67.7116C139.892 67.8793 139.637 68.0229 139.366 68.1439C140.332 68.2293 141.169 68.4463 141.84 68.8305C142.851 69.3945 143.336 70.3491 143.336 71.5251C143.336 72.2245 143.147 72.8738 142.766 73.451C142.406 74.0289 141.898 74.5007 141.272 74.876C140.646 75.2517 139.911 75.5275 139.081 75.7168C139.081 75.717 139.08 75.7172 139.079 75.7174L138.902 74.9402L139.081 75.7168C139.081 75.7169 139.082 75.7168 139.081 75.7168C138.257 75.9082 137.346 76 136.356 76C135.686 76 135.051 75.9504 134.451 75.8485C133.849 75.7576 133.294 75.5961 132.795 75.3546C132.28 75.1054 131.844 74.7665 131.515 74.3273L131.511 74.3228C131.163 73.8513 131.012 73.2926 131.012 72.6971C131.012 71.8184 131.425 71.1265 132.084 70.6002C132.048 70.5569 132.013 70.5127 131.979 70.4675L131.972 70.4571L131.964 70.4464C131.656 70.0069 131.537 69.4827 131.537 68.9385C131.537 68.4035 131.715 67.9065 132.019 67.4596C132.127 67.3007 132.245 67.1507 132.374 67.0097C132.189 66.8084 132.023 66.5845 131.875 66.3406L131.87 66.333L131.866 66.3252C131.53 65.7419 131.375 65.0819 131.375 64.3715C131.375 63.6488 131.517 62.9786 131.83 62.3862ZM136.969 63.9286L136.96 63.9204C136.867 63.8326 136.774 63.7944 136.639 63.7944C136.503 63.7944 136.41 63.8326 136.317 63.9204L136.316 63.9213C136.312 63.9248 136.223 64.0103 136.223 64.3715C136.223 64.7225 136.302 64.8427 136.328 64.8734C136.417 64.9538 136.508 64.9889 136.639 64.9889C136.774 64.9889 136.867 64.9508 136.96 64.863C136.983 64.8419 137.074 64.7377 137.074 64.3715C137.074 64.0224 136.985 63.9428 136.978 63.9366L136.969 63.9286ZM135.77 65.4425C135.541 65.2135 135.426 64.8565 135.426 64.3715C135.426 63.8999 135.541 63.5564 135.77 63.3409C136.012 63.1118 136.302 62.9973 136.639 62.9973C136.975 62.9973 137.265 63.1118 137.507 63.3409C137.75 63.5564 137.871 63.8999 137.871 64.3715C137.871 64.8565 137.75 65.2135 137.507 65.4425C137.265 65.6715 136.975 65.786 136.639 65.786C136.302 65.786 136.012 65.6715 135.77 65.4425ZM144.341 60.139H148.693L148.822 61.1913C149.095 60.9458 149.389 60.7346 149.706 60.5607C150.508 60.1204 151.367 59.8965 152.272 59.8965C152.762 59.8965 153.212 59.9358 153.578 60.0471C153.886 60.1253 154.195 60.2321 154.505 60.3651L155.121 60.629L154.085 65.0176L153.272 64.7703C152.989 64.6842 152.743 64.6264 152.531 64.593L152.507 64.5891L152.483 64.5838C152.316 64.5468 152.076 64.5219 151.746 64.5219C151.336 64.5219 150.907 64.6439 150.448 64.928L150.436 64.9353C150.085 65.1444 149.73 65.5367 149.411 66.2033V71.8372H144.341V60.139ZM148.614 66.0285C148.991 65.1798 149.463 64.587 150.028 64.2502C150.594 63.8999 151.167 63.7248 151.746 63.7248C152.11 63.7248 152.413 63.7518 152.656 63.8056C152.68 63.8095 152.705 63.8137 152.73 63.818C152.966 63.8592 153.224 63.9225 153.504 64.0077L154.191 61.0978C153.908 60.9765 153.632 60.8822 153.363 60.8149C153.107 60.734 152.743 60.6936 152.272 60.6936C151.504 60.6936 150.776 60.8822 150.089 61.2594C149.671 61.4892 149.29 61.804 148.946 62.2037C148.728 62.4574 148.525 62.7453 148.337 63.0675C148.335 63.071 148.333 63.0746 148.331 63.0782H148.25L147.987 60.9361H145.138V71.0401H148.614V66.0285ZM155.889 66.2927L155.893 66.2844C156.203 65.7341 156.658 65.2894 157.224 64.9401L155.496 61.7149L156.178 61.3323C156.996 60.873 157.834 60.5183 158.691 60.2712C159.56 60.021 160.456 59.8965 161.377 59.8965C162.157 59.8965 162.885 59.999 163.554 60.2153C164.248 60.4221 164.856 60.7616 165.357 61.2428C165.878 61.7169 166.258 62.3196 166.51 63.0235C166.78 63.728 166.903 64.534 166.903 65.4223V71.8372H162.643L162.502 71.226C162.23 71.3793 161.949 71.5199 161.659 71.6479L161.652 71.6511L161.645 71.6541C160.967 71.9378 160.256 72.0797 159.518 72.0797C158.912 72.0797 158.344 71.9864 157.828 71.7802L157.817 71.776L157.807 71.7715C157.32 71.5605 156.89 71.2773 156.53 70.9166C156.168 70.5552 155.893 70.1322 155.705 69.6543L155.7 69.6427L155.696 69.6309C155.529 69.164 155.448 68.6756 155.448 68.1706C155.448 67.4952 155.585 66.8646 155.884 66.3012L155.889 66.2927ZM162.314 70.4131C162.521 70.2891 162.722 70.1569 162.916 70.0166C162.929 70.0075 162.941 69.9984 162.954 69.9893H163.035L163.277 71.0401H166.106V65.4223C166.106 64.6005 165.992 63.8932 165.763 63.3004C165.547 62.6942 165.23 62.2025 164.813 61.8253C164.409 61.4346 163.91 61.1517 163.317 60.9765C162.738 60.7879 162.091 60.6936 161.377 60.6936C160.529 60.6936 159.707 60.8081 158.912 61.0371C158.36 61.1962 157.815 61.404 157.276 61.6604C157.18 61.706 157.084 61.7531 156.989 61.8018C156.848 61.8736 156.708 61.9488 156.568 62.0273L157.78 64.2906C158.387 64.0077 158.912 63.7989 159.357 63.6642C159.815 63.516 160.259 63.4419 160.69 63.4419C161.256 63.4419 161.701 63.5295 162.024 63.7046C162.042 63.713 162.059 63.7217 162.076 63.7307C162.382 63.8939 162.567 64.1479 162.63 64.4927C162.35 64.509 162.081 64.5284 161.821 64.551C161.007 64.6218 160.293 64.7236 159.68 64.8565C158.872 65.0316 158.212 65.2741 157.7 65.5839C157.201 65.8803 156.831 66.2441 156.588 66.6752C156.359 67.1063 156.245 67.6047 156.245 68.1706C156.245 68.5882 156.312 68.9856 156.447 69.3628C156.595 69.74 156.81 70.0701 157.093 70.353C157.376 70.6359 157.72 70.865 158.124 71.0401C158.528 71.2018 158.993 71.2826 159.518 71.2826C160.152 71.2826 160.758 71.1613 161.337 70.9188C161.677 70.7688 162.002 70.6002 162.314 70.4131ZM161.24 67.4993L161.23 67.5011C160.883 67.5609 160.664 67.6361 160.538 67.703C160.465 67.7416 160.417 67.7748 160.386 67.7995C160.45 67.8102 160.536 67.818 160.65 67.818C160.95 67.818 161.194 67.7646 161.398 67.6734C161.551 67.5962 161.696 67.5144 161.833 67.4284V67.4107C161.611 67.4348 161.418 67.4638 161.251 67.4972L161.24 67.4993ZM161.833 66.6092C161.556 66.637 161.31 66.6725 161.095 66.7156C160.704 66.7829 160.394 66.8773 160.165 66.9985C159.936 67.1197 159.774 67.2545 159.68 67.4027C159.599 67.5508 159.559 67.7125 159.559 67.8876C159.559 68.3726 159.923 68.6151 160.65 68.6151C161.054 68.6151 161.418 68.541 161.741 68.3929C162.065 68.2312 162.361 68.0493 162.63 67.8472V66.554C162.341 66.5666 162.076 66.5849 161.833 66.6092ZM166.999 60.139H171.058L171.111 60.4054C171.604 60.0384 172.219 59.8965 172.868 59.8965C173.48 59.8965 174.031 60.1097 174.476 60.5288C174.542 60.5875 174.605 60.6492 174.663 60.7139C174.709 60.6693 174.756 60.6256 174.804 60.5828C175.337 60.109 176 59.8965 176.728 59.8965C177.713 59.8965 178.514 60.337 179.049 61.1627C179.569 61.9304 179.788 62.9044 179.788 64.0077V71.8372H166.999V60.139ZM171.069 64.4119C171.245 63.8999 171.447 63.644 171.676 63.644C171.945 63.644 172.08 63.8461 172.08 64.2502V71.0401H174.707V64.4119C174.882 63.8999 175.104 63.644 175.374 63.644C175.603 63.644 175.717 63.8461 175.717 64.2502V71.0401H178.991V64.0077C178.991 62.9973 178.789 62.1957 178.385 61.603C177.994 60.9967 177.442 60.6936 176.728 60.6936C176.162 60.6936 175.697 60.8553 175.333 61.1786C175.253 61.2499 175.178 61.3239 175.108 61.4005C174.862 61.671 174.681 61.9743 174.565 62.3103C174.484 61.9158 174.347 61.5936 174.152 61.3434C174.087 61.2603 174.016 61.1852 173.939 61.118C173.643 60.8351 173.286 60.6936 172.868 60.6936C172.262 60.6936 171.797 60.8418 171.474 61.1382C171.41 61.1968 171.349 61.2573 171.29 61.3196C171.059 61.5677 170.873 61.8449 170.734 62.1513C170.731 62.1572 170.728 62.163 170.726 62.1688H170.645L170.403 60.9361H167.796V71.0401H171.069V64.4119Z" fill="black"/>
<path d="M97.0344 14.6294C97.6272 14.9797 98.2065 15.2558 98.7723 15.4579C99.3381 15.66 99.9174 15.761 100.51 15.761C101.116 15.761 101.541 15.7139 101.783 15.6196C102.026 15.5118 102.147 15.3569 102.147 15.1548C102.147 15.0201 102.08 14.9056 101.945 14.8113C101.81 14.7035 101.628 14.6092 101.399 14.5283C101.17 14.434 100.901 14.3465 100.591 14.2656C100.295 14.1713 99.9848 14.077 99.6615 13.9827C99.2438 13.8615 98.8262 13.72 98.4086 13.5584C97.9909 13.3832 97.6137 13.1744 97.2769 12.9319C96.9401 12.6894 96.664 12.4132 96.4484 12.1034C96.2328 11.7801 96.1251 11.4096 96.1251 10.992C96.1251 10.4935 96.2396 10.0422 96.4686 9.63802C96.6976 9.23386 97.021 8.89033 97.4386 8.60742C97.8697 8.3245 98.3816 8.10895 98.9744 7.96076C99.5672 7.7991 100.234 7.71827 100.975 7.71827C101.931 7.71827 102.78 7.87319 103.521 8.18305C104.262 8.47943 104.902 8.79602 105.441 9.13282L103.905 11.194C103.434 10.9246 102.962 10.7023 102.491 10.5272C102.019 10.352 101.541 10.2645 101.056 10.2645C100.53 10.2645 100.153 10.3116 99.9242 10.4059C99.6951 10.4868 99.5806 10.6282 99.5806 10.8303C99.5806 10.965 99.6413 11.0795 99.7625 11.1738C99.8972 11.2681 100.072 11.3557 100.288 11.4365C100.517 11.5174 100.773 11.5982 101.056 11.679C101.352 11.7599 101.662 11.8407 101.985 11.9215C102.416 12.0428 102.848 12.1842 103.279 12.3459C103.71 12.4941 104.094 12.6894 104.431 12.9319C104.781 13.1609 105.064 13.4439 105.279 13.7807C105.495 14.104 105.603 14.4947 105.603 14.9527C105.603 15.4242 105.488 15.8688 105.259 16.2864C105.044 16.6906 104.713 17.0476 104.269 17.3575C103.838 17.6538 103.299 17.8896 102.652 18.0647C102.019 18.2264 101.278 18.3072 100.429 18.3072C99.5537 18.3072 98.6713 18.159 97.7821 17.8627C96.9064 17.5663 96.1453 17.2025 95.4986 16.7714L97.0344 14.6294Z" fill="black"/>
<path d="M117.437 18.0647H114.607L114.365 16.731H114.284C113.853 17.216 113.375 17.6 112.849 17.8829C112.337 18.1658 111.724 18.3072 111.01 18.3072C109.879 18.3072 109.064 17.9368 108.565 17.1958C108.067 16.4414 107.818 15.4377 107.818 14.1848V7.96076H111.293V13.7402C111.293 14.3061 111.367 14.717 111.516 14.9729C111.677 15.2289 111.987 15.3569 112.445 15.3569C112.742 15.3569 112.998 15.303 113.213 15.1952C113.442 15.074 113.691 14.8315 113.961 14.4677V7.96076H117.437V18.0647Z" fill="black"/>
<path d="M120.096 4H123.572V7.27369L123.491 8.72866C123.855 8.40534 124.259 8.1561 124.704 7.98097C125.148 7.80583 125.599 7.71827 126.057 7.71827C126.664 7.71827 127.216 7.83951 127.715 8.08201C128.213 8.3245 128.637 8.66804 128.988 9.11261C129.338 9.55719 129.607 10.0961 129.796 10.7293C129.985 11.3624 130.079 12.063 130.079 12.8309C130.079 13.7066 129.958 14.4879 129.715 15.175C129.473 15.8486 129.149 16.4212 128.745 16.8927C128.354 17.3507 127.896 17.701 127.371 17.9435C126.859 18.186 126.327 18.3072 125.775 18.3072C125.317 18.3072 124.865 18.1995 124.421 17.9839C123.976 17.7549 123.558 17.4181 123.168 16.9735H123.087L122.804 18.0647H120.096V4ZM123.572 14.9931C123.787 15.1817 124.01 15.3097 124.239 15.3771C124.481 15.4444 124.717 15.4781 124.946 15.4781C125.162 15.4781 125.364 15.4377 125.552 15.3569C125.741 15.2626 125.903 15.1144 126.037 14.9123C126.185 14.7102 126.3 14.4475 126.381 14.1242C126.475 13.7874 126.522 13.3765 126.522 12.8915C126.522 12.0562 126.394 11.4567 126.138 11.093C125.896 10.7293 125.525 10.5474 125.027 10.5474C124.757 10.5474 124.508 10.6013 124.279 10.709C124.05 10.8168 123.814 11.0054 123.572 11.2749V14.9931Z" fill="black"/>
<path d="M133.385 14.6294C133.978 14.9797 134.557 15.2558 135.123 15.4579C135.689 15.66 136.268 15.761 136.861 15.761C137.467 15.761 137.891 15.7139 138.134 15.6196C138.376 15.5118 138.498 15.3569 138.498 15.1548C138.498 15.0201 138.43 14.9056 138.296 14.8113C138.161 14.7035 137.979 14.6092 137.75 14.5283C137.521 14.434 137.252 14.3465 136.942 14.2656C136.645 14.1713 136.335 14.077 136.012 13.9827C135.594 13.8615 135.177 13.72 134.759 13.5584C134.342 13.3832 133.964 13.1744 133.628 12.9319C133.291 12.6894 133.015 12.4132 132.799 12.1034C132.583 11.7801 132.476 11.4096 132.476 10.992C132.476 10.4935 132.59 10.0422 132.819 9.63802C133.048 9.23386 133.372 8.89033 133.789 8.60742C134.22 8.3245 134.732 8.10895 135.325 7.96076C135.918 7.7991 136.585 7.71827 137.326 7.71827C138.282 7.71827 139.131 7.87319 139.872 8.18305C140.613 8.47943 141.253 8.79602 141.792 9.13282L140.256 11.194C139.784 10.9246 139.313 10.7023 138.841 10.5272C138.37 10.352 137.891 10.2645 137.406 10.2645C136.881 10.2645 136.504 10.3116 136.275 10.4059C136.046 10.4868 135.931 10.6282 135.931 10.8303C135.931 10.965 135.992 11.0795 136.113 11.1738C136.248 11.2681 136.423 11.3557 136.639 11.4365C136.868 11.5174 137.124 11.5982 137.406 11.679C137.703 11.7599 138.013 11.8407 138.336 11.9215C138.767 12.0428 139.198 12.1842 139.629 12.3459C140.06 12.4941 140.444 12.6894 140.781 12.9319C141.131 13.1609 141.414 13.4439 141.63 13.7807C141.845 14.104 141.953 14.4947 141.953 14.9527C141.953 15.4242 141.839 15.8688 141.61 16.2864C141.394 16.6906 141.064 17.0476 140.62 17.3575C140.188 17.6538 139.65 17.8896 139.003 18.0647C138.37 18.2264 137.629 18.3072 136.78 18.3072C135.904 18.3072 135.022 18.159 134.133 17.8627C133.257 17.5663 132.496 17.2025 131.849 16.7714L133.385 14.6294Z" fill="black"/>
<path d="M146.31 10.6686H143.885V8.08201L146.472 7.96076L146.917 5.33373H149.786V7.96076H153.787V10.6686H149.786V13.72C149.786 14.4475 149.948 14.946 150.271 15.2154C150.608 15.4714 151.1 15.5994 151.746 15.5994C152.096 15.5994 152.42 15.5724 152.716 15.5185C153.026 15.4512 153.316 15.3703 153.585 15.276L154.191 17.7818C153.747 17.9031 153.248 18.0176 152.696 18.1254C152.144 18.2466 151.524 18.3072 150.837 18.3072C150.002 18.3072 149.294 18.1995 148.715 17.9839C148.149 17.7684 147.684 17.4652 147.321 17.0746C146.97 16.6704 146.714 16.1921 146.553 15.6398C146.391 15.074 146.31 14.4543 146.31 13.7807V10.6686Z" fill="black"/>
<path d="M157.255 7.96076H160.104L160.367 10.1028H160.448C160.933 9.26754 161.519 8.6613 162.206 8.28409C162.893 7.90687 163.621 7.71827 164.389 7.71827C164.86 7.71827 165.224 7.75868 165.48 7.83951C165.749 7.90687 166.025 8.00118 166.308 8.12242L165.621 11.0324C165.311 10.9381 165.028 10.8707 164.772 10.8303C164.53 10.7764 164.227 10.7495 163.863 10.7495C163.284 10.7495 162.711 10.9246 162.145 11.2749C161.58 11.6117 161.108 12.2044 160.731 13.0532V18.0647H157.255V7.96076Z" fill="black"/>
<path d="M168.362 15.1952C168.362 14.6294 168.476 14.1309 168.705 13.6998C168.948 13.2687 169.318 12.905 169.817 12.6086C170.328 12.2987 170.989 12.0562 171.797 11.8811C172.605 11.706 173.589 11.5847 174.747 11.5174C174.68 11.1536 174.478 10.8909 174.141 10.7293C173.818 10.5541 173.373 10.4665 172.807 10.4665C172.376 10.4665 171.932 10.5406 171.474 10.6888C171.029 10.8236 170.504 11.0324 169.897 11.3153L168.685 9.05199C169.453 8.62089 170.234 8.29082 171.029 8.0618C171.824 7.83278 172.646 7.71827 173.494 7.71827C174.208 7.71827 174.855 7.81257 175.434 8.00118C176.027 8.17631 176.526 8.45922 176.93 8.84991C177.347 9.22713 177.664 9.71885 177.88 10.3251C178.109 10.9179 178.223 11.6251 178.223 12.4469V18.0647H175.394L175.151 17.0139H175.071C174.572 17.3777 174.033 17.6875 173.454 17.9435C172.875 18.186 172.268 18.3072 171.635 18.3072C171.11 18.3072 170.645 18.2264 170.241 18.0647C169.837 17.8896 169.493 17.6606 169.21 17.3777C168.927 17.0948 168.712 16.7647 168.564 16.3875C168.429 16.0103 168.362 15.6128 168.362 15.1952ZM171.676 14.9123C171.676 15.3973 172.039 15.6398 172.767 15.6398C173.171 15.6398 173.535 15.5657 173.858 15.4175C174.181 15.2558 174.478 15.074 174.747 14.8719V13.5786C174.128 13.6055 173.616 13.6594 173.211 13.7402C172.821 13.8076 172.511 13.9019 172.282 14.0232C172.053 14.1444 171.891 14.2791 171.797 14.4273C171.716 14.5755 171.676 14.7372 171.676 14.9123Z" fill="black"/>
<path d="M182.661 10.6686H180.236V8.08201L182.823 7.96076L183.267 5.33373H186.137V7.96076H190.138V10.6686H186.137V13.72C186.137 14.4475 186.298 14.946 186.622 15.2154C186.958 15.4714 187.45 15.5994 188.097 15.5994C188.447 15.5994 188.77 15.5724 189.067 15.5185C189.377 15.4512 189.666 15.3703 189.936 15.276L190.542 17.7818C190.097 17.9031 189.599 18.0176 189.047 18.1254C188.494 18.2466 187.875 18.3072 187.188 18.3072C186.352 18.3072 185.645 18.1995 185.066 17.9839C184.5 17.7684 184.035 17.4652 183.671 17.0746C183.321 16.6704 183.065 16.1921 182.903 15.6398C182.742 15.074 182.661 14.4543 182.661 13.7807V10.6686Z" fill="black"/>
<path d="M192.515 13.0128C192.515 12.191 192.663 11.45 192.959 10.7899C193.255 10.1297 193.646 9.5774 194.131 9.13282C194.63 8.67478 195.195 8.3245 195.829 8.08201C196.475 7.83951 197.135 7.71827 197.809 7.71827C198.604 7.71827 199.298 7.84625 199.89 8.10222C200.497 8.35818 201.002 8.70845 201.406 9.15303C201.81 9.59761 202.113 10.1163 202.315 10.709C202.517 11.3018 202.618 11.935 202.618 12.6086C202.618 12.9184 202.598 13.2081 202.558 13.4775C202.531 13.747 202.504 13.9423 202.477 14.0636H196.071C196.125 14.3734 196.233 14.6361 196.394 14.8517C196.556 15.0538 196.751 15.2154 196.98 15.3367C197.223 15.4579 197.486 15.5455 197.769 15.5994C198.052 15.6533 198.348 15.6802 198.658 15.6802C199.062 15.6802 199.453 15.6331 199.83 15.5387C200.22 15.431 200.638 15.276 201.083 15.074L202.214 17.1352C201.608 17.5259 200.941 17.8222 200.214 18.0243C199.486 18.2129 198.806 18.3072 198.173 18.3072C197.378 18.3072 196.63 18.1927 195.93 17.9637C195.243 17.7212 194.643 17.3777 194.131 16.9331C193.633 16.475 193.235 15.916 192.939 15.2558C192.656 14.5957 192.515 13.848 192.515 13.0128ZM199.466 11.8003C199.466 11.3961 199.352 11.0526 199.123 10.7697C198.893 10.4868 198.483 10.3453 197.89 10.3453C197.459 10.3453 197.068 10.4598 196.718 10.6888C196.381 10.9044 196.152 11.2749 196.031 11.8003H199.466Z" fill="black"/>
<path fill-rule="evenodd" clip-rule="evenodd" d="M50.0409 7.63918C50.7717 8.88039 50.6791 10.5471 49.953 12.2533L49.8331 12.5351L45.6838 14.9373L45.5876 14.9677C44.6808 15.254 44.3109 15.884 44.3059 16.514C44.3007 17.1734 44.7015 18.018 45.75 18.6143L57.2873 24.6393L75.018 14.7599L75.142 14.7305C76.6956 14.3625 78.1313 14.7947 78.9559 15.9832C79.747 17.1233 79.8101 18.7254 79.2166 20.3948L79.1045 20.7099L66.6483 28.0212C66.2965 28.3706 66.2045 28.7806 66.2569 29.2213C66.3092 29.6602 66.5066 30.0879 66.7119 30.376L79.0838 37.6378L79.2013 37.9249C79.5554 38.7907 79.7999 40.1064 79.8437 41.4825C79.8877 42.8637 79.7336 44.4173 79.2039 45.7413L79.088 46.0312L66.5344 53.4679L66.5051 53.4825C66.3944 53.5379 66.1823 53.8007 66.2585 54.5404C66.2911 54.8565 66.3734 55.1671 66.4741 55.4095C66.5547 55.6035 66.6192 55.6885 66.6345 55.7107L78.8672 62.9572L78.9112 62.9911C79.2155 63.2252 79.3837 63.5563 79.483 63.8111C79.5901 64.0862 79.6639 64.3973 79.7161 64.7108C79.8211 65.3404 79.8571 66.0915 79.844 66.8327C79.8309 67.5779 79.7675 68.3454 79.6611 69.0152C79.56 69.6511 79.4042 70.3094 79.1541 70.7597L79.0356 70.9729L68.957 77.0749L68.8715 77.1059C66.8731 77.8287 65.0847 76.9886 64.1961 75.5954C63.3137 74.2118 63.3071 72.2481 64.7989 70.844L64.863 70.7836L69.4872 67.8596L69.5078 67.848C69.582 67.8062 69.7676 67.5871 69.7402 67.0189C69.7158 66.5132 69.5327 66.1339 69.4056 65.9914L57.2881 58.8485L39.1802 68.9157L39.0511 68.9448C37.3784 69.3211 35.8628 68.7157 34.9817 67.5669C34.1009 66.4185 33.9101 64.7998 34.7067 63.2903L34.8299 63.0569L47.455 55.737C48.1322 54.9305 48.0106 53.864 47.4998 53.4052L34.9111 45.5708L34.8178 45.4606C34.6171 45.2233 34.4926 44.9354 34.4094 44.6842C34.322 44.4202 34.2573 44.1251 34.2091 43.8216C34.1127 43.2141 34.0716 42.5017 34.076 41.7892C34.0804 41.0743 34.1307 40.335 34.2257 39.6697C34.3183 39.0214 34.4622 38.3781 34.6829 37.8927L34.8052 37.6236L47.4007 30.3878C47.8031 29.7749 47.9232 29.3757 47.9232 29.08C47.9232 28.8027 47.8168 28.4686 47.4273 27.9797L35.151 20.2744C34.9827 20.2126 34.8493 20.116 34.7539 20.0247C34.6049 19.8822 34.5094 19.7194 34.4481 19.5942C34.3247 19.3419 34.2441 19.0405 34.1873 18.7553C34.0705 18.1686 34.0098 17.4166 34.0011 16.6673C33.9924 15.9149 34.0355 15.1195 34.1437 14.4425C34.1976 14.1051 34.2714 13.7736 34.3735 13.482C34.4672 13.2143 34.621 12.8717 34.896 12.6178L34.9679 12.5515L45.935 6.0802L46.1167 6.05484C47.7991 5.82009 49.2744 6.33726 50.0409 7.63918ZM46.5445 7.8531C47.6143 7.74759 48.1898 8.11517 48.4582 8.57105C48.7556 9.07603 48.856 9.97974 48.3741 11.2575L44.9332 13.2496C43.3714 13.784 42.4807 15.0619 42.4693 16.4994C42.4579 17.9358 43.3196 19.352 44.8599 20.2209L44.8728 20.2282L57.3156 26.7261L75.6826 16.4921C76.591 16.3108 77.1517 16.6047 77.4469 17.0302C77.7613 17.4832 77.9303 18.3069 77.5865 19.4713L65.5493 26.5366L65.4801 26.5989C64.5495 27.4364 64.322 28.5044 64.4331 29.4384C64.54 30.3356 64.9568 31.1477 65.389 31.6663L65.4915 31.7893L77.6019 38.8976C77.8049 39.5241 77.974 40.4747 78.008 41.541C78.0437 42.6616 77.9267 43.8185 77.6028 44.7763L65.651 51.8565C64.46 52.4758 64.3421 53.861 64.4315 54.7287C64.4822 55.2203 64.6081 55.7049 64.778 56.114C64.9308 56.4821 65.1805 56.9393 65.5678 57.2104L65.5964 57.2304L77.7522 64.4314C77.7578 64.4439 77.7643 64.4592 77.7715 64.4777C77.8166 64.5935 77.8641 64.7705 77.9045 65.0128C77.9848 65.4949 78.0196 66.126 78.0077 66.8003C77.9958 67.4706 77.9385 68.1519 77.8471 68.727C77.7787 69.1581 77.699 69.4758 77.6289 69.6775L68.1667 75.4064C67.0715 75.7664 66.194 75.3124 65.7446 74.6077C65.29 73.8951 65.2846 72.9585 65.9997 72.238L70.4316 69.4354C71.4032 68.8729 71.6136 67.7381 71.5747 66.9305C71.5349 66.1034 71.2201 65.1074 70.5459 64.5456L70.4886 64.4978L57.3148 56.7322L38.527 67.1774C37.5926 67.3462 36.8557 66.9924 36.4391 66.4491C36.0408 65.9299 35.888 65.1766 36.2255 64.3708L48.6189 57.1852L48.7109 57.0875C50.0577 55.6566 50.1913 53.224 48.6213 51.9484L48.5765 51.912L36.188 44.2021C36.1778 44.1774 36.1659 44.1459 36.1529 44.1068C36.1064 43.9662 36.0613 43.7746 36.0231 43.5338C35.9467 43.0526 35.9087 42.4452 35.9126 41.8005C35.9166 41.1582 35.962 40.5027 36.0439 39.9294C36.1045 39.505 36.1806 39.1588 36.2604 38.9058L48.6784 31.772L48.7961 31.6028C49.3691 30.7791 49.7599 29.9574 49.7599 29.08C49.7599 28.178 49.3491 27.4077 48.7446 26.6899L48.6521 26.58L36.0564 18.6742C36.0365 18.6093 36.0128 18.5181 35.9886 18.3965C35.9015 17.959 35.8456 17.3288 35.8376 16.6459C35.8297 15.9661 35.8699 15.2794 35.9573 14.7324C36.0012 14.4578 36.0534 14.2418 36.1069 14.0889C36.1222 14.0453 36.1356 14.0125 36.1463 13.9887L46.5445 7.8531ZM57.3151 31.5503L69.8297 38.9895L69.8902 39.0415C70.7715 39.7983 71.5536 40.6483 71.5743 41.7406C71.5948 42.8186 70.8645 43.7527 69.9322 44.6596L69.8447 44.7448L56.6934 52.0511L44.002 44.7291L43.9092 44.6304C43.0452 43.7113 42.394 42.7869 42.4122 41.7422C42.4306 40.6825 43.1298 39.8387 43.9497 39.0687L44.0315 38.9919L57.3151 31.5503ZM45.1272 40.4832C44.3975 41.1836 44.2525 41.5448 44.2486 41.7741C44.2443 42.0172 44.391 42.4409 45.1569 43.275L56.7105 49.9405L68.7371 43.2591C69.5971 42.4053 69.742 41.988 69.738 41.7755C69.7342 41.5752 69.5888 41.2145 68.7527 40.486L57.2879 33.6708L45.1272 40.4832Z" fill="black"/>
</svg>
