<svg width="236" height="80" viewBox="0 0 236 80" fill="none" xmlns="http://www.w3.org/2000/svg">
<path d="M48.5344 14.4148L52.13 25.3501L55.2067 14.4148H60.73L55.0214 32.838H49.424L45.4206 20.9389L41.4913 32.838H35.7827L30 14.4148H35.8569L38.9336 25.3093L42.5663 14.4111L48.5344 14.4148Z" fill="black"/>
<path d="M79.8187 27.5331C78.9291 30.721 76.0007 33.39 71.33 33.39C66.2516 33.39 61.7292 29.7572 61.7292 23.5667C61.7292 17.6358 66.1404 13.8547 70.9222 13.8547C76.6308 13.8547 80.1524 17.3763 80.1524 23.3073C80.1585 23.89 80.1213 24.4723 80.0412 25.0495H67.2154C67.3266 27.1253 69.2171 28.6081 71.4041 28.6081C73.4429 28.6081 74.592 27.6443 75.111 26.1986L79.8187 27.5331ZM74.7033 21.4168C74.6291 20.0081 73.6653 18.303 70.9964 18.303C68.624 18.303 67.4378 20.0452 67.3266 21.4168H74.7033Z" fill="black"/>
<path d="M83.7921 32.8378V6H89.3153V16.1568C90.0937 15.0077 92.1325 13.9698 94.6532 13.9698C99.9911 13.9698 103.216 18.0473 103.216 23.5706C103.216 29.205 99.5833 33.2455 94.4308 33.2455C91.9842 33.2455 90.0937 32.1705 89.2412 30.7619V32.8378H83.7921ZM93.4299 19.0482C91.2429 19.0482 89.2412 20.4939 89.2412 23.6077C89.2412 26.6473 91.2429 28.2042 93.4299 28.2042C95.617 28.2042 97.5816 26.6844 97.5816 23.6077C97.5816 20.5309 95.617 19.0482 93.4299 19.0482Z" fill="black"/>
<path d="M110.62 18.5298L116.551 13.6738H106.505V8.78076H123.857V13.3031L117.926 17.896C119.78 18.0132 121.517 18.8422 122.775 20.2099C124.032 21.5776 124.712 23.3782 124.673 25.2356C124.673 29.4985 121.151 33.3536 115.22 33.3536C109.619 33.3536 106.061 29.758 105.69 25.6433L111.328 24.6054C111.402 26.7183 112.922 28.3864 115.183 28.3864C117.444 28.3864 118.779 26.8666 118.779 25.0873C118.779 22.789 116.999 21.8253 115.294 21.8253C114.544 21.8418 113.808 22.0321 113.144 22.3813L110.62 18.5298Z" fill="black"/>
<path d="M131.343 25.5728C132.348 25.5756 133.312 25.9738 134.027 26.6813C134.741 27.3888 135.149 28.3489 135.161 29.3543C135.161 30.3621 134.761 31.3287 134.048 32.0414C133.336 32.754 132.369 33.1544 131.361 33.1544C130.353 33.1544 129.387 32.754 128.674 32.0414C127.962 31.3287 127.561 30.3621 127.561 29.3543C127.565 28.3526 127.965 27.393 128.673 26.6847C129.381 25.9763 130.341 25.5767 131.343 25.5728V25.5728Z" fill="black"/>
<path d="M140.17 12.3356C141.763 9.92611 144.432 8.22095 148.325 8.22095C152.217 8.22095 154.923 9.92611 156.517 12.3356C158.185 14.8563 158.63 17.8588 158.63 20.8243C158.63 23.7898 158.185 26.7924 156.517 29.3131C154.923 31.6855 152.254 33.4277 148.325 33.4277C144.395 33.4277 141.763 31.6855 140.17 29.3131C138.501 26.7924 138.053 23.7898 138.053 20.8243C138.053 17.8588 138.501 14.86 140.17 12.3356ZM144.803 26.051C145.47 27.3855 146.545 28.2751 148.325 28.2751C150.104 28.2751 151.179 27.3855 151.846 26.051C152.55 24.6424 152.773 22.7519 152.773 20.8243C152.773 18.8967 152.55 17.0062 151.846 15.5976C151.179 14.2632 150.141 13.3735 148.325 13.3735C146.508 13.3735 145.47 14.2632 144.803 15.5976C144.136 17.0062 143.913 18.8967 143.913 20.8243C143.913 22.7519 144.136 24.6461 144.803 26.051Z" fill="black"/>
<path d="M32.0732 66.9415V40.1038H37.5965V50.2606C38.3749 49.1115 40.4137 48.0735 42.9344 48.0735C48.2723 48.0735 51.4973 52.1511 51.4973 57.6743C51.4973 63.3088 47.8645 67.3493 42.712 67.3493C40.2654 67.3493 38.3749 66.2743 37.5223 64.8657V66.9415H32.0732ZM41.7111 53.152C39.5241 53.152 37.5223 54.5976 37.5223 57.7114C37.5223 60.7511 39.5241 62.3079 41.7111 62.3079C43.8982 62.3079 45.8628 60.7881 45.8628 57.7114C45.8628 54.6347 43.8982 53.152 41.7111 53.152Z" fill="black"/>
<path d="M73.3683 57.7108C73.3683 63.4193 69.1054 67.4969 63.5822 67.4969C58.0589 67.4969 53.796 63.4193 53.796 57.7108C53.796 52.0022 58.096 47.9617 63.5822 47.9617C69.0683 47.9617 73.3683 51.9985 73.3683 57.7108ZM67.7339 57.7108C67.7339 54.597 65.7322 53.1513 63.5822 53.1513C61.4322 53.1513 59.4305 54.597 59.4305 57.7108C59.4305 60.8245 61.4692 62.3073 63.5822 62.3073C65.6951 62.3073 67.7339 60.8245 67.7339 57.7108V57.7108Z" fill="black"/>
<path d="M95.2431 57.7108C95.2431 63.4193 90.9802 67.4969 85.4569 67.4969C79.9337 67.4969 75.6708 63.4193 75.6708 57.7108C75.6708 52.0022 79.9707 47.9617 85.4569 47.9617C90.9431 47.9617 95.2431 51.9985 95.2431 57.7108ZM89.6086 57.7108C89.6086 54.597 87.6069 53.1513 85.4569 53.1513C83.3069 53.1513 81.3052 54.597 81.3052 57.7108C81.3052 60.8245 83.344 62.3073 85.4569 62.3073C87.5698 62.3073 89.6086 60.8245 89.6086 57.7108V57.7108Z" fill="black"/>
<path d="M105.582 48.5185H109.178V53.4487H105.582V60.3435C105.582 61.8633 106.398 62.271 107.621 62.271C108.12 62.2627 108.617 62.2006 109.104 62.0857V66.7563C108.881 66.8676 107.954 67.2753 106.175 67.2753C102.357 67.2753 100.022 65.0141 100.022 61.3443V53.4487H96.7597V48.5185H97.6864C99.614 48.5185 100.541 47.2211 100.541 45.516V43.1436H105.582V48.5185Z" fill="black"/>
<path d="M117.296 57.7478C117.296 60.6762 119.26 62.3073 121.596 62.3073C122.448 62.3448 123.287 62.0947 123.98 61.5972C124.672 61.0996 125.177 60.3835 125.414 59.5642L130.381 61.084C129.565 64.309 126.526 67.4969 121.596 67.4969C116.109 67.4969 111.698 63.4564 111.698 57.7478C111.698 52.0392 115.998 47.9617 121.41 47.9617C126.489 47.9617 129.454 51.0754 130.27 54.3746L125.228 55.8944C125.025 55.0777 124.544 54.3572 123.868 53.8566C123.191 53.356 122.362 53.1066 121.521 53.1513C119.186 53.1513 117.296 54.7823 117.296 57.7478Z" fill="black"/>
<path d="M138.128 56.3021L142.465 55.6349C143.466 55.4866 143.799 55.0047 143.799 54.3746C143.799 53.2996 142.873 52.3728 141.093 52.3728C139.129 52.3728 138.05 53.7073 137.942 55.0789L133.046 54.078C133.268 51.4461 135.715 47.9617 141.13 47.9617C147.098 47.9617 149.285 51.2979 149.285 55.0789V64.0866C149.284 65.0424 149.359 65.9968 149.508 66.9409H144.429C144.288 66.2584 144.225 65.5618 144.244 64.865C143.28 66.4219 141.501 67.4598 139.055 67.4598C135.01 67.4598 132.675 64.7909 132.675 61.8625C132.675 58.6004 135.084 56.747 138.128 56.3021ZM143.799 59.7125V58.897L140.315 59.453C139.129 59.6383 138.235 60.1944 138.235 61.4918C138.235 62.4556 138.869 63.3823 140.426 63.3823C142.094 63.3823 143.799 62.5668 143.799 59.7125Z" fill="black"/>
<path d="M153.543 66.9409V48.5177H158.918V50.6306C159.844 48.9996 162.217 47.9617 164.219 47.9617C166.854 47.9617 168.745 49.0367 169.671 50.853C171.117 48.7772 172.896 47.9617 175.38 47.9617C178.864 47.9617 182.201 50.0005 182.201 55.0047V66.9409H176.752V56.2651C176.752 54.5228 175.825 53.1513 173.823 53.1513C171.821 53.1513 170.746 54.6711 170.746 56.3021V66.9409H165.186V56.2651C165.186 54.5228 164.259 53.1513 162.221 53.1513C160.256 53.1513 159.181 54.6711 159.181 56.3392V66.9409H153.543Z" fill="black"/>
<path d="M186.576 73.9845V48.5183H192.025V50.4088C192.804 49.2226 194.805 48.0735 197.437 48.0735C202.775 48.0735 206 52.151 206 57.6743C206 63.3087 202.367 67.3492 197.215 67.3492C194.842 67.3492 193.063 66.5337 192.21 65.4958V73.9845H186.576ZM196.288 53.1519C194.101 53.1519 192.136 54.6347 192.136 57.7114C192.136 60.7881 194.101 62.3079 196.288 62.3079C198.475 62.3079 200.477 60.7881 200.477 57.7114C200.477 54.6347 198.512 53.1519 196.288 53.1519Z" fill="black"/>
</svg>
